<?xml version="1.0" standalone="no"?>
<!DOCTYPE svg PUBLIC "-//W3C//DTD SVG 1.1//EN" "http://www.w3.org/Graphics/SVG/1.1/DTD/svg11.dtd" >
<svg xmlns="http://www.w3.org/2000/svg" xmlns:xlink="http://www.w3.org/1999/xlink" version="1.1">
<metadata>
Created by Christoph Koeberlin (http://christoph.koe.berlin)
Copyright (c) 2014 Swiss Typefaces Sa`rl. All rights reserved.
</metadata>
<defs>
<font id="EuclidFlex_Regular" horiz-adv-x="240" >
  <font-face
    font-family="EuclidFlex"
    font-weight="400"
    font-stretch="normal"
    units-per-em="1000"
    panose-1="2 11 5 0 3 0 0 0 0 0"
    ascent="800"
    descent="-200"
    x-height="500"
    cap-height="710"
    bbox="-200 -230 1445 940"
    underline-thickness="75"
    underline-position="-16"
    unicode-range="U+0020-FB02"
  />
<missing-glyph horiz-adv-x="500"
d="M0 710h500v-710h-500v710zM19 682v-654l220 327zM481 28v654l-221 -327zM34 19h432l-216 320zM250 370l216 321h-432z" />
    <glyph glyph-name="f_t" unicode="ft" horiz-adv-x="636"
d="M194 0h-85v422h-87v78h84q-17 17 -27 39.5t-10 48.5t10.5 48.5t29.5 39t46 25.5t60 9h104v-78h-90q-32 0 -54 -15.5t-22 -47.5q0 -35 21.5 -52t47.5 -17h142v107l86 43v-150h151l-19 -78h-132v-264q0 -38 16 -59t58 -21h67v-78h-76q-72 0 -111.5 36.5t-39.5 108.5v277
h-170v-422z" />
    <glyph glyph-name="t_f" unicode="tf" horiz-adv-x="642"
d="M0 500h99v107l86 43v-150h206q-17 17 -26.5 39.5t-9.5 48.5t10.5 48.5t29.5 39t46 25.5t60 9h117v-78h-103q-32 0 -54 -15.5t-22 -47.5q0 -35 21 -52t47 -17h111v-78h-139v-422h-85v422h-209v-264q0 -38 16 -59t58 -21h67v-78h-76q-72 0 -111.5 36.5t-39.5 108.5v277h-80
z" />
    <glyph glyph-name="t_t" unicode="tt" horiz-adv-x="648"
d="M0 500h99v107l86 43v-150h191v107l86 43v-150h151l-19 -78h-132v-264q0 -38 16 -59t58 -21h67v-78h-76q-72 0 -111.5 36.5t-39.5 108.5v277h-191v-264q0 -38 16 -59t58 -21h67v-78h-76q-72 0 -111.5 36.5t-39.5 108.5v277h-80z" />
    <glyph glyph-name=".notdef" horiz-adv-x="500"
d="M0 710h500v-710h-500v710zM19 682v-654l220 327zM481 28v654l-221 -327zM34 19h432l-216 320zM250 370l216 321h-432z" />
    <glyph glyph-name=".null" horiz-adv-x="0"
 />
    <glyph glyph-name="nonmarkingreturn" horiz-adv-x="0"
 />
    <glyph glyph-name="space" unicode=" " horiz-adv-x="252"
 />
    <glyph glyph-name="exclam" unicode="!" horiz-adv-x="260"
d="M87 417v293h87v-293l-16 -197h-55zM129 -8q-30 0 -51.5 21.5t-21.5 52.5q0 20 9 36t25 26h80q15 -10 24.5 -26t9.5 -36q0 -31 -21.5 -52.5t-53.5 -21.5z" />
    <glyph glyph-name="quotedbl" unicode="&#x22;" horiz-adv-x="414"
d="M67 710h78v-245h-78v245zM269 710h78v-245h-78v245z" />
    <glyph glyph-name="numbersign" unicode="#" horiz-adv-x="758"
d="M419 200h-181l-62 -200h-79l62 200h-115v73h138l54 171h-119v73h142l60 193h79l-60 -193h181l60 193h79l-60 -193h116v-73h-139l-54 -171h121v-73h-144l-62 -200h-79zM261 273h181l54 171h-181z" />
    <glyph glyph-name="dollar" unicode="$" horiz-adv-x="519"
d="M221 -6q-66 7 -116.5 37t-78.5 71l63 53q25 -34 67.5 -59t96.5 -25q65 0 101.5 30.5t36.5 77.5q0 24 -8.5 42t-24 33t-37.5 28t-50 27l-65 32q-80 39 -116 85.5t-36 113.5q0 36 13.5 65.5t36 52t53 37.5t64.5 20v83h74v-82q50 -7 89.5 -29.5t70.5 -59.5l-59 -55
q-27 32 -59.5 49.5t-78.5 17.5q-52 0 -86 -28t-34 -70q0 -41 26.5 -67.5t82.5 -53.5l65 -32q35 -17 65.5 -36.5t52.5 -43t34.5 -53t12.5 -66.5q0 -39 -12.5 -72t-36 -58.5t-57 -42t-76.5 -21.5v-83h-74v82z" />
    <glyph glyph-name="percent" unicode="%" horiz-adv-x="440"
d="M216 58q34 0 54 22t20 53t-20 53t-54 22q-32 0 -52 -22t-20 -53t20 -53t52 -22zM216 -7q-29 0 -55 11t-45.5 29.5t-30.5 44t-11 55.5t11 55.5t30.5 44t45.5 29.5t55 11q30 0 56.5 -11t46 -29.5t31 -44t11.5 -55.5t-11.5 -55.5t-31 -44t-46 -29.5t-56.5 -11zM76 390h290
v-73h-290v73zM216 502q34 0 54 22t20 53t-20 52.5t-54 21.5q-32 0 -52 -21.5t-20 -52.5t20 -53t52 -22zM216 437q-29 0 -55 11t-45.5 29.5t-30.5 44t-11 55.5t11 55.5t30.5 44t45.5 29.5t55 11q30 0 56.5 -11t46 -29.5t31 -44t11.5 -55.5t-11.5 -55.5t-31 -44t-46 -29.5
t-56.5 -11z" />
    <glyph glyph-name="ampersand" unicode="&#x26;" horiz-adv-x="610"
d="M250 -8q-49 0 -90 17.5t-71 47.5t-47 70.5t-17 87.5q0 46 17 86.5t47 71t71 48t90 17.5q20 0 42 -5l-143 277h359v-78h-228l330 -632h-94l-67 127q-23 -63 -75 -99t-124 -36zM250 71q30 0 55.5 10.5t44.5 30t29.5 45.5t10.5 58q0 31 -10.5 57.5t-29.5 46t-44.5 30
t-55.5 10.5t-55.5 -10.5t-44.5 -30t-29.5 -46t-10.5 -57.5q0 -32 10.5 -58t29.5 -45.5t44.5 -30t55.5 -10.5z" />
    <glyph glyph-name="quotesingle" unicode="'" horiz-adv-x="212"
d="M67 710h78v-245h-78v245z" />
    <glyph glyph-name="parenleft" unicode="(" horiz-adv-x="243"
d="M164 -142q-27 55 -47.5 106t-34 103.5t-20 109.5t-6.5 124t6.5 124t20 109.5t34 103.5t47.5 106l68 -29q-25 -53 -43.5 -103.5t-31 -100.5t-18.5 -102t-6 -108t6 -108t18.5 -102t31 -100.5t43.5 -103.5l-68 -29v0z" />
    <glyph glyph-name="parenright" unicode=")" horiz-adv-x="243"
d="M79 -142l-68 29q25 53 43.5 103.5t31 100.5t18.5 102t6 108t-6 108t-18.5 102t-31 100.5t-43.5 103.5l68 29q27 -55 47 -106t33.5 -103.5t20.5 -109.5t7 -124t-7 -124t-20.5 -109.5t-33.5 -103.5t-47 -106z" />
    <glyph glyph-name="asterisk" unicode="*" horiz-adv-x="443"
d="M221 481l-77 -105l-55 38l78 105l-125 42l20 64l126 -42v127h66v-127l127 42l20 -64l-126 -41l78 -106l-53 -39z" />
    <glyph glyph-name="plus" unicode="+" horiz-adv-x="629"
d="M96 310h183v178h71v-178h183v-70h-183v-182h-71v182h-183v70z" />
    <glyph glyph-name="comma" unicode="," horiz-adv-x="252"
d="M116 0h-51v123h122v-124l-57 -141h-57z" />
    <glyph glyph-name="hyphen" unicode="-" horiz-adv-x="334"
d="M46 318h243v-89h-243v89z" />
    <glyph glyph-name="period" unicode="." horiz-adv-x="260"
d="M130 -8q-30 0 -52 21.5t-22 52.5t22 52.5t52 21.5q31 0 52.5 -21.5t21.5 -52.5t-21.5 -52.5t-52.5 -21.5z" />
    <glyph glyph-name="slash" unicode="/" horiz-adv-x="425"
d="M344 710h81l-344 -710h-81z" />
    <glyph glyph-name="zero" unicode="0" horiz-adv-x="814"
d="M407 71q60 0 111 22t87.5 60t57.5 90t21 112t-21 112t-57.5 90t-87.5 60t-111 22t-110.5 -22t-87.5 -60t-57.5 -90t-20.5 -112t20.5 -112t57.5 -90t87.5 -60t110.5 -22zM407 -8q-76 0 -142.5 28t-115.5 77t-77.5 115t-28.5 143q0 76 28.5 142.5t77.5 115.5t115.5 77
t142.5 28t142.5 -28t115.5 -77t77.5 -115.5t28.5 -142.5q0 -77 -28.5 -143t-77.5 -115t-115.5 -77t-142.5 -28z" />
    <glyph glyph-name="one" unicode="1" horiz-adv-x="278"
d="M96 632l86 86v-718h-86v632z" />
    <glyph glyph-name="two" unicode="2" horiz-adv-x="548"
d="M300 299q-9 -2 -16.5 -2.5t-16.5 -0.5q-45 1 -83 18t-65.5 45.5t-42.5 66t-15 79.5q0 45 16.5 84t45.5 67.5t68.5 45t84.5 16.5t84.5 -16.5t69 -45t46 -67.5t16.5 -84q0 -32 -7 -60.5t-22 -57.5t-38.5 -59.5t-55.5 -65.5l-164 -182h287v-80h-467zM276 371q28 0 52.5 10
t41.5 28t27 42.5t10 53.5q0 28 -10 52.5t-27 42.5t-41.5 28.5t-52.5 10.5q-29 0 -53 -10.5t-41 -28.5t-26.5 -42.5t-9.5 -52.5q0 -29 9.5 -53.5t26.5 -42.5t41 -28t53 -10z" />
    <glyph glyph-name="three" unicode="3" horiz-adv-x="518"
d="M234 -8q-63 0 -118 29.5t-86 79.5l66 51q18 -34 54 -57.5t83 -23.5q33 0 61 11t49 31t32.5 48.5t11.5 63.5q0 34 -11 63t-32 50t-50.5 33t-65.5 12h-63l143 247h-249v80h382l-149 -258q43 -9 77 -30t57.5 -51t36 -67.5t12.5 -78.5q0 -49 -17.5 -91.5t-49 -74t-76 -49.5
t-98.5 -18z" />
    <glyph glyph-name="four" unicode="4" horiz-adv-x="589"
d="M394 196h-401l486 522v-442h93v-80h-93v-196h-85v196zM394 276v243l-226 -243h226z" />
    <glyph glyph-name="five" unicode="5" horiz-adv-x="541"
d="M257 -8q-64 0 -120.5 29.5t-86.5 79.5l67 52q17 -34 54 -58t84 -24q33 0 61 11.5t48 31.5t31.5 48t11.5 61t-11 61.5t-31.5 49.5t-49 33t-64.5 12q-41 0 -68 -18t-43 -37l-59 25v361h358v-80h-272v-193q17 8 40 14t47 6q56 0 100.5 -18.5t75.5 -50t47.5 -74.5t16.5 -91
t-17 -90t-48.5 -73.5t-75 -49.5t-96.5 -18z" />
    <glyph glyph-name="six" unicode="6" horiz-adv-x="544"
d="M271 -8q-50 0 -92.5 18t-74.5 49.5t-50 73.5t-18 90q0 37 12 70t29 62l212 355h99l-158 -262q7 2 18 4t28 2q47 0 89 -18t73.5 -49.5t50 -73.5t18.5 -90t-18.5 -90t-50 -73.5t-75 -49.5t-92.5 -18zM271 71q33 0 60 12t46.5 32.5t30.5 48t11 59.5q0 31 -11 59t-30.5 48.5
t-46.5 32.5t-60 12t-60 -12t-46.5 -32.5t-30.5 -48.5t-11 -59q0 -32 11 -59.5t30.5 -48t46.5 -32.5t60 -12z" />
    <glyph glyph-name="seven" unicode="7" horiz-adv-x="506"
d="M365 630h-336v80h465l-340 -710h-91z" />
    <glyph glyph-name="eight" unicode="8" horiz-adv-x="548"
d="M274 -8q-47 0 -88.5 17t-72.5 47.5t-49 72.5t-18 91q0 63 29 113.5t77 80.5q-25 23 -39.5 56t-14.5 72q0 38 14 70.5t38 56t56 36.5t68 13t68 -13t56 -36.5t38 -56t14 -70.5q0 -39 -14.5 -72t-39.5 -56q48 -30 77 -80.5t29 -113.5q0 -49 -18 -91t-49 -72.5t-72.5 -47.5
t-88.5 -17zM274 73q29 0 54.5 11.5t44 31t29.5 46.5t11 58t-11 58t-29.5 46.5t-44 31t-54.5 11.5t-54.5 -11.5t-44.5 -31t-29.5 -46.5t-10.5 -58t10.5 -58t29.5 -46.5t44.5 -31t54.5 -11.5zM274 448h3q37 2 62.5 27.5t25.5 66.5q0 42 -26.5 68.5t-64.5 26.5t-64.5 -26.5
t-26.5 -68.5q0 -41 25.5 -66.5t61.5 -27.5h4z" />
    <glyph glyph-name="nine" unicode="9" horiz-adv-x="543"
d="M313 261q-7 -2 -18 -4t-28 -2q-47 0 -89 18t-73.5 49.5t-50 73.5t-18.5 90t18.5 90t50 73.5t74.5 50t93 18.5q49 0 92 -18.5t75 -50t50 -73.5t18 -90q0 -37 -12.5 -70t-29.5 -62l-212 -355h-98zM272 334q33 0 60 12t46.5 32.5t30.5 48t11 59.5q0 31 -11 59t-30.5 49
t-46.5 33t-60 12t-60.5 -12t-47 -33t-30 -49t-10.5 -59q0 -32 10.5 -59.5t30 -48t47 -32.5t60.5 -12z" />
    <glyph glyph-name="colon" unicode=":" horiz-adv-x="260"
d="M130 360q-30 0 -52 21.5t-22 52.5t22 52.5t52 21.5q31 0 52.5 -21.5t21.5 -52.5t-21.5 -52.5t-52.5 -21.5zM130 -8q-30 0 -52 21.5t-22 52.5t22 52.5t52 21.5q31 0 52.5 -21.5t21.5 -52.5t-21.5 -52.5t-52.5 -21.5z" />
    <glyph glyph-name="semicolon" unicode=";" horiz-adv-x="252"
d="M116 0h-51v123h122v-124l-57 -141h-57zM132 360q-30 0 -52 21.5t-22 52.5t22 52.5t52 21.5q31 0 52.5 -21.5t21.5 -52.5t-21.5 -52.5t-52.5 -21.5z" />
    <glyph glyph-name="less" unicode="&#x3c;" horiz-adv-x="463"
d="M54 269l289 276l50 -52l-237 -224l237 -226l-50 -51z" />
    <glyph glyph-name="equal" unicode="=" horiz-adv-x="636"
d="M96 201h444v-70h-444v70zM96 420h444v-70h-444v70z" />
    <glyph glyph-name="greater" unicode="&#x3e;" horiz-adv-x="464"
d="M70 43l237 226l-237 224l51 52l289 -276l-289 -277z" />
    <glyph glyph-name="question" unicode="?" horiz-adv-x="467"
d="M171 371h60q28 0 52.5 10t41.5 28t27 42.5t10 53.5q0 28 -10 52.5t-27 42.5t-41.5 28.5t-52.5 10.5q-29 0 -53 -10.5t-41 -28.5t-26.5 -42.5t-9.5 -52.5h-85q0 45 16.5 84t45.5 67.5t68.5 45t84.5 16.5t84.5 -16.5t69 -45t46 -67.5t16.5 -84t-16.5 -84t-46 -67.5t-69 -45
t-84.5 -16.5h-60v79zM234 -8q-30 0 -51.5 21.5t-21.5 52.5q0 20 9 36t25 26h80q15 -10 24.5 -26t9.5 -36q0 -31 -21.5 -52.5t-53.5 -21.5z" />
    <glyph glyph-name="at" unicode="@" horiz-adv-x="805"
d="M354 165q-36 0 -65 13.5t-50 37t-32 55t-11 66.5q0 45 16.5 85t45.5 70t68.5 47t86.5 17q36 0 63 -10t47 -28l6 28h72l-51 -239q-7 -33 4 -56t43 -23q20 0 38.5 11.5t32.5 34.5t22.5 56.5t8.5 77.5q0 58 -21 104t-58 78t-87.5 48.5t-108.5 16.5q-64 0 -121.5 -22.5
t-100.5 -64t-68.5 -100.5t-25.5 -131q0 -59 19 -110t54.5 -88.5t87.5 -59t118 -21.5q45 0 94 10t90 31l25 -63q-47 -21 -103.5 -32.5t-105.5 -11.5q-81 0 -145.5 27t-110 73.5t-69.5 109.5t-24 135q0 85 32 155.5t85.5 120.5t123.5 77.5t146 27.5q73 0 135.5 -22
t108.5 -62.5t72 -98t26 -129.5q0 -65 -15.5 -111.5t-41 -75.5t-58.5 -42.5t-67 -13.5q-31 0 -59 15t-39 39q-23 -23 -57 -37.5t-76 -14.5zM371 231q28 0 55.5 12.5t46.5 43.5l34 157q-17 24 -44 35t-54 11t-51.5 -11t-43.5 -30.5t-30 -46t-11 -58.5q0 -54 27 -83.5t71 -29.5
z" />
    <glyph glyph-name="A" unicode="A" horiz-adv-x="710"
d="M355 718l346 -718h-98l-88 186h-320l-88 -186h-98zM235 270h240l-120 254z" />
    <glyph glyph-name="B" unicode="B" horiz-adv-x="612"
d="M86 710h237q51 0 90.5 -15t65.5 -40t39.5 -59t13.5 -71q0 -54 -19.5 -89.5t-54.5 -58.5q53 -20 87 -62.5t34 -114.5q0 -48 -18 -85.5t-50 -63t-77 -38.5t-100 -13h-248v710zM345 84q72 0 107 34t35 86t-35 87t-107 35h-168v-242h168zM321 404q57 0 88.5 31.5t31.5 79.5
q0 22 -8 42.5t-23.5 35.5t-38 24t-50.5 9h-144v-222h144z" />
    <glyph glyph-name="C" unicode="C" horiz-adv-x="663"
d="M401 -8q-76 0 -142.5 27.5t-115.5 76.5t-77 115.5t-28 143.5t28 143.5t77 115t115.5 76.5t142.5 28q67 0 125.5 -21t104.5 -63l-53 -69q-35 29 -79 47.5t-98 18.5q-58 0 -107.5 -21t-85.5 -58.5t-56.5 -88t-20.5 -108.5q0 -59 20.5 -109t56.5 -87.5t85.5 -58.5t107.5 -21
q54 0 98 18.5t79 47.5l53 -69q-46 -42 -104.5 -63t-125.5 -21z" />
    <glyph glyph-name="D" unicode="D" horiz-adv-x="713"
d="M297 85q64 0 117 20.5t90.5 56.5t58 85.5t20.5 107.5t-20.5 107.5t-58 85.5t-90.5 56.5t-117 20.5h-120v-540h120zM86 710h211q82 0 151.5 -27t120 -74.5t79 -112.5t28.5 -141t-28.5 -141t-79 -112.5t-120 -74.5t-151.5 -27h-211v710z" />
    <glyph glyph-name="E" unicode="E" horiz-adv-x="545"
d="M86 710h410v-88h-319v-215h259v-88h-259v-231h319v-88h-410v710z" />
    <glyph glyph-name="F" unicode="F" horiz-adv-x="504"
d="M86 710h398v-88h-307v-215h240v-88h-240v-319h-91v710z" />
    <glyph glyph-name="G" unicode="G" horiz-adv-x="730"
d="M401 -8q-76 0 -142.5 27.5t-115.5 76.5t-77 115.5t-28 143.5t28 143.5t77 115t115.5 76.5t142.5 28q72 0 135.5 -22.5t111.5 -67.5l-56 -68q-35 33 -84.5 52t-106.5 19q-58 0 -107.5 -21t-85.5 -58.5t-56.5 -88t-20.5 -108.5q0 -59 20.5 -109t56.5 -87.5t85.5 -58.5
t107.5 -21q43 0 85.5 9.5t75.5 29.5v201h-198l39 88h250v-335q-50 -38 -116 -59t-136 -21z" />
    <glyph glyph-name="H" unicode="H" horiz-adv-x="746"
d="M86 710h91v-303h392v303h91v-710h-91v319h-392v-319h-91v710z" />
    <glyph glyph-name="I" unicode="I" horiz-adv-x="263"
d="M86 710h91v-710h-91v710z" />
    <glyph glyph-name="J" unicode="J" horiz-adv-x="495"
d="M217 -8q-43 0 -80.5 13.5t-65.5 39.5t-44.5 64.5t-16.5 88.5h91q0 -30 9 -52.5t25 -37t36.5 -22t44.5 -7.5q51 0 84 29t33 90v512h91v-518q0 -50 -16.5 -87.5t-45 -62.5t-66 -37.5t-79.5 -12.5z" />
    <glyph glyph-name="K" unicode="K" horiz-adv-x="653"
d="M86 710h91v-356l324 356h112l-328 -361l355 -349h-121l-342 337v-337h-91v710z" />
    <glyph glyph-name="L" unicode="L" horiz-adv-x="499"
d="M86 710h91v-621h311v-89h-402v710z" />
    <glyph glyph-name="M" unicode="M" horiz-adv-x="864"
d="M86 718l346 -381l346 381v-718h-91v494l-255 -285l-255 285v-494h-91v718z" />
    <glyph glyph-name="N" unicode="N" horiz-adv-x="769"
d="M177 505v-505h-91v718l506 -513v505h91v-718z" />
    <glyph glyph-name="O" unicode="O" horiz-adv-x="802"
d="M401 79q58 0 107.5 21t85.5 58.5t56.5 87.5t20.5 109q0 58 -20.5 108.5t-56.5 88t-85.5 58.5t-107.5 21t-107.5 -21t-85.5 -58.5t-56.5 -88t-20.5 -108.5q0 -59 20.5 -109t56.5 -87.5t85.5 -58.5t107.5 -21zM401 -8q-76 0 -142.5 27.5t-115.5 76.5t-77 115.5t-28 143.5
t28 143.5t77 115t115.5 76.5t142.5 28t142.5 -28t115.5 -76.5t77 -115t28 -143.5t-28 -143.5t-77 -115.5t-115.5 -76.5t-142.5 -27.5z" />
    <glyph glyph-name="P" unicode="P" horiz-adv-x="552"
d="M86 710h201q56 0 101.5 -15t77.5 -43t49.5 -68.5t17.5 -90.5t-17.5 -90t-49.5 -68t-77.5 -43.5t-101.5 -15.5h-110v-276h-91v710zM284 360q77 0 116.5 35t39.5 98t-39.5 98t-116.5 35h-107v-266h107z" />
    <glyph glyph-name="Q" unicode="Q" horiz-adv-x="807"
d="M636 76q-48 -40 -107.5 -62t-127.5 -22q-76 0 -142 28t-115 77t-77.5 115t-28.5 143q0 76 28.5 142.5t77.5 115.5t115 77t142 28t142.5 -28t115.5 -77t77 -115.5t28 -142.5q0 -62 -18.5 -116.5t-51.5 -99.5l92 -85l-58 -62zM401 80q49 0 91.5 15t77.5 43l-92 85l58 62
l91 -84q21 32 32.5 71t11.5 83q0 58 -20.5 108.5t-56.5 87.5t-85.5 58t-107.5 21t-107.5 -21t-85.5 -58t-56.5 -87.5t-20.5 -108.5t20.5 -108.5t56.5 -87.5t85.5 -58t107.5 -21z" />
    <glyph glyph-name="R" unicode="R" horiz-adv-x="621"
d="M255 310h-78v-310h-91v710h211q52 0 94 -14t72 -40.5t46 -63.5t16 -82q0 -76 -45 -127.5t-123 -66.5l245 -316h-110zM291 391q70 0 105 31t35 86q0 56 -35 87t-105 31h-114v-235h114z" />
    <glyph glyph-name="S" unicode="S" horiz-adv-x="519"
d="M253 -8q-78 0 -138.5 32.5t-92.5 77.5l69 60q26 -33 67.5 -58t93.5 -25q62 0 98 26.5t36 73.5q0 49 -29.5 78t-86.5 54l-65 28q-81 35 -118 84.5t-37 116.5q0 40 17.5 73t46.5 56.5t66.5 36t76.5 12.5q63 0 113 -23.5t86 -67.5l-64 -64q-28 33 -59.5 50.5t-78.5 17.5
q-23 0 -43 -6t-36 -18t-25 -29.5t-9 -39.5q0 -39 24 -67t81 -53l65 -28q36 -16 66.5 -35t53 -43.5t35 -55t12.5 -67.5q0 -44 -15.5 -80t-45 -62t-71 -40.5t-93.5 -14.5z" />
    <glyph glyph-name="T" unicode="T" horiz-adv-x="534"
d="M221 622h-201v88h494v-88h-202v-622h-91v622z" />
    <glyph glyph-name="U" unicode="U" horiz-adv-x="721"
d="M360 -8q-62 0 -114 19t-89.5 55t-58.5 87.5t-21 116.5v440h91v-444q0 -46 14 -81t39.5 -58.5t60.5 -35.5t78 -12t78 12t60.5 35.5t39.5 58.5t14 81v444h91v-440q0 -65 -21 -116.5t-58.5 -87.5t-89.5 -55t-114 -19z" />
    <glyph glyph-name="V" unicode="V" horiz-adv-x="669"
d="M7 710h100l228 -509l227 509h100l-327 -718z" />
    <glyph glyph-name="W" unicode="W" horiz-adv-x="903"
d="M15 710h94l157 -474l185 482l186 -482l157 474h94l-244 -718l-193 501l-192 -501z" />
    <glyph glyph-name="X" unicode="X" horiz-adv-x="669"
d="M277 362l-243 348h105l195 -279l195 279h105l-241 -348l255 -362h-103l-210 295l-208 -295h-106z" />
    <glyph glyph-name="Y" unicode="Y" horiz-adv-x="632"
d="M270 301l-260 409h106l200 -320l200 320h106l-260 -409v-301h-92v301z" />
    <glyph glyph-name="Z" unicode="Z" horiz-adv-x="607"
d="M418 622h-352v88h508l-395 -622h397v-88h-553z" />
    <glyph glyph-name="bracketleft" unicode="[" horiz-adv-x="284"
d="M77 741h187v-71h-108v-740h108v-71h-187v882z" />
    <glyph glyph-name="backslash" unicode="\" horiz-adv-x="425"
d="M0 710h81l344 -710h-81z" />
    <glyph glyph-name="bracketright" unicode="]" horiz-adv-x="284"
d="M207 -141h-187v71h108v740h-108v71h187v-882z" />
    <glyph glyph-name="asciicircum" unicode="^" horiz-adv-x="607"
d="M303 712l272 -395h-86l-186 268l-186 -268h-85z" />
    <glyph glyph-name="underscore" unicode="_" horiz-adv-x="424"
d="M0 0h424v-73h-424v73z" />
    <glyph glyph-name="grave" unicode="`" horiz-adv-x="272"
d="M42 710h109l87 -165h-71z" />
    <glyph glyph-name="a" unicode="a" horiz-adv-x="620"
d="M457 50q-32 -29 -72.5 -43.5t-86.5 -14.5q-55 0 -102 20t-81 54.5t-53 82t-19 101.5t19 101.5t53 82t81 54.5t102 20q46 0 86.5 -14.5t72.5 -43.5v50h86v-500h-86v50zM300 73q54 0 94.5 23t62.5 58v192q-22 35 -62.5 58t-94.5 23q-37 0 -67.5 -13.5t-53 -37.5t-35 -56.5
t-12.5 -69.5t12.5 -69.5t35 -56.5t53 -37.5t67.5 -13.5z" />
    <glyph glyph-name="b" unicode="b" horiz-adv-x="620"
d="M77 710h86v-260q31 29 71.5 43.5t87.5 14.5q55 0 102 -20t81 -54.5t53 -82t19 -101.5t-19 -101.5t-53 -82t-81 -54.5t-102 -20q-47 0 -87.5 14.5t-71.5 43.5v-50h-86v710zM320 427q-54 0 -95 -23t-62 -58v-192q21 -35 62 -58t95 -23q37 0 67.5 13.5t53 37.5t35 56.5
t12.5 69.5t-12.5 69.5t-35 56.5t-53 37.5t-67.5 13.5z" />
    <glyph glyph-name="c" unicode="c" horiz-adv-x="528"
d="M300 -8q-56 0 -103 20t-81 55t-53.5 82t-19.5 101t19.5 101t53.5 82t81 55t103 20q63 0 110.5 -22.5t80.5 -56.5l-55 -60q-24 24 -57.5 41t-78.5 17q-37 0 -67.5 -13.5t-53 -37.5t-35 -56.5t-12.5 -69.5t12.5 -69.5t35 -56.5t53 -37.5t67.5 -13.5q45 0 78.5 17t57.5 41
l55 -60q-33 -34 -80.5 -56.5t-110.5 -22.5z" />
    <glyph glyph-name="d" unicode="d" horiz-adv-x="620"
d="M457 50q-32 -29 -72.5 -43.5t-86.5 -14.5q-55 0 -102 20t-81 54.5t-53 82t-19 101.5t19 101.5t53 82t81 54.5t102 20q46 0 86.5 -14.5t72.5 -43.5v260h86v-710h-86v50zM300 73q54 0 94.5 23t62.5 58v192q-22 35 -62.5 58t-94.5 23q-37 0 -67.5 -13.5t-53 -37.5t-35 -56.5
t-12.5 -69.5t12.5 -69.5t35 -56.5t53 -37.5t67.5 -13.5z" />
    <glyph glyph-name="e" unicode="e" horiz-adv-x="577"
d="M300 -8q-56 0 -103 20t-81 55t-53.5 82t-19.5 101t19.5 101.5t53.5 82t79.5 54.5t98.5 20q52 0 96.5 -18.5t77 -54t51 -87.5t19.5 -119h-406q3 -33 17 -61.5t36 -49.5t51.5 -33t63.5 -12q48 0 85 18t61 42l55 -60q-32 -34 -83.5 -57.5t-117.5 -23.5zM289 429
q-55 0 -97 -34t-56 -91h305q-9 62 -52 94t-100 31z" />
    <glyph glyph-name="f" unicode="f" horiz-adv-x="357"
d="M22 500h84q-17 17 -27 39.5t-10 48.5t10.5 48.5t29.5 39t46 25.5t60 9h118v-78h-104q-32 0 -54 -15.5t-22 -47.5q0 -33 22 -50t47 -19h111v-78h-139v-422h-86v422h-86v78z" />
    <glyph glyph-name="g" unicode="g" horiz-adv-x="610"
d="M291 -194q-54 0 -111 15t-102 44l45 73q32 -23 76.5 -37.5t94.5 -14.5q33 0 63 6.5t53.5 21.5t37.5 39t14 59q0 13 -3 31t-10 32q-62 -60 -159 -60q-56 0 -101.5 19t-77.5 52t-50 78t-18 97t18 97.5t50 78.5t77.5 52t101.5 19q48 0 86.5 -15t69.5 -44v51h86v-398
q10 -26 14.5 -51t4.5 -47q0 -54 -22.5 -91.5t-59.5 -61.5t-83.5 -34.5t-94.5 -10.5zM292 95q54 0 94 23.5t60 58.5v169q-20 35 -60 58t-94 23q-36 0 -65.5 -12.5t-50.5 -35t-32.5 -52.5t-11.5 -66q0 -35 11.5 -65.5t32.5 -53t50.5 -35t65.5 -12.5z" />
    <glyph glyph-name="h" unicode="h" horiz-adv-x="578"
d="M77 710h86v-267q29 36 70 50.5t85 14.5q42 0 77.5 -14.5t61 -40.5t40 -64t14.5 -84v-305h-86v300q0 55 -33.5 91t-92.5 36q-53 0 -87.5 -27.5t-48.5 -76.5v-323h-86v710z" />
    <glyph glyph-name="i" unicode="i"
d="M77 609q-19 17 -19 46q0 26 18 44.5t44 18.5t44 -18.5t18 -44.5q0 -29 -19 -46h-86zM77 500h86v-500h-86v500z" />
    <glyph glyph-name="j" unicode="j"
d="M-27 -106h30q42 0 58 21t16 59v526h86v-539q0 -72 -39.5 -108.5t-111.5 -36.5h-39v78zM77 609q-19 17 -19 46q0 26 18 44.5t44 18.5t44 -18.5t18 -44.5q0 -29 -19 -46h-86z" />
    <glyph glyph-name="k" unicode="k" horiz-adv-x="516"
d="M77 710h86v-436l221 226h108l-233 -236l256 -264h-111l-241 249v-249h-86v710z" />
    <glyph glyph-name="l" unicode="l"
d="M77 710h86v-710h-86v710z" />
    <glyph glyph-name="m" unicode="m" horiz-adv-x="875"
d="M722 300q0 55 -30 91t-84 36q-47 0 -78 -27t-45 -75q1 -5 1 -10v-10v-305h-86v300q0 55 -30.5 91t-84.5 36q-44 0 -75.5 -24.5t-46.5 -69.5v-333h-86v500h86v-55q28 35 65.5 49t75.5 14q50 0 89 -21.5t62 -60.5q18 24 39 40t43 25.5t44 13t41 3.5q43 0 77.5 -14.5
t58.5 -40.5t37 -64t13 -84v-305h-86v300z" />
    <glyph glyph-name="n" unicode="n" horiz-adv-x="578"
d="M77 500h86v-57q29 36 70 50.5t85 14.5q42 0 77.5 -14.5t61 -40.5t40 -64t14.5 -84v-305h-86v300q0 55 -33.5 91t-92.5 36q-53 0 -87.5 -27.5t-48.5 -76.5v-323h-86v500z" />
    <glyph glyph-name="o" unicode="o" horiz-adv-x="605"
d="M303 73q38 0 69.5 13.5t54 37.5t34.5 56.5t12 69.5t-12 69.5t-34.5 56.5t-54 37.5t-69.5 13.5t-69.5 -13.5t-54 -37.5t-35 -56.5t-12.5 -69.5t12.5 -69.5t35 -56.5t54 -37.5t69.5 -13.5zM303 -8q-57 0 -104.5 20t-82 55t-54 82t-19.5 101t19.5 101t54 82t82 55t104.5 20
q56 0 103.5 -20t82 -55t54 -82t19.5 -101t-19.5 -101t-54 -82t-82 -55t-103.5 -20z" />
    <glyph glyph-name="p" unicode="p" horiz-adv-x="620"
d="M77 500h86v-50q31 29 71.5 43.5t87.5 14.5q55 0 102 -20t81 -54.5t53 -82t19 -101.5t-19 -101.5t-53 -82t-81 -54.5t-102 -20q-47 0 -87.5 14.5t-71.5 43.5v-234h-86v684zM320 427q-54 0 -95 -23t-62 -58v-192q21 -35 62 -58t95 -23q37 0 67.5 13.5t53 37.5t35 56.5
t12.5 69.5t-12.5 69.5t-35 56.5t-53 37.5t-67.5 13.5z" />
    <glyph glyph-name="q" unicode="q" horiz-adv-x="620"
d="M457 50q-32 -29 -72.5 -43.5t-86.5 -14.5q-55 0 -102 20t-81 54.5t-53 82t-19 101.5t19 101.5t53 82t81 54.5t102 20q46 0 86.5 -14.5t72.5 -43.5v50h86v-684h-86v234zM300 73q54 0 94.5 23t62.5 58v192q-22 35 -62.5 58t-94.5 23q-37 0 -67.5 -13.5t-53 -37.5t-35 -56.5
t-12.5 -69.5t12.5 -69.5t35 -56.5t53 -37.5t67.5 -13.5z" />
    <glyph glyph-name="r" unicode="r" horiz-adv-x="359"
d="M77 500h86v-59q26 32 61 48t77 16q18 0 35 -3v-89q-21 6 -48 6q-41 0 -74.5 -20t-50.5 -59v-340h-86v500z" />
    <glyph glyph-name="s" unicode="s" horiz-adv-x="418"
d="M204 -8q-56 0 -101.5 24.5t-75.5 75.5l68 46q20 -33 45.5 -51t65.5 -18q37 0 63 17t26 46t-20 46.5t-65 33.5l-39 15q-66 25 -92.5 64t-26.5 84q0 28 11.5 52.5t32.5 42.5t49.5 28t62.5 10q48 0 87.5 -22t62.5 -68l-67 -39q-25 52 -83 52q-29 0 -50 -14.5t-21 -40.5
q0 -23 14.5 -41.5t58.5 -34.5l41 -15q64 -23 97 -58.5t33 -91.5q0 -30 -12.5 -56t-35.5 -45.5t-55.5 -30.5t-73.5 -11z" />
    <glyph glyph-name="t" unicode="t" horiz-adv-x="371"
d="M0 500h99v107l86 43v-150h151l-19 -78h-132v-264q0 -38 16 -59t58 -21h67v-78h-76q-72 0 -111.5 36.5t-39.5 108.5v277h-80z" />
    <glyph glyph-name="u" unicode="u" horiz-adv-x="568"
d="M405 56q-29 -36 -69.5 -50t-84.5 -14q-43 0 -78.5 14.5t-61 40.5t-39.5 63.5t-14 84.5v305h86v-300q0 -55 33.5 -91t91.5 -36q52 0 86.5 26t49.5 74v327h86v-500h-86v56z" />
    <glyph glyph-name="v" unicode="v" horiz-adv-x="535"
d="M3 500h97l167 -337l168 337h97l-265 -508z" />
    <glyph glyph-name="w" unicode="w" horiz-adv-x="720"
d="M21 500h89l112 -364l138 372l138 -372l112 364h89l-158 -500h-69l-112 303l-111 -303h-70z" />
    <glyph glyph-name="x" unicode="x" horiz-adv-x="540"
d="M218 254l-185 246h99l139 -184l137 184h99l-185 -246l195 -254h-100l-147 194l-147 -194h-100z" />
    <glyph glyph-name="y" unicode="y" horiz-adv-x="510"
d="M210 42l-204 458h93l156 -364l157 364h93l-307 -684h-91z" />
    <glyph glyph-name="z" unicode="z" horiz-adv-x="504"
d="M321 422h-262v78h411l-293 -422h283v-78h-433z" />
    <glyph glyph-name="braceleft" unicode="{" horiz-adv-x="294"
d="M224 -141q-71 0 -99.5 36.5t-28.5 107.5v190q0 35 -10.5 53t-47.5 18h-16v71h16q37 0 47.5 18t10.5 53v191q0 70 27.5 107t98.5 37h50v-71h-39q-37 0 -48 -17.5t-11 -55.5v-187q0 -46 -11 -71t-42 -39q31 -15 42 -40t11 -71v-186q0 -38 11 -55.5t48 -17.5h39v-71h-48v0z
" />
    <glyph glyph-name="bar" unicode="|" horiz-adv-x="229"
d="M75 710h79v-894h-79v894z" />
    <glyph glyph-name="braceright" unicode="}" horiz-adv-x="294"
d="M69 -141h-48v71h39q37 0 48 17.5t11 55.5v186q0 46 11 71t42 40q-31 14 -42 39t-11 71v187q0 38 -11 55.5t-48 17.5h-39v71h50q71 0 98.5 -37t27.5 -107v-191q0 -35 10.5 -53t47.5 -18h16v-71h-16q-37 0 -47.5 -18t-10.5 -53v-190q0 -71 -28.5 -107.5t-99.5 -36.5z" />
    <glyph glyph-name="asciitilde" unicode="~" horiz-adv-x="610"
d="M96 292l108 73l198 -75l112 74v-82l-108 -75l-199 75l-111 -76v86z" />
    <glyph glyph-name="uni00A0" unicode="&#xa0;" horiz-adv-x="252"
 />
    <glyph glyph-name="exclamdown" unicode="&#xa1;" horiz-adv-x="260"
d="M87 84l16 197h55l16 -197v-269h-87v269zM90 373q-16 9 -25 25t-9 36q0 31 21.5 52.5t51.5 21.5q32 0 53.5 -21.5t21.5 -52.5q0 -20 -9.5 -36t-24.5 -25h-80z" />
    <glyph glyph-name="cent" unicode="&#xa2;" horiz-adv-x="534"
d="M269 -6q-49 6 -90 28t-71 56t-46.5 78t-16.5 94t16.5 94t46.5 78t71 56t90 28v82h67v-82q50 -6 89 -27t68 -50l-55 -60q-24 24 -57.5 41t-78.5 17q-37 0 -67.5 -13.5t-53 -37.5t-35 -56.5t-12.5 -69.5t12.5 -69.5t35 -56.5t53 -37.5t67.5 -13.5q45 0 78.5 17t57.5 41
l55 -60q-29 -29 -68 -50t-89 -27v-82h-67v82z" />
    <glyph glyph-name="sterling" unicode="&#xa3;" horiz-adv-x="611"
d="M72 378h91q-25 26 -39 60.5t-14 72.5q0 42 15.5 80t44 66t68 44.5t86.5 16.5q46 0 85 -16.5t67.5 -45.5t44.5 -67.5t16 -81.5h-87q0 27 -9 51t-25.5 42t-40 28.5t-51.5 10.5q-29 0 -52.5 -9.5t-40 -27t-26 -41t-9.5 -50.5t9.5 -51.5t26 -42.5t40 -28.5t52.5 -10.5h82v-73
h-157v-225h315v-80h-492v80h90v225h-90v73z" />
    <glyph glyph-name="currency" unicode="&#xa4;" horiz-adv-x="584"
d="M30 136l69 70q-22 29 -34 64.5t-12 75.5t12 76t33 65l-68 70l45 44l68 -67q30 24 67 37.5t79 13.5q43 0 81 -14t69 -39l70 69l45 -44l-71 -72q21 -29 33 -64.5t12 -74.5t-12 -74t-33 -64l71 -72l-45 -45l-71 70q-31 -24 -69 -37.5t-80 -13.5t-78.5 13t-66.5 36l-69 -68z
M290 187q34 0 63.5 12.5t51 34t33.5 50.5t12 62q0 34 -12 64t-33.5 52.5t-51 35t-64.5 12.5q-34 0 -62.5 -12.5t-49.5 -35t-32.5 -52.5t-11.5 -64q0 -33 11.5 -62t32.5 -50.5t50 -34t63 -12.5z" />
    <glyph glyph-name="yen" unicode="&#xa5;" horiz-adv-x="638"
d="M119 345h130l-233 365h100l203 -322l203 322h100l-232 -365h130v-73h-158v-74h158v-73h-158v-125h-85v125h-158v73h158v74h-158v73z" />
    <glyph glyph-name="brokenbar" unicode="&#xa6;" horiz-adv-x="229"
d="M75 200h79v-384h-79v384zM75 710h79v-383h-79v383z" />
    <glyph glyph-name="section" unicode="&#xa7;" horiz-adv-x="524"
d="M244 -194q-57 0 -101 27.5t-71 78.5l65 40q19 -36 44.5 -56.5t64.5 -20.5q38 0 66 23t28 60q0 32 -21 59t-75 51q-7 2 -13.5 5t-14.5 5q-69 20 -108 69t-39 121q0 27 7.5 52.5t21 47.5t33 39.5t42.5 28.5q-5 3 -8 6t-7 5q-34 29 -45.5 62.5t-11.5 66.5q0 31 12 57t33 45
t50 29.5t63 10.5q53 0 93 -27t60 -76l-64 -32q-13 30 -35 48t-55 18q-31 0 -54 -20.5t-23 -53.5q0 -24 12.5 -51t53.5 -51q9 -5 19.5 -9t22.5 -7q33 -8 63 -22t53 -36.5t36.5 -55t13.5 -75.5q0 -57 -28 -102.5t-78 -71.5l15 -12q29 -26 41.5 -56t12.5 -67q0 -32 -12.5 -59.5
t-35 -48.5t-55 -33t-71.5 -12zM262 143q25 0 46 10t36 27t23.5 39.5t8.5 48.5q0 25 -8.5 47t-23.5 37.5t-36 24.5t-46 9t-46 -9t-36.5 -24.5t-24 -37.5t-8.5 -47q0 -26 8.5 -48.5t24 -39.5t36.5 -27t46 -10z" />
    <glyph glyph-name="dieresis" unicode="&#xa8;" horiz-adv-x="406"
d="M90 571q-24 0 -42 17t-18 43q0 25 18 42t42 17q26 0 43.5 -17t17.5 -42q0 -26 -17.5 -43t-43.5 -17zM315 571q-25 0 -42.5 17t-17.5 43q0 25 17.5 42t42.5 17q26 0 43 -17t17 -42q0 -26 -17 -43t-43 -17z" />
    <glyph glyph-name="copyright" unicode="&#xa9;" horiz-adv-x="802"
d="M412 161q-41 0 -76.5 15t-61.5 41t-40.5 61.5t-14.5 77.5t14.5 77.5t40.5 61.5t61.5 41t76.5 15q20 0 42 -4.5t43 -14.5t39.5 -25t32.5 -36l-51 -46q-19 26 -46.5 41.5t-56.5 15.5q-56 0 -89 -35.5t-33 -90.5t33 -90.5t89 -35.5q29 0 56.5 15.5t46.5 41.5l51 -46
q-14 -21 -32.5 -36t-39.5 -25t-43 -14.5t-42 -4.5zM400 61q61 0 114.5 23t93.5 63t63 93.5t23 113.5q0 61 -23 114.5t-63 93.5t-93.5 63t-114.5 23q-60 0 -113.5 -23t-93.5 -63t-63 -93.5t-23 -114.5q0 -60 23 -113.5t63 -93.5t93.5 -63t113.5 -23zM401 -9q-75 0 -141 28.5
t-115.5 78t-78 115.5t-28.5 141t28.5 141t78 115.5t115.5 78.5t141 29t141 -29t115.5 -78.5t78 -115.5t28.5 -141t-28.5 -141t-78 -115.5t-115.5 -78t-141 -28.5z" />
    <glyph glyph-name="ordfeminine" unicode="&#xaa;" horiz-adv-x="365"
d="M255 429q-32 -24 -77 -24q-33 0 -61.5 12t-49.5 32.5t-32.5 49t-11.5 61.5t11.5 61.5t32.5 49t49.5 32.5t61.5 12q23 0 42.5 -7t34.5 -18v20h69v-300h-69v19zM179 471q23 0 43.5 10.5t32.5 27.5v101q-12 18 -32.5 28.5t-43.5 10.5q-38 0 -61.5 -25.5t-23.5 -63.5
t23.5 -63.5t61.5 -25.5z" />
    <glyph glyph-name="guillemotleft" unicode="&#xab;" horiz-adv-x="491"
d="M231 250l152 221l62 -42l-123 -179l123 -179l-62 -42zM29 250l152 221l62 -42l-123 -179l123 -179l-62 -42z" />
    <glyph glyph-name="logicalnot" unicode="&#xac;" horiz-adv-x="630"
d="M463 240h-367v70h438v-260h-71v190z" />
    <glyph glyph-name="uni00AD" unicode="&#xad;" horiz-adv-x="334"
d="M46 318h243v-89h-243v89z" />
    <glyph glyph-name="registered" unicode="&#xae;" horiz-adv-x="802"
d="M401 -9q-75 0 -141 28.5t-115.5 78t-78 115.5t-28.5 141t28.5 141t78 115.5t115.5 78.5t141 29t141 -29t115.5 -78.5t78 -115.5t28.5 -141t-28.5 -141t-78 -115.5t-115.5 -78t-141 -28.5zM400 61q61 0 114.5 23t93.5 63t63 93.5t23 113.5q0 61 -23 114.5t-63 93.5
t-93.5 63t-114.5 23q-60 0 -113.5 -23t-93.5 -63t-63 -93.5t-23 -114.5q0 -60 23 -113.5t63 -93.5t93.5 -63t113.5 -23zM372 327h-29v-163h-68v384h141q50 0 83 -29.5t33 -78.5q-1 -42 -24.5 -70t-60.5 -38l124 -168h-80zM404 390q55 0 55 46t-55 46h-60v-92h60z" />
    <glyph glyph-name="macron" unicode="&#xaf;" horiz-adv-x="365"
d="M37 679h292v-65h-292v65z" />
    <glyph glyph-name="degree" unicode="&#xb0;" horiz-adv-x="352"
d="M176 525q28 0 47 20t19 47t-19 46.5t-47 19.5q-27 0 -47 -19.5t-20 -46.5t20 -47t47 -20zM176 470q-25 0 -47.5 9.5t-39 26t-26 39t-9.5 47.5t9.5 47.5t26 39t39 26t47.5 9.5t47.5 -9.5t39 -26t26 -39t9.5 -47.5t-9.5 -47.5t-26 -39t-39 -26t-47.5 -9.5z" />
    <glyph glyph-name="plusminus" unicode="&#xb1;" horiz-adv-x="630"
d="M96 359h184v141h70v-141h184v-70h-184v-144h-70v144h-184v70zM96 70h438v-70h-438v70z" />
    <glyph glyph-name="twosuperior" unicode="&#xb2;" horiz-adv-x="340"
d="M172 641q31 0 49 19.5t18 48.5t-18 48.5t-49 19.5t-49 -19.5t-18 -48.5t18 -48.5t49 -19.5zM161 581q-29 1 -52 11.5t-39.5 28.5t-25 40.5t-8.5 47.5q0 28 10.5 52t28.5 42t43 28t54 10t54 -10t43 -28t28.5 -42t10.5 -52q0 -32 -13.5 -60.5t-41.5 -59.5l-98 -114h152v-65
h-295z" />
    <glyph glyph-name="threesuperior" unicode="&#xb3;" horiz-adv-x="310"
d="M139 405q-38 0 -71.5 16t-53.5 45l50 42q11 -17 29.5 -28t43.5 -11q35 0 57.5 21t22.5 58q0 35 -22.5 57.5t-60.5 22.5h-40l77 143h-139v65h242l-82 -155q45 -14 70 -48.5t25 -84.5q0 -65 -40.5 -104t-107.5 -39z" />
    <glyph glyph-name="acute" unicode="&#xb4;" horiz-adv-x="272"
d="M120 710h109l-124 -165h-72z" />
    <glyph glyph-name="mu" unicode="&#xb5;" horiz-adv-x="587"
d="M77 394h85v-578h-85v578zM424 56q-29 -36 -69.5 -50t-84.5 -14q-43 0 -78.5 14.5t-61 40.5t-39.5 63.5t-14 84.5v305h86v-300q0 -55 33.5 -91t91.5 -36q52 0 86.5 26t49.5 74v327h86v-500h-86v56z" />
    <glyph glyph-name="mu" unicode="&#x3bc;" horiz-adv-x="587"
d="M77 394h85v-578h-85v578zM424 56q-29 -36 -69.5 -50t-84.5 -14q-43 0 -78.5 14.5t-61 40.5t-39.5 63.5t-14 84.5v305h86v-300q0 -55 33.5 -91t91.5 -36q52 0 86.5 26t49.5 74v327h86v-500h-86v56z" />
    <glyph glyph-name="paragraph" unicode="&#xb6;" horiz-adv-x="635"
d="M274 260q-47 0 -87.5 17.5t-71.5 48.5t-48.5 71.5t-17.5 87.5q0 46 17.5 87t48.5 72t71.5 48.5t87.5 17.5h265v-894h-78v816h-108v-816h-79v444z" />
    <glyph glyph-name="periodcentered" unicode="&#xb7;" horiz-adv-x="260"
d="M130 198q-30 0 -52 21.5t-22 52.5t22 52.5t52 21.5q31 0 52.5 -21.5t21.5 -52.5t-21.5 -52.5t-52.5 -21.5z" />
    <glyph glyph-name="cedilla" unicode="&#xb8;" horiz-adv-x="197"
d="M71 0h59l-38 -135h-98z" />
    <glyph glyph-name="onesuperior" unicode="&#xb9;" horiz-adv-x="176"
d="M54 774l69 72v-436h-69v364z" />
    <glyph glyph-name="ordmasculine" unicode="&#xba;" horiz-adv-x="357"
d="M179 471q37 0 60.5 25.5t23.5 63.5t-23.5 63.5t-60.5 25.5q-38 0 -61.5 -25.5t-23.5 -63.5t23.5 -63.5t61.5 -25.5zM179 405q-33 0 -61.5 12t-49.5 32.5t-33 49t-12 61.5t12 61.5t33 49t49.5 32.5t61.5 12t61.5 -12t49 -32.5t32.5 -49t12 -61.5t-12 -61.5t-32.5 -49
t-49 -32.5t-61.5 -12z" />
    <glyph glyph-name="guillemotright" unicode="&#xbb;" horiz-adv-x="491"
d="M310 29l-62 42l123 179l-123 179l62 42l152 -221zM108 29l-62 42l123 179l-123 179l62 42l152 -221z" />
    <glyph glyph-name="onequarter" unicode="&#xbc;" horiz-adv-x="736"
d="M68 650l69 70v-436h-69v366zM31 0l500 710h80l-500 -710h-80zM605 108h-229l297 328v-267h49v-61h-49v-108h-68v108zM605 169v104l-94 -104h94z" />
    <glyph glyph-name="onehalf" unicode="&#xbd;" horiz-adv-x="792"
d="M68 650l69 70v-436h-69v366zM31 0l500 710h80l-500 -710h-80zM582 171q-29 1 -52 11.5t-39.5 28.5t-25 40.5t-8.5 47.5q0 28 10.5 52t28.5 42t43 28t54 10t54 -10t43 -28t28.5 -42t10.5 -52q0 -32 -13.5 -60.5t-41.5 -59.5l-98 -114h152v-65h-295zM593 231q31 0 49 19.5
t18 48.5t-18 48.5t-49 19.5t-49 -19.5t-18 -48.5t18 -48.5t49 -19.5z" />
    <glyph glyph-name="threequarters" unicode="&#xbe;" horiz-adv-x="835"
d="M160 279q-38 0 -71.5 16t-53.5 45l50 42q11 -17 29.5 -28t43.5 -11q35 0 57.5 21t22.5 58q0 35 -22.5 57.5t-60.5 22.5h-40l77 143h-139v65h242l-82 -155q45 -14 70 -48.5t25 -84.5q0 -65 -40.5 -104t-107.5 -39zM130 0l500 710h80l-500 -710h-80zM704 108h-229l297 328
v-267h49v-61h-49v-108h-68v108zM704 169v104l-94 -104h94z" />
    <glyph glyph-name="questiondown" unicode="&#xbf;" horiz-adv-x="467"
d="M236 -194q-45 0 -84.5 16.5t-69 45t-46 67.5t-16.5 84t16.5 84t46 67.5t69 45t84.5 16.5h60v-79h-60q-29 0 -53 -10.5t-41 -28.5t-27 -42.5t-10 -52.5q0 -29 10 -53.5t27 -42.5t41 -28t53 -10t53 10t41 28t26.5 42.5t9.5 53.5h85q0 -45 -16.5 -84t-45.5 -67.5t-68.5 -45
t-84.5 -16.5zM192 372q-15 10 -24.5 26t-9.5 36q0 31 21.5 52.5t53.5 21.5q30 0 51.5 -21.5t21.5 -52.5q0 -20 -9 -36t-25 -26h-80z" />
    <glyph glyph-name="Agrave" unicode="&#xc0;" horiz-adv-x="710"
d="M355 718l346 -718h-98l-88 186h-320l-88 -186h-98zM235 270h240l-120 254zM205 913h109l77 -145h-73z" />
    <glyph glyph-name="Aacute" unicode="&#xc1;" horiz-adv-x="710"
d="M355 718l346 -718h-98l-88 186h-320l-88 -186h-98zM235 270h240l-120 254zM396 913h108l-112 -145h-73z" />
    <glyph glyph-name="Acircumflex" unicode="&#xc2;" horiz-adv-x="710"
d="M355 718l346 -718h-98l-88 186h-320l-88 -186h-98zM235 270h240l-120 254zM182 826l173 100l173 -100l-35 -60l-138 82l-138 -82z" />
    <glyph glyph-name="Atilde" unicode="&#xc3;" horiz-adv-x="710"
d="M355 718l346 -718h-98l-88 186h-320l-88 -186h-98zM235 270h240l-120 254zM423 783q-21 0 -39 7t-33.5 15t-29 15t-26.5 7q-20 0 -30.5 -10.5t-15.5 -32.5h-69l4 18q4 23 14.5 41t25 30t31.5 18.5t34 6.5q21 0 38.5 -7t33 -15t29 -15t25.5 -7q21 0 32 10t16 33h68l-3 -18
q-8 -45 -38 -70.5t-67 -25.5z" />
    <glyph glyph-name="Adieresis" unicode="&#xc4;" horiz-adv-x="710"
d="M355 718l346 -718h-98l-88 186h-320l-88 -186h-98zM235 270h240l-120 254zM242 782q-24 0 -42.5 18t-18.5 44q0 25 18.5 42.5t42.5 17.5q26 0 44 -17.5t18 -42.5q0 -26 -18 -44t-44 -18zM467 782q-25 0 -43 18t-18 44q0 25 18 42.5t43 17.5q26 0 44 -17.5t18 -42.5
q0 -26 -18 -44t-44 -18z" />
    <glyph glyph-name="Aring" unicode="&#xc5;" horiz-adv-x="710"
d="M355 718l346 -718h-98l-88 186h-320l-88 -186h-98zM235 270h240l-120 254zM354 798q20 0 34 13t14 34t-14 34.5t-34 13.5t-34 -13.5t-14 -34.5t14 -34t34 -13zM354 751q-42 0 -70.5 26.5t-28.5 67.5q0 42 29 68.5t70 26.5t70 -26.5t29 -68.5q0 -41 -28.5 -67.5
t-70.5 -26.5z" />
    <glyph glyph-name="AE" unicode="&#xc6;" horiz-adv-x="1016"
d="M308 621l-42 89h399l42 -88h-306l104 -215h262l42 -88h-262l111 -231h306l43 -88h-404l-88 186h-320l-88 -186h-98zM235 270h240l-120 254z" />
    <glyph glyph-name="Ccedilla" unicode="&#xc7;" horiz-adv-x="663"
d="M354 0h59l-38 -135h-98zM401 -8q-76 0 -142.5 27.5t-115.5 76.5t-77 115.5t-28 143.5t28 143.5t77 115t115.5 76.5t142.5 28q67 0 125.5 -21t104.5 -63l-53 -69q-35 29 -79 47.5t-98 18.5q-58 0 -107.5 -21t-85.5 -58.5t-56.5 -88t-20.5 -108.5q0 -59 20.5 -109
t56.5 -87.5t85.5 -58.5t107.5 -21q54 0 98 18.5t79 47.5l53 -69q-46 -42 -104.5 -63t-125.5 -21z" />
    <glyph glyph-name="Egrave" unicode="&#xc8;" horiz-adv-x="545"
d="M86 710h410v-88h-319v-215h259v-88h-259v-231h319v-88h-410v710zM169 913h109l77 -145h-73z" />
    <glyph glyph-name="Eacute" unicode="&#xc9;" horiz-adv-x="545"
d="M86 710h410v-88h-319v-215h259v-88h-259v-231h319v-88h-410v710zM302 913h108l-112 -145h-73z" />
    <glyph glyph-name="Ecircumflex" unicode="&#xca;" horiz-adv-x="545"
d="M86 710h410v-88h-319v-215h259v-88h-259v-231h319v-88h-410v710zM117 826l173 100l173 -100l-35 -60l-138 82l-138 -82z" />
    <glyph glyph-name="Edieresis" unicode="&#xcb;" horiz-adv-x="545"
d="M86 710h410v-88h-319v-215h259v-88h-259v-231h319v-88h-410v710zM178 782q-24 0 -42.5 18t-18.5 44q0 25 18.5 42.5t42.5 17.5q26 0 44 -17.5t18 -42.5q0 -26 -18 -44t-44 -18zM403 782q-25 0 -43 18t-18 44q0 25 18 42.5t43 17.5q26 0 44 -17.5t18 -42.5q0 -26 -18 -44
t-44 -18z" />
    <glyph glyph-name="Igrave" unicode="&#xcc;" horiz-adv-x="263"
d="M86 710h91v-710h-91v710zM11 913h109l77 -145h-73z" />
    <glyph glyph-name="Iacute" unicode="&#xcd;" horiz-adv-x="263"
d="M86 710h91v-710h-91v710zM143 913h108l-112 -145h-73z" />
    <glyph glyph-name="Icircumflex" unicode="&#xce;" horiz-adv-x="263"
d="M86 710h91v-710h-91v710zM-41 826l173 100l173 -100l-35 -60l-138 82l-138 -82z" />
    <glyph glyph-name="Idieresis" unicode="&#xcf;" horiz-adv-x="263"
d="M86 710h91v-710h-91v710zM20 782q-24 0 -42.5 18t-18.5 44q0 25 18.5 42.5t42.5 17.5q26 0 44 -17.5t18 -42.5q0 -26 -18 -44t-44 -18zM245 782q-25 0 -43 18t-18 44q0 25 18 42.5t43 17.5q26 0 44 -17.5t18 -42.5q0 -26 -18 -44t-44 -18z" />
    <glyph glyph-name="Eth" unicode="&#xd0;" horiz-adv-x="744"
d="M9 399h108v311h211q82 0 151.5 -27t120 -74.5t79 -112.5t28.5 -141t-28.5 -141t-79 -112.5t-120 -74.5t-151.5 -27h-211v312h-108v87zM328 85q64 0 117 20.5t90.5 56.5t58 85.5t20.5 107.5t-20.5 107.5t-58 85.5t-90.5 56.5t-117 20.5h-120v-226h134v-87h-134v-227h120z
" />
    <glyph glyph-name="Ntilde" unicode="&#xd1;" horiz-adv-x="769"
d="M177 505v-505h-91v718l506 -513v505h91v-718zM452 783q-21 0 -39 7t-33.5 15t-29 15t-26.5 7q-20 0 -30.5 -10.5t-15.5 -32.5h-69l4 18q4 23 14.5 41t25 30t31.5 18.5t34 6.5q21 0 38.5 -7t33 -15t29 -15t25.5 -7q21 0 32 10t16 33h68l-3 -18q-8 -45 -38 -70.5t-67 -25.5
z" />
    <glyph glyph-name="Ograve" unicode="&#xd2;" horiz-adv-x="802"
d="M401 79q58 0 107.5 21t85.5 58.5t56.5 87.5t20.5 109q0 58 -20.5 108.5t-56.5 88t-85.5 58.5t-107.5 21t-107.5 -21t-85.5 -58.5t-56.5 -88t-20.5 -108.5q0 -59 20.5 -109t56.5 -87.5t85.5 -58.5t107.5 -21zM401 -8q-76 0 -142.5 27.5t-115.5 76.5t-77 115.5t-28 143.5
t28 143.5t77 115t115.5 76.5t142.5 28t142.5 -28t115.5 -76.5t77 -115t28 -143.5t-28 -143.5t-77 -115.5t-115.5 -76.5t-142.5 -27.5zM280 913h109l77 -145h-73z" />
    <glyph glyph-name="Oacute" unicode="&#xd3;" horiz-adv-x="802"
d="M401 79q58 0 107.5 21t85.5 58.5t56.5 87.5t20.5 109q0 58 -20.5 108.5t-56.5 88t-85.5 58.5t-107.5 21t-107.5 -21t-85.5 -58.5t-56.5 -88t-20.5 -108.5q0 -59 20.5 -109t56.5 -87.5t85.5 -58.5t107.5 -21zM401 -8q-76 0 -142.5 27.5t-115.5 76.5t-77 115.5t-28 143.5
t28 143.5t77 115t115.5 76.5t142.5 28t142.5 -28t115.5 -76.5t77 -115t28 -143.5t-28 -143.5t-77 -115.5t-115.5 -76.5t-142.5 -27.5zM412 913h108l-112 -145h-73z" />
    <glyph glyph-name="Ocircumflex" unicode="&#xd4;" horiz-adv-x="802"
d="M401 79q58 0 107.5 21t85.5 58.5t56.5 87.5t20.5 109q0 58 -20.5 108.5t-56.5 88t-85.5 58.5t-107.5 21t-107.5 -21t-85.5 -58.5t-56.5 -88t-20.5 -108.5q0 -59 20.5 -109t56.5 -87.5t85.5 -58.5t107.5 -21zM401 -8q-76 0 -142.5 27.5t-115.5 76.5t-77 115.5t-28 143.5
t28 143.5t77 115t115.5 76.5t142.5 28t142.5 -28t115.5 -76.5t77 -115t28 -143.5t-28 -143.5t-77 -115.5t-115.5 -76.5t-142.5 -27.5zM228 826l173 100l173 -100l-35 -60l-138 82l-138 -82z" />
    <glyph glyph-name="Otilde" unicode="&#xd5;" horiz-adv-x="802"
d="M401 79q58 0 107.5 21t85.5 58.5t56.5 87.5t20.5 109q0 58 -20.5 108.5t-56.5 88t-85.5 58.5t-107.5 21t-107.5 -21t-85.5 -58.5t-56.5 -88t-20.5 -108.5q0 -59 20.5 -109t56.5 -87.5t85.5 -58.5t107.5 -21zM401 -8q-76 0 -142.5 27.5t-115.5 76.5t-77 115.5t-28 143.5
t28 143.5t77 115t115.5 76.5t142.5 28t142.5 -28t115.5 -76.5t77 -115t28 -143.5t-28 -143.5t-77 -115.5t-115.5 -76.5t-142.5 -27.5zM469 783q-21 0 -39 7t-33.5 15t-29 15t-26.5 7q-20 0 -30.5 -10.5t-15.5 -32.5h-69l4 18q4 23 14.5 41t25 30t31.5 18.5t34 6.5
q21 0 38.5 -7t33 -15t29 -15t25.5 -7q21 0 32 10t16 33h68l-3 -18q-8 -45 -38 -70.5t-67 -25.5z" />
    <glyph glyph-name="Odieresis" unicode="&#xd6;" horiz-adv-x="802"
d="M401 79q58 0 107.5 21t85.5 58.5t56.5 87.5t20.5 109q0 58 -20.5 108.5t-56.5 88t-85.5 58.5t-107.5 21t-107.5 -21t-85.5 -58.5t-56.5 -88t-20.5 -108.5q0 -59 20.5 -109t56.5 -87.5t85.5 -58.5t107.5 -21zM401 -8q-76 0 -142.5 27.5t-115.5 76.5t-77 115.5t-28 143.5
t28 143.5t77 115t115.5 76.5t142.5 28t142.5 -28t115.5 -76.5t77 -115t28 -143.5t-28 -143.5t-77 -115.5t-115.5 -76.5t-142.5 -27.5zM288 782q-24 0 -42.5 18t-18.5 44q0 25 18.5 42.5t42.5 17.5q26 0 44 -17.5t18 -42.5q0 -26 -18 -44t-44 -18zM513 782q-25 0 -43 18
t-18 44q0 25 18 42.5t43 17.5q26 0 44 -17.5t18 -42.5q0 -26 -18 -44t-44 -18z" />
    <glyph glyph-name="multiply" unicode="&#xd7;" horiz-adv-x="590"
d="M98 119l148 147l-150 150l50 49l149 -150l148 148l49 -49l-148 -148l150 -149l-49 -49l-150 149l-147 -147z" />
    <glyph glyph-name="Oslash" unicode="&#xd8;" horiz-adv-x="802"
d="M67 36l64 72q-44 48 -68.5 111t-24.5 136q0 77 28 143.5t77 115t115.5 76.5t142.5 28q60 0 114 -17.5t99 -49.5l71 79l54 -51l-69 -77q44 -48 69 -111t25 -136q0 -77 -28 -143.5t-77 -115.5t-115.5 -76.5t-142.5 -27.5q-61 0 -115.5 17.5t-99.5 49.5l-66 -74zM401 79
q58 0 107.5 21t85.5 58.5t56.5 87.5t20.5 109q0 52 -16.5 97.5t-45.5 81.5l-363 -408q32 -23 71 -35t84 -12zM131 355q0 -52 16 -97.5t45 -81.5l363 408q-32 23 -71 35t-83 12q-58 0 -107.5 -21t-85.5 -58.5t-56.5 -88t-20.5 -108.5z" />
    <glyph glyph-name="Ugrave" unicode="&#xd9;" horiz-adv-x="721"
d="M360 -8q-62 0 -114 19t-89.5 55t-58.5 87.5t-21 116.5v440h91v-444q0 -46 14 -81t39.5 -58.5t60.5 -35.5t78 -12t78 12t60.5 35.5t39.5 58.5t14 81v444h91v-440q0 -65 -21 -116.5t-58.5 -87.5t-89.5 -55t-114 -19zM236 913h109l77 -145h-73z" />
    <glyph glyph-name="Uacute" unicode="&#xda;" horiz-adv-x="721"
d="M360 -8q-62 0 -114 19t-89.5 55t-58.5 87.5t-21 116.5v440h91v-444q0 -46 14 -81t39.5 -58.5t60.5 -35.5t78 -12t78 12t60.5 35.5t39.5 58.5t14 81v444h91v-440q0 -65 -21 -116.5t-58.5 -87.5t-89.5 -55t-114 -19zM376 913h108l-112 -145h-73z" />
    <glyph glyph-name="Ucircumflex" unicode="&#xdb;" horiz-adv-x="721"
d="M360 -8q-62 0 -114 19t-89.5 55t-58.5 87.5t-21 116.5v440h91v-444q0 -46 14 -81t39.5 -58.5t60.5 -35.5t78 -12t78 12t60.5 35.5t39.5 58.5t14 81v444h91v-440q0 -65 -21 -116.5t-58.5 -87.5t-89.5 -55t-114 -19zM187 826l173 100l173 -100l-35 -60l-138 82l-138 -82z
" />
    <glyph glyph-name="Udieresis" unicode="&#xdc;" horiz-adv-x="721"
d="M360 -8q-62 0 -114 19t-89.5 55t-58.5 87.5t-21 116.5v440h91v-444q0 -46 14 -81t39.5 -58.5t60.5 -35.5t78 -12t78 12t60.5 35.5t39.5 58.5t14 81v444h91v-440q0 -65 -21 -116.5t-58.5 -87.5t-89.5 -55t-114 -19zM247 782q-24 0 -42.5 18t-18.5 44q0 25 18.5 42.5
t42.5 17.5q26 0 44 -17.5t18 -42.5q0 -26 -18 -44t-44 -18zM472 782q-25 0 -43 18t-18 44q0 25 18 42.5t43 17.5q26 0 44 -17.5t18 -42.5q0 -26 -18 -44t-44 -18z" />
    <glyph glyph-name="Yacute" unicode="&#xdd;" horiz-adv-x="632"
d="M270 301l-260 409h106l200 -320l200 320h106l-260 -409v-301h-92v301zM357 913h108l-112 -145h-73z" />
    <glyph glyph-name="Thorn" unicode="&#xde;" horiz-adv-x="550"
d="M86 710h91v-136h102q57 0 103.5 -15.5t79.5 -44t51 -68.5t18 -89q0 -50 -18 -90t-51 -68.5t-79.5 -44t-103.5 -15.5h-102v-139h-91v710zM278 223q78 0 119.5 35.5t41.5 98.5t-41.5 97.5t-119.5 34.5h-101v-266h101z" />
    <glyph glyph-name="germandbls" unicode="&#xdf;" horiz-adv-x="526"
d="M70 565q0 72 39.5 108.5t111.5 36.5h39v-78h-30q-42 0 -58 -21t-16 -59v-52h326l-135 -233q72 -23 113 -77t41 -134q0 -52 -19 -96t-53.5 -76t-82.5 -50t-106 -18h-7v82h8q80 0 127 43.5t47 114.5q0 32 -10.5 59.5t-32.5 48t-54.5 32t-76.5 11.5h-18l124 215h-191v-422
h-86v565z" />
    <glyph glyph-name="agrave" unicode="&#xe0;" horiz-adv-x="620"
d="M457 50q-32 -29 -72.5 -43.5t-86.5 -14.5q-55 0 -102 20t-81 54.5t-53 82t-19 101.5t19 101.5t53 82t81 54.5t102 20q46 0 86.5 -14.5t72.5 -43.5v50h86v-500h-86v50zM300 73q54 0 94.5 23t62.5 58v192q-22 35 -62.5 58t-94.5 23q-37 0 -67.5 -13.5t-53 -37.5t-35 -56.5
t-12.5 -69.5t12.5 -69.5t35 -56.5t53 -37.5t67.5 -13.5zM158 710h109l87 -165h-71z" />
    <glyph glyph-name="aacute" unicode="&#xe1;" horiz-adv-x="620"
d="M457 50q-32 -29 -72.5 -43.5t-86.5 -14.5q-55 0 -102 20t-81 54.5t-53 82t-19 101.5t19 101.5t53 82t81 54.5t102 20q46 0 86.5 -14.5t72.5 -43.5v50h86v-500h-86v50zM300 73q54 0 94.5 23t62.5 58v192q-22 35 -62.5 58t-94.5 23q-37 0 -67.5 -13.5t-53 -37.5t-35 -56.5
t-12.5 -69.5t12.5 -69.5t35 -56.5t53 -37.5t67.5 -13.5zM349 710h109l-124 -165h-72z" />
    <glyph glyph-name="acircumflex" unicode="&#xe2;" horiz-adv-x="620"
d="M457 50q-32 -29 -72.5 -43.5t-86.5 -14.5q-55 0 -102 20t-81 54.5t-53 82t-19 101.5t19 101.5t53 82t81 54.5t102 20q46 0 86.5 -14.5t72.5 -43.5v50h86v-500h-86v50zM300 73q54 0 94.5 23t62.5 58v192q-22 35 -62.5 58t-94.5 23q-37 0 -67.5 -13.5t-53 -37.5t-35 -56.5
t-12.5 -69.5t12.5 -69.5t35 -56.5t53 -37.5t67.5 -13.5zM148 611l170 107l170 -107l-35 -58l-135 86l-136 -86z" />
    <glyph glyph-name="atilde" unicode="&#xe3;" horiz-adv-x="620"
d="M457 50q-32 -29 -72.5 -43.5t-86.5 -14.5q-55 0 -102 20t-81 54.5t-53 82t-19 101.5t19 101.5t53 82t81 54.5t102 20q46 0 86.5 -14.5t72.5 -43.5v50h86v-500h-86v50zM300 73q54 0 94.5 23t62.5 58v192q-22 35 -62.5 58t-94.5 23q-37 0 -67.5 -13.5t-53 -37.5t-35 -56.5
t-12.5 -69.5t12.5 -69.5t35 -56.5t53 -37.5t67.5 -13.5zM148 585q9 45 38.5 69.5t64.5 24.5q21 0 38.5 -7t33 -15t29 -15t25.5 -7q21 0 32 11t16 33h66l-3 -18q-8 -42 -36.5 -68t-66.5 -26q-21 0 -39 7t-33.5 15t-29 15t-26.5 7q-20 0 -30.5 -11t-15.5 -34h-66z" />
    <glyph glyph-name="adieresis" unicode="&#xe4;" horiz-adv-x="620"
d="M457 50q-32 -29 -72.5 -43.5t-86.5 -14.5q-55 0 -102 20t-81 54.5t-53 82t-19 101.5t19 101.5t53 82t81 54.5t102 20q46 0 86.5 -14.5t72.5 -43.5v50h86v-500h-86v50zM300 73q54 0 94.5 23t62.5 58v192q-22 35 -62.5 58t-94.5 23q-37 0 -67.5 -13.5t-53 -37.5t-35 -56.5
t-12.5 -69.5t12.5 -69.5t35 -56.5t53 -37.5t67.5 -13.5zM205 571q-24 0 -42 17t-18 43q0 25 18 42t42 17q26 0 43.5 -17t17.5 -42q0 -26 -17.5 -43t-43.5 -17zM430 571q-25 0 -42.5 17t-17.5 43q0 25 17.5 42t42.5 17q26 0 43 -17t17 -42q0 -26 -17 -43t-43 -17z" />
    <glyph glyph-name="aring" unicode="&#xe5;" horiz-adv-x="620"
d="M457 50q-32 -29 -72.5 -43.5t-86.5 -14.5q-55 0 -102 20t-81 54.5t-53 82t-19 101.5t19 101.5t53 82t81 54.5t102 20q46 0 86.5 -14.5t72.5 -43.5v50h86v-500h-86v50zM300 73q54 0 94.5 23t62.5 58v192q-22 35 -62.5 58t-94.5 23q-37 0 -67.5 -13.5t-53 -37.5t-35 -56.5
t-12.5 -69.5t12.5 -69.5t35 -56.5t53 -37.5t67.5 -13.5zM298 613q20 0 34 13t14 34q0 22 -14 35t-34 13t-34 -13t-14 -35q0 -21 14 -34t34 -13zM298 566q-21 0 -39 7t-31.5 20t-21 30t-7.5 37q0 42 29 68.5t70 26.5t70 -26.5t29 -68.5q0 -20 -7.5 -37t-21 -30t-31.5 -20
t-39 -7z" />
    <glyph glyph-name="ae" unicode="&#xe6;" horiz-adv-x="922"
d="M645 -8q-65 0 -117.5 26.5t-87.5 72.5q-42 -48 -94 -73.5t-118 -25.5q-91 0 -145 44.5t-54 121.5q0 36 15 66t42 51.5t65 34t83 12.5q51 0 88.5 -10.5t64.5 -25.5v25q-1 35 -13 57.5t-31 35.5t-43.5 18t-50.5 5q-44 0 -80 -14.5t-62 -36.5l-41 70q32 26 79.5 44t104.5 18
q61 0 113 -23t77 -76q35 45 86 72t113 27q52 0 96.5 -18.5t77 -54t51 -87.5t19.5 -119h-406q3 -33 17 -61.5t36 -49.5t51.5 -33t63.5 -12q48 0 85 18t61 42l55 -60q-32 -34 -83.5 -57.5t-117.5 -23.5zM232 73q56 0 95.5 22t59.5 55v56q-26 20 -61 31.5t-85 11.5
q-25 0 -47 -5.5t-39 -17t-27 -28.5t-10 -40t9.5 -39t25.5 -26.5t36.5 -15t42.5 -4.5zM634 429q-55 0 -97 -34t-56 -91h305q-9 62 -52 94t-100 31z" />
    <glyph glyph-name="ccedilla" unicode="&#xe7;" horiz-adv-x="528"
d="M300 -8q-56 0 -103 20t-81 55t-53.5 82t-19.5 101t19.5 101t53.5 82t81 55t103 20q63 0 110.5 -22.5t80.5 -56.5l-55 -60q-24 24 -57.5 41t-78.5 17q-37 0 -67.5 -13.5t-53 -37.5t-35 -56.5t-12.5 -69.5t12.5 -69.5t35 -56.5t53 -37.5t67.5 -13.5q45 0 78.5 17t57.5 41
l55 -60q-33 -34 -80.5 -56.5t-110.5 -22.5zM262 0h59l-38 -135h-98z" />
    <glyph glyph-name="egrave" unicode="&#xe8;" horiz-adv-x="577"
d="M300 -8q-56 0 -103 20t-81 55t-53.5 82t-19.5 101t19.5 101.5t53.5 82t79.5 54.5t98.5 20q52 0 96.5 -18.5t77 -54t51 -87.5t19.5 -119h-406q3 -33 17 -61.5t36 -49.5t51.5 -33t63.5 -12q48 0 85 18t61 42l55 -60q-32 -34 -83.5 -57.5t-117.5 -23.5zM289 429
q-55 0 -97 -34t-56 -91h305q-9 62 -52 94t-100 31zM164 710h109l87 -165h-71z" />
    <glyph glyph-name="eacute" unicode="&#xe9;" horiz-adv-x="577"
d="M300 -8q-56 0 -103 20t-81 55t-53.5 82t-19.5 101t19.5 101.5t53.5 82t79.5 54.5t98.5 20q52 0 96.5 -18.5t77 -54t51 -87.5t19.5 -119h-406q3 -33 17 -61.5t36 -49.5t51.5 -33t63.5 -12q48 0 85 18t61 42l55 -60q-32 -34 -83.5 -57.5t-117.5 -23.5zM289 429
q-55 0 -97 -34t-56 -91h305q-9 62 -52 94t-100 31zM325 710h109l-124 -165h-72z" />
    <glyph glyph-name="ecircumflex" unicode="&#xea;" horiz-adv-x="577"
d="M300 -8q-56 0 -103 20t-81 55t-53.5 82t-19.5 101t19.5 101.5t53.5 82t79.5 54.5t98.5 20q52 0 96.5 -18.5t77 -54t51 -87.5t19.5 -119h-406q3 -33 17 -61.5t36 -49.5t51.5 -33t63.5 -12q48 0 85 18t61 42l55 -60q-32 -34 -83.5 -57.5t-117.5 -23.5zM289 429
q-55 0 -97 -34t-56 -91h305q-9 62 -52 94t-100 31zM124 611l170 107l170 -107l-35 -58l-135 86l-136 -86z" />
    <glyph glyph-name="edieresis" unicode="&#xeb;" horiz-adv-x="577"
d="M300 -8q-56 0 -103 20t-81 55t-53.5 82t-19.5 101t19.5 101.5t53.5 82t79.5 54.5t98.5 20q52 0 96.5 -18.5t77 -54t51 -87.5t19.5 -119h-406q3 -33 17 -61.5t36 -49.5t51.5 -33t63.5 -12q48 0 85 18t61 42l55 -60q-32 -34 -83.5 -57.5t-117.5 -23.5zM289 429
q-55 0 -97 -34t-56 -91h305q-9 62 -52 94t-100 31zM182 571q-24 0 -42 17t-18 43q0 25 18 42t42 17q26 0 43.5 -17t17.5 -42q0 -26 -17.5 -43t-43.5 -17zM407 571q-25 0 -42.5 17t-17.5 43q0 25 17.5 42t42.5 17q26 0 43 -17t17 -42q0 -26 -17 -43t-43 -17z" />
    <glyph glyph-name="igrave" unicode="&#xec;"
d="M77 500h86v-500h-86v500zM-9 710h109l87 -165h-71z" />
    <glyph glyph-name="iacute" unicode="&#xed;"
d="M77 500h86v-500h-86v500zM142 710h109l-124 -165h-72z" />
    <glyph glyph-name="icircumflex" unicode="&#xee;"
d="M-49 611l170 107l170 -107l-35 -58l-135 86l-136 -86zM77 500h86v-500h-86v500z" />
    <glyph glyph-name="idieresis" unicode="&#xef;"
d="M77 500h86v-500h-86v500zM8 571q-24 0 -42 17t-18 43q0 25 18 42t42 17q26 0 43.5 -17t17.5 -42q0 -26 -17.5 -43t-43.5 -17zM233 571q-25 0 -42.5 17t-17.5 43q0 25 17.5 42t42.5 17q26 0 43 -17t17 -42q0 -26 -17 -43t-43 -17z" />
    <glyph glyph-name="eth" unicode="&#xf0;" horiz-adv-x="605"
d="M177 629h85l-55 81h94l56 -81h125v-67h-79l105 -152q30 -45 42 -83t12 -77q0 -53 -19.5 -100t-54 -82t-82.5 -55.5t-104 -20.5t-103.5 20.5t-82 55.5t-54 82t-19.5 100q0 52 18.5 98.5t52 81.5t79.5 55.5t101 22.5q16 0 30.5 -2.5t27.5 -6.5l-44 63h-131v67zM302 71
q39 0 70.5 14t54 38.5t35 57t12.5 69.5t-12.5 69.5t-35 57t-54 38.5t-70.5 14q-38 0 -70 -14t-54.5 -38.5t-35 -57t-12.5 -69.5t12.5 -69.5t35 -57t54.5 -38.5t70 -14z" />
    <glyph glyph-name="ntilde" unicode="&#xf1;" horiz-adv-x="578"
d="M77 500h86v-57q29 36 70 50.5t85 14.5q42 0 77.5 -14.5t61 -40.5t40 -64t14.5 -84v-305h-86v300q0 55 -33.5 91t-92.5 36q-53 0 -87.5 -27.5t-48.5 -76.5v-323h-86v500zM124 585q9 45 38.5 69.5t64.5 24.5q21 0 38.5 -7t33 -15t29 -15t25.5 -7q21 0 32 11t16 33h66
l-3 -18q-8 -42 -36.5 -68t-66.5 -26q-21 0 -39 7t-33.5 15t-29 15t-26.5 7q-20 0 -30.5 -11t-15.5 -34h-66z" />
    <glyph glyph-name="ograve" unicode="&#xf2;" horiz-adv-x="605"
d="M303 73q38 0 69.5 13.5t54 37.5t34.5 56.5t12 69.5t-12 69.5t-34.5 56.5t-54 37.5t-69.5 13.5t-69.5 -13.5t-54 -37.5t-35 -56.5t-12.5 -69.5t12.5 -69.5t35 -56.5t54 -37.5t69.5 -13.5zM303 -8q-57 0 -104.5 20t-82 55t-54 82t-19.5 101t19.5 101t54 82t82 55t104.5 20
q56 0 103.5 -20t82 -55t54 -82t19.5 -101t-19.5 -101t-54 -82t-82 -55t-103.5 -20zM162 710h109l87 -165h-71z" />
    <glyph glyph-name="oacute" unicode="&#xf3;" horiz-adv-x="605"
d="M303 73q38 0 69.5 13.5t54 37.5t34.5 56.5t12 69.5t-12 69.5t-34.5 56.5t-54 37.5t-69.5 13.5t-69.5 -13.5t-54 -37.5t-35 -56.5t-12.5 -69.5t12.5 -69.5t35 -56.5t54 -37.5t69.5 -13.5zM303 -8q-57 0 -104.5 20t-82 55t-54 82t-19.5 101t19.5 101t54 82t82 55t104.5 20
q56 0 103.5 -20t82 -55t54 -82t19.5 -101t-19.5 -101t-54 -82t-82 -55t-103.5 -20zM334 710h109l-124 -165h-72z" />
    <glyph glyph-name="ocircumflex" unicode="&#xf4;" horiz-adv-x="605"
d="M303 73q38 0 69.5 13.5t54 37.5t34.5 56.5t12 69.5t-12 69.5t-34.5 56.5t-54 37.5t-69.5 13.5t-69.5 -13.5t-54 -37.5t-35 -56.5t-12.5 -69.5t12.5 -69.5t35 -56.5t54 -37.5t69.5 -13.5zM303 -8q-57 0 -104.5 20t-82 55t-54 82t-19.5 101t19.5 101t54 82t82 55t104.5 20
q56 0 103.5 -20t82 -55t54 -82t19.5 -101t-19.5 -101t-54 -82t-82 -55t-103.5 -20zM132 611l170 107l170 -107l-35 -58l-135 86l-136 -86z" />
    <glyph glyph-name="otilde" unicode="&#xf5;" horiz-adv-x="605"
d="M303 73q38 0 69.5 13.5t54 37.5t34.5 56.5t12 69.5t-12 69.5t-34.5 56.5t-54 37.5t-69.5 13.5t-69.5 -13.5t-54 -37.5t-35 -56.5t-12.5 -69.5t12.5 -69.5t35 -56.5t54 -37.5t69.5 -13.5zM303 -8q-57 0 -104.5 20t-82 55t-54 82t-19.5 101t19.5 101t54 82t82 55t104.5 20
q56 0 103.5 -20t82 -55t54 -82t19.5 -101t-19.5 -101t-54 -82t-82 -55t-103.5 -20zM132 585q9 45 38.5 69.5t64.5 24.5q21 0 38.5 -7t33 -15t29 -15t25.5 -7q21 0 32 11t16 33h66l-3 -18q-8 -42 -36.5 -68t-66.5 -26q-21 0 -39 7t-33.5 15t-29 15t-26.5 7q-20 0 -30.5 -11
t-15.5 -34h-66z" />
    <glyph glyph-name="odieresis" unicode="&#xf6;" horiz-adv-x="605"
d="M303 73q38 0 69.5 13.5t54 37.5t34.5 56.5t12 69.5t-12 69.5t-34.5 56.5t-54 37.5t-69.5 13.5t-69.5 -13.5t-54 -37.5t-35 -56.5t-12.5 -69.5t12.5 -69.5t35 -56.5t54 -37.5t69.5 -13.5zM303 -8q-57 0 -104.5 20t-82 55t-54 82t-19.5 101t19.5 101t54 82t82 55t104.5 20
q56 0 103.5 -20t82 -55t54 -82t19.5 -101t-19.5 -101t-54 -82t-82 -55t-103.5 -20zM189 571q-24 0 -42 17t-18 43q0 25 18 42t42 17q26 0 43.5 -17t17.5 -42q0 -26 -17.5 -43t-43.5 -17zM414 571q-25 0 -42.5 17t-17.5 43q0 25 17.5 42t42.5 17q26 0 43 -17t17 -42
q0 -26 -17 -43t-43 -17z" />
    <glyph glyph-name="divide" unicode="&#xf7;" horiz-adv-x="630"
d="M315 69q-27 0 -47 19t-20 47t20 47t47 19q28 0 47 -19t19 -47t-19 -47t-47 -19zM96 310h438v-70h-438v70zM315 348q-27 0 -47 19.5t-20 47.5q0 27 20 46.5t47 19.5q28 0 47 -19.5t19 -46.5q0 -28 -19 -47.5t-47 -19.5z" />
    <glyph glyph-name="oslash" unicode="&#xf8;" horiz-adv-x="606"
d="M39 34l56 57q-25 33 -38.5 73.5t-13.5 85.5q0 54 19.5 101t54 82t82 55t104.5 20q45 0 83.5 -12.5t70.5 -35.5l54 55l50 -50l-53 -54q26 -33 40 -74t14 -87q0 -54 -19.5 -101t-54 -82t-82 -55t-103.5 -20q-46 0 -86 13t-72 37l-56 -58zM303 73q38 0 69.5 13.5t54 37.5
t34.5 56.5t12 69.5q0 54 -27 98l-241 -246q20 -14 44.5 -21.5t53.5 -7.5zM132 250q0 -54 25 -96l241 245q-42 28 -95 28q-38 0 -69.5 -13.5t-54 -37.5t-35 -56.5t-12.5 -69.5z" />
    <glyph glyph-name="ugrave" unicode="&#xf9;" horiz-adv-x="568"
d="M405 56q-29 -36 -69.5 -50t-84.5 -14q-43 0 -78.5 14.5t-61 40.5t-39.5 63.5t-14 84.5v305h86v-300q0 -55 33.5 -91t91.5 -36q52 0 86.5 26t49.5 74v327h86v-500h-86v56zM133 710h109l87 -165h-71z" />
    <glyph glyph-name="uacute" unicode="&#xfa;" horiz-adv-x="568"
d="M405 56q-29 -36 -69.5 -50t-84.5 -14q-43 0 -78.5 14.5t-61 40.5t-39.5 63.5t-14 84.5v305h86v-300q0 -55 33.5 -91t91.5 -36q52 0 86.5 26t49.5 74v327h86v-500h-86v56zM305 710h109l-124 -165h-72z" />
    <glyph glyph-name="ucircumflex" unicode="&#xfb;" horiz-adv-x="568"
d="M405 56q-29 -36 -69.5 -50t-84.5 -14q-43 0 -78.5 14.5t-61 40.5t-39.5 63.5t-14 84.5v305h86v-300q0 -55 33.5 -91t91.5 -36q52 0 86.5 26t49.5 74v327h86v-500h-86v56zM104 611l170 107l170 -107l-35 -58l-135 86l-136 -86z" />
    <glyph glyph-name="udieresis" unicode="&#xfc;" horiz-adv-x="568"
d="M405 56q-29 -36 -69.5 -50t-84.5 -14q-43 0 -78.5 14.5t-61 40.5t-39.5 63.5t-14 84.5v305h86v-300q0 -55 33.5 -91t91.5 -36q52 0 86.5 26t49.5 74v327h86v-500h-86v56zM161 571q-24 0 -42 17t-18 43q0 25 18 42t42 17q26 0 43.5 -17t17.5 -42q0 -26 -17.5 -43
t-43.5 -17zM386 571q-25 0 -42.5 17t-17.5 43q0 25 17.5 42t42.5 17q26 0 43 -17t17 -42q0 -26 -17 -43t-43 -17z" />
    <glyph glyph-name="yacute" unicode="&#xfd;" horiz-adv-x="510"
d="M210 42l-204 458h93l156 -364l157 364h93l-307 -684h-91zM306 710h109l-124 -165h-72z" />
    <glyph glyph-name="thorn" unicode="&#xfe;" horiz-adv-x="620"
d="M77 710h86v-260q31 29 71.5 43.5t87.5 14.5q55 0 102 -20t81 -54.5t53 -82t19 -101.5t-19 -101.5t-53 -82t-81 -54.5t-102 -20q-47 0 -87.5 14.5t-71.5 43.5v-234h-86v894zM320 427q-54 0 -95 -23t-62 -58v-192q21 -35 62 -58t95 -23q37 0 67.5 13.5t53 37.5t35 56.5
t12.5 69.5t-12.5 69.5t-35 56.5t-53 37.5t-67.5 13.5z" />
    <glyph glyph-name="ydieresis" unicode="&#xff;" horiz-adv-x="510"
d="M210 42l-204 458h93l156 -364l157 364h93l-307 -684h-91zM149 571q-24 0 -42 17t-18 43q0 25 18 42t42 17q26 0 43.5 -17t17.5 -42q0 -26 -17.5 -43t-43.5 -17zM374 571q-25 0 -42.5 17t-17.5 43q0 25 17.5 42t42.5 17q26 0 43 -17t17 -42q0 -26 -17 -43t-43 -17z" />
    <glyph glyph-name="Abreve" unicode="&#x102;" horiz-adv-x="710"
d="M355 718l346 -718h-98l-88 186h-320l-88 -186h-98zM235 270h240l-120 254zM353 772q-35 0 -63 11t-48.5 29.5t-32 43.5t-12.5 53h64q2 -31 26 -55t67 -24t67.5 24t26.5 55h64q-2 -28 -13.5 -53t-32 -43.5t-49 -29.5t-64.5 -11z" />
    <glyph glyph-name="Amacron" unicode="&#x100;" horiz-adv-x="710"
d="M355 718l346 -718h-98l-88 186h-320l-88 -186h-98zM235 270h240l-120 254zM208 868h292v-65h-292v65z" />
    <glyph glyph-name="Aogonek" unicode="&#x104;" horiz-adv-x="710"
d="M355 718l346 -718h-1q-31 -14 -53.5 -34.5t-22.5 -46.5q0 -25 15 -36.5t29 -11.5q8 0 17.5 3t15.5 8v-54q-27 -18 -61 -18q-19 0 -36.5 6.5t-31 19t-21.5 30t-8 39.5q0 29 17 55t43 40l-88 186h-320l-88 -186h-98zM235 270h240l-120 254z" />
    <glyph glyph-name="Cacute" unicode="&#x106;" horiz-adv-x="663"
d="M401 -8q-76 0 -142.5 27.5t-115.5 76.5t-77 115.5t-28 143.5t28 143.5t77 115t115.5 76.5t142.5 28q67 0 125.5 -21t104.5 -63l-53 -69q-35 29 -79 47.5t-98 18.5q-58 0 -107.5 -21t-85.5 -58.5t-56.5 -88t-20.5 -108.5q0 -59 20.5 -109t56.5 -87.5t85.5 -58.5t107.5 -21
q54 0 98 18.5t79 47.5l53 -69q-46 -42 -104.5 -63t-125.5 -21zM413 913h108l-112 -145h-73z" />
    <glyph glyph-name="Ccaron" unicode="&#x10c;" horiz-adv-x="663"
d="M401 -8q-76 0 -142.5 27.5t-115.5 76.5t-77 115.5t-28 143.5t28 143.5t77 115t115.5 76.5t142.5 28q67 0 125.5 -21t104.5 -63l-53 -69q-35 29 -79 47.5t-98 18.5q-58 0 -107.5 -21t-85.5 -58.5t-56.5 -88t-20.5 -108.5q0 -59 20.5 -109t56.5 -87.5t85.5 -58.5t107.5 -21
q54 0 98 18.5t79 47.5l53 -69q-46 -42 -104.5 -63t-125.5 -21zM227 866l35 60l138 -82l138 82l35 -60l-173 -100z" />
    <glyph glyph-name="Ccircumflex" unicode="&#x108;" horiz-adv-x="663"
d="M401 -8q-76 0 -142.5 27.5t-115.5 76.5t-77 115.5t-28 143.5t28 143.5t77 115t115.5 76.5t142.5 28q67 0 125.5 -21t104.5 -63l-53 -69q-35 29 -79 47.5t-98 18.5q-58 0 -107.5 -21t-85.5 -58.5t-56.5 -88t-20.5 -108.5q0 -59 20.5 -109t56.5 -87.5t85.5 -58.5t107.5 -21
q54 0 98 18.5t79 47.5l53 -69q-46 -42 -104.5 -63t-125.5 -21zM227 826l173 100l173 -100l-35 -60l-138 82l-138 -82z" />
    <glyph glyph-name="Cdotaccent" unicode="&#x10a;" horiz-adv-x="663"
d="M401 -8q-76 0 -142.5 27.5t-115.5 76.5t-77 115.5t-28 143.5t28 143.5t77 115t115.5 76.5t142.5 28q67 0 125.5 -21t104.5 -63l-53 -69q-35 29 -79 47.5t-98 18.5q-58 0 -107.5 -21t-85.5 -58.5t-56.5 -88t-20.5 -108.5q0 -59 20.5 -109t56.5 -87.5t85.5 -58.5t107.5 -21
q54 0 98 18.5t79 47.5l53 -69q-46 -42 -104.5 -63t-125.5 -21zM401 780q-25 0 -43.5 18.5t-18.5 45.5q0 26 18.5 44t43.5 18q27 0 45.5 -18t18.5 -44q0 -27 -18.5 -45.5t-45.5 -18.5z" />
    <glyph glyph-name="Dcaron" unicode="&#x10e;" horiz-adv-x="713"
d="M297 85q64 0 117 20.5t90.5 56.5t58 85.5t20.5 107.5t-20.5 107.5t-58 85.5t-90.5 56.5t-117 20.5h-120v-540h120zM86 710h211q82 0 151.5 -27t120 -74.5t79 -112.5t28.5 -141t-28.5 -141t-79 -112.5t-120 -74.5t-151.5 -27h-211v710zM147 866l35 60l138 -82l138 82
l35 -60l-173 -100z" />
    <glyph glyph-name="Dcroat" unicode="&#x110;" horiz-adv-x="744"
d="M9 399h108v311h211q82 0 151.5 -27t120 -74.5t79 -112.5t28.5 -141t-28.5 -141t-79 -112.5t-120 -74.5t-151.5 -27h-211v312h-108v87zM328 85q64 0 117 20.5t90.5 56.5t58 85.5t20.5 107.5t-20.5 107.5t-58 85.5t-90.5 56.5t-117 20.5h-120v-226h134v-87h-134v-227h120z
" />
    <glyph glyph-name="Ebreve" unicode="&#x114;" horiz-adv-x="545"
d="M86 710h410v-88h-319v-215h259v-88h-259v-231h319v-88h-410v710zM289 772q-35 0 -63 11t-48.5 29.5t-32 43.5t-12.5 53h64q2 -31 26 -55t67 -24t67.5 24t26.5 55h64q-2 -28 -13.5 -53t-32 -43.5t-49 -29.5t-64.5 -11z" />
    <glyph glyph-name="Ecaron" unicode="&#x11a;" horiz-adv-x="545"
d="M86 710h410v-88h-319v-215h259v-88h-259v-231h319v-88h-410v710zM117 866l35 60l138 -82l138 82l35 -60l-173 -100z" />
    <glyph glyph-name="Emacron" unicode="&#x112;" horiz-adv-x="545"
d="M86 710h410v-88h-319v-215h259v-88h-259v-231h319v-88h-410v710zM144 868h292v-65h-292v65z" />
    <glyph glyph-name="Eogonek" unicode="&#x118;" horiz-adv-x="545"
d="M86 710h410v-88h-319v-215h259v-88h-259v-231h319v-88h-410v710zM432 -189q-22 0 -41.5 6t-34.5 17.5t-23.5 28t-8.5 37.5q0 32 24 60t55 40h92q-42 -18 -63.5 -40t-21.5 -44q0 -17 13 -28.5t37 -11.5q11 0 20.5 2.5t15.5 4.5v-59q-27 -13 -64 -13z" />
    <glyph glyph-name="Edotaccent" unicode="&#x116;" horiz-adv-x="545"
d="M86 710h410v-88h-319v-215h259v-88h-259v-231h319v-88h-410v710zM293 780q-25 0 -43.5 18.5t-18.5 45.5q0 26 18.5 44t43.5 18q27 0 45.5 -18t18.5 -44q0 -27 -18.5 -45.5t-45.5 -18.5z" />
    <glyph glyph-name="Gbreve" unicode="&#x11e;" horiz-adv-x="730"
d="M401 -8q-76 0 -142.5 27.5t-115.5 76.5t-77 115.5t-28 143.5t28 143.5t77 115t115.5 76.5t142.5 28q72 0 135.5 -22.5t111.5 -67.5l-56 -68q-35 33 -84.5 52t-106.5 19q-58 0 -107.5 -21t-85.5 -58.5t-56.5 -88t-20.5 -108.5q0 -59 20.5 -109t56.5 -87.5t85.5 -58.5
t107.5 -21q43 0 85.5 9.5t75.5 29.5v201h-198l39 88h250v-335q-50 -38 -116 -59t-136 -21zM399 772q-35 0 -63 11t-48.5 29.5t-32 43.5t-12.5 53h64q2 -31 26 -55t67 -24t67.5 24t26.5 55h64q-2 -28 -13.5 -53t-32 -43.5t-49 -29.5t-64.5 -11z" />
    <glyph glyph-name="Gcircumflex" unicode="&#x11c;" horiz-adv-x="730"
d="M401 -8q-76 0 -142.5 27.5t-115.5 76.5t-77 115.5t-28 143.5t28 143.5t77 115t115.5 76.5t142.5 28q72 0 135.5 -22.5t111.5 -67.5l-56 -68q-35 33 -84.5 52t-106.5 19q-58 0 -107.5 -21t-85.5 -58.5t-56.5 -88t-20.5 -108.5q0 -59 20.5 -109t56.5 -87.5t85.5 -58.5
t107.5 -21q43 0 85.5 9.5t75.5 29.5v201h-198l39 88h250v-335q-50 -38 -116 -59t-136 -21zM228 826l173 100l173 -100l-35 -60l-138 82l-138 -82z" />
    <glyph glyph-name="Gcommaaccent" unicode="&#x122;" horiz-adv-x="730"
d="M352 -50h100l-109 -179h-65zM401 -8q-76 0 -142.5 27.5t-115.5 76.5t-77 115.5t-28 143.5t28 143.5t77 115t115.5 76.5t142.5 28q72 0 135.5 -22.5t111.5 -67.5l-56 -68q-35 33 -84.5 52t-106.5 19q-58 0 -107.5 -21t-85.5 -58.5t-56.5 -88t-20.5 -108.5q0 -59 20.5 -109
t56.5 -87.5t85.5 -58.5t107.5 -21q43 0 85.5 9.5t75.5 29.5v201h-198l39 88h250v-335q-50 -38 -116 -59t-136 -21z" />
    <glyph glyph-name="Gdotaccent" unicode="&#x120;" horiz-adv-x="730"
d="M401 -8q-76 0 -142.5 27.5t-115.5 76.5t-77 115.5t-28 143.5t28 143.5t77 115t115.5 76.5t142.5 28q72 0 135.5 -22.5t111.5 -67.5l-56 -68q-35 33 -84.5 52t-106.5 19q-58 0 -107.5 -21t-85.5 -58.5t-56.5 -88t-20.5 -108.5q0 -59 20.5 -109t56.5 -87.5t85.5 -58.5
t107.5 -21q43 0 85.5 9.5t75.5 29.5v201h-198l39 88h250v-335q-50 -38 -116 -59t-136 -21zM400 780q-25 0 -43.5 18.5t-18.5 45.5q0 26 18.5 44t43.5 18q27 0 45.5 -18t18.5 -44q0 -27 -18.5 -45.5t-45.5 -18.5z" />
    <glyph glyph-name="Hbar" unicode="&#x126;" horiz-adv-x="746"
d="M23 602h63v108h91v-108h392v108h91v-108h63v-88h-63v-514h-91v319h-392v-319h-91v514h-63v88zM569 407v107h-392v-107h392z" />
    <glyph glyph-name="Hcircumflex" unicode="&#x124;" horiz-adv-x="746"
d="M86 710h91v-303h392v303h91v-710h-91v319h-392v-319h-91v710zM200 826l173 100l173 -100l-35 -60l-138 82l-138 -82z" />
    <glyph glyph-name="Ibreve" unicode="&#x12c;" horiz-adv-x="263"
d="M86 710h91v-710h-91v710zM131 772q-35 0 -63 11t-48.5 29.5t-32 43.5t-12.5 53h64q2 -31 26 -55t67 -24t67.5 24t26.5 55h64q-2 -28 -13.5 -53t-32 -43.5t-49 -29.5t-64.5 -11z" />
    <glyph glyph-name="Idotaccent" unicode="&#x130;" horiz-adv-x="263"
d="M86 710h91v-710h-91v710zM130 780q-25 0 -43.5 18.5t-18.5 45.5q0 26 18.5 44t43.5 18q27 0 45.5 -18t18.5 -44q0 -27 -18.5 -45.5t-45.5 -18.5z" />
    <glyph glyph-name="Imacron" unicode="&#x12a;" horiz-adv-x="263"
d="M86 710h91v-710h-91v710zM-14 868h292v-65h-292v65z" />
    <glyph glyph-name="Iogonek" unicode="&#x12e;" horiz-adv-x="263"
d="M121 -190q-19 0 -36.5 6.5t-31 19t-21.5 30t-8 39.5q0 29 18 55t44 40v710h91v-710q-31 -14 -51.5 -34.5t-20.5 -46.5q0 -25 15 -36.5t29 -11.5q8 0 17.5 3t15.5 8v-54q-27 -18 -61 -18z" />
    <glyph glyph-name="Itilde" unicode="&#x128;" horiz-adv-x="263"
d="M86 710h91v-710h-91v710zM201 783q-21 0 -39 7t-33.5 15t-29 15t-26.5 7q-20 0 -30.5 -10.5t-15.5 -32.5h-69l4 18q4 23 14.5 41t25 30t31.5 18.5t34 6.5q21 0 38.5 -7t33 -15t29 -15t25.5 -7q21 0 32 10t16 33h68l-3 -18q-8 -45 -38 -70.5t-67 -25.5z" />
    <glyph glyph-name="uni1ECA" unicode="&#x1eca;" horiz-adv-x="263"
d="M86 710h91v-710h-91v710zM131 -192q-26 0 -44 18t-18 44t18 43.5t44 17.5t44 -17.5t18 -43.5t-18 -44t-44 -18z" />
    <glyph glyph-name="Jcircumflex" unicode="&#x134;" horiz-adv-x="495"
d="M217 -8q-43 0 -80.5 13.5t-65.5 39.5t-44.5 64.5t-16.5 88.5h91q0 -30 9 -52.5t25 -37t36.5 -22t44.5 -7.5q51 0 84 29t33 90v512h91v-518q0 -50 -16.5 -87.5t-45 -62.5t-66 -37.5t-79.5 -12.5zM205 826l173 100l173 -100l-35 -60l-138 82l-138 -82z" />
    <glyph glyph-name="Kcommaaccent" unicode="&#x136;" horiz-adv-x="653"
d="M278 -50h100l-109 -179h-65zM86 710h91v-356l324 356h112l-328 -361l355 -349h-121l-342 337v-337h-91v710z" />
    <glyph glyph-name="Lacute" unicode="&#x139;" horiz-adv-x="499"
d="M86 710h91v-621h311v-89h-402v710zM172 913h108l-112 -145h-73z" />
    <glyph glyph-name="Lcaron" unicode="&#x13d;" horiz-adv-x="499"
d="M86 710h91v-621h311v-89h-402v710zM281 710h87l-51 -165h-61z" />
    <glyph glyph-name="Lcommaaccent" unicode="&#x13b;" horiz-adv-x="499"
d="M231 -50h100l-109 -179h-65zM86 710h91v-621h311v-89h-402v710z" />
    <glyph glyph-name="Ldot" unicode="&#x13f;" horiz-adv-x="499"
d="M372 339q-26 0 -44 18t-18 44t18 43.5t44 17.5t44 -17.5t18 -43.5t-18 -44t-44 -18zM86 710h91v-621h311v-89h-402v710z" />
    <glyph glyph-name="Lslash" unicode="&#x141;" horiz-adv-x="526"
d="M-11 268l124 81v361h91v-302l168 110l42 -71l-210 -137v-221h311v-89h-402v250l-82 -53z" />
    <glyph glyph-name="Eng" unicode="&#x14a;" horiz-adv-x="769"
d="M683 -29q0 -75 -40 -115t-116 -40h-41v75h17q87 0 89 85v108l-415 421v-505h-91v718l506 -513v505h91v-739v0z" />
    <glyph glyph-name="Nacute" unicode="&#x143;" horiz-adv-x="769"
d="M177 505v-505h-91v718l506 -513v505h91v-718zM400 913h108l-112 -145h-73z" />
    <glyph glyph-name="Ncaron" unicode="&#x147;" horiz-adv-x="769"
d="M177 505v-505h-91v718l506 -513v505h91v-718zM211 866l35 60l138 -82l138 82l35 -60l-173 -100z" />
    <glyph glyph-name="Ncommaaccent" unicode="&#x145;" horiz-adv-x="769"
d="M353 -50h100l-109 -179h-65zM177 505v-505h-91v718l506 -513v505h91v-718z" />
    <glyph glyph-name="OE" unicode="&#x152;" horiz-adv-x="1080"
d="M401 -8q-76 0 -142.5 27.5t-115.5 76.5t-77 115.5t-28 143.5t28 143.5t77 115t115.5 76.5t142.5 28q58 0 110 -16.5t97 -46.5v55h411v-88h-324v-51q26 -35 42.5 -76.5t22.5 -87.5h198v-88h-196q-5 -51 -22 -97t-45 -84v-50h324v-88h-411v54q-45 -29 -97 -45.5t-110 -16.5
zM401 79q58 0 107.5 21t85.5 58.5t56.5 87.5t20.5 109q0 58 -20.5 108.5t-56.5 88t-85.5 58.5t-107.5 21t-107.5 -21t-85.5 -58.5t-56.5 -88t-20.5 -108.5q0 -59 20.5 -109t56.5 -87.5t85.5 -58.5t107.5 -21z" />
    <glyph glyph-name="Obreve" unicode="&#x14e;" horiz-adv-x="802"
d="M401 79q58 0 107.5 21t85.5 58.5t56.5 87.5t20.5 109q0 58 -20.5 108.5t-56.5 88t-85.5 58.5t-107.5 21t-107.5 -21t-85.5 -58.5t-56.5 -88t-20.5 -108.5q0 -59 20.5 -109t56.5 -87.5t85.5 -58.5t107.5 -21zM401 -8q-76 0 -142.5 27.5t-115.5 76.5t-77 115.5t-28 143.5
t28 143.5t77 115t115.5 76.5t142.5 28t142.5 -28t115.5 -76.5t77 -115t28 -143.5t-28 -143.5t-77 -115.5t-115.5 -76.5t-142.5 -27.5zM399 772q-35 0 -63 11t-48.5 29.5t-32 43.5t-12.5 53h64q2 -31 26 -55t67 -24t67.5 24t26.5 55h64q-2 -28 -13.5 -53t-32 -43.5t-49 -29.5
t-64.5 -11z" />
    <glyph glyph-name="Ohungarumlaut" unicode="&#x150;" horiz-adv-x="802"
d="M401 79q58 0 107.5 21t85.5 58.5t56.5 87.5t20.5 109q0 58 -20.5 108.5t-56.5 88t-85.5 58.5t-107.5 21t-107.5 -21t-85.5 -58.5t-56.5 -88t-20.5 -108.5q0 -59 20.5 -109t56.5 -87.5t85.5 -58.5t107.5 -21zM401 -8q-76 0 -142.5 27.5t-115.5 76.5t-77 115.5t-28 143.5
t28 143.5t77 115t115.5 76.5t142.5 28t142.5 -28t115.5 -76.5t77 -115t28 -143.5t-28 -143.5t-77 -115.5t-115.5 -76.5t-142.5 -27.5zM328 913h104l-113 -145h-68zM528 913h104l-113 -145h-68z" />
    <glyph glyph-name="Omacron" unicode="&#x14c;" horiz-adv-x="802"
d="M401 79q58 0 107.5 21t85.5 58.5t56.5 87.5t20.5 109q0 58 -20.5 108.5t-56.5 88t-85.5 58.5t-107.5 21t-107.5 -21t-85.5 -58.5t-56.5 -88t-20.5 -108.5q0 -59 20.5 -109t56.5 -87.5t85.5 -58.5t107.5 -21zM401 -8q-76 0 -142.5 27.5t-115.5 76.5t-77 115.5t-28 143.5
t28 143.5t77 115t115.5 76.5t142.5 28t142.5 -28t115.5 -76.5t77 -115t28 -143.5t-28 -143.5t-77 -115.5t-115.5 -76.5t-142.5 -27.5zM254 868h292v-65h-292v65z" />
    <glyph glyph-name="uni1ECC" unicode="&#x1ecc;" horiz-adv-x="802"
d="M401 79q58 0 107.5 21t85.5 58.5t56.5 87.5t20.5 109q0 58 -20.5 108.5t-56.5 88t-85.5 58.5t-107.5 21t-107.5 -21t-85.5 -58.5t-56.5 -88t-20.5 -108.5q0 -59 20.5 -109t56.5 -87.5t85.5 -58.5t107.5 -21zM401 -8q-76 0 -142.5 27.5t-115.5 76.5t-77 115.5t-28 143.5
t28 143.5t77 115t115.5 76.5t142.5 28t142.5 -28t115.5 -76.5t77 -115t28 -143.5t-28 -143.5t-77 -115.5t-115.5 -76.5t-142.5 -27.5zM401 -192q-26 0 -44 18t-18 44t18 43.5t44 17.5t44 -17.5t18 -43.5t-18 -44t-44 -18z" />
    <glyph glyph-name="Racute" unicode="&#x154;" horiz-adv-x="621"
d="M255 310h-78v-310h-91v710h211q52 0 94 -14t72 -40.5t46 -63.5t16 -82q0 -76 -45 -127.5t-123 -66.5l245 -316h-110zM291 391q70 0 105 31t35 86q0 56 -35 87t-105 31h-114v-235h114zM297 913h108l-112 -145h-73z" />
    <glyph glyph-name="Rcaron" unicode="&#x158;" horiz-adv-x="621"
d="M255 310h-78v-310h-91v710h211q52 0 94 -14t72 -40.5t46 -63.5t16 -82q0 -76 -45 -127.5t-123 -66.5l245 -316h-110zM291 391q70 0 105 31t35 86q0 56 -35 87t-105 31h-114v-235h114zM108 866l35 60l138 -82l138 82l35 -60l-173 -100z" />
    <glyph glyph-name="Rcommaaccent" unicode="&#x156;" horiz-adv-x="621"
d="M260 -50h100l-109 -179h-65zM255 310h-78v-310h-91v710h211q52 0 94 -14t72 -40.5t46 -63.5t16 -82q0 -76 -45 -127.5t-123 -66.5l245 -316h-110zM291 391q70 0 105 31t35 86q0 56 -35 87t-105 31h-114v-235h114z" />
    <glyph glyph-name="Sacute" unicode="&#x15a;" horiz-adv-x="519"
d="M253 -8q-78 0 -138.5 32.5t-92.5 77.5l69 60q26 -33 67.5 -58t93.5 -25q62 0 98 26.5t36 73.5q0 49 -29.5 78t-86.5 54l-65 28q-81 35 -118 84.5t-37 116.5q0 40 17.5 73t46.5 56.5t66.5 36t76.5 12.5q63 0 113 -23.5t86 -67.5l-64 -64q-28 33 -59.5 50.5t-78.5 17.5
q-23 0 -43 -6t-36 -18t-25 -29.5t-9 -39.5q0 -39 24 -67t81 -53l65 -28q36 -16 66.5 -35t53 -43.5t35 -55t12.5 -67.5q0 -44 -15.5 -80t-45 -62t-71 -40.5t-93.5 -14.5zM286 913h108l-112 -145h-73z" />
    <glyph glyph-name="Scaron" unicode="&#x160;" horiz-adv-x="519"
d="M253 -8q-78 0 -138.5 32.5t-92.5 77.5l69 60q26 -33 67.5 -58t93.5 -25q62 0 98 26.5t36 73.5q0 49 -29.5 78t-86.5 54l-65 28q-81 35 -118 84.5t-37 116.5q0 40 17.5 73t46.5 56.5t66.5 36t76.5 12.5q63 0 113 -23.5t86 -67.5l-64 -64q-28 33 -59.5 50.5t-78.5 17.5
q-23 0 -43 -6t-36 -18t-25 -29.5t-9 -39.5q0 -39 24 -67t81 -53l65 -28q36 -16 66.5 -35t53 -43.5t35 -55t12.5 -67.5q0 -44 -15.5 -80t-45 -62t-71 -40.5t-93.5 -14.5zM86 866l35 60l138 -82l138 82l35 -60l-173 -100z" />
    <glyph glyph-name="Scedilla" unicode="&#x15e;" horiz-adv-x="519"
d="M235 0h59l-38 -135h-98zM253 -8q-78 0 -138.5 32.5t-92.5 77.5l69 60q26 -33 67.5 -58t93.5 -25q62 0 98 26.5t36 73.5q0 49 -29.5 78t-86.5 54l-65 28q-81 35 -118 84.5t-37 116.5q0 40 17.5 73t46.5 56.5t66.5 36t76.5 12.5q63 0 113 -23.5t86 -67.5l-64 -64
q-28 33 -59.5 50.5t-78.5 17.5q-23 0 -43 -6t-36 -18t-25 -29.5t-9 -39.5q0 -39 24 -67t81 -53l65 -28q36 -16 66.5 -35t53 -43.5t35 -55t12.5 -67.5q0 -44 -15.5 -80t-45 -62t-71 -40.5t-93.5 -14.5z" />
    <glyph glyph-name="Scircumflex" unicode="&#x15c;" horiz-adv-x="519"
d="M253 -8q-78 0 -138.5 32.5t-92.5 77.5l69 60q26 -33 67.5 -58t93.5 -25q62 0 98 26.5t36 73.5q0 49 -29.5 78t-86.5 54l-65 28q-81 35 -118 84.5t-37 116.5q0 40 17.5 73t46.5 56.5t66.5 36t76.5 12.5q63 0 113 -23.5t86 -67.5l-64 -64q-28 33 -59.5 50.5t-78.5 17.5
q-23 0 -43 -6t-36 -18t-25 -29.5t-9 -39.5q0 -39 24 -67t81 -53l65 -28q36 -16 66.5 -35t53 -43.5t35 -55t12.5 -67.5q0 -44 -15.5 -80t-45 -62t-71 -40.5t-93.5 -14.5zM86 826l173 100l173 -100l-35 -60l-138 82l-138 -82z" />
    <glyph glyph-name="Scommaaccent" unicode="&#x218;" horiz-adv-x="519"
d="M208 -50h100l-109 -179h-65zM253 -8q-78 0 -138.5 32.5t-92.5 77.5l69 60q26 -33 67.5 -58t93.5 -25q62 0 98 26.5t36 73.5q0 49 -29.5 78t-86.5 54l-65 28q-81 35 -118 84.5t-37 116.5q0 40 17.5 73t46.5 56.5t66.5 36t76.5 12.5q63 0 113 -23.5t86 -67.5l-64 -64
q-28 33 -59.5 50.5t-78.5 17.5q-23 0 -43 -6t-36 -18t-25 -29.5t-9 -39.5q0 -39 24 -67t81 -53l65 -28q36 -16 66.5 -35t53 -43.5t35 -55t12.5 -67.5q0 -44 -15.5 -80t-45 -62t-71 -40.5t-93.5 -14.5z" />
    <glyph glyph-name="Tbar" unicode="&#x166;" horiz-adv-x="534"
d="M65 412h156v210h-201v88h494v-88h-202v-210h156v-75h-156v-337h-91v337h-156v75z" />
    <glyph glyph-name="Tcaron" unicode="&#x164;" horiz-adv-x="534"
d="M221 622h-201v88h494v-88h-202v-622h-91v622zM94 866l35 60l138 -82l138 82l35 -60l-173 -100z" />
    <glyph glyph-name="uni0162" unicode="&#x162;" horiz-adv-x="534"
d="M218 -50h100l-109 -179h-65zM221 622h-201v88h494v-88h-202v-622h-91v622z" />
    <glyph glyph-name="Tcommaaccent" unicode="&#x21a;" horiz-adv-x="534"
d="M218 -50h100l-109 -179h-65zM221 622h-201v88h494v-88h-202v-622h-91v622z" />
    <glyph glyph-name="Ubreve" unicode="&#x16c;" horiz-adv-x="721"
d="M360 -8q-62 0 -114 19t-89.5 55t-58.5 87.5t-21 116.5v440h91v-444q0 -46 14 -81t39.5 -58.5t60.5 -35.5t78 -12t78 12t60.5 35.5t39.5 58.5t14 81v444h91v-440q0 -65 -21 -116.5t-58.5 -87.5t-89.5 -55t-114 -19zM358 772q-35 0 -63 11t-48.5 29.5t-32 43.5t-12.5 53h64
q2 -31 26 -55t67 -24t67.5 24t26.5 55h64q-2 -28 -13.5 -53t-32 -43.5t-49 -29.5t-64.5 -11z" />
    <glyph glyph-name="Uhungarumlaut" unicode="&#x170;" horiz-adv-x="721"
d="M360 -8q-62 0 -114 19t-89.5 55t-58.5 87.5t-21 116.5v440h91v-444q0 -46 14 -81t39.5 -58.5t60.5 -35.5t78 -12t78 12t60.5 35.5t39.5 58.5t14 81v444h91v-440q0 -65 -21 -116.5t-58.5 -87.5t-89.5 -55t-114 -19zM287 913h104l-113 -145h-68zM487 913h104l-113 -145h-68
z" />
    <glyph glyph-name="Umacron" unicode="&#x16a;" horiz-adv-x="721"
d="M360 -8q-62 0 -114 19t-89.5 55t-58.5 87.5t-21 116.5v440h91v-444q0 -46 14 -81t39.5 -58.5t60.5 -35.5t78 -12t78 12t60.5 35.5t39.5 58.5t14 81v444h91v-440q0 -65 -21 -116.5t-58.5 -87.5t-89.5 -55t-114 -19zM213 868h292v-65h-292v65z" />
    <glyph glyph-name="Uogonek" unicode="&#x172;" horiz-adv-x="721"
d="M382 -189q-22 0 -41.5 6t-34.5 17.5t-23.5 28t-8.5 37.5q0 28 18.5 53t44.5 40q-57 3 -105 23.5t-82.5 56t-53.5 85.5t-19 112v440h91v-444q0 -46 14 -81t39.5 -58.5t60.5 -35.5t78 -12t78 12t60.5 35.5t39.5 58.5t14 81v444h91v-440q0 -55 -15 -100.5t-42.5 -80
t-66.5 -57t-86 -32.5q-36 -18 -54.5 -41t-18.5 -43q0 -17 13 -28.5t37 -11.5q11 0 20.5 2.5t15.5 4.5v-59q-27 -13 -64 -13z" />
    <glyph glyph-name="Uring" unicode="&#x16e;" horiz-adv-x="721"
d="M360 -8q-62 0 -114 19t-89.5 55t-58.5 87.5t-21 116.5v440h91v-444q0 -46 14 -81t39.5 -58.5t60.5 -35.5t78 -12t78 12t60.5 35.5t39.5 58.5t14 81v444h91v-440q0 -65 -21 -116.5t-58.5 -87.5t-89.5 -55t-114 -19zM359 798q20 0 34 13t14 34t-14 34.5t-34 13.5t-34 -13.5
t-14 -34.5t14 -34t34 -13zM359 751q-42 0 -70.5 26.5t-28.5 67.5q0 42 29 68.5t70 26.5t70 -26.5t29 -68.5q0 -41 -28.5 -67.5t-70.5 -26.5z" />
    <glyph glyph-name="Utilde" unicode="&#x168;" horiz-adv-x="721"
d="M360 -8q-62 0 -114 19t-89.5 55t-58.5 87.5t-21 116.5v440h91v-444q0 -46 14 -81t39.5 -58.5t60.5 -35.5t78 -12t78 12t60.5 35.5t39.5 58.5t14 81v444h91v-440q0 -65 -21 -116.5t-58.5 -87.5t-89.5 -55t-114 -19zM428 783q-21 0 -39 7t-33.5 15t-29 15t-26.5 7
q-20 0 -30.5 -10.5t-15.5 -32.5h-69l4 18q4 23 14.5 41t25 30t31.5 18.5t34 6.5q21 0 38.5 -7t33 -15t29 -15t25.5 -7q21 0 32 10t16 33h68l-3 -18q-8 -45 -38 -70.5t-67 -25.5z" />
    <glyph glyph-name="uni1EE4" unicode="&#x1ee4;" horiz-adv-x="721"
d="M360 -8q-62 0 -114 19t-89.5 55t-58.5 87.5t-21 116.5v440h91v-444q0 -46 14 -81t39.5 -58.5t60.5 -35.5t78 -12t78 12t60.5 35.5t39.5 58.5t14 81v444h91v-440q0 -65 -21 -116.5t-58.5 -87.5t-89.5 -55t-114 -19zM360 -192q-26 0 -44 18t-18 44t18 43.5t44 17.5
t44 -17.5t18 -43.5t-18 -44t-44 -18z" />
    <glyph glyph-name="Wacute" unicode="&#x1e82;" horiz-adv-x="903"
d="M15 710h94l157 -474l185 482l186 -482l157 474h94l-244 -718l-193 501l-192 -501zM492 913h108l-112 -145h-73z" />
    <glyph glyph-name="Wcircumflex" unicode="&#x174;" horiz-adv-x="903"
d="M15 710h94l157 -474l185 482l186 -482l157 474h94l-244 -718l-193 501l-192 -501zM278 826l173 100l173 -100l-35 -60l-138 82l-138 -82z" />
    <glyph glyph-name="Wdieresis" unicode="&#x1e84;" horiz-adv-x="903"
d="M15 710h94l157 -474l185 482l186 -482l157 474h94l-244 -718l-193 501l-192 -501zM338 782q-24 0 -42.5 18t-18.5 44q0 25 18.5 42.5t42.5 17.5q26 0 44 -17.5t18 -42.5q0 -26 -18 -44t-44 -18zM563 782q-25 0 -43 18t-18 44q0 25 18 42.5t43 17.5q26 0 44 -17.5
t18 -42.5q0 -26 -18 -44t-44 -18z" />
    <glyph glyph-name="Wgrave" unicode="&#x1e80;" horiz-adv-x="903"
d="M15 710h94l157 -474l185 482l186 -482l157 474h94l-244 -718l-193 501l-192 -501zM301 913h109l77 -145h-73z" />
    <glyph glyph-name="Ycircumflex" unicode="&#x176;" horiz-adv-x="632"
d="M270 301l-260 409h106l200 -320l200 320h106l-260 -409v-301h-92v301zM143 826l173 100l173 -100l-35 -60l-138 82l-138 -82z" />
    <glyph glyph-name="Ydieresis" unicode="&#x178;" horiz-adv-x="632"
d="M270 301l-260 409h106l200 -320l200 320h106l-260 -409v-301h-92v301zM203 782q-24 0 -42.5 18t-18.5 44q0 25 18.5 42.5t42.5 17.5q26 0 44 -17.5t18 -42.5q0 -26 -18 -44t-44 -18zM428 782q-25 0 -43 18t-18 44q0 25 18 42.5t43 17.5q26 0 44 -17.5t18 -42.5
q0 -26 -18 -44t-44 -18z" />
    <glyph glyph-name="Ygrave" unicode="&#x1ef2;" horiz-adv-x="632"
d="M270 301l-260 409h106l200 -320l200 320h106l-260 -409v-301h-92v301zM177 913h109l77 -145h-73z" />
    <glyph glyph-name="uni0232" unicode="&#x232;" horiz-adv-x="632"
d="M270 301l-260 409h106l200 -320l200 320h106l-260 -409v-301h-92v301zM169 868h292v-65h-292v65z" />
    <glyph glyph-name="Zacute" unicode="&#x179;" horiz-adv-x="607"
d="M418 622h-352v88h508l-395 -622h397v-88h-553zM332 913h108l-112 -145h-73z" />
    <glyph glyph-name="Zcaron" unicode="&#x17d;" horiz-adv-x="607"
d="M418 622h-352v88h508l-395 -622h397v-88h-553zM147 866l35 60l138 -82l138 82l35 -60l-173 -100z" />
    <glyph glyph-name="Zdotaccent" unicode="&#x17b;" horiz-adv-x="607"
d="M418 622h-352v88h508l-395 -622h397v-88h-553zM320 780q-25 0 -43.5 18.5t-18.5 45.5q0 26 18.5 44t43.5 18q27 0 45.5 -18t18.5 -44q0 -27 -18.5 -45.5t-45.5 -18.5z" />
    <glyph glyph-name="abreve" unicode="&#x103;" horiz-adv-x="620"
d="M457 50q-32 -29 -72.5 -43.5t-86.5 -14.5q-55 0 -102 20t-81 54.5t-53 82t-19 101.5t19 101.5t53 82t81 54.5t102 20q46 0 86.5 -14.5t72.5 -43.5v50h86v-500h-86v50zM300 73q54 0 94.5 23t62.5 58v192q-22 35 -62.5 58t-94.5 23q-37 0 -67.5 -13.5t-53 -37.5t-35 -56.5
t-12.5 -69.5t12.5 -69.5t35 -56.5t53 -37.5t67.5 -13.5zM317 573q-35 0 -63 11t-48.5 29.5t-32 43.5t-12.5 53h64q2 -31 26 -55t67 -24t67.5 24t26.5 55h64q-2 -28 -13.5 -53t-32 -43.5t-49 -29.5t-64.5 -11z" />
    <glyph glyph-name="amacron" unicode="&#x101;" horiz-adv-x="620"
d="M457 50q-32 -29 -72.5 -43.5t-86.5 -14.5q-55 0 -102 20t-81 54.5t-53 82t-19 101.5t19 101.5t53 82t81 54.5t102 20q46 0 86.5 -14.5t72.5 -43.5v50h86v-500h-86v50zM300 73q54 0 94.5 23t62.5 58v192q-22 35 -62.5 58t-94.5 23q-37 0 -67.5 -13.5t-53 -37.5t-35 -56.5
t-12.5 -69.5t12.5 -69.5t35 -56.5t53 -37.5t67.5 -13.5zM172 679h292v-65h-292v65z" />
    <glyph glyph-name="aogonek" unicode="&#x105;" horiz-adv-x="622"
d="M457 50q-32 -29 -72.5 -43.5t-86.5 -14.5q-55 0 -102 20t-81 54.5t-53 82t-19 101.5t19 101.5t53 82t81 54.5t102 20q46 0 86.5 -14.5t72.5 -43.5v50h86v-500q-30 -14 -50 -36t-20 -45t14.5 -35.5t28.5 -12.5q8 0 15.5 3t13.5 8v-54q-22 -18 -58 -18q-17 0 -33.5 6.5
t-29.5 19t-21 30t-8 39.5q0 29 18 55t44 40v50zM300 73q54 0 94.5 23t62.5 58v192q-22 35 -62.5 58t-94.5 23q-37 0 -67.5 -13.5t-53 -37.5t-35 -56.5t-12.5 -69.5t12.5 -69.5t35 -56.5t53 -37.5t67.5 -13.5z" />
    <glyph glyph-name="cacute" unicode="&#x107;" horiz-adv-x="528"
d="M300 -8q-56 0 -103 20t-81 55t-53.5 82t-19.5 101t19.5 101t53.5 82t81 55t103 20q63 0 110.5 -22.5t80.5 -56.5l-55 -60q-24 24 -57.5 41t-78.5 17q-37 0 -67.5 -13.5t-53 -37.5t-35 -56.5t-12.5 -69.5t12.5 -69.5t35 -56.5t53 -37.5t67.5 -13.5q45 0 78.5 17t57.5 41
l55 -60q-33 -34 -80.5 -56.5t-110.5 -22.5zM332 710h109l-124 -165h-72z" />
    <glyph glyph-name="ccaron" unicode="&#x10d;" horiz-adv-x="528"
d="M300 -8q-56 0 -103 20t-81 55t-53.5 82t-19.5 101t19.5 101t53.5 82t81 55t103 20q63 0 110.5 -22.5t80.5 -56.5l-55 -60q-24 24 -57.5 41t-78.5 17q-37 0 -67.5 -13.5t-53 -37.5t-35 -56.5t-12.5 -69.5t12.5 -69.5t35 -56.5t53 -37.5t67.5 -13.5q45 0 78.5 17t57.5 41
l55 -60q-33 -34 -80.5 -56.5t-110.5 -22.5zM300 569l-170 107l34 58l136 -86l135 86l35 -58z" />
    <glyph glyph-name="ccircumflex" unicode="&#x109;" horiz-adv-x="528"
d="M300 -8q-56 0 -103 20t-81 55t-53.5 82t-19.5 101t19.5 101t53.5 82t81 55t103 20q63 0 110.5 -22.5t80.5 -56.5l-55 -60q-24 24 -57.5 41t-78.5 17q-37 0 -67.5 -13.5t-53 -37.5t-35 -56.5t-12.5 -69.5t12.5 -69.5t35 -56.5t53 -37.5t67.5 -13.5q45 0 78.5 17t57.5 41
l55 -60q-33 -34 -80.5 -56.5t-110.5 -22.5zM131 611l170 107l170 -107l-35 -58l-135 86l-136 -86z" />
    <glyph glyph-name="cdotaccent" unicode="&#x10b;" horiz-adv-x="528"
d="M300 -8q-56 0 -103 20t-81 55t-53.5 82t-19.5 101t19.5 101t53.5 82t81 55t103 20q63 0 110.5 -22.5t80.5 -56.5l-55 -60q-24 24 -57.5 41t-78.5 17q-37 0 -67.5 -13.5t-53 -37.5t-35 -56.5t-12.5 -69.5t12.5 -69.5t35 -56.5t53 -37.5t67.5 -13.5q45 0 78.5 17t57.5 41
l55 -60q-33 -34 -80.5 -56.5t-110.5 -22.5zM302 569q-26 0 -44 18t-18 44t18 43.5t44 17.5t44 -17.5t18 -43.5t-18 -44t-44 -18z" />
    <glyph glyph-name="dcaron" unicode="&#x10f;" horiz-adv-x="620"
d="M457 50q-32 -29 -72.5 -43.5t-86.5 -14.5q-55 0 -102 20t-81 54.5t-53 82t-19 101.5t19 101.5t53 82t81 54.5t102 20q46 0 86.5 -14.5t72.5 -43.5v260h86v-710h-86v50zM300 73q54 0 94.5 23t62.5 58v192q-22 35 -62.5 58t-94.5 23q-37 0 -67.5 -13.5t-53 -37.5t-35 -56.5
t-12.5 -69.5t12.5 -69.5t35 -56.5t53 -37.5t67.5 -13.5zM629 710h87l-51 -165h-61z" />
    <glyph glyph-name="dcroat" unicode="&#x111;" horiz-adv-x="620"
d="M286 642h171v68h86v-68h70v-74h-70v-568h-86v50q-32 -29 -72.5 -43.5t-86.5 -14.5q-55 0 -102 20t-81 54.5t-53 82t-19 101.5t19 101.5t53 82t81 54.5t102 20q46 0 86.5 -14.5t72.5 -43.5v118h-171v74zM300 73q54 0 94.5 23t62.5 58v192q-22 35 -62.5 58t-94.5 23
q-37 0 -67.5 -13.5t-53 -37.5t-35 -56.5t-12.5 -69.5t12.5 -69.5t35 -56.5t53 -37.5t67.5 -13.5z" />
    <glyph glyph-name="ebreve" unicode="&#x115;" horiz-adv-x="577"
d="M300 -8q-56 0 -103 20t-81 55t-53.5 82t-19.5 101t19.5 101.5t53.5 82t79.5 54.5t98.5 20q52 0 96.5 -18.5t77 -54t51 -87.5t19.5 -119h-406q3 -33 17 -61.5t36 -49.5t51.5 -33t63.5 -12q48 0 85 18t61 42l55 -60q-32 -34 -83.5 -57.5t-117.5 -23.5zM289 429
q-55 0 -97 -34t-56 -91h305q-9 62 -52 94t-100 31zM293 573q-35 0 -63 11t-48.5 29.5t-32 43.5t-12.5 53h64q2 -31 26 -55t67 -24t67.5 24t26.5 55h64q-2 -28 -13.5 -53t-32 -43.5t-49 -29.5t-64.5 -11z" />
    <glyph glyph-name="ecaron" unicode="&#x11b;" horiz-adv-x="577"
d="M300 -8q-56 0 -103 20t-81 55t-53.5 82t-19.5 101t19.5 101.5t53.5 82t79.5 54.5t98.5 20q52 0 96.5 -18.5t77 -54t51 -87.5t19.5 -119h-406q3 -33 17 -61.5t36 -49.5t51.5 -33t63.5 -12q48 0 85 18t61 42l55 -60q-32 -34 -83.5 -57.5t-117.5 -23.5zM289 429
q-55 0 -97 -34t-56 -91h305q-9 62 -52 94t-100 31zM294 569l-170 107l34 58l136 -86l135 86l35 -58z" />
    <glyph glyph-name="emacron" unicode="&#x113;" horiz-adv-x="577"
d="M300 -8q-56 0 -103 20t-81 55t-53.5 82t-19.5 101t19.5 101.5t53.5 82t79.5 54.5t98.5 20q52 0 96.5 -18.5t77 -54t51 -87.5t19.5 -119h-406q3 -33 17 -61.5t36 -49.5t51.5 -33t63.5 -12q48 0 85 18t61 42l55 -60q-32 -34 -83.5 -57.5t-117.5 -23.5zM289 429
q-55 0 -97 -34t-56 -91h305q-9 62 -52 94t-100 31zM148 679h292v-65h-292v65z" />
    <glyph glyph-name="eogonek" unicode="&#x119;" horiz-adv-x="577"
d="M300 -8q-56 0 -103 20t-81 55t-53.5 82t-19.5 101t19.5 101.5t53.5 82t79.5 54.5t98.5 20q52 0 96.5 -18.5t77 -54t51 -87.5t19.5 -119h-406q3 -33 17 -61.5t36 -49.5t51.5 -33t63.5 -12q48 0 85 18t61 42l55 -60q-32 -34 -83.5 -57.5t-117.5 -23.5zM289 429
q-55 0 -97 -34t-56 -91h305q-9 62 -52 94t-100 31zM308 -178q-21 0 -40 5.5t-33.5 17t-23 27.5t-8.5 37q0 32 24 55.5t55 35.5h87q-82 -36 -82 -75q0 -16 12.5 -27t37.5 -11q11 0 19 2.5t14 4.5v-59q-14 -8 -29.5 -10.5t-32.5 -2.5z" />
    <glyph glyph-name="edotaccent" unicode="&#x117;" horiz-adv-x="577"
d="M300 -8q-56 0 -103 20t-81 55t-53.5 82t-19.5 101t19.5 101.5t53.5 82t79.5 54.5t98.5 20q52 0 96.5 -18.5t77 -54t51 -87.5t19.5 -119h-406q3 -33 17 -61.5t36 -49.5t51.5 -33t63.5 -12q48 0 85 18t61 42l55 -60q-32 -34 -83.5 -57.5t-117.5 -23.5zM289 429
q-55 0 -97 -34t-56 -91h305q-9 62 -52 94t-100 31zM294 569q-26 0 -44 18t-18 44t18 43.5t44 17.5t44 -17.5t18 -43.5t-18 -44t-44 -18z" />
    <glyph glyph-name="gbreve" unicode="&#x11f;" horiz-adv-x="610"
d="M291 -194q-54 0 -111 15t-102 44l45 73q32 -23 76.5 -37.5t94.5 -14.5q33 0 63 6.5t53.5 21.5t37.5 39t14 59q0 13 -3 31t-10 32q-62 -60 -159 -60q-56 0 -101.5 19t-77.5 52t-50 78t-18 97t18 97.5t50 78.5t77.5 52t101.5 19q48 0 86.5 -15t69.5 -44v51h86v-398
q10 -26 14.5 -51t4.5 -47q0 -54 -22.5 -91.5t-59.5 -61.5t-83.5 -34.5t-94.5 -10.5zM292 95q54 0 94 23.5t60 58.5v169q-20 35 -60 58t-94 23q-36 0 -65.5 -12.5t-50.5 -35t-32.5 -52.5t-11.5 -66q0 -35 11.5 -65.5t32.5 -53t50.5 -35t65.5 -12.5zM301 573q-35 0 -63 11
t-48.5 29.5t-32 43.5t-12.5 53h64q2 -31 26 -55t67 -24t67.5 24t26.5 55h64q-2 -28 -13.5 -53t-32 -43.5t-49 -29.5t-64.5 -11z" />
    <glyph glyph-name="gcircumflex" unicode="&#x11d;" horiz-adv-x="610"
d="M291 -194q-54 0 -111 15t-102 44l45 73q32 -23 76.5 -37.5t94.5 -14.5q33 0 63 6.5t53.5 21.5t37.5 39t14 59q0 13 -3 31t-10 32q-62 -60 -159 -60q-56 0 -101.5 19t-77.5 52t-50 78t-18 97t18 97.5t50 78.5t77.5 52t101.5 19q48 0 86.5 -15t69.5 -44v51h86v-398
q10 -26 14.5 -51t4.5 -47q0 -54 -22.5 -91.5t-59.5 -61.5t-83.5 -34.5t-94.5 -10.5zM292 95q54 0 94 23.5t60 58.5v169q-20 35 -60 58t-94 23q-36 0 -65.5 -12.5t-50.5 -35t-32.5 -52.5t-11.5 -66q0 -35 11.5 -65.5t32.5 -53t50.5 -35t65.5 -12.5zM131 611l170 107l170 -107
l-35 -58l-135 86l-136 -86z" />
    <glyph glyph-name="gcommaaccent" unicode="&#x123;" horiz-adv-x="610"
d="M340.979 542.967h-99.9941l108.993 178.989h64.9961zM291 -194q-54 0 -111 15t-102 44l45 73q32 -23 76.5 -37.5t94.5 -14.5q33 0 63 6.5t53.5 21.5t37.5 39t14 59q0 13 -3 31t-10 32q-62 -60 -159 -60q-56 0 -101.5 19t-77.5 52t-50 78t-18 97t18 97.5t50 78.5t77.5 52
t101.5 19q48 0 86.5 -15t69.5 -44v51h86v-398q10 -26 14.5 -51t4.5 -47q0 -54 -22.5 -91.5t-59.5 -61.5t-83.5 -34.5t-94.5 -10.5zM292 95q54 0 94 23.5t60 58.5v169q-20 35 -60 58t-94 23q-36 0 -65.5 -12.5t-50.5 -35t-32.5 -52.5t-11.5 -66q0 -35 11.5 -65.5t32.5 -53
t50.5 -35t65.5 -12.5z" />
    <glyph glyph-name="gdotaccent" unicode="&#x121;" horiz-adv-x="610"
d="M291 -194q-54 0 -111 15t-102 44l45 73q32 -23 76.5 -37.5t94.5 -14.5q33 0 63 6.5t53.5 21.5t37.5 39t14 59q0 13 -3 31t-10 32q-62 -60 -159 -60q-56 0 -101.5 19t-77.5 52t-50 78t-18 97t18 97.5t50 78.5t77.5 52t101.5 19q48 0 86.5 -15t69.5 -44v51h86v-398
q10 -26 14.5 -51t4.5 -47q0 -54 -22.5 -91.5t-59.5 -61.5t-83.5 -34.5t-94.5 -10.5zM292 95q54 0 94 23.5t60 58.5v169q-20 35 -60 58t-94 23q-36 0 -65.5 -12.5t-50.5 -35t-32.5 -52.5t-11.5 -66q0 -35 11.5 -65.5t32.5 -53t50.5 -35t65.5 -12.5zM291 569q-26 0 -44 18
t-18 44t18 43.5t44 17.5t44 -17.5t18 -43.5t-18 -44t-44 -18z" />
    <glyph glyph-name="hbar" unicode="&#x127;" horiz-adv-x="578"
d="M7 642h70v68h86v-68h171v-74h-171v-125q29 36 70 50.5t85 14.5q42 0 77.5 -14.5t61 -40.5t40 -64t14.5 -84v-305h-86v300q0 55 -33.5 91t-92.5 36q-53 0 -87.5 -27.5t-48.5 -76.5v-323h-86v568h-70v74z" />
    <glyph glyph-name="hcircumflex" unicode="&#x125;" horiz-adv-x="578"
d="M77 710h86v-267q29 36 70 50.5t85 14.5q42 0 77.5 -14.5t61 -40.5t40 -64t14.5 -84v-305h-86v300q0 55 -33.5 91t-92.5 36q-53 0 -87.5 -27.5t-48.5 -76.5v-323h-86v710zM121 826l173 100l173 -100l-35 -60l-138 82l-138 -82z" />
    <glyph glyph-name="dotlessi" unicode="&#x131;"
d="M77 500h86v-500h-86v500z" />
    <glyph glyph-name="ibreve" unicode="&#x12d;"
d="M120 573q-35 0 -63 11t-48.5 29.5t-32 43.5t-12.5 53h64q2 -31 26 -55t67 -24t67.5 24t26.5 55h64q-2 -28 -13.5 -53t-32 -43.5t-49 -29.5t-64.5 -11zM77 500h86v-500h-86v500z" />
    <glyph glyph-name="imacron" unicode="&#x12b;"
d="M77 500h86v-500h-86v500zM-25 679h292v-65h-292v65z" />
    <glyph glyph-name="iogonek" unicode="&#x12f;"
d="M77 500h86v-500q-81 -36 -81 -75q0 -16 12.5 -27t37.5 -11q11 0 19 2.5t14 4.5v-59q-14 -8 -29.5 -10.5t-32.5 -2.5q-21 0 -40 5.5t-33.5 17t-23 27.5t-8.5 37q0 32 24 55.5t55 35.5v500zM77 609q-19 17 -19 46q0 26 18 44.5t44 18.5t44 -18.5t18 -44.5q0 -29 -19 -46
h-86z" />
    <glyph glyph-name="itilde" unicode="&#x129;"
d="M77 500h86v-500h-86v500zM-48 585q9 45 38.5 69.5t64.5 24.5q21 0 38.5 -7t33 -15t29 -15t25.5 -7q21 0 32 11t16 33h66l-3 -18q-8 -42 -36.5 -68t-66.5 -26q-21 0 -39 7t-33.5 15t-29 15t-26.5 7q-20 0 -30.5 -11t-15.5 -34h-66z" />
    <glyph glyph-name="uni1ECB" unicode="&#x1ecb;"
d="M77 609q-19 17 -19 46q0 26 18 44.5t44 18.5t44 -18.5t18 -44.5q0 -29 -19 -46h-86zM77 500h86v-500h-86v500zM118 -192q-26 0 -44 18t-18 44t18 43.5t44 17.5t44 -17.5t18 -43.5t-18 -44t-44 -18z" />
    <glyph glyph-name="dotlessj" unicode="&#x237;"
d="M-27 -106h30q42 0 58 21t16 59v526h86v-539q0 -72 -39.5 -108.5t-111.5 -36.5h-39v78z" />
    <glyph glyph-name="jcircumflex" unicode="&#x135;"
d="M-49 611l170 107l170 -107l-35 -58l-135 86l-136 -86zM-27 -106h30q42 0 58 21t16 59v526h86v-539q0 -72 -39.5 -108.5t-111.5 -36.5h-39v78z" />
    <glyph glyph-name="kcommaaccent" unicode="&#x137;" horiz-adv-x="516"
d="M234 -50h100l-109 -179h-65zM77 710h86v-436l221 226h108l-233 -236l256 -264h-111l-241 249v-249h-86v710z" />
    <glyph glyph-name="lacute" unicode="&#x13a;"
d="M77 710h86v-710h-86v710zM159 913h108l-112 -145h-73z" />
    <glyph glyph-name="lcaron" unicode="&#x13e;"
d="M77 710h86v-710h-86v710zM249 710h87l-51 -165h-61z" />
    <glyph glyph-name="lcommaaccent" unicode="&#x13c;"
d="M77 710h86v-710h-86v710zM77 -50h100l-109 -179h-65z" />
    <glyph glyph-name="ldot" unicode="&#x140;" horiz-adv-x="308"
d="M274 291q-26 0 -44 18t-18 44t18 43.5t44 17.5t44 -17.5t18 -43.5t-18 -44t-44 -18zM77 710h86v-710h-86v710z" />
    <glyph glyph-name="lslash" unicode="&#x142;" horiz-adv-x="314"
d="M-5 315l119 77v318h86v-262l79 51l39 -65l-118 -77v-357h-86v302l-80 -52z" />
    <glyph glyph-name="eng" unicode="&#x14b;" horiz-adv-x="578"
d="M77 500h86v-57q29 36 70 50.5t85 14.5q42 0 77.5 -14.5t61 -40.5t40 -64t14.5 -84v-346q0 -66 -38 -104.5t-105 -38.5h-47v78h30q38 0 56 18t18 57v331q0 55 -33.5 91t-92.5 36q-53 0 -87.5 -27.5t-48.5 -76.5v-323h-86v500z" />
    <glyph glyph-name="nacute" unicode="&#x144;" horiz-adv-x="578"
d="M77 500h86v-57q29 36 70 50.5t85 14.5q42 0 77.5 -14.5t61 -40.5t40 -64t14.5 -84v-305h-86v300q0 55 -33.5 91t-92.5 36q-53 0 -87.5 -27.5t-48.5 -76.5v-323h-86v500zM315 710h109l-124 -165h-72z" />
    <glyph glyph-name="ncaron" unicode="&#x148;" horiz-adv-x="578"
d="M77 500h86v-57q29 36 70 50.5t85 14.5q42 0 77.5 -14.5t61 -40.5t40 -64t14.5 -84v-305h-86v300q0 55 -33.5 91t-92.5 36q-53 0 -87.5 -27.5t-48.5 -76.5v-323h-86v500zM294 569l-170 107l34 58l136 -86l135 86l35 -58z" />
    <glyph glyph-name="ncommaaccent" unicode="&#x146;" horiz-adv-x="578"
d="M233 -50h100l-109 -179h-65zM77 500h86v-57q29 36 70 50.5t85 14.5q42 0 77.5 -14.5t61 -40.5t40 -64t14.5 -84v-305h-86v300q0 55 -33.5 91t-92.5 36q-53 0 -87.5 -27.5t-48.5 -76.5v-323h-86v500z" />
    <glyph glyph-name="oe" unicode="&#x153;" horiz-adv-x="1008"
d="M303 -8q-57 0 -104.5 20t-82 55t-54 82t-19.5 101t19.5 101t54 82t82 55t104.5 20q70 0 125.5 -30t89.5 -81q34 51 87.5 81t119.5 30q52 0 96.5 -18.5t77 -54t51 -87.5t19.5 -119h-407q3 -33 17 -61.5t36.5 -49.5t52 -33t63.5 -12q48 0 85 18t61 42l55 -60
q-32 -34 -83.5 -57.5t-117.5 -23.5q-69 0 -124 30t-89 81q-34 -51 -89.5 -81t-125.5 -30zM303 73q38 0 69.5 13.5t54 37.5t35 56.5t12.5 69.5t-12.5 69.5t-35 56.5t-54 37.5t-69.5 13.5t-69.5 -13.5t-54 -37.5t-35 -56.5t-12.5 -69.5t12.5 -69.5t35 -56.5t54 -37.5
t69.5 -13.5zM872 304q-9 62 -52 94t-100 31q-27 0 -52 -8.5t-45.5 -25t-35 -39.5t-21.5 -52h306z" />
    <glyph glyph-name="obreve" unicode="&#x14f;" horiz-adv-x="605"
d="M303 73q38 0 69.5 13.5t54 37.5t34.5 56.5t12 69.5t-12 69.5t-34.5 56.5t-54 37.5t-69.5 13.5t-69.5 -13.5t-54 -37.5t-35 -56.5t-12.5 -69.5t12.5 -69.5t35 -56.5t54 -37.5t69.5 -13.5zM303 -8q-57 0 -104.5 20t-82 55t-54 82t-19.5 101t19.5 101t54 82t82 55t104.5 20
q56 0 103.5 -20t82 -55t54 -82t19.5 -101t-19.5 -101t-54 -82t-82 -55t-103.5 -20zM302 573q-35 0 -63 11t-48.5 29.5t-32 43.5t-12.5 53h64q2 -31 26 -55t67 -24t67.5 24t26.5 55h64q-2 -28 -13.5 -53t-32 -43.5t-49 -29.5t-64.5 -11z" />
    <glyph glyph-name="ohungarumlaut" unicode="&#x151;" horiz-adv-x="605"
d="M303 73q38 0 69.5 13.5t54 37.5t34.5 56.5t12 69.5t-12 69.5t-34.5 56.5t-54 37.5t-69.5 13.5t-69.5 -13.5t-54 -37.5t-35 -56.5t-12.5 -69.5t12.5 -69.5t35 -56.5t54 -37.5t69.5 -13.5zM303 -8q-57 0 -104.5 20t-82 55t-54 82t-19.5 101t19.5 101t54 82t82 55t104.5 20
q56 0 103.5 -20t82 -55t54 -82t19.5 -101t-19.5 -101t-54 -82t-82 -55t-103.5 -20zM271 710h101l-125 -165h-63zM440 710h101l-125 -165h-63z" />
    <glyph glyph-name="omacron" unicode="&#x14d;" horiz-adv-x="605"
d="M303 73q38 0 69.5 13.5t54 37.5t34.5 56.5t12 69.5t-12 69.5t-34.5 56.5t-54 37.5t-69.5 13.5t-69.5 -13.5t-54 -37.5t-35 -56.5t-12.5 -69.5t12.5 -69.5t35 -56.5t54 -37.5t69.5 -13.5zM303 -8q-57 0 -104.5 20t-82 55t-54 82t-19.5 101t19.5 101t54 82t82 55t104.5 20
q56 0 103.5 -20t82 -55t54 -82t19.5 -101t-19.5 -101t-54 -82t-82 -55t-103.5 -20zM155 679h292v-65h-292v65z" />
    <glyph glyph-name="uni1ECD" unicode="&#x1ecd;" horiz-adv-x="605"
d="M303 73q38 0 69.5 13.5t54 37.5t34.5 56.5t12 69.5t-12 69.5t-34.5 56.5t-54 37.5t-69.5 13.5t-69.5 -13.5t-54 -37.5t-35 -56.5t-12.5 -69.5t12.5 -69.5t35 -56.5t54 -37.5t69.5 -13.5zM303 -8q-57 0 -104.5 20t-82 55t-54 82t-19.5 101t19.5 101t54 82t82 55t104.5 20
q56 0 103.5 -20t82 -55t54 -82t19.5 -101t-19.5 -101t-54 -82t-82 -55t-103.5 -20zM302 -192q-26 0 -44 18t-18 44t18 43.5t44 17.5t44 -17.5t18 -43.5t-18 -44t-44 -18z" />
    <glyph glyph-name="racute" unicode="&#x155;" horiz-adv-x="359"
d="M77 500h86v-59q26 32 61 48t77 16q18 0 35 -3v-89q-21 6 -48 6q-41 0 -74.5 -20t-50.5 -59v-340h-86v500zM229 710h109l-124 -165h-72z" />
    <glyph glyph-name="rcaron" unicode="&#x159;" horiz-adv-x="359"
d="M77 500h86v-59q26 32 61 48t77 16q18 0 35 -3v-89q-21 6 -48 6q-41 0 -74.5 -20t-50.5 -59v-340h-86v500zM206 569l-170 107l34 58l136 -86l135 86l35 -58z" />
    <glyph glyph-name="rcommaaccent" unicode="&#x157;" horiz-adv-x="359"
d="M77 500h86v-59q26 32 61 48t77 16q18 0 35 -3v-89q-21 6 -48 6q-41 0 -74.5 -20t-50.5 -59v-340h-86v500zM78 -50h100l-109 -179h-65z" />
    <glyph glyph-name="sacute" unicode="&#x15b;" horiz-adv-x="418"
d="M204 -8q-56 0 -101.5 24.5t-75.5 75.5l68 46q20 -33 45.5 -51t65.5 -18q37 0 63 17t26 46t-20 46.5t-65 33.5l-39 15q-66 25 -92.5 64t-26.5 84q0 28 11.5 52.5t32.5 42.5t49.5 28t62.5 10q48 0 87.5 -22t62.5 -68l-67 -39q-25 52 -83 52q-29 0 -50 -14.5t-21 -40.5
q0 -23 14.5 -41.5t58.5 -34.5l41 -15q64 -23 97 -58.5t33 -91.5q0 -30 -12.5 -56t-35.5 -45.5t-55.5 -30.5t-73.5 -11zM261 710h109l-124 -165h-72z" />
    <glyph glyph-name="scaron" unicode="&#x161;" horiz-adv-x="418"
d="M204 -8q-56 0 -101.5 24.5t-75.5 75.5l68 46q20 -33 45.5 -51t65.5 -18q37 0 63 17t26 46t-20 46.5t-65 33.5l-39 15q-66 25 -92.5 64t-26.5 84q0 28 11.5 52.5t32.5 42.5t49.5 28t62.5 10q48 0 87.5 -22t62.5 -68l-67 -39q-25 52 -83 52q-29 0 -50 -14.5t-21 -40.5
q0 -23 14.5 -41.5t58.5 -34.5l41 -15q64 -23 97 -58.5t33 -91.5q0 -30 -12.5 -56t-35.5 -45.5t-55.5 -30.5t-73.5 -11zM210 569l-170 107l34 58l136 -86l135 86l35 -58z" />
    <glyph glyph-name="scedilla" unicode="&#x15f;" horiz-adv-x="418"
d="M204 -8q-56 0 -101.5 24.5t-75.5 75.5l68 46q20 -33 45.5 -51t65.5 -18q37 0 63 17t26 46t-20 46.5t-65 33.5l-39 15q-66 25 -92.5 64t-26.5 84q0 28 11.5 52.5t32.5 42.5t49.5 28t62.5 10q48 0 87.5 -22t62.5 -68l-67 -39q-25 52 -83 52q-29 0 -50 -14.5t-21 -40.5
q0 -23 14.5 -41.5t58.5 -34.5l41 -15q64 -23 97 -58.5t33 -91.5q0 -30 -12.5 -56t-35.5 -45.5t-55.5 -30.5t-73.5 -11zM176 0h59l-38 -135h-98z" />
    <glyph glyph-name="scircumflex" unicode="&#x15d;" horiz-adv-x="418"
d="M204 -8q-56 0 -101.5 24.5t-75.5 75.5l68 46q20 -33 45.5 -51t65.5 -18q37 0 63 17t26 46t-20 46.5t-65 33.5l-39 15q-66 25 -92.5 64t-26.5 84q0 28 11.5 52.5t32.5 42.5t49.5 28t62.5 10q48 0 87.5 -22t62.5 -68l-67 -39q-25 52 -83 52q-29 0 -50 -14.5t-21 -40.5
q0 -23 14.5 -41.5t58.5 -34.5l41 -15q64 -23 97 -58.5t33 -91.5q0 -30 -12.5 -56t-35.5 -45.5t-55.5 -30.5t-73.5 -11zM40 611l170 107l170 -107l-35 -58l-135 86l-136 -86z" />
    <glyph glyph-name="scommaaccent" unicode="&#x219;" horiz-adv-x="418"
d="M146 -50h100l-109 -179h-65zM204 -8q-56 0 -101.5 24.5t-75.5 75.5l68 46q20 -33 45.5 -51t65.5 -18q37 0 63 17t26 46t-20 46.5t-65 33.5l-39 15q-66 25 -92.5 64t-26.5 84q0 28 11.5 52.5t32.5 42.5t49.5 28t62.5 10q48 0 87.5 -22t62.5 -68l-67 -39q-25 52 -83 52
q-29 0 -50 -14.5t-21 -40.5q0 -23 14.5 -41.5t58.5 -34.5l41 -15q64 -23 97 -58.5t33 -91.5q0 -30 -12.5 -56t-35.5 -45.5t-55.5 -30.5t-73.5 -11z" />
    <glyph glyph-name="tbar" unicode="&#x167;" horiz-adv-x="371"
d="M0 500h99v107l86 43v-150h151l-19 -78h-132v-91h143v-75h-143v-98q0 -38 16 -59t58 -21h67v-78h-76q-72 0 -111.5 36.5t-39.5 108.5v111h-91v75h91v91h-80z" />
    <glyph glyph-name="tcaron" unicode="&#x165;" horiz-adv-x="371"
d="M0 500h99v107l86 43v-150h151l-19 -78h-132v-264q0 -38 16 -59t58 -21h67v-78h-76q-72 0 -111.5 36.5t-39.5 108.5v277h-80zM275 710h87l-51 -165h-61z" />
    <glyph glyph-name="uni0163" unicode="&#x163;" horiz-adv-x="371"
d="M0 500h99v107l86 43v-150h151l-19 -78h-132v-264q0 -38 16 -59t58 -21h67v-78h-76q-72 0 -111.5 36.5t-39.5 108.5v277h-80zM170 -50h100l-109 -179h-65z" />
    <glyph glyph-name="tcommaaccent" unicode="&#x21b;" horiz-adv-x="371"
d="M0 500h99v107l86 43v-150h151l-19 -78h-132v-264q0 -38 16 -59t58 -21h67v-78h-76q-72 0 -111.5 36.5t-39.5 108.5v277h-80zM170 -50h100l-109 -179h-65z" />
    <glyph glyph-name="ubreve" unicode="&#x16d;" horiz-adv-x="568"
d="M405 56q-29 -36 -69.5 -50t-84.5 -14q-43 0 -78.5 14.5t-61 40.5t-39.5 63.5t-14 84.5v305h86v-300q0 -55 33.5 -91t91.5 -36q52 0 86.5 26t49.5 74v327h86v-500h-86v56zM272 573q-35 0 -63 11t-48.5 29.5t-32 43.5t-12.5 53h64q2 -31 26 -55t67 -24t67.5 24t26.5 55h64
q-2 -28 -13.5 -53t-32 -43.5t-49 -29.5t-64.5 -11z" />
    <glyph glyph-name="uhungarumlaut" unicode="&#x171;" horiz-adv-x="568"
d="M405 56q-29 -36 -69.5 -50t-84.5 -14q-43 0 -78.5 14.5t-61 40.5t-39.5 63.5t-14 84.5v305h86v-300q0 -55 33.5 -91t91.5 -36q52 0 86.5 26t49.5 74v327h86v-500h-86v56zM223 710h101l-125 -165h-63zM392 710h101l-125 -165h-63z" />
    <glyph glyph-name="umacron" unicode="&#x16b;" horiz-adv-x="568"
d="M405 56q-29 -36 -69.5 -50t-84.5 -14q-43 0 -78.5 14.5t-61 40.5t-39.5 63.5t-14 84.5v305h86v-300q0 -55 33.5 -91t91.5 -36q52 0 86.5 26t49.5 74v327h86v-500h-86v56zM127 679h292v-65h-292v65z" />
    <glyph glyph-name="uogonek" unicode="&#x173;" horiz-adv-x="570"
d="M405 56q-29 -36 -69.5 -50t-84.5 -14q-43 0 -78.5 14.5t-61 40.5t-39.5 63.5t-14 84.5v305h86v-300q0 -55 33.5 -91t91.5 -36q52 0 86.5 26t49.5 74v327h86v-500h-86v56zM431 -178q-21 0 -40 5.5t-33.5 17t-23 27.5t-8.5 37q0 32 24 55.5t55 35.5h87q-82 -36 -82 -75
q0 -16 12.5 -27t37.5 -11q11 0 19 2.5t14 4.5v-59q-14 -8 -29.5 -10.5t-32.5 -2.5z" />
    <glyph glyph-name="uring" unicode="&#x16f;" horiz-adv-x="568"
d="M405 56q-29 -36 -69.5 -50t-84.5 -14q-43 0 -78.5 14.5t-61 40.5t-39.5 63.5t-14 84.5v305h86v-300q0 -55 33.5 -91t91.5 -36q52 0 86.5 26t49.5 74v327h86v-500h-86v56zM273 613q20 0 34 13t14 34q0 22 -14 35t-34 13t-34 -13t-14 -35q0 -21 14 -34t34 -13zM273 566
q-21 0 -39 7t-31.5 20t-21 30t-7.5 37q0 42 29 68.5t70 26.5t70 -26.5t29 -68.5q0 -20 -7.5 -37t-21 -30t-31.5 -20t-39 -7z" />
    <glyph glyph-name="utilde" unicode="&#x169;" horiz-adv-x="568"
d="M405 56q-29 -36 -69.5 -50t-84.5 -14q-43 0 -78.5 14.5t-61 40.5t-39.5 63.5t-14 84.5v305h86v-300q0 -55 33.5 -91t91.5 -36q52 0 86.5 26t49.5 74v327h86v-500h-86v56zM104 585q9 45 38.5 69.5t64.5 24.5q21 0 38.5 -7t33 -15t29 -15t25.5 -7q21 0 32 11t16 33h66
l-3 -18q-8 -42 -36.5 -68t-66.5 -26q-21 0 -39 7t-33.5 15t-29 15t-26.5 7q-20 0 -30.5 -11t-15.5 -34h-66z" />
    <glyph glyph-name="uni1EE5" unicode="&#x1ee5;" horiz-adv-x="568"
d="M405 56q-29 -36 -69.5 -50t-84.5 -14q-43 0 -78.5 14.5t-61 40.5t-39.5 63.5t-14 84.5v305h86v-300q0 -55 33.5 -91t91.5 -36q52 0 86.5 26t49.5 74v327h86v-500h-86v56zM274 -192q-26 0 -44 18t-18 44t18 43.5t44 17.5t44 -17.5t18 -43.5t-18 -44t-44 -18z" />
    <glyph glyph-name="wacute" unicode="&#x1e83;" horiz-adv-x="720"
d="M404 710h109l-124 -165h-72zM21 500h89l112 -364l138 372l138 -372l112 364h89l-158 -500h-69l-112 303l-111 -303h-70z" />
    <glyph glyph-name="wcircumflex" unicode="&#x175;" horiz-adv-x="720"
d="M181 611l170 107l170 -107l-35 -58l-135 86l-136 -86zM21 500h89l112 -364l138 372l138 -372l112 364h89l-158 -500h-69l-112 303l-111 -303h-70z" />
    <glyph glyph-name="wdieresis" unicode="&#x1e85;" horiz-adv-x="720"
d="M249 571q-24 0 -42 17t-18 43q0 25 18 42t42 17q26 0 43.5 -17t17.5 -42q0 -26 -17.5 -43t-43.5 -17zM474 571q-25 0 -42.5 17t-17.5 43q0 25 17.5 42t42.5 17q26 0 43 -17t17 -42q0 -26 -17 -43t-43 -17zM21 500h89l112 -364l138 372l138 -372l112 364h89l-158 -500h-69
l-112 303l-111 -303h-70z" />
    <glyph glyph-name="wgrave" unicode="&#x1e81;" horiz-adv-x="720"
d="M21 500h89l112 -364l138 372l138 -372l112 364h89l-158 -500h-69l-112 303l-111 -303h-70zM202 710h109l87 -165h-71z" />
    <glyph glyph-name="ycircumflex" unicode="&#x177;" horiz-adv-x="510"
d="M210 42l-204 458h93l156 -364l157 364h93l-307 -684h-91zM85 611l170 107l170 -107l-35 -58l-135 86l-136 -86z" />
    <glyph glyph-name="ygrave" unicode="&#x1ef3;" horiz-adv-x="510"
d="M210 42l-204 458h93l156 -364l157 364h93l-307 -684h-91zM125 710h109l87 -165h-71z" />
    <glyph glyph-name="uni0233" unicode="&#x233;" horiz-adv-x="510"
d="M210 42l-204 458h93l156 -364l157 364h93l-307 -684h-91zM108 679h292v-65h-292v65z" />
    <glyph glyph-name="zacute" unicode="&#x17a;" horiz-adv-x="504"
d="M321 422h-262v78h411l-293 -422h283v-78h-433zM285 710h109l-124 -165h-72z" />
    <glyph glyph-name="zcaron" unicode="&#x17e;" horiz-adv-x="504"
d="M321 422h-262v78h411l-293 -422h283v-78h-433zM264 569l-170 107l34 58l136 -86l135 86l35 -58z" />
    <glyph glyph-name="zdotaccent" unicode="&#x17c;" horiz-adv-x="504"
d="M321 422h-262v78h411l-293 -422h283v-78h-433zM265 569q-26 0 -44 18t-18 44t18 43.5t44 17.5t44 -17.5t18 -43.5t-18 -44t-44 -18z" />
    <glyph glyph-name="ellipsis" unicode="&#x2026;" horiz-adv-x="654"
d="M110 -8q-30 0 -52 21.5t-22 52.5t22 52.5t52 21.5q31 0 52.5 -21.5t21.5 -52.5t-21.5 -52.5t-52.5 -21.5zM326 -8q-30 0 -52 21.5t-22 52.5t22 52.5t52 21.5q31 0 52.5 -21.5t21.5 -52.5t-21.5 -52.5t-52.5 -21.5zM544 -8q-30 0 -52 21.5t-22 52.5t22 52.5t52 21.5
q31 0 52.5 -21.5t21.5 -52.5t-21.5 -52.5t-52.5 -21.5z" />
    <glyph glyph-name="endash" unicode="&#x2013;" horiz-adv-x="526"
d="M46 314h434v-81h-434v81z" />
    <glyph glyph-name="emdash" unicode="&#x2014;" horiz-adv-x="823"
d="M46 314h731v-81h-731v81z" />
    <glyph glyph-name="guilsinglleft" unicode="&#x2039;" horiz-adv-x="289"
d="M29 250l152 221l62 -42l-123 -179l123 -179l-62 -42z" />
    <glyph glyph-name="guilsinglright" unicode="&#x203a;" horiz-adv-x="289"
d="M108 29l-62 42l123 179l-123 179l62 42l152 -221z" />
    <glyph glyph-name="quoteleft" unicode="&#x2018;" horiz-adv-x="256"
d="M138 568h51v-123h-122v124l57 141h57z" />
    <glyph glyph-name="quoteright" unicode="&#x2019;" horiz-adv-x="256"
d="M118 587h-51v123h122v-124l-57 -141h-57z" />
    <glyph glyph-name="quotedblleft" unicode="&#x201c;" horiz-adv-x="451"
d="M138 568h51v-123h-122v124l57 141h57zM333 568h51v-123h-122v124l57 141h57z" />
    <glyph glyph-name="quotedblright" unicode="&#x201d;" horiz-adv-x="451"
d="M118 587h-51v123h122v-124l-57 -141h-57zM313 587h-51v123h122v-124l-57 -141h-57z" />
    <glyph glyph-name="quotesinglbase" unicode="&#x201a;" horiz-adv-x="256"
d="M118 0h-51v123h122v-124l-57 -141h-57z" />
    <glyph glyph-name="quotedblbase" unicode="&#x201e;" horiz-adv-x="451"
d="M118 0h-51v123h122v-124l-57 -141h-57zM313 0h-51v123h122v-124l-57 -141h-57z" />
    <glyph glyph-name="bullet" unicode="&#x2022;" horiz-adv-x="402"
d="M201 166q-28 0 -53 10.5t-43.5 29t-29 43.5t-10.5 53t10.5 53t29 43.5t43.5 29t53 10.5t53 -10.5t43.5 -29t29 -43.5t10.5 -53t-10.5 -53t-29 -43.5t-43.5 -29t-53 -10.5z" />
    <glyph glyph-name="dagger" unicode="&#x2020;" horiz-adv-x="567"
d="M243 419h-184v81h184v210h81v-210h184v-81h-184v-517h-81v517z" />
    <glyph glyph-name="daggerdbl" unicode="&#x2021;" horiz-adv-x="567"
d="M243 112h-184v81h184v226h-184v81h184v210h81v-210h184v-81h-184v-226h184v-81h-184v-210h-81v210z" />
    <glyph glyph-name="perthousand" unicode="&#x2030;" horiz-adv-x="766"
d="M216 58q34 0 54 22t20 53t-20 53t-54 22q-32 0 -52 -22t-20 -53t20 -53t52 -22zM216 -7q-29 0 -55 11t-45.5 29.5t-30.5 44t-11 55.5t11 55.5t30.5 44t45.5 29.5t55 11q30 0 56.5 -11t46 -29.5t31 -44t11.5 -55.5t-11.5 -55.5t-31 -44t-46 -29.5t-56.5 -11zM216 502
q34 0 54 22t20 53t-20 52.5t-54 21.5q-32 0 -52 -21.5t-20 -52.5t20 -53t52 -22zM216 437q-29 0 -55 11t-45.5 29.5t-30.5 44t-11 55.5t11 55.5t30.5 44t45.5 29.5t55 11q30 0 56.5 -11t46 -29.5t31 -44t11.5 -55.5t-11.5 -55.5t-31 -44t-46 -29.5t-56.5 -11zM76 390h616
v-73h-616v73zM542 58q34 0 54 22t20 53t-20 53t-54 22q-32 0 -52 -22t-20 -53t20 -53t52 -22zM542 -7q-29 0 -55 11t-45.5 29.5t-30.5 44t-11 55.5t11 55.5t30.5 44t45.5 29.5t55 11q30 0 56 -11t45.5 -29.5t31 -44t11.5 -55.5t-11.5 -55.5t-31 -44t-45.5 -29.5t-56 -11z
" />
    <glyph glyph-name="uni2117" unicode="&#x2117;" horiz-adv-x="802"
d="M401 -9q-75 0 -141 28.5t-115.5 78t-78 115.5t-28.5 141t28.5 141t78 115.5t115.5 78.5t141 29t141 -29t115.5 -78.5t78 -115.5t28.5 -141t-28.5 -141t-78 -115.5t-115.5 -78t-141 -28.5zM400 61q61 0 114.5 23t93.5 63t63 93.5t23 113.5q0 61 -23 114.5t-63 93.5
t-93.5 63t-114.5 23q-60 0 -113.5 -23t-93.5 -63t-63 -93.5t-23 -114.5q0 -60 23 -113.5t63 -93.5t93.5 -63t113.5 -23zM300 548h137q24 0 45.5 -9.5t38 -25.5t26.5 -37.5t10 -45.5q0 -26 -10.5 -48.5t-28 -39t-41 -26t-48.5 -9.5h-61v-143h-68v384zM425 370q27 0 43 17
t16 39q0 23 -16 39.5t-43 16.5h-56v-112h56z" />
    <glyph glyph-name="trademark" unicode="&#x2122;" horiz-adv-x="814"
d="M369 726l183 -180l183 180v-371h-65v228l-118 -116l-119 116v-228h-64v371zM145 650h-96v60h260v-60h-98v-295h-66v295z" />
    <glyph glyph-name="lozenge" unicode="&#x25ca;" horiz-adv-x="676"
d="M524 355l-186 243l-186 -243l186 -243zM59 355l279 365l279 -365l-279 -364z" />
    <glyph glyph-name="afii61289" unicode="&#x2113;" horiz-adv-x="472"
d="M243 -8q-58 0 -88.5 34.5t-30.5 116.5v30l-59 -55l-45 60l104 94v219q0 120 37.5 173.5t109.5 53.5q35 0 60 -15t41.5 -38.5t24.5 -52.5t8 -58q0 -41 -12 -76.5t-35 -69t-56 -67t-75 -70.5l-17 -16v-88q0 -48 11 -72t44 -24q7 0 19.5 4t26.5 10.5t27.5 15.5t23.5 19
l36 -55q-26 -28 -67.5 -50.5t-87.5 -22.5zM210 350l8 8q52 47 80.5 92t28.5 101q0 18 -3 34.5t-9.5 30t-17 21.5t-25.5 8q-30 0 -46 -26.5t-16 -86.5v-182z" />
    <glyph glyph-name="afii61352" unicode="&#x2116;" horiz-adv-x="1153"
d="M781 265v76h291v-76h-291zM927 471q37 0 60.5 25.5t23.5 63.5t-23.5 63.5t-60.5 25.5q-38 0 -61.5 -25.5t-23.5 -63.5t23.5 -63.5t61.5 -25.5zM927 405q-33 0 -61.5 12t-49.5 32.5t-33 49t-12 61.5t12 61.5t33 49t49.5 32.5t61.5 12t61.5 -12t49 -32.5t32.5 -49t12 -61.5
t-12 -61.5t-32.5 -49t-49 -32.5t-61.5 -12zM177 505v-505h-91v718l506 -513v505h91v-718z" />
    <glyph glyph-name="apple" horiz-adv-x="602"
d="M301 -8q-53 0 -100 20.5t-82 55.5t-55.5 82t-20.5 100t20.5 100t55.5 82t82 55.5t100 20.5l-60 -151h88l-52 -137l188 194h-117l33 81q39 -13 71.5 -36.5t56 -56t37 -71t13.5 -81.5q0 -53 -20.5 -100t-55.5 -82t-82 -55.5t-100 -20.5z" />
    <glyph glyph-name="estimated" unicode="&#x212e;" horiz-adv-x="580"
d="M297 -8q-58 0 -105 20t-80 55.5t-51 83t-18 101.5q0 57 19.5 104t53 81t79 52.5t98.5 18.5q58 0 103.5 -20t76.5 -54.5t47.5 -80.5t16.5 -98h-382v-194q21 -22 62 -36.5t88 -14.5q65 0 118.5 34.5t76.5 98.5h24q-11 -32 -31 -59.5t-48.5 -48t-65.5 -32t-82 -11.5z
M155 273h270v167q-23 23 -55.5 36.5t-77.5 13.5q-43 0 -78.5 -15t-58.5 -35v-167z" />
    <glyph glyph-name="minus" unicode="&#x2212;" horiz-adv-x="630"
d="M96 310h438v-70h-438v70z" />
    <glyph glyph-name="lessequal" unicode="&#x2264;" horiz-adv-x="652"
d="M79 327l460 210v-77l-293 -133l293 -131v-78zM79 70h460v-70h-460v70z" />
    <glyph glyph-name="greaterequal" unicode="&#x2265;" horiz-adv-x="653"
d="M113 196l293 131l-293 133v77l461 -210l-461 -209v78zM113 70h461v-70h-461v70z" />
    <glyph glyph-name="notequal" unicode="&#x2260;" horiz-adv-x="636"
d="M96 420h281l86 119l55 -40l-57 -79h79v-70h-130l-108 -149h238v-70h-288l-86 -119l-55 40l57 79h-72v70h122l108 149h-230v70z" />
    <glyph glyph-name="approxequal" unicode="&#x2248;" horiz-adv-x="610"
d="M96 199l108 73l198 -75l112 74v-82l-108 -75l-199 75l-111 -76v86zM96 386l108 73l198 -75l112 74v-82l-108 -75l-199 75l-111 -76v86z" />
    <glyph glyph-name="partialdiff" unicode="&#x2202;" horiz-adv-x="591"
d="M295 -8q-54 0 -100.5 19.5t-80 53.5t-52.5 80t-19 98q0 51 18.5 96.5t51.5 80t78.5 54.5t98.5 20q51 0 95 -20.5t70 -57.5q-12 48 -36.5 89t-60.5 71t-84.5 47t-109.5 17h-7v75h6q102 0 175 -36t119.5 -95.5t68.5 -136.5t22 -159q0 -65 -16.5 -119.5t-48.5 -93.5t-79 -61
t-109 -22zM295 64q39 0 71 14t55.5 38.5t36 57t12.5 69.5t-12.5 69.5t-36 57t-55.5 38.5t-71 14t-71 -14t-55.5 -38.5t-36.5 -57t-13 -69.5t13 -69.5t36.5 -57t55.5 -38.5t71 -14z" />
    <glyph glyph-name="product" unicode="&#x220f;" horiz-adv-x="644"
d="M96 710h452v-894h-74v824h-304v-824h-74v894z" />
    <glyph glyph-name="radical" unicode="&#x221a;" horiz-adv-x="698"
d="M138 249h-89v70h129l91 -176l260 655h140v-70h-89l-298 -745z" />
    <glyph glyph-name="summation" unicode="&#x2211;" horiz-adv-x="589"
d="M59 -118l266 381l-266 381v66h466v-70h-374l263 -377l-263 -377h374v-70h-466v66z" />
    <glyph glyph-name="integral" unicode="&#x222b;" horiz-adv-x="405"
d="M58 -118h26q24 0 40 4.5t25.5 14.5t13 26.5t3.5 41.5v595q0 77 35 113t122 36h24v-70h-28q-24 0 -40 -4.5t-25 -14.5t-12.5 -26.5t-3.5 -41.5v-594q0 -78 -35 -114t-121 -36h-24v70z" />
    <glyph glyph-name="infinity" unicode="&#x221e;" horiz-adv-x="811"
d="M542 112q-43 0 -78.5 18t-58.5 49q-23 -31 -58.5 -49t-77.5 -18q-36 0 -68 13.5t-55 36.5t-36.5 54t-13.5 67t13.5 67t36.5 54t55 36.5t68 13.5q42 0 77.5 -18t58.5 -49q23 31 58.5 49t78.5 18q36 0 68 -13.5t55 -36.5t36.5 -54t13.5 -67t-13.5 -67t-36.5 -54t-55 -36.5
t-68 -13.5zM542 181q45 0 73.5 30t28.5 72t-28.5 72t-73.5 30q-22 0 -40.5 -8t-32 -22t-21 -32.5t-7.5 -39.5t7.5 -39.5t21 -32.5t32 -22t40.5 -8zM269 181q22 0 41 8t32.5 22t21 32.5t7.5 39.5t-7.5 39.5t-21 32.5t-32.5 22t-41 8q-45 0 -73 -30t-28 -72t28 -72t73 -30z
" />
    <glyph glyph-name="Delta" unicode="&#x394;" horiz-adv-x="790"
d="M633 84l-238 453l-241 -453h479zM395 717l386 -717h-772z" />
    <glyph glyph-name="Delta" unicode="&#x2206;" horiz-adv-x="790"
d="M633 84l-238 453l-241 -453h479zM395 717l386 -717h-772z" />
    <glyph glyph-name="Omega" unicode="&#x3a9;" horiz-adv-x="842"
d="M59 83h132q-30 22 -54.5 51.5t-42 65t-27 75t-9.5 80.5q0 76 28 142.5t77 115.5t115.5 77t142.5 28t142.5 -28t115.5 -77t77 -115.5t28 -142.5q0 -41 -9.5 -80.5t-27 -75t-41.5 -65t-54 -51.5h132v-83h-271v90q40 14 73.5 40t57.5 60.5t37.5 76.5t13.5 88q0 58 -20.5 109
t-57 88.5t-87 59.5t-109.5 22t-109 -22t-86.5 -59.5t-57 -88.5t-20.5 -109q0 -46 13.5 -88t37.5 -76.5t57.5 -60.5t73.5 -40v-90h-271v83z" />
    <glyph glyph-name="Omega" unicode="&#x2126;" horiz-adv-x="842"
d="M59 83h132q-30 22 -54.5 51.5t-42 65t-27 75t-9.5 80.5q0 76 28 142.5t77 115.5t115.5 77t142.5 28t142.5 -28t115.5 -77t77 -115.5t28 -142.5q0 -41 -9.5 -80.5t-27 -75t-41.5 -65t-54 -51.5h132v-83h-271v90q40 14 73.5 40t57.5 60.5t37.5 76.5t13.5 88q0 58 -20.5 109
t-57 88.5t-87 59.5t-109.5 22t-109 -22t-86.5 -59.5t-57 -88.5t-20.5 -109q0 -46 13.5 -88t37.5 -76.5t57.5 -60.5t73.5 -40v-90h-271v83z" />
    <glyph glyph-name="pi" unicode="&#x3c0;" horiz-adv-x="642"
d="M444 422h-246v-422h-85v422h-75v78h566v-78h-75v-422h-85v422z" />
    <glyph glyph-name="Euro" unicode="&#x20ac;" horiz-adv-x="713"
d="M37 458h99q16 57 48 104.5t77 82t101 54t119 19.5q66 0 115 -16t93 -45l-33 -76q-33 25 -75.5 41.5t-99.5 16.5q-45 0 -85.5 -13t-73.5 -36.5t-58 -57t-39 -74.5h373l-28 -61h-360q-1 -11 -1.5 -21t-0.5 -21t0.5 -21t1.5 -20h316l-28 -60h-274q14 -42 39 -75.5t58 -57.5
t74 -37t86 -13q39 0 73 9.5t63 26.5v-89q-63 -26 -136 -26q-63 0 -119 19.5t-101 54t-77.5 83t-47.5 105.5h-127l28 60h88q-2 10 -2 20v21v21t2 21h-116z" />
    <glyph glyph-name="fi" unicode="&#xfb01;" horiz-adv-x="597"
d="M22 500h84q-17 17 -27 39.5t-10 48.5t10.5 48.5t29.5 39t46 25.5t60 9h118v-78h-104q-32 0 -54 -15.5t-22 -47.5q0 -33 22 -50t47 -19h111v-78h-139v-422h-86v422h-86v78zM433 609q-19 17 -19 46q0 26 18 44.5t44 18.5t44 -18.5t18 -44.5q0 -29 -19 -46h-86zM433 500h86
v-500h-86v500z" />
    <glyph glyph-name="fl" unicode="&#xfb02;" horiz-adv-x="597"
d="M22 500h84q-17 17 -27 39.5t-10 48.5t10.5 48.5t29.5 39t46 25.5t60 9h118v-78h-104q-32 0 -54 -15.5t-22 -47.5q0 -33 22 -50t47 -19h111v-78h-139v-422h-86v422h-86v78zM433 710h86v-710h-86v710z" />
    <glyph glyph-name="breve" unicode="&#x2d8;" horiz-adv-x="379"
d="M188 573q-35 0 -63 11t-48.5 29.5t-32 43.5t-12.5 53h64q2 -31 26 -55t67 -24t67.5 24t26.5 55h64q-2 -28 -13.5 -53t-32 -43.5t-49 -29.5t-64.5 -11z" />
    <glyph glyph-name="caron" unicode="&#x2c7;" horiz-adv-x="404"
d="M196 569l-170 107l34 58l136 -86l135 86l35 -58z" />
    <glyph glyph-name="circumflex" unicode="&#x2c6;" horiz-adv-x="396"
d="M26 611l170 107l170 -107l-35 -58l-135 86l-136 -86z" />
    <glyph glyph-name="dotaccent" unicode="&#x2d9;" horiz-adv-x="177"
d="M89 569q-26 0 -44 18t-18 44t18 43.5t44 17.5t44 -17.5t18 -43.5t-18 -44t-44 -18z" />
    <glyph glyph-name="dotaccent.low" horiz-adv-x="177"
d="M89 -192q-26 0 -44 18t-18 44t18 43.5t44 17.5t44 -17.5t18 -43.5t-18 -44t-44 -18z" />
    <glyph glyph-name="hungarumlaut" unicode="&#x2dd;" horiz-adv-x="425"
d="M120 710h101l-125 -165h-63zM289 710h101l-125 -165h-63z" />
    <glyph glyph-name="commaaccent" horiz-adv-x="249"
d="M106 -50h100l-109 -179h-65z" />
    <glyph glyph-name="ogonek" unicode="&#x2db;"
d="M141 -178q-21 0 -40 5.5t-33.5 17t-23 27.5t-8.5 37q0 32 24 55.5t55 35.5h87q-82 -36 -82 -75q0 -16 12.5 -27t37.5 -11q11 0 19 2.5t14 4.5v-59q-14 -8 -29.5 -10.5t-32.5 -2.5z" />
    <glyph glyph-name="ring" unicode="&#x2da;" horiz-adv-x="264"
d="M132 613q20 0 34 13t14 34q0 22 -14 35t-34 13t-34 -13t-14 -35q0 -21 14 -34t34 -13zM132 566q-21 0 -39 7t-31.5 20t-21 30t-7.5 37q0 42 29 68.5t70 26.5t70 -26.5t29 -68.5q0 -20 -7.5 -37t-21 -30t-31.5 -20t-39 -7z" />
    <glyph glyph-name="tilde" unicode="&#x2dc;" horiz-adv-x="434"
d="M47 585q9 45 38.5 69.5t64.5 24.5q21 0 38.5 -7t33 -15t29 -15t25.5 -7q21 0 32 11t16 33h66l-3 -18q-8 -42 -36.5 -68t-66.5 -26q-21 0 -39 7t-33.5 15t-29 15t-26.5 7q-20 0 -30.5 -11t-15.5 -34h-66z" />
    <glyph glyph-name="uni032C" unicode="&#x32c;" horiz-adv-x="433"
d="M221 -177l-170 120l32 53l138 -99l138 99l32 -53z" />
    <glyph glyph-name="zero.slashed" horiz-adv-x="814"
d="M407 -8q-76 0 -142.5 28t-115.5 77t-77.5 115t-28.5 143q0 76 28.5 142.5t77.5 115.5t115.5 77t142.5 28t142.5 -28t115.5 -77t77.5 -115.5t28.5 -142.5q0 -77 -28.5 -143t-77.5 -115t-115.5 -77t-142.5 -28zM407 71q60 0 111 22t87.5 60t57.5 90t21 112q0 30 -6 57
l-520 -185q33 -71 98 -113.5t151 -42.5zM131 355q0 -29 4 -52l518 186q-34 68 -98 109t-148 41q-60 0 -110.5 -22t-87.5 -60t-57.5 -90t-20.5 -112z" />
    <glyph glyph-name="one.pof" horiz-adv-x="259"
d="M87 468l85 86v-554h-85v468z" />
    <glyph glyph-name="two.pof" horiz-adv-x="471"
d="M217 216q-33 0 -62 13t-51 35.5t-35 52t-13 62.5q0 35 13 66t37 54t56.5 36t71.5 13t71.5 -13t56.5 -36t37 -54t13 -66q0 -31 -8.5 -54.5t-23.5 -45t-35 -42.5t-42 -46l-98 -113h202v-78h-378zM234 287q41 0 67.5 27t26.5 65t-26.5 65t-67.5 27q-42 0 -68.5 -27
t-26.5 -65t26.5 -65t68.5 -27z" />
    <glyph glyph-name="three.pof" horiz-adv-x="502"
d="M214 -142q-69 0 -118 25.5t-78 57.5l56 59q23 -25 56.5 -44t81.5 -19q36 0 66.5 11t52.5 31.5t34 49.5t12 65q0 67 -45 108.5t-127 37.5h-21l116 222h-253v78h384l-123 -236q70 -23 113 -76t43 -134q0 -54 -18 -97.5t-51 -74t-79 -47.5t-102 -17z" />
    <glyph glyph-name="four.pof" horiz-adv-x="552"
d="M360 50h-390l475 498v-420h95v-78h-95v-183h-85v183zM360 128v218l-208 -218h208z" />
    <glyph glyph-name="five.pof" horiz-adv-x="530"
d="M243 -142q-33 0 -63.5 8t-56 20.5t-46 28.5t-33.5 32l56 59q26 -28 60 -48.5t80 -20.5q36 0 64 12t47.5 32t29.5 46.5t10 55.5q0 30 -10 57t-29.5 47t-47.5 31.5t-64 11.5q-39 0 -67.5 -13.5t-45.5 -31.5l-51 27v328h356v-78h-271v-170q39 17 86 17q54 0 97 -17.5t73 -48
t45.5 -71.5t15.5 -89q0 -47 -16 -87.5t-46 -71.5t-74 -48.5t-99 -17.5z" />
    <glyph glyph-name="six.pof" horiz-adv-x="505"
d="M252 -8q-48 0 -88.5 17.5t-70 47t-46 69.5t-16.5 85q0 30 8 57t21 53l182 353h92l-129 -252q14 5 26.5 6.5t28.5 1.5q46 -2 85 -20t67.5 -47.5t44.5 -68.5t16 -83q0 -45 -17 -85t-46.5 -69.5t-70 -47t-87.5 -17.5zM252 71q30 0 54.5 11t42.5 30.5t27.5 44.5t9.5 54
q0 28 -9.5 53.5t-27.5 45t-42.5 31t-54.5 11.5t-55 -11.5t-42.5 -31t-27.5 -45t-10 -53.5q0 -29 10 -54t27.5 -44.5t42.5 -30.5t55 -11z" />
    <glyph glyph-name="seven.pof" horiz-adv-x="500"
d="M363 462h-334v78h461l-319 -674h-91z" />
    <glyph glyph-name="eight.pof" horiz-adv-x="556"
d="M278 -8q-45 0 -85.5 17t-70.5 46.5t-47.5 69t-17.5 83.5q0 59 28 107t75 77q-26 22 -41 53t-15 69q0 36 13.5 66.5t37.5 53t55.5 35.5t67.5 13t67.5 -13t55 -35.5t37.5 -53t14 -66.5q0 -38 -15.5 -69t-41.5 -53q47 -29 75.5 -76.5t28.5 -107.5q0 -44 -17.5 -83.5
t-47.5 -69t-70 -46.5t-86 -17zM278 71q28 0 52.5 11t42.5 29.5t28.5 43.5t10.5 53t-10.5 53t-28.5 44t-42.5 30t-52.5 11t-52.5 -11t-42.5 -30t-28.5 -44t-10.5 -53t10.5 -53t28.5 -43.5t42.5 -29.5t52.5 -11zM278 425h3q36 2 61 27.5t25 61.5q0 37 -26 63t-63 26t-63 -26
t-26 -63q0 -36 25 -61.5t60 -27.5h4z" />
    <glyph glyph-name="nine.pof" horiz-adv-x="505"
d="M252.984 548.967q47.9971 0 88.4951 -17.499q40.4971 -17.499 69.9951 -46.9971t45.9971 -69.4961q16.499 -39.9971 16.499 -84.9951q0 -29.998 -7.99902 -56.9961q-8 -26.998 -20.999 -52.9971l-181.988 -352.979h-91.9951l128.992 251.985q-13.999 -5 -26.498 -6.5
t-28.498 -1.5q-45.9971 2 -84.9951 19.999t-67.4961 47.4971t-44.4971 68.4961q-15.999 38.9971 -15.999 82.9941q0 44.998 16.999 84.9951q16.999 39.998 46.4971 69.4961t69.9961 46.9971q40.4971 17.499 87.4941 17.499zM252.984 469.972q-29.998 0 -54.4961 -11
q-24.499 -10.999 -42.498 -30.498t-27.498 -44.4971t-9.49902 -53.9971q0 -27.998 9.49902 -53.4961q9.49902 -25.499 27.498 -44.9971q17.999 -19.499 42.498 -30.999q24.498 -11.499 54.4961 -11.499t54.9971 11.499q24.998 11.5 42.4971 30.999
q17.499 19.498 27.498 44.9971q10 25.498 10 53.4961q0 28.999 -10 53.9971q-9.99902 24.998 -27.498 44.4971t-42.4971 30.498q-24.999 11 -54.9971 11z" />
    <glyph glyph-name="zero.pof" horiz-adv-x="646"
d="M324 71q44 0 79.5 15.5t60.5 42.5t38.5 63t13.5 78t-13.5 78t-38.5 63t-60.5 42.5t-79.5 15.5t-79.5 -15.5t-61 -42.5t-39 -63t-13.5 -78t13.5 -78t39 -63t61 -42.5t79.5 -15.5zM324 -8q-60 0 -111.5 22t-89 59.5t-58.5 88.5t-21 108t21 108t58.5 88.5t89 59.5t111.5 22
t111 -22t88.5 -59.5t58.5 -88.5t21 -108t-21 -108t-58.5 -88.5t-88.5 -59.5t-111 -22z" />
    <glyph glyph-name="zero.slashed.pof" horiz-adv-x="646"
d="M324 -8q-60 0 -111.5 22t-89 59.5t-58.5 88.5t-21 108t21 108t58.5 88.5t89 59.5t111.5 22t111 -22t88.5 -59.5t58.5 -88.5t21 -108t-21 -108t-58.5 -88.5t-88.5 -59.5t-111 -22zM324 71q44 0 79.5 15.5t60.5 42.5t38.5 63t13.5 78q0 27 -6 51l-346 -168q25 -38 65.5 -60
t94.5 -22zM131 270q0 -14 1.5 -26t3.5 -24l345 168q-25 37 -64.5 59t-92.5 22q-44 0 -79.5 -15.5t-61 -42.5t-39 -63t-13.5 -78z" />
    <glyph glyph-name="one.tlf" horiz-adv-x="590"
d="M120 80h138v550h-87v80h173v-630h138v-80h-362v80z" />
    <glyph glyph-name="two.tlf" horiz-adv-x="590"
d="M326 299q-9 -2 -16.5 -2.5t-16.5 -0.5q-45 1 -83 18t-65.5 45.5t-42.5 66t-15 79.5q0 45 16.5 84t45.5 67.5t68.5 45t84.5 16.5t84.5 -16.5t69 -45t46 -67.5t16.5 -84q0 -32 -7 -60.5t-22 -57.5t-38.5 -59.5t-55.5 -65.5l-164 -182h287v-80h-467zM302 371q28 0 52.5 10
t41.5 28t27 42.5t10 53.5q0 28 -10 52.5t-27 42.5t-41.5 28.5t-52.5 10.5q-29 0 -53 -10.5t-41 -28.5t-26.5 -42.5t-9.5 -52.5q0 -29 9.5 -53.5t26.5 -42.5t41 -28t53 -10z" />
    <glyph glyph-name="three.tlf" horiz-adv-x="590"
d="M267 -8q-63 0 -118 29.5t-86 79.5l66 51q18 -34 54 -57.5t83 -23.5q33 0 61 11t49 31t32.5 48.5t11.5 63.5q0 34 -11 63t-32 50t-50.5 33t-65.5 12h-63l143 247h-249v80h382l-149 -258q43 -9 77 -30t57.5 -51t36 -67.5t12.5 -78.5q0 -49 -17.5 -91.5t-49 -74t-76 -49.5
t-98.5 -18z" />
    <glyph glyph-name="four.tlf" horiz-adv-x="590"
d="M394 196h-401l486 522v-442h93v-80h-93v-196h-85v196zM394 276v243l-226 -243h226z" />
    <glyph glyph-name="five.tlf" horiz-adv-x="590"
d="M284 -8q-64 0 -120.5 29.5t-86.5 79.5l67 52q17 -34 54 -58t84 -24q33 0 61 11.5t48 31.5t31.5 48t11.5 61t-11 61.5t-31.5 49.5t-49 33t-64.5 12q-41 0 -68 -18t-43 -37l-59 25v361h358v-80h-272v-193q17 8 40 14t47 6q56 0 100.5 -18.5t75.5 -50t47.5 -74.5t16.5 -91
t-17 -90t-48.5 -73.5t-75 -49.5t-96.5 -18z" />
    <glyph glyph-name="six.tlf" horiz-adv-x="590"
d="M294 -8q-50 0 -92.5 18t-74.5 49.5t-50 73.5t-18 90q0 37 12 70t29 62l212 355h99l-158 -262q7 2 18 4t28 2q47 0 89 -18t73.5 -49.5t50 -73.5t18.5 -90t-18.5 -90t-50 -73.5t-75 -49.5t-92.5 -18zM294 71q33 0 60 12t46.5 32.5t30.5 48t11 59.5q0 31 -11 59t-30.5 48.5
t-46.5 32.5t-60 12t-60 -12t-46.5 -32.5t-30.5 -48.5t-11 -59q0 -32 11 -59.5t30.5 -48t46.5 -32.5t60 -12z" />
    <glyph glyph-name="seven.tlf" horiz-adv-x="590"
d="M413 630h-336v80h465l-340 -710h-91z" />
    <glyph glyph-name="eight.tlf" horiz-adv-x="590"
d="M295 -8q-47 0 -88.5 17t-72.5 47.5t-49 72.5t-18 91q0 63 29 113.5t77 80.5q-25 23 -39.5 56t-14.5 72q0 38 14 70.5t38 56t56 36.5t68 13t68 -13t56 -36.5t38 -56t14 -70.5q0 -39 -14.5 -72t-39.5 -56q48 -30 77 -80.5t29 -113.5q0 -49 -18 -91t-49 -72.5t-72.5 -47.5
t-88.5 -17zM295 73q29 0 54.5 11.5t44 31t29.5 46.5t11 58t-11 58t-29.5 46.5t-44 31t-54.5 11.5t-54.5 -11.5t-44.5 -31t-29.5 -46.5t-10.5 -58t10.5 -58t29.5 -46.5t44.5 -31t54.5 -11.5zM295 448h3q37 2 62.5 27.5t25.5 66.5q0 42 -26.5 68.5t-64.5 26.5t-64.5 -26.5
t-26.5 -68.5q0 -41 25.5 -66.5t61.5 -27.5h4z" />
    <glyph glyph-name="nine.tlf" horiz-adv-x="590"
d="M336 261q-7 -2 -18 -4t-28 -2q-47 0 -89 18t-73.5 49.5t-50 73.5t-18.5 90t18.5 90t50 73.5t74.5 50t93 18.5q49 0 92 -18.5t75 -50t50 -73.5t18 -90q0 -37 -12.5 -70t-29.5 -62l-212 -355h-98zM295 334q33 0 60 12t46.5 32.5t30.5 48t11 59.5q0 31 -11 59t-30.5 49
t-46.5 33t-60 12t-60.5 -12t-47 -33t-30 -49t-10.5 -59q0 -32 10.5 -59.5t30 -48t47 -32.5t60.5 -12z" />
    <glyph glyph-name="zero.tlf" horiz-adv-x="590"
d="M296 71q44 0 79.5 15.5t60.5 42.5t38.5 63t13.5 78t-13.5 78t-38.5 63t-60.5 42.5t-79.5 15.5t-79.5 -15.5t-61 -42.5t-39 -63t-13.5 -78t13.5 -78t39 -63t61 -42.5t79.5 -15.5zM296 -8q-60 0 -111.5 22t-89 59.5t-58.5 88.5t-21 108t21 108t58.5 88.5t89 59.5t111.5 22
t111 -22t88.5 -59.5t58.5 -88.5t21 -108t-21 -108t-58.5 -88.5t-88.5 -59.5t-111 -22z" />
    <glyph glyph-name="zero.slashed.tlf" horiz-adv-x="590"
d="M296 -8q-60 0 -111.5 22t-89 59.5t-58.5 88.5t-21 108t21 108t58.5 88.5t89 59.5t111.5 22t111 -22t88.5 -59.5t58.5 -88.5t21 -108t-21 -108t-58.5 -88.5t-88.5 -59.5t-111 -22zM296 71q44 0 79.5 15.5t60.5 42.5t38.5 63t13.5 78q0 27 -6 51l-346 -168q25 -38 65.5 -60
t94.5 -22zM103 270q0 -14 1.5 -26t3.5 -24l345 168q-25 37 -64.5 59t-92.5 22q-44 0 -79.5 -15.5t-61 -42.5t-39 -63t-13.5 -78z" />
    <glyph glyph-name="one.case" horiz-adv-x="300"
d="M105 628l90 90v-718h-90v628z" />
    <glyph glyph-name="two.case" horiz-adv-x="570"
d="M305 297q-15 -3 -28 -3q-46 1 -84 18.5t-65 46t-42 66t-15 79.5q0 45 16.5 84t45.5 68t68.5 45.5t85.5 16.5t86 -16.5t69 -45.5t46 -68t17 -84q0 -31 -7 -59t-21.5 -56.5t-36.5 -58t-53 -62.5l-164 -184h282v-84h-471zM287 373q57 0 92.5 37t35.5 94q0 28 -9.5 52
t-26.5 41.5t-40.5 27.5t-51.5 10t-51.5 -10t-40 -27.5t-26 -41.5t-9.5 -52q0 -57 35 -94t92 -37z" />
    <glyph glyph-name="three.case" horiz-adv-x="538"
d="M244 -8q-63 0 -118 29t-87 79l69 54q18 -33 53 -56t81 -23q32 0 59.5 11t48 30.5t32 47.5t11.5 62q0 68 -42 111t-114 43h-63l140 246h-246v84h386l-148 -258q42 -9 75.5 -30t57 -51t35.5 -67t12 -78q0 -50 -17.5 -92.5t-49.5 -74t-76.5 -49.5t-98.5 -18z" />
    <glyph glyph-name="four.case" horiz-adv-x="606"
d="M400 193h-398l487 525v-443h92v-82h-92v-193h-89v193zM400 275v233l-216 -233h216z" />
    <glyph glyph-name="five.case" horiz-adv-x="560"
d="M267 -8q-64 0 -121 29t-87 79l70 55q17 -33 53 -56.5t82 -23.5q33 0 60 11t46.5 31t30.5 47t11 59q0 33 -10.5 60.5t-30.5 48t-48 32t-62 11.5q-41 0 -68 -17.5t-42 -37.5l-62 26v364h360v-84h-269v-187q17 8 39 13.5t45 5.5q56 0 100.5 -18.5t75.5 -50t47.5 -74.5
t16.5 -92q0 -48 -17 -90.5t-48.5 -73.5t-75 -49t-96.5 -18z" />
    <glyph glyph-name="six.case" horiz-adv-x="564"
d="M281 -8q-50 0 -93 18t-75 49.5t-50 73.5t-18 90q0 37 12.5 70t29.5 62l210 355h100l-156 -262q11 3 22 5t24 2q48 -1 90 -19t73.5 -49.5t49.5 -73.5t18 -90t-18.5 -90t-50.5 -73.5t-75 -49.5t-93 -18zM281 75q32 0 58.5 11.5t45.5 32t29.5 47.5t10.5 57t-10.5 57.5
t-29.5 47.5t-45.5 32t-58.5 12t-58.5 -12t-45.5 -32t-29.5 -47.5t-10.5 -57.5t10.5 -57t29.5 -47.5t45.5 -32t58.5 -11.5z" />
    <glyph glyph-name="seven.case" horiz-adv-x="524"
d="M369 626h-331v84h466l-338 -710h-96z" />
    <glyph glyph-name="eight.case" horiz-adv-x="571"
d="M286 -8q-48 0 -90 17.5t-73.5 48t-49.5 72t-18 90.5q0 63 29 113.5t77 79.5q-25 23 -39 55.5t-14 71.5q0 38 14 70.5t38 56.5t56.5 37.5t69.5 13.5t69.5 -13.5t56.5 -37.5t38 -56.5t14 -70.5q0 -39 -14.5 -71.5t-39.5 -55.5q48 -29 77 -79.5t29 -113.5q0 -49 -18 -90.5
t-49 -72t-73 -48t-90 -17.5zM286 77q29 0 54 11t43.5 30.5t29 45.5t10.5 56t-10.5 56.5t-29 46t-43.5 30.5t-54 11t-54.5 -11t-44 -30.5t-29 -46t-10.5 -56.5t10.5 -56t29 -45.5t44 -30.5t54.5 -11zM286 448q37 0 63 26t26 66q0 41 -26 67t-63 26q-38 0 -63.5 -26t-25.5 -67
q0 -40 25.5 -66t63.5 -26z" />
    <glyph glyph-name="nine.case" horiz-adv-x="562"
d="M323 262q-11 -3 -23 -5t-24 -2q-48 1 -90 19t-73 49.5t-49 73.5t-18 90t18 90t50 73.5t75 49.5t93 18q49 0 92 -18t75 -49.5t50 -73.5t18 -90q0 -37 -12 -70t-29 -62l-210 -355h-100zM282 338q32 0 58.5 12t45.5 32t29.5 47.5t10.5 57.5t-10.5 57t-29.5 47.5t-45.5 32
t-58.5 11.5t-58.5 -11.5t-45.5 -32t-29.5 -47.5t-10.5 -57t10.5 -57.5t29.5 -47.5t45.5 -32t58.5 -12z" />
    <glyph glyph-name="zero.case" horiz-adv-x="832"
d="M416 75q59 0 109 21.5t86 59.5t56.5 89t20.5 110t-20.5 110t-56.5 89t-86 59.5t-109 21.5t-109 -21.5t-86 -59.5t-56.5 -89t-20.5 -110t20.5 -110t56.5 -89t86 -59.5t109 -21.5zM416 -8q-76 0 -142.5 28t-115.5 77t-77.5 115t-28.5 143q0 76 28.5 142.5t77.5 115.5
t115.5 77t142.5 28t142.5 -28t115.5 -77t77.5 -115.5t28.5 -142.5q0 -77 -28.5 -143t-77.5 -115t-115.5 -77t-142.5 -28z" />
    <glyph glyph-name="zero.slashed.case" horiz-adv-x="832"
d="M416 -8q-76 0 -142.5 28t-115.5 77t-77.5 115t-28.5 143q0 76 28.5 142.5t77.5 115.5t115.5 77t142.5 28t142.5 -28t115.5 -77t77.5 -115.5t28.5 -142.5q0 -77 -28.5 -143t-77.5 -115t-115.5 -77t-142.5 -28zM416 75q59 0 109 21.5t86 59.5t56.5 89t20.5 110
q0 14 -1.5 28t-3.5 28l-512 -183q32 -69 96 -111t149 -42zM144 355q0 -28 4 -51l509 183q-33 67 -96.5 107.5t-144.5 40.5q-59 0 -109 -21.5t-86 -59.5t-56.5 -89t-20.5 -110z" />
    <glyph glyph-name="uni21B2" unicode="&#x21b2;" horiz-adv-x="800"
d="M16 249l306 306l48 -50l-220 -220h514v397h72v-469h-586l220 -221l-48 -49z" />
    <glyph glyph-name="uni21B3" unicode="&#x21b3;" horiz-adv-x="800"
d="M478 -57l-48 49l220 221h-586v469h72v-397h514l-220 220l48 50l306 -306z" />
    <glyph glyph-name="uni21B0" unicode="&#x21b0;" horiz-adv-x="800"
d="M664 -184v397h-514l220 -220l-48 -50l-306 306l306 306l48 -49l-220 -221h586v-469h-72z" />
    <glyph glyph-name="uni21B1" unicode="&#x21b1;" horiz-adv-x="800"
d="M64 285h586l-220 221l48 49l306 -306l-306 -306l-48 50l220 220h-514v-397h-72v469z" />
    <glyph glyph-name="uni2190" unicode="&#x2190;" horiz-adv-x="800"
d="M40 251l306 306l48 -50l-220 -220h586v-72h-586l220 -221l-48 -49z" />
    <glyph glyph-name="uni2191" unicode="&#x2191;" horiz-adv-x="800"
d="M364 586l-221 -220l-49 48l306 306l306 -306l-50 -48l-220 220v-586h-72v586z" />
    <glyph glyph-name="uni2192" unicode="&#x2192;" horiz-adv-x="800"
d="M406 -5l220 220h-586v72h586l-220 221l48 49l306 -306l-306 -306z" />
    <glyph glyph-name="uni2193" unicode="&#x2193;" horiz-adv-x="800"
d="M400 -10l-306 306l49 48l221 -220v586h72v-586l220 220l50 -48z" />
    <glyph glyph-name="uni2196" unicode="&#x2196;" horiz-adv-x="800"
d="M660 10l-444 443v-314h-69v433h433v-70h-314l443 -442z" />
    <glyph glyph-name="uni2197" unicode="&#x2197;" horiz-adv-x="800"
d="M91 60l443 442h-314v70h433v-433h-69v314l-444 -443z" />
    <glyph glyph-name="uni2198" unicode="&#x2198;" horiz-adv-x="800"
d="M220 0v70h314l-443 442l49 50l444 -443v314h69v-433h-433z" />
    <glyph glyph-name="uni2199" unicode="&#x2199;" horiz-adv-x="800"
d="M151 433h69v-314l444 443l49 -50l-443 -442h314v-70h-433v433z" />
    <glyph glyph-name="uni219E" unicode="&#x219e;" horiz-adv-x="800"
d="M324 215h-168l220 -221l-48 -49l-306 306l306 306l48 -50l-220 -220h168l270 270l48 -50l-220 -220h320v-72h-320l220 -221l-48 -49z" />
    <glyph glyph-name="uni219F" unicode="&#x219f;" horiz-adv-x="800"
d="M94 148l270 270v168l-221 -220l-49 48l306 306l306 -306l-50 -48l-220 220v-168l270 -270l-50 -48l-220 220v-320h-72v320l-221 -220z" />
    <glyph glyph-name="uni21A0" unicode="&#x21a0;" horiz-adv-x="800"
d="M188 -56l-48 49l220 221h-320v72h320l-220 220l48 50l270 -270h168l-220 220l48 50l306 -306l-306 -306l-48 49l220 221h-168z" />
    <glyph glyph-name="uni21A1" unicode="&#x21a1;" horiz-adv-x="800"
d="M400 -10l-306 306l49 48l221 -220v168l-270 270l49 48l221 -220v320h72v-320l220 220l50 -48l-270 -270v-168l220 220l50 -48z" />
    <glyph glyph-name="uni21A2" unicode="&#x21a2;" horiz-adv-x="800"
d="M742 -56l-270 270h-352l221 -220l-49 -50l-306 306l306 306l49 -49l-221 -221h352l270 270l49 -49l-257 -257l257 -256z" />
    <glyph glyph-name="uni21A3" unicode="&#x21a3;" horiz-adv-x="800"
d="M-3 -6l257 256l-257 257l49 49l270 -270h352l-221 221l49 49l306 -306l-306 -306l-49 50l221 220h-352l-270 -270z" />
    <glyph glyph-name="uni21A4" unicode="&#x21a4;" horiz-adv-x="800"
d="M666 214h-516l220 -221l-48 -49l-306 306l306 306l48 -50l-220 -220h516v214h70v-500h-70v214z" />
    <glyph glyph-name="uni21A5" unicode="&#x21a5;" horiz-adv-x="800"
d="M150 70h214v516l-221 -220l-49 48l306 306l306 -306l-50 -48l-220 220v-516h214v-70h-500v70z" />
    <glyph glyph-name="uni21A6" unicode="&#x21a6;" horiz-adv-x="800"
d="M66 0v500h70v-214h516l-220 220l48 50l306 -306l-306 -306l-48 49l220 221h-516v-214h-70z" />
    <glyph glyph-name="uni21A7" unicode="&#x21a7;" horiz-adv-x="800"
d="M150 640v70h500v-70h-214v-516l220 220l50 -48l-306 -306l-306 306l49 48l221 -220v516h-214z" />
    <glyph glyph-name="uni25A0" unicode="&#x25a0;" horiz-adv-x="654"
d="M77 500h500v-500h-500v500z" />
    <glyph glyph-name="uni25A1" unicode="&#x25a1;" horiz-adv-x="655"
d="M77 500h501v-500h-501v500zM163 83h329v334h-329v-334z" />
    <glyph glyph-name="uni25CB" unicode="&#x25cb;" horiz-adv-x="602"
d="M301 74q39 0 70.5 14t54 38t35 56t12.5 68t-12.5 68t-35 56t-54 38t-70.5 14q-38 0 -69.5 -14t-54.5 -38t-35.5 -56t-12.5 -68t12.5 -68t35.5 -56t54.5 -38t69.5 -14zM301 -8q-56 0 -103.5 20.5t-82 55.5t-54 82t-19.5 100t19.5 100t54 82t82 55.5t103.5 20.5
t103.5 -20.5t82 -55.5t54 -82t19.5 -100t-19.5 -100t-54 -82t-82 -55.5t-103.5 -20.5z" />
    <glyph glyph-name="uni25CF" unicode="&#x25cf;" horiz-adv-x="614"
d="M307 -10q-55 0 -103 21t-84 57t-57 84t-21 103t21 103t57 84t84 57t103 21t103 -21t84 -57t57 -84t21 -103t-21 -103t-57 -84t-84 -57t-103 -21z" />
    <glyph glyph-name="onethird" unicode="&#x2153;" horiz-adv-x="743"
d="M68 650l69 70v-436h-69v366zM31 0l500 710h80l-500 -710h-80zM571 -5q-38 0 -71.5 16t-53.5 45l50 42q11 -17 29.5 -28t43.5 -11q35 0 57.5 21t22.5 58q0 35 -22.5 57.5t-60.5 22.5h-40l77 143h-139v65h242l-82 -155q45 -14 70 -48.5t25 -84.5q0 -65 -40.5 -104
t-107.5 -39z" />
    <glyph glyph-name="uni2155" unicode="&#x2155;" horiz-adv-x="755"
d="M68 650l69 70v-436h-69v366zM31 0l500 710h80l-500 -710h-80zM584 -5q-38 0 -73.5 16t-54.5 45l51 44q11 -17 30 -29t44 -12q35 0 56 22t21 54t-20.5 55t-57.5 23q-23 0 -38.5 -10t-23.5 -24l-45 20v227h223v-65h-154v-91q9 3 19.5 5t22.5 2q33 0 59.5 -10.5t45.5 -29.5
t29 -45t10 -57q0 -62 -39 -101t-105 -39z" />
    <glyph glyph-name="uni2159" unicode="&#x2159;" horiz-adv-x="746"
d="M68 650l69 70v-436h-69v366zM31 0l500 710h80l-500 -710h-80zM578 -5q-31 0 -57 11t-45.5 29.5t-30.5 44t-11 55.5q0 22 7.5 41.5t18.5 37.5l121 212h77l-90 -154q8 2 17 2q28 0 53 -11t44 -30t29.5 -44.5t10.5 -53.5q0 -30 -11 -55.5t-30.5 -44t-45.5 -29.5t-57 -11z
M578 59q34 0 54 22.5t20 53.5q0 30 -20 52.5t-54 22.5t-54 -22.5t-20 -52.5q0 -31 20 -53.5t54 -22.5z" />
    <glyph glyph-name="oneeighth" unicode="&#x215b;" horiz-adv-x="779"
d="M68 650l69 70v-436h-69v366zM31 0l500 710h80l-500 -710h-80zM594 -5q-31 0 -57.5 10.5t-46 29t-30.5 43.5t-11 54q0 37 17 66t46 46q-30 28 -30 74q0 24 8.5 44.5t23.5 35.5t35.5 24t44.5 9t45 -9t36.5 -24t24 -35.5t8.5 -44.5q0 -23 -8.5 -42t-22.5 -33
q29 -17 46 -45.5t17 -65.5q0 -29 -11 -54t-30.5 -43.5t-46.5 -29t-58 -10.5zM594 59q35 0 56 21.5t21 51.5q0 31 -21 52.5t-56 21.5q-34 0 -54.5 -21.5t-20.5 -52.5q0 -30 20.5 -51.5t54.5 -21.5zM594 270q22 0 35.5 14t13.5 34q0 21 -13.5 35t-35.5 14q-21 0 -34 -14
t-13 -35q0 -20 13 -34t34 -14z" />
    <glyph glyph-name="twothirds" unicode="&#x2154;" horiz-adv-x="891"
d="M171 455q-29 1 -52 11.5t-39.5 28.5t-25 40.5t-8.5 47.5q0 28 10.5 52t28.5 42t43 28t54 10t54 -10t43 -28t28.5 -42t10.5 -52q0 -32 -13.5 -60.5t-41.5 -59.5l-98 -114h152v-65h-295zM182 515q31 0 49 19.5t18 48.5t-18 48.5t-49 19.5t-49 -19.5t-18 -48.5t18 -48.5
t49 -19.5zM180 0l500 710h80l-500 -710h-80zM720 -5q-38 0 -71.5 16t-53.5 45l50 42q11 -17 29.5 -28t43.5 -11q35 0 57.5 21t22.5 58q0 35 -22.5 57.5t-60.5 22.5h-40l77 143h-139v65h242l-82 -155q45 -14 70 -48.5t25 -84.5q0 -65 -40.5 -104t-107.5 -39z" />
    <glyph glyph-name="uni2156" unicode="&#x2156;" horiz-adv-x="903"
d="M171 455q-29 1 -52 11.5t-39.5 28.5t-25 40.5t-8.5 47.5q0 28 10.5 52t28.5 42t43 28t54 10t54 -10t43 -28t28.5 -42t10.5 -52q0 -32 -13.5 -60.5t-41.5 -59.5l-98 -114h152v-65h-295zM182 515q31 0 49 19.5t18 48.5t-18 48.5t-49 19.5t-49 -19.5t-18 -48.5t18 -48.5
t49 -19.5zM180 0l500 710h80l-500 -710h-80zM733 -5q-38 0 -73.5 16t-54.5 45l51 44q11 -17 30 -29t44 -12q35 0 56 22t21 54t-20.5 55t-57.5 23q-23 0 -38.5 -10t-23.5 -24l-45 20v227h223v-65h-154v-91q9 3 19.5 5t22.5 2q33 0 59.5 -10.5t45.5 -29.5t29 -45t10 -57
q0 -62 -39 -101t-105 -39z" />
    <glyph glyph-name="uni2157" unicode="&#x2157;" horiz-adv-x="854"
d="M160 279q-38 0 -71.5 16t-53.5 45l50 42q11 -17 29.5 -28t43.5 -11q35 0 57.5 21t22.5 58q0 35 -22.5 57.5t-60.5 22.5h-40l77 143h-139v65h242l-82 -155q45 -14 70 -48.5t25 -84.5q0 -65 -40.5 -104t-107.5 -39zM130 0l500 710h80l-500 -710h-80zM683 -5q-38 0 -73.5 16
t-54.5 45l51 44q11 -17 30 -29t44 -12q35 0 56 22t21 54t-20.5 55t-57.5 23q-23 0 -38.5 -10t-23.5 -24l-45 20v227h223v-65h-154v-91q9 3 19.5 5t22.5 2q33 0 59.5 -10.5t45.5 -29.5t29 -45t10 -57q0 -62 -39 -101t-105 -39z" />
    <glyph glyph-name="threeeighths" unicode="&#x215c;" horiz-adv-x="878"
d="M160 279q-38 0 -71.5 16t-53.5 45l50 42q11 -17 29.5 -28t43.5 -11q35 0 57.5 21t22.5 58q0 35 -22.5 57.5t-60.5 22.5h-40l77 143h-139v65h242l-82 -155q45 -14 70 -48.5t25 -84.5q0 -65 -40.5 -104t-107.5 -39zM130 0l500 710h80l-500 -710h-80zM693 -5
q-31 0 -57.5 10.5t-46 29t-30.5 43.5t-11 54q0 37 17 66t46 46q-30 28 -30 74q0 24 8.5 44.5t23.5 35.5t35.5 24t44.5 9t45 -9t36.5 -24t24 -35.5t8.5 -44.5q0 -23 -8.5 -42t-22.5 -33q29 -17 46 -45.5t17 -65.5q0 -29 -11 -54t-30.5 -43.5t-46.5 -29t-58 -10.5zM693 59
q35 0 56 21.5t21 51.5q0 31 -21 52.5t-56 21.5q-34 0 -54.5 -21.5t-20.5 -52.5q0 -30 20.5 -51.5t54.5 -21.5zM693 270q22 0 35.5 14t13.5 34q0 21 -13.5 35t-35.5 14q-21 0 -34 -14t-13 -35q0 -20 13 -34t34 -14z" />
    <glyph glyph-name="uni2158" unicode="&#x2158;" horiz-adv-x="847"
d="M194 392h-229l297 328v-267h49v-61h-49v-108h-68v108zM194 453v104l-94 -104h94zM124 0l500 710h80l-500 -710h-80zM677 -5q-38 0 -73.5 16t-54.5 45l51 44q11 -17 30 -29t44 -12q35 0 56 22t21 54t-20.5 55t-57.5 23q-23 0 -38.5 -10t-23.5 -24l-45 20v227h223v-65h-154
v-91q9 3 19.5 5t22.5 2q33 0 59.5 -10.5t45.5 -29.5t29 -45t10 -57q0 -62 -39 -101t-105 -39z" />
    <glyph glyph-name="uni215A" unicode="&#x215a;" horiz-adv-x="857"
d="M173 279q-38 0 -73.5 16t-54.5 45l51 44q11 -17 30 -29t44 -12q35 0 56 22t21 54t-20.5 55t-57.5 23q-23 0 -38.5 -10t-23.5 -24l-45 20v227h223v-65h-154v-91q9 3 19.5 5t22.5 2q33 0 59.5 -10.5t45.5 -29.5t29 -45t10 -57q0 -62 -39 -101t-105 -39zM143 0l500 710h80
l-500 -710h-80zM690 -5q-31 0 -57 11t-45.5 29.5t-30.5 44t-11 55.5q0 22 7.5 41.5t18.5 37.5l121 212h77l-90 -154q8 2 17 2q28 0 53 -11t44 -30t29.5 -44.5t10.5 -53.5q0 -30 -11 -55.5t-30.5 -44t-45.5 -29.5t-57 -11zM690 59q34 0 54 22.5t20 53.5q0 30 -20 52.5
t-54 22.5t-54 -22.5t-20 -52.5q0 -31 20 -53.5t54 -22.5z" />
    <glyph glyph-name="fiveeighths" unicode="&#x215d;" horiz-adv-x="890"
d="M173 279q-38 0 -73.5 16t-54.5 45l51 44q11 -17 30 -29t44 -12q35 0 56 22t21 54t-20.5 55t-57.5 23q-23 0 -38.5 -10t-23.5 -24l-45 20v227h223v-65h-154v-91q9 3 19.5 5t22.5 2q33 0 59.5 -10.5t45.5 -29.5t29 -45t10 -57q0 -62 -39 -101t-105 -39zM143 0l500 710h80
l-500 -710h-80zM706 -5q-31 0 -57.5 10.5t-46 29t-30.5 43.5t-11 54q0 37 17 66t46 46q-30 28 -30 74q0 24 8.5 44.5t23.5 35.5t35.5 24t44.5 9t45 -9t36.5 -24t24 -35.5t8.5 -44.5q0 -23 -8.5 -42t-22.5 -33q29 -17 46 -45.5t17 -65.5q0 -29 -11 -54t-30.5 -43.5t-46.5 -29
t-58 -10.5zM706 59q35 0 56 21.5t21 51.5q0 31 -21 52.5t-56 21.5q-34 0 -54.5 -21.5t-20.5 -52.5q0 -30 20.5 -51.5t54.5 -21.5zM706 270q22 0 35.5 14t13.5 34q0 21 -13.5 35t-35.5 14q-21 0 -34 -14t-13 -35q0 -20 13 -34t34 -14z" />
    <glyph glyph-name="seveneighths" unicode="&#x215e;" horiz-adv-x="813"
d="M197 645h-182v65h286l-199 -426h-75zM65 0l500 710h80l-500 -710h-80zM628 -5q-31 0 -57.5 10.5t-46 29t-30.5 43.5t-11 54q0 37 17 66t46 46q-30 28 -30 74q0 24 8.5 44.5t23.5 35.5t35.5 24t44.5 9t45 -9t36.5 -24t24 -35.5t8.5 -44.5q0 -23 -8.5 -42t-22.5 -33
q29 -17 46 -45.5t17 -65.5q0 -29 -11 -54t-30.5 -43.5t-46.5 -29t-58 -10.5zM628 59q35 0 56 21.5t21 51.5q0 31 -21 52.5t-56 21.5q-34 0 -54.5 -21.5t-20.5 -52.5q0 -30 20.5 -51.5t54.5 -21.5zM628 270q22 0 35.5 14t13.5 34q0 21 -13.5 35t-35.5 14q-21 0 -34 -14
t-13 -35q0 -20 13 -34t34 -14z" />
    <glyph glyph-name="uni215F" unicode="&#x215f;" horiz-adv-x="412"
d="M68 650l69 70v-436h-69v366zM31 0l500 710h80l-500 -710h-80z" />
    <glyph glyph-name="fraction" unicode="&#x2044;" horiz-adv-x="180"
d="M-200 0l500 710h80l-500 -710h-80z" />
    <glyph glyph-name="a.superior" horiz-adv-x="365"
d="M255 429q-32 -24 -77 -24q-33 0 -61.5 12t-49.5 32.5t-32.5 49t-11.5 61.5t11.5 61.5t32.5 49t49.5 32.5t61.5 12q23 0 42.5 -7t34.5 -18v20h69v-300h-69v19zM179 471q23 0 43.5 10.5t32.5 27.5v101q-12 18 -32.5 28.5t-43.5 10.5q-38 0 -61.5 -25.5t-23.5 -63.5
t23.5 -63.5t61.5 -25.5z" />
    <glyph glyph-name="b.superior" horiz-adv-x="365"
d="M41 836h69v-146q15 11 34.5 18t42.5 7q33 0 61.5 -12t49 -32.5t32 -49t11.5 -61.5t-11.5 -61.5t-32 -49t-49 -32.5t-61.5 -12q-45 0 -77 24v-19h-69v426zM186 649q-23 0 -43.5 -10.5t-32.5 -27.5v-102q12 -17 32.5 -27.5t43.5 -10.5q38 0 61.5 25.5t23.5 63.5t-23.5 63.5
t-61.5 25.5z" />
    <glyph glyph-name="c.superior" horiz-adv-x="314"
d="M179 405q-33 0 -61.5 12t-49.5 32.5t-33 49t-12 61.5t12 61.5t33 49t49.5 32.5t61.5 12q35 0 64 -14t50 -37l-47 -48q-11 14 -27.5 22.5t-39.5 8.5q-38 0 -61.5 -24.5t-23.5 -62.5t23.5 -62.5t61.5 -24.5q23 0 39.5 8.5t27.5 22.5l47 -48q-21 -23 -50 -37t-64 -14z" />
    <glyph glyph-name="d.superior" horiz-adv-x="365"
d="M255 429q-32 -24 -77 -24q-33 0 -61.5 12t-49.5 32.5t-32.5 49t-11.5 61.5t11.5 61.5t32.5 49t49.5 32.5t61.5 12q23 0 42.5 -7t34.5 -18v146h69v-426h-69v19zM179 471q23 0 43.5 10.5t32.5 27.5v101q-12 18 -32.5 28.5t-43.5 10.5q-38 0 -61.5 -25.5t-23.5 -63.5
t23.5 -63.5t61.5 -25.5z" />
    <glyph glyph-name="e.superior" horiz-adv-x="344"
d="M179 405q-33 0 -61.5 12t-49.5 32.5t-33 49t-12 61.5t11.5 61.5t32.5 49t49.5 32.5t61.5 12q68 0 106.5 -47.5t36.5 -127.5h-226q5 -30 28.5 -48t55.5 -18q26 0 45.5 10.5t30.5 23.5l47 -50q-20 -23 -52 -38t-71 -15zM173 651q-26 0 -47 -15.5t-29 -42.5h148
q-6 29 -24.5 43.5t-47.5 14.5z" />
    <glyph glyph-name="f.superior" horiz-adv-x="216"
d="M12 710h47q-21 21 -21 51q0 32 23 53.5t61 21.5h81v-61h-61q-17 0 -27.5 -8.5t-10.5 -23.5t9 -23.5t21 -9.5h69v-61h-76v-239h-70v239h-45v61z" />
    <glyph glyph-name="g.superior" horiz-adv-x="361"
d="M173 294q-31 0 -65.5 8t-63.5 28l36 60q20 -14 42 -22t51 -8q16 0 31.5 3t27.5 9.5t19.5 18t7.5 29.5q0 6 -1.5 14t-4.5 15q-15 -11 -35.5 -18.5t-44.5 -7.5q-33 0 -61 11t-47.5 30.5t-30.5 46t-11 58.5t11 58.5t30.5 46t47.5 30.5t61 11q23 0 42.5 -7t34.5 -18v20h69
v-240q7 -16 9.5 -31t2.5 -28q0 -32 -13.5 -54.5t-36 -36.5t-51 -20t-57.5 -6zM174 489q23 0 43.5 10t32.5 28v83q-12 18 -32.5 28.5t-43.5 10.5q-33 0 -56.5 -22.5t-23.5 -57.5q0 -36 23.5 -58t56.5 -22z" />
    <glyph glyph-name="h.superior" horiz-adv-x="350"
d="M41 836h69v-152q16 16 37.5 23.5t44.5 7.5q57 0 90 -36t33 -95v-174h-69v173q0 11 -4.5 23t-12.5 21.5t-21 15.5t-29 6q-24 0 -42 -12.5t-27 -38.5v-188h-69v426z" />
    <glyph glyph-name="i.superior" horiz-adv-x="152"
d="M41 767q-10 13 -10 29q0 18 13 31.5t32 13.5q18 0 31.5 -13.5t13.5 -31.5q0 -17 -10 -29h-70zM41 710h69v-300h-69v300z" />
    <glyph glyph-name="j.superior" horiz-adv-x="155"
d="M-19 365h18q22 0 33.5 8.5t11.5 31.5v305h69v-309q0 -57 -28.5 -79t-82.5 -22h-21v65zM44 767q-10 11 -10 29t13 31.5t31 13.5q19 0 32 -13.5t13 -31.5t-10 -29h-69z" />
    <glyph glyph-name="k.superior" horiz-adv-x="321"
d="M41 836h69v-261l117 135h81l-122 -142l137 -158h-84l-129 149v-149h-69v426z" />
    <glyph glyph-name="l.superior" horiz-adv-x="151"
d="M41 836h69v-426h-69v426z" />
    <glyph glyph-name="m.superior" horiz-adv-x="531"
d="M426 583q0 11 -3.5 23t-10.5 21.5t-18.5 15.5t-27.5 6q-46 0 -64 -51q1 -5 1 -14v-174h-69v173q0 11 -3.5 23t-11 21.5t-19 15.5t-27.5 6q-21 0 -37.5 -12.5t-25.5 -38.5v-188h-69v300h69v-27q15 17 35 24.5t41 7.5q32 0 55.5 -12t38.5 -34q21 28 49 37t50 9q56 0 86 -36
t30 -95v-174h-69v173z" />
    <glyph glyph-name="n.superior" unicode="&#x207f;" horiz-adv-x="350"
d="M41 710h69v-26q16 16 37.5 23.5t44.5 7.5q57 0 90 -36t33 -95v-174h-69v173q0 11 -4.5 23t-12.5 21.5t-21 15.5t-29 6q-24 0 -42 -12.5t-27 -38.5v-188h-69v300z" />
    <glyph glyph-name="o.superior" horiz-adv-x="357"
d="M179 471q37 0 60.5 25.5t23.5 63.5t-23.5 63.5t-60.5 25.5q-38 0 -61.5 -25.5t-23.5 -63.5t23.5 -63.5t61.5 -25.5zM179 405q-33 0 -61.5 12t-49.5 32.5t-33 49t-12 61.5t12 61.5t33 49t49.5 32.5t61.5 12t61.5 -12t49 -32.5t32.5 -49t12 -61.5t-12 -61.5t-32.5 -49
t-49 -32.5t-61.5 -12z" />
    <glyph glyph-name="p.superior" horiz-adv-x="365"
d="M41 710h69v-20q15 11 34.5 18t42.5 7q33 0 61.5 -12t49 -32.5t32 -49t11.5 -61.5t-11.5 -61.5t-32 -49t-49 -32.5t-61.5 -12q-46 0 -77 25v-130h-69v410zM186 649q-23 0 -43.5 -10.5t-32.5 -27.5v-102q12 -17 32.5 -27.5t43.5 -10.5q38 0 61.5 25.5t23.5 63.5t-23.5 63.5
t-61.5 25.5z" />
    <glyph glyph-name="q.superior" horiz-adv-x="365"
d="M255 429q-32 -24 -77 -24q-33 0 -61.5 12t-49.5 32.5t-32.5 49t-11.5 61.5t11.5 61.5t32.5 49t49.5 32.5t61.5 12q23 0 42.5 -7t34.5 -18v20h69v-410h-69v129zM179 471q23 0 43.5 10.5t32.5 27.5v101q-12 18 -32.5 28.5t-43.5 10.5q-38 0 -61.5 -25.5t-23.5 -63.5
t23.5 -63.5t61.5 -25.5z" />
    <glyph glyph-name="r.superior" horiz-adv-x="221"
d="M41 710h69v-28q28 32 76 32h11.5t10.5 -1v-73q-15 5 -34 5q-20 0 -37 -8t-27 -26v-201h-69v300z" />
    <glyph glyph-name="s.superior" horiz-adv-x="250"
d="M123 405q-36 0 -65 15t-48 47l53 37q11 -18 24 -27.5t36 -9.5q16 0 25.5 7t9.5 18q0 12 -9 20t-29 16l-20 8q-74 29 -74 93q0 38 27.5 62t69.5 24q29 0 53.5 -12t41.5 -40l-51 -36q-14 26 -42 26q-12 0 -21.5 -5.5t-9.5 -16.5t8.5 -18.5t28.5 -15.5l21 -8
q38 -15 58.5 -36.5t20.5 -57.5q0 -40 -30 -65t-78 -25z" />
    <glyph glyph-name="t.superior" horiz-adv-x="233"
d="M-2 710h58v56l69 36v-92h77l-10 -61h-67v-131q0 -23 8.5 -34t34.5 -11h41v-63h-61q-43 0 -67.5 24.5t-24.5 67.5v147h-46z" />
    <glyph glyph-name="u.superior" horiz-adv-x="350"
d="M239 435q-16 -16 -37.5 -23t-44.5 -7q-57 0 -90 36t-33 95v174h69v-173q0 -11 4.5 -23t13 -21.5t21 -15.5t28.5 -6q48 0 69 47v192h69v-300h-69v25z" />
    <glyph glyph-name="v.superior" horiz-adv-x="326"
d="M-2 710h77l88 -171l87 171h79l-166 -305z" />
    <glyph glyph-name="w.superior" horiz-adv-x="435"
d="M7 710h72l60 -196l78 201l79 -201l59 196h73l-95 -300h-52l-64 157l-62 -157h-53z" />
    <glyph glyph-name="x.superior" horiz-adv-x="327"
d="M119 562l-106 148h80l71 -100l71 100h79l-107 -148l113 -152h-80l-77 105l-76 -105h-80z" />
    <glyph glyph-name="y.superior" horiz-adv-x="308"
d="M118 424l-117 286h74l79 -205l80 205h73l-169 -410h-72z" />
    <glyph glyph-name="z.superior" horiz-adv-x="304"
d="M171 649h-141v61h260l-160 -239h151v-61h-270z" />
    <glyph glyph-name="four.superior" unicode="&#x2074;" horiz-adv-x="353"
d="M223 518h-229l297 328v-267h49v-61h-49v-108h-68v108zM223 579v109l-99 -109h99z" />
    <glyph glyph-name="five.superior" unicode="&#x2075;" horiz-adv-x="326"
d="M155 405q-38 0 -73 16t-55 45l52 44q10 -17 29 -29t45 -12q35 0 55.5 22t20.5 54t-20.5 55t-56.5 23q-23 0 -38.5 -10t-24.5 -24l-44 20v227h222v-65h-153v-91q10 3 19.5 5t21.5 2q67 0 106 -39.5t39 -102.5q0 -62 -39.5 -101t-105.5 -39z" />
    <glyph glyph-name="six.superior" unicode="&#x2076;" horiz-adv-x="317"
d="M159 469q34 0 54 22.5t20 53.5q0 30 -20 52.5t-54 22.5t-54 -22.5t-20 -52.5q0 -31 20 -53.5t54 -22.5zM159 405q-31 0 -57 11t-45.5 29.5t-30.5 44t-11 55.5q0 22 7.5 41.5t18.5 37.5l121 212h77l-90 -154q8 2 17 2q28 0 53 -11t44 -30t29.5 -44.5t10.5 -53.5
q0 -30 -11 -55.5t-30.5 -44t-45.5 -29.5t-57 -11z" />
    <glyph glyph-name="seven.superior" unicode="&#x2077;" horiz-adv-x="307"
d="M201 771h-182v65h286l-199 -426h-75z" />
    <glyph glyph-name="eight.superior" unicode="&#x2078;" horiz-adv-x="345"
d="M172 405q-31 0 -57.5 10.5t-46 29t-30.5 43.5t-11 54q0 37 17 65.5t46 45.5q-31 29 -31 75q0 24 8.5 44.5t24 35.5t36 24t44.5 9t45 -9t36.5 -24t24 -35.5t8.5 -44.5q0 -23 -8.5 -42t-22.5 -33q29 -17 46 -45.5t17 -65.5q0 -29 -11 -54t-30.5 -43.5t-46.5 -29t-58 -10.5z
M172 469q35 0 55.5 21.5t20.5 51.5q0 31 -20.5 52.5t-55.5 21.5q-34 0 -54.5 -21.5t-20.5 -52.5q0 -30 20.5 -51.5t54.5 -21.5zM172 680q22 0 35 14t13 34q0 21 -13 35t-35 14q-21 0 -34 -14t-13 -35q0 -20 13 -34t34 -14z" />
    <glyph glyph-name="nine.superior" unicode="&#x2079;" horiz-adv-x="316"
d="M159 627q33 0 53.5 22.5t20.5 52.5q0 31 -20.5 53t-53.5 22q-35 0 -55 -22t-20 -53q0 -30 20 -52.5t55 -22.5zM169 565q-8 -2 -17 -2q-29 0 -53.5 11t-43.5 30t-29.5 44.5t-10.5 53.5q0 29 11 54.5t30 44t45.5 29.5t57.5 11t57 -11t45 -29.5t30 -44t11 -54.5
q0 -22 -7.5 -42t-18.5 -38l-121 -212h-77z" />
    <glyph glyph-name="zero.superior" unicode="&#x2070;" horiz-adv-x="480"
d="M240 469q32 0 59.5 12t47.5 33t31 49t11 60t-11 60t-31 49t-47.5 33t-59.5 12q-33 0 -60 -12t-47 -33t-31 -49t-11 -60t11 -60t31 -49t47 -33t60 -12zM240 405q-45 0 -85 17t-70 46.5t-47 69t-17 85.5t17 85.5t47 69t70 46.5t85 17q46 0 86 -17t69.5 -46.5t46.5 -69
t17 -85.5t-17 -85.5t-46.5 -69t-69.5 -46.5t-86 -17z" />
    <glyph glyph-name="zero.slashed.superior" horiz-adv-x="480"
d="M240 405q-45 0 -85 17t-70 46.5t-47 69t-17 85.5t17 85.5t47 69t70 46.5t85 17q46 0 86 -17t69.5 -46.5t46.5 -69t17 -85.5t-17 -85.5t-46.5 -69t-69.5 -46.5t-86 -17zM240 469q32 0 59.5 12t47.5 33t31 49t11 60q0 3 -0.5 6t-0.5 5l-279 -88q19 -35 52.5 -56t78.5 -21z
M91 613l278 88q-19 34 -52.5 55t-76.5 21q-33 0 -60 -12t-47 -33t-31 -49t-11 -60v-10z" />
    <glyph glyph-name="period.superior" horiz-adv-x="174"
d="M87 405q-23 0 -38.5 15.5t-15.5 38.5q0 22 15.5 37.5t38.5 15.5q22 0 37.5 -15.5t15.5 -37.5q0 -23 -15.5 -38.5t-37.5 -15.5z" />
    <glyph glyph-name="hyphen.superior" horiz-adv-x="209"
d="M26 650h157v-68h-157v68z" />
    <glyph glyph-name="comma.superior" horiz-adv-x="163"
d="M74 410h-36v87h87v-87l-36 -88h-42z" />
    <glyph glyph-name="equal.superior" unicode="&#x207c;" horiz-adv-x="322"
d="M29 581h264v-55h-264v55zM29 707h264v-54h-264v54z" />
    <glyph glyph-name="plus.superior" unicode="&#x207a;" horiz-adv-x="319"
d="M29 644h103v101h55v-101h103v-55h-103v-103h-55v103h-103v55z" />
    <glyph glyph-name="minus.superior" unicode="&#x207b;" horiz-adv-x="319"
d="M29 644h261v-55h-261v55z" />
    <glyph glyph-name="parenleft.superior" unicode="&#x207d;" horiz-adv-x="156"
d="M98 304q-33 65 -49.5 131t-16.5 146t16.5 146t49.5 131l52 -23q-28 -63 -43 -125.5t-15 -128.5t15 -128.5t43 -125.5l-52 -23v0z" />
    <glyph glyph-name="parenright.superior" unicode="&#x207e;" horiz-adv-x="156"
d="M61 304l-53 23q29 63 43.5 125.5t14.5 128.5t-14.5 128.5t-43.5 125.5l53 23q33 -65 49 -131t16 -146t-16 -146t-49 -131z" />
    <glyph glyph-name="a.inferior" horiz-adv-x="365"
d="M255 -95q-32 -24 -77 -24q-33 0 -61.5 12t-49.5 32.5t-32.5 49t-11.5 61.5t11.5 61.5t32.5 49t49.5 32.5t61.5 12q23 0 42.5 -7t34.5 -18v20h69v-300h-69v19zM179 -53q23 0 43.5 10.5t32.5 27.5v101q-12 18 -32.5 28.5t-43.5 10.5q-38 0 -61.5 -25.5t-23.5 -63.5
t23.5 -63.5t61.5 -25.5z" />
    <glyph glyph-name="b.inferior" horiz-adv-x="365"
d="M41 312h69v-146q15 11 34.5 18t42.5 7q33 0 61.5 -12t49 -32.5t32 -49t11.5 -61.5t-11.5 -61.5t-32 -49t-49 -32.5t-61.5 -12q-45 0 -77 24v-19h-69v426zM186 125q-23 0 -43.5 -10.5t-32.5 -27.5v-102q12 -17 32.5 -27.5t43.5 -10.5q38 0 61.5 25.5t23.5 63.5t-23.5 63.5
t-61.5 25.5z" />
    <glyph glyph-name="c.inferior" horiz-adv-x="314"
d="M179 -119q-33 0 -61.5 12t-49.5 32.5t-33 49t-12 61.5t12 61.5t33 49t49.5 32.5t61.5 12q35 0 64 -14t50 -37l-47 -48q-11 14 -27.5 22.5t-39.5 8.5q-38 0 -61.5 -24.5t-23.5 -62.5t23.5 -62.5t61.5 -24.5q23 0 39.5 8.5t27.5 22.5l47 -48q-21 -23 -50 -37t-64 -14z" />
    <glyph glyph-name="d.inferior" horiz-adv-x="365"
d="M255 -95q-32 -24 -77 -24q-33 0 -61.5 12t-49.5 32.5t-32.5 49t-11.5 61.5t11.5 61.5t32.5 49t49.5 32.5t61.5 12q23 0 42.5 -7t34.5 -18v146h69v-426h-69v19zM179 -53q23 0 43.5 10.5t32.5 27.5v101q-12 18 -32.5 28.5t-43.5 10.5q-38 0 -61.5 -25.5t-23.5 -63.5
t23.5 -63.5t61.5 -25.5z" />
    <glyph glyph-name="e.inferior" horiz-adv-x="344"
d="M179 -119q-33 0 -61.5 12t-49.5 32.5t-33 49t-12 61.5t11.5 61.5t32.5 49t49.5 32.5t61.5 12q68 0 106.5 -47.5t36.5 -127.5h-226q5 -30 28.5 -48t55.5 -18q26 0 45.5 10.5t30.5 23.5l47 -50q-20 -23 -52 -38t-71 -15zM173 127q-26 0 -47 -15.5t-29 -42.5h148
q-6 29 -24.5 43.5t-47.5 14.5z" />
    <glyph glyph-name="f.inferior" horiz-adv-x="216"
d="M12 186h47q-21 21 -21 51q0 32 23 53.5t61 21.5h81v-61h-61q-17 0 -27.5 -8.5t-10.5 -23.5t9 -23.5t21 -9.5h69v-61h-76v-239h-70v239h-45v61z" />
    <glyph glyph-name="g.inferior" horiz-adv-x="361"
d="M173 -230q-31 0 -65.5 8t-63.5 28l36 60q20 -14 42 -22t51 -8q16 0 31.5 3t27.5 9.5t19.5 18t7.5 29.5q0 6 -1.5 14t-4.5 15q-15 -11 -35.5 -18.5t-44.5 -7.5q-33 0 -61 11t-47.5 30.5t-30.5 46t-11 58.5t11 58.5t30.5 46t47.5 30.5t61 11q23 0 42.5 -7t34.5 -18v20h69
v-240q7 -16 9.5 -31t2.5 -28q0 -32 -13.5 -54.5t-36 -36.5t-51 -20t-57.5 -6zM174 -35q23 0 43.5 10t32.5 28v83q-12 18 -32.5 28.5t-43.5 10.5q-33 0 -56.5 -22.5t-23.5 -57.5q0 -36 23.5 -58t56.5 -22z" />
    <glyph glyph-name="h.inferior" horiz-adv-x="350"
d="M41 312h69v-152q16 16 37.5 23.5t44.5 7.5q57 0 90 -36t33 -95v-174h-69v173q0 11 -4.5 23t-12.5 21.5t-21 15.5t-29 6q-24 0 -42 -12.5t-27 -38.5v-188h-69v426z" />
    <glyph glyph-name="i.inferior" horiz-adv-x="152"
d="M41 243q-10 13 -10 29q0 18 13 31.5t32 13.5q18 0 31.5 -13.5t13.5 -31.5q0 -17 -10 -29h-70zM41 186h69v-300h-69v300z" />
    <glyph glyph-name="j.inferior" horiz-adv-x="155"
d="M-19 -159h18q22 0 33.5 8.5t11.5 31.5v305h69v-309q0 -57 -28.5 -79t-82.5 -22h-21v65zM44 243q-10 11 -10 29t13 31.5t31 13.5q19 0 32 -13.5t13 -31.5t-10 -29h-69z" />
    <glyph glyph-name="k.inferior" horiz-adv-x="321"
d="M41 312h69v-261l117 135h81l-122 -142l137 -158h-84l-129 149v-149h-69v426z" />
    <glyph glyph-name="l.inferior" horiz-adv-x="151"
d="M41 312h69v-426h-69v426z" />
    <glyph glyph-name="m.inferior" horiz-adv-x="531"
d="M426 59q0 11 -3.5 23t-10.5 21.5t-18.5 15.5t-27.5 6q-46 0 -64 -51q1 -5 1 -14v-174h-69v173q0 11 -3.5 23t-11 21.5t-19 15.5t-27.5 6q-21 0 -37.5 -12.5t-25.5 -38.5v-188h-69v300h69v-27q15 17 35 24.5t41 7.5q32 0 55.5 -12t38.5 -34q21 28 49 37t50 9q56 0 86 -36
t30 -95v-174h-69v173z" />
    <glyph glyph-name="n.inferior" horiz-adv-x="350"
d="M41 186h69v-26q16 16 37.5 23.5t44.5 7.5q57 0 90 -36t33 -95v-174h-69v173q0 11 -4.5 23t-12.5 21.5t-21 15.5t-29 6q-24 0 -42 -12.5t-27 -38.5v-188h-69v300z" />
    <glyph glyph-name="o.inferior" horiz-adv-x="357"
d="M179 -53q37 0 60.5 25.5t23.5 63.5t-23.5 63.5t-60.5 25.5q-38 0 -61.5 -25.5t-23.5 -63.5t23.5 -63.5t61.5 -25.5zM179 -119q-33 0 -61.5 12t-49.5 32.5t-33 49t-12 61.5t12 61.5t33 49t49.5 32.5t61.5 12t61.5 -12t49 -32.5t32.5 -49t12 -61.5t-12 -61.5t-32.5 -49
t-49 -32.5t-61.5 -12z" />
    <glyph glyph-name="p.inferior" horiz-adv-x="365"
d="M41 186h69v-20q15 11 34.5 18t42.5 7q33 0 61.5 -12t49 -32.5t32 -49t11.5 -61.5t-11.5 -61.5t-32 -49t-49 -32.5t-61.5 -12q-46 0 -77 25v-130h-69v410zM186 125q-23 0 -43.5 -10.5t-32.5 -27.5v-102q12 -17 32.5 -27.5t43.5 -10.5q38 0 61.5 25.5t23.5 63.5t-23.5 63.5
t-61.5 25.5z" />
    <glyph glyph-name="q.inferior" horiz-adv-x="365"
d="M255 -95q-32 -24 -77 -24q-33 0 -61.5 12t-49.5 32.5t-32.5 49t-11.5 61.5t11.5 61.5t32.5 49t49.5 32.5t61.5 12q23 0 42.5 -7t34.5 -18v20h69v-410h-69v129zM179 -53q23 0 43.5 10.5t32.5 27.5v101q-12 18 -32.5 28.5t-43.5 10.5q-38 0 -61.5 -25.5t-23.5 -63.5
t23.5 -63.5t61.5 -25.5z" />
    <glyph glyph-name="r.inferior" horiz-adv-x="221"
d="M41 186h69v-28q28 32 76 32h11.5t10.5 -1v-73q-15 5 -34 5q-20 0 -37 -8t-27 -26v-201h-69v300z" />
    <glyph glyph-name="s.inferior" horiz-adv-x="250"
d="M123 -119q-36 0 -65 15t-48 47l53 37q11 -18 24 -27.5t36 -9.5q16 0 25.5 7t9.5 18q0 12 -9 20t-29 16l-20 8q-74 29 -74 93q0 38 27.5 62t69.5 24q29 0 53.5 -12t41.5 -40l-51 -36q-14 26 -42 26q-12 0 -21.5 -5.5t-9.5 -16.5t8.5 -18.5t28.5 -15.5l21 -8
q38 -15 58.5 -36.5t20.5 -57.5q0 -40 -30 -65t-78 -25z" />
    <glyph glyph-name="t.inferior" horiz-adv-x="233"
d="M-2 186h58v56l69 36v-92h77l-10 -61h-67v-131q0 -23 8.5 -34t34.5 -11h41v-63h-61q-43 0 -67.5 24.5t-24.5 67.5v147h-46z" />
    <glyph glyph-name="u.inferior" horiz-adv-x="350"
d="M239 -89q-16 -16 -37.5 -23t-44.5 -7q-57 0 -90 36t-33 95v174h69v-173q0 -11 4.5 -23t13 -21.5t21 -15.5t28.5 -6q48 0 69 47v192h69v-300h-69v25z" />
    <glyph glyph-name="v.inferior" horiz-adv-x="326"
d="M-2 186h77l88 -171l87 171h79l-166 -305z" />
    <glyph glyph-name="w.inferior" horiz-adv-x="435"
d="M7 186h72l60 -196l78 201l79 -201l59 196h73l-95 -300h-52l-64 157l-62 -157h-53z" />
    <glyph glyph-name="x.inferior" horiz-adv-x="327"
d="M119 38l-106 148h80l71 -100l71 100h79l-107 -148l113 -152h-80l-77 105l-76 -105h-80z" />
    <glyph glyph-name="y.inferior" horiz-adv-x="308"
d="M118 -100l-117 286h74l79 -205l80 205h73l-169 -410h-72z" />
    <glyph glyph-name="z.inferior" horiz-adv-x="304"
d="M171 125h-141v61h260l-160 -239h151v-61h-270z" />
    <glyph glyph-name="one.inferior" unicode="&#x2081;" horiz-adv-x="176"
d="M54 250l69 72v-436h-69v364z" />
    <glyph glyph-name="two.inferior" unicode="&#x2082;" horiz-adv-x="340"
d="M172 117q31 0 49 19.5t18 48.5t-18 48.5t-49 19.5t-49 -19.5t-18 -48.5t18 -48.5t49 -19.5zM161 57q-29 1 -52 11.5t-39.5 28.5t-25 40.5t-8.5 47.5q0 28 10.5 52t28.5 42t43 28t54 10t54 -10t43 -28t28.5 -42t10.5 -52q0 -32 -13.5 -60.5t-41.5 -59.5l-98 -114h152v-65
h-295z" />
    <glyph glyph-name="three.inferior" unicode="&#x2083;" horiz-adv-x="310"
d="M139 -119q-38 0 -71.5 16t-53.5 45l50 42q11 -17 29.5 -28t43.5 -11q35 0 57.5 21t22.5 58q0 35 -22.5 57.5t-60.5 22.5h-40l77 143h-139v65h242l-82 -155q45 -14 70 -48.5t25 -84.5q0 -65 -40.5 -104t-107.5 -39z" />
    <glyph glyph-name="four.inferior" unicode="&#x2084;" horiz-adv-x="353"
d="M223 -6h-229l297 328v-267h49v-61h-49v-108h-68v108zM223 55v109l-99 -109h99z" />
    <glyph glyph-name="five.inferior" unicode="&#x2085;" horiz-adv-x="326"
d="M155 -119q-38 0 -73 16t-55 45l52 44q10 -17 29 -29t45 -12q35 0 55.5 22t20.5 54t-20.5 55t-56.5 23q-23 0 -38.5 -10t-24.5 -24l-44 20v227h222v-65h-153v-91q10 3 19.5 5t21.5 2q67 0 106 -39.5t39 -102.5q0 -62 -39.5 -101t-105.5 -39z" />
    <glyph glyph-name="six.inferior" unicode="&#x2086;" horiz-adv-x="317"
d="M159 -55q34 0 54 22.5t20 53.5q0 30 -20 52.5t-54 22.5t-54 -22.5t-20 -52.5q0 -31 20 -53.5t54 -22.5zM159 -119q-31 0 -57 11t-45.5 29.5t-30.5 44t-11 55.5q0 22 7.5 41.5t18.5 37.5l121 212h77l-90 -154q8 2 17 2q28 0 53 -11t44 -30t29.5 -44.5t10.5 -53.5
q0 -30 -11 -55.5t-30.5 -44t-45.5 -29.5t-57 -11z" />
    <glyph glyph-name="seven.inferior" unicode="&#x2087;" horiz-adv-x="307"
d="M201 247h-182v65h286l-199 -426h-75z" />
    <glyph glyph-name="eight.inferior" unicode="&#x2088;" horiz-adv-x="345"
d="M172 -119q-31 0 -57.5 10.5t-46 29t-30.5 43.5t-11 54q0 37 17 65.5t46 45.5q-31 29 -31 75q0 24 8.5 44.5t24 35.5t36 24t44.5 9t45 -9t36.5 -24t24 -35.5t8.5 -44.5q0 -23 -8.5 -42t-22.5 -33q29 -17 46 -45.5t17 -65.5q0 -29 -11 -54t-30.5 -43.5t-46.5 -29t-58 -10.5
zM172 -55q35 0 55.5 21.5t20.5 51.5q0 31 -20.5 52.5t-55.5 21.5q-34 0 -54.5 -21.5t-20.5 -52.5q0 -30 20.5 -51.5t54.5 -21.5zM172 156q22 0 35 14t13 34q0 21 -13 35t-35 14q-21 0 -34 -14t-13 -35q0 -20 13 -34t34 -14z" />
    <glyph glyph-name="nine.inferior" unicode="&#x2089;" horiz-adv-x="316"
d="M159 103q33 0 53.5 22.5t20.5 52.5q0 31 -20.5 53t-53.5 22q-35 0 -55 -22t-20 -53q0 -30 20 -52.5t55 -22.5zM169 41q-8 -2 -17 -2q-29 0 -53.5 11t-43.5 30t-29.5 44.5t-10.5 53.5q0 29 11 54.5t30 44t45.5 29.5t57.5 11t57 -11t45 -29.5t30 -44t11 -54.5
q0 -22 -7.5 -42t-18.5 -38l-121 -212h-77z" />
    <glyph glyph-name="zero.inferior" unicode="&#x2080;" horiz-adv-x="480"
d="M240 -55q32 0 59.5 12t47.5 33t31 49t11 60t-11 60t-31 49t-47.5 33t-59.5 12q-33 0 -60 -12t-47 -33t-31 -49t-11 -60t11 -60t31 -49t47 -33t60 -12zM240 -119q-45 0 -85 17t-70 46.5t-47 69t-17 85.5t17 85.5t47 69t70 46.5t85 17q46 0 86 -17t69.5 -46.5t46.5 -69
t17 -85.5t-17 -85.5t-46.5 -69t-69.5 -46.5t-86 -17z" />
    <glyph glyph-name="zero.slashed.inferior" horiz-adv-x="480"
d="M240 -119q-45 0 -85 17t-70 46.5t-47 69t-17 85.5t17 85.5t47 69t70 46.5t85 17q46 0 86 -17t69.5 -46.5t46.5 -69t17 -85.5t-17 -85.5t-46.5 -69t-69.5 -46.5t-86 -17zM240 -55q32 0 59.5 12t47.5 33t31 49t11 60q0 3 -0.5 6t-0.5 5l-279 -88q19 -35 52.5 -56t78.5 -21z
M91 89l278 88q-19 34 -52.5 55t-76.5 21q-33 0 -60 -12t-47 -33t-31 -49t-11 -60v-10z" />
    <glyph glyph-name="period.inferior" horiz-adv-x="174"
d="M87 -119q-23 0 -38.5 15.5t-15.5 38.5q0 22 15.5 37.5t38.5 15.5q22 0 37.5 -15.5t15.5 -37.5q0 -23 -15.5 -38.5t-37.5 -15.5z" />
    <glyph glyph-name="hyphen.inferior" horiz-adv-x="209"
d="M26 126h157v-68h-157v68z" />
    <glyph glyph-name="comma.inferior" horiz-adv-x="163"
d="M74 -114h-36v87h87v-87l-36 -88h-42z" />
    <glyph glyph-name="equal.inferior" horiz-adv-x="322"
d="M29 57h264v-55h-264v55zM29 183h264v-54h-264v54z" />
    <glyph glyph-name="plus.inferior" horiz-adv-x="319"
d="M29 120h103v101h55v-101h103v-55h-103v-103h-55v103h-103v55z" />
    <glyph glyph-name="minus.inferior" horiz-adv-x="319"
d="M29 120h261v-55h-261v55z" />
    <glyph glyph-name="parenleft.inferior" unicode="&#x208d;" horiz-adv-x="156"
d="M98 -220q-33 65 -49.5 131t-16.5 146t16.5 146t49.5 131l52 -23q-28 -63 -43 -125.5t-15 -128.5t15 -128.5t43 -125.5l-52 -23v0z" />
    <glyph glyph-name="parenright.inferior" unicode="&#x208e;" horiz-adv-x="156"
d="M61 -220l-53 23q29 63 43.5 125.5t14.5 128.5t-14.5 128.5t-43.5 125.5l53 23q33 -65 49 -131t16 -146t-16 -146t-49 -131z" />
    <glyph glyph-name="one.numerator" horiz-adv-x="232"
d="M68 650l69 70v-436h-69v366z" />
    <glyph glyph-name="two.numerator" horiz-adv-x="380"
d="M171 455q-29 1 -52 11.5t-39.5 28.5t-25 40.5t-8.5 47.5q0 28 10.5 52t28.5 42t43 28t54 10t54 -10t43 -28t28.5 -42t10.5 -52q0 -32 -13.5 -60.5t-41.5 -59.5l-98 -114h152v-65h-295zM182 515q31 0 49 19.5t18 48.5t-18 48.5t-49 19.5t-49 -19.5t-18 -48.5t18 -48.5
t49 -19.5z" />
    <glyph glyph-name="three.numerator" horiz-adv-x="331"
d="M160 279q-38 0 -71.5 16t-53.5 45l50 42q11 -17 29.5 -28t43.5 -11q35 0 57.5 21t22.5 58q0 35 -22.5 57.5t-60.5 22.5h-40l77 143h-139v65h242l-82 -155q45 -14 70 -48.5t25 -84.5q0 -65 -40.5 -104t-107.5 -39z" />
    <glyph glyph-name="four.numerator" horiz-adv-x="324"
d="M194 392h-229l297 328v-267h49v-61h-49v-108h-68v108zM194 453v104l-94 -104h94z" />
    <glyph glyph-name="five.numerator" horiz-adv-x="343"
d="M173 279q-38 0 -73.5 16t-54.5 45l51 44q11 -17 30 -29t44 -12q35 0 56 22t21 54t-20.5 55t-57.5 23q-23 0 -38.5 -10t-23.5 -24l-45 20v227h223v-65h-154v-91q9 3 19.5 5t22.5 2q33 0 59.5 -10.5t45.5 -29.5t29 -45t10 -57q0 -62 -39 -101t-105 -39z" />
    <glyph glyph-name="six.numerator" horiz-adv-x="334"
d="M167 279q-31 0 -57 11t-45.5 29.5t-30.5 44t-11 55.5q0 22 7.5 41.5t18.5 37.5l121 212h77l-90 -154q8 2 17 2q28 0 53 -11t44 -30t29.5 -44.5t10.5 -53.5q0 -30 -11 -55.5t-30.5 -44t-45.5 -29.5t-57 -11zM167 343q34 0 54 22.5t20 53.5q0 30 -20 52.5t-54 22.5
t-54 -22.5t-20 -52.5q0 -31 20 -53.5t54 -22.5z" />
    <glyph glyph-name="seven.numerator" horiz-adv-x="266"
d="M197 645h-182v65h286l-199 -426h-75z" />
    <glyph glyph-name="eight.numerator" horiz-adv-x="367"
d="M183 279q-31 0 -57.5 10.5t-46 29t-30.5 43.5t-11 54q0 37 17 66t46 46q-30 28 -30 74q0 24 8.5 44.5t23.5 35.5t35.5 24t44.5 9t45 -9t36.5 -24t24 -35.5t8.5 -44.5q0 -23 -8.5 -42t-22.5 -33q29 -17 46 -45.5t17 -65.5q0 -29 -11 -54t-30.5 -43.5t-46.5 -29t-58 -10.5z
M183 343q35 0 56 21.5t21 51.5q0 31 -21 52.5t-56 21.5q-34 0 -54.5 -21.5t-20.5 -52.5q0 -30 20.5 -51.5t54.5 -21.5zM183 554q22 0 35.5 14t13.5 34q0 21 -13.5 35t-35.5 14q-21 0 -34 -14t-13 -35q0 -20 13 -34t34 -14z" />
    <glyph glyph-name="nine.numerator" horiz-adv-x="333"
d="M177 439q-8 -2 -17 -2q-29 0 -53.5 11t-43.5 30t-29.5 44.5t-10.5 53.5q0 29 11 54.5t30 44t45.5 29.5t57.5 11t57 -11t45 -29.5t30 -44t11 -54.5q0 -22 -7.5 -42t-18.5 -38l-121 -212h-77zM167 501q33 0 53.5 22.5t20.5 52.5q0 31 -20.5 53t-53.5 22q-35 0 -55 -22
t-20 -53q0 -30 20 -52.5t55 -22.5z" />
    <glyph glyph-name="zero.numerator" horiz-adv-x="500"
d="M249 343q33 0 60.5 12t47.5 33t31 49t11 60t-11 60t-31 49t-47.5 33t-60.5 12q-32 0 -59.5 -12t-47 -33t-30.5 -49t-11 -60t11 -60t30.5 -49t47 -33t59.5 -12zM249 279q-45 0 -84.5 17t-69.5 46.5t-47 69t-17 85.5t17 85.5t47 69t69.5 46.5t84.5 17q46 0 86 -17t70 -46.5
t47 -69t17 -85.5t-17 -85.5t-47 -69t-70 -46.5t-86 -17z" />
    <glyph glyph-name="zero.slashed.numerator" horiz-adv-x="500"
d="M250 279q-45 0 -85 17t-70 46.5t-47 69t-17 85.5t17 85.5t47 69t70 46.5t85 17q46 0 86 -17t69.5 -46.5t46.5 -69t17 -85.5t-17 -85.5t-46.5 -69t-69.5 -46.5t-86 -17zM250 343q32 0 59.5 12t47.5 33t31 49t11 60q0 3 -0.5 6t-0.5 5l-279 -88q19 -35 52.5 -56t78.5 -21z
M101 487l278 88q-19 34 -52.5 55t-76.5 21q-33 0 -60 -12t-47 -33t-31 -49t-11 -60v-10z" />
    <glyph glyph-name="one.denominator" horiz-adv-x="232"
d="M68 366l69 70v-436h-69v366z" />
    <glyph glyph-name="two.denominator" horiz-adv-x="380"
d="M171 171q-29 1 -52 11.5t-39.5 28.5t-25 40.5t-8.5 47.5q0 28 10.5 52t28.5 42t43 28t54 10t54 -10t43 -28t28.5 -42t10.5 -52q0 -32 -13.5 -60.5t-41.5 -59.5l-98 -114h152v-65h-295zM182 231q31 0 49 19.5t18 48.5t-18 48.5t-49 19.5t-49 -19.5t-18 -48.5t18 -48.5
t49 -19.5z" />
    <glyph glyph-name="three.denominator" horiz-adv-x="331"
d="M160 -5q-38 0 -71.5 16t-53.5 45l50 42q11 -17 29.5 -28t43.5 -11q35 0 57.5 21t22.5 58q0 35 -22.5 57.5t-60.5 22.5h-40l77 143h-139v65h242l-82 -155q45 -14 70 -48.5t25 -84.5q0 -65 -40.5 -104t-107.5 -39z" />
    <glyph glyph-name="four.denominator" horiz-adv-x="324"
d="M194 108h-229l297 328v-267h49v-61h-49v-108h-68v108zM194 169v104l-94 -104h94z" />
    <glyph glyph-name="five.denominator" horiz-adv-x="343"
d="M173 -5q-38 0 -73.5 16t-54.5 45l51 44q11 -17 30 -29t44 -12q35 0 56 22t21 54t-20.5 55t-57.5 23q-23 0 -38.5 -10t-23.5 -24l-45 20v227h223v-65h-154v-91q9 3 19.5 5t22.5 2q33 0 59.5 -10.5t45.5 -29.5t29 -45t10 -57q0 -62 -39 -101t-105 -39z" />
    <glyph glyph-name="six.denominator" horiz-adv-x="334"
d="M167 -5q-31 0 -57 11t-45.5 29.5t-30.5 44t-11 55.5q0 22 7.5 41.5t18.5 37.5l121 212h77l-90 -154q8 2 17 2q28 0 53 -11t44 -30t29.5 -44.5t10.5 -53.5q0 -30 -11 -55.5t-30.5 -44t-45.5 -29.5t-57 -11zM167 59q34 0 54 22.5t20 53.5q0 30 -20 52.5t-54 22.5t-54 -22.5
t-20 -52.5q0 -31 20 -53.5t54 -22.5z" />
    <glyph glyph-name="seven.denominator" horiz-adv-x="266"
d="M197 361h-182v65h286l-199 -426h-75z" />
    <glyph glyph-name="eight.denominator" horiz-adv-x="367"
d="M183 -5q-31 0 -57.5 10.5t-46 29t-30.5 43.5t-11 54q0 37 17 66t46 46q-30 28 -30 74q0 24 8.5 44.5t23.5 35.5t35.5 24t44.5 9t45 -9t36.5 -24t24 -35.5t8.5 -44.5q0 -23 -8.5 -42t-22.5 -33q29 -17 46 -45.5t17 -65.5q0 -29 -11 -54t-30.5 -43.5t-46.5 -29t-58 -10.5z
M183 59q35 0 56 21.5t21 51.5q0 31 -21 52.5t-56 21.5q-34 0 -54.5 -21.5t-20.5 -52.5q0 -30 20.5 -51.5t54.5 -21.5zM183 270q22 0 35.5 14t13.5 34q0 21 -13.5 35t-35.5 14q-21 0 -34 -14t-13 -35q0 -20 13 -34t34 -14z" />
    <glyph glyph-name="nine.denominator" horiz-adv-x="333"
d="M177 155q-8 -2 -17 -2q-29 0 -53.5 11t-43.5 30t-29.5 44.5t-10.5 53.5q0 29 11 54.5t30 44t45.5 29.5t57.5 11t57 -11t45 -29.5t30 -44t11 -54.5q0 -22 -7.5 -42t-18.5 -38l-121 -212h-77zM167 217q33 0 53.5 22.5t20.5 52.5q0 31 -20.5 53t-53.5 22q-35 0 -55 -22
t-20 -53q0 -30 20 -52.5t55 -22.5z" />
    <glyph glyph-name="zero.denominator" horiz-adv-x="500"
d="M249 59q33 0 60.5 12t47.5 33t31 49t11 60t-11 60t-31 49t-47.5 33t-60.5 12q-32 0 -59.5 -12t-47 -33t-30.5 -49t-11 -60t11 -60t30.5 -49t47 -33t59.5 -12zM249 -5q-45 0 -84.5 17t-69.5 46.5t-47 69t-17 85.5t17 85.5t47 69t69.5 46.5t84.5 17q46 0 86 -17t70 -46.5
t47 -69t17 -85.5t-17 -85.5t-47 -69t-70 -46.5t-86 -17z" />
    <glyph glyph-name="zero.slashed.denominator" horiz-adv-x="500"
d="M250 -5q-45 0 -85 17t-70 46.5t-47 69t-17 85.5t17 85.5t47 69t70 46.5t85 17q46 0 86 -17t69.5 -46.5t46.5 -69t17 -85.5t-17 -85.5t-46.5 -69t-69.5 -46.5t-86 -17zM250 59q32 0 59.5 12t47.5 33t31 49t11 60q0 3 -0.5 6t-0.5 5l-279 -88q19 -35 52.5 -56t78.5 -21z
M101 203l278 88q-19 34 -52.5 55t-76.5 21q-33 0 -60 -12t-47 -33t-31 -49t-11 -60v-10z" />
    <glyph glyph-name="ampersand.case" horiz-adv-x="629"
d="M259 -8q-49 0 -90 17.5t-71 47.5t-47 70.5t-17 87.5q0 46 17 87t47 71.5t71 48t90 17.5q10 0 19 -1t18 -3l-141 275h362v-82h-224l327 -628h-100l-64 123q-25 -62 -76.5 -96.5t-120.5 -34.5zM259 76q29 0 54 10.5t43 29t28.5 44t10.5 55.5q0 31 -10.5 56.5t-28.5 44
t-43 29t-54 10.5t-54 -10.5t-43 -29t-28.5 -44t-10.5 -56.5q0 -30 10.5 -55.5t28.5 -44t43 -29t54 -10.5z" />
    <glyph glyph-name="hyphen.case" horiz-adv-x="353"
d="M55 404h243v-89h-243v89z" />
    <glyph glyph-name="endash.case" horiz-adv-x="544"
d="M55 400h434v-81h-434v81z" />
    <glyph glyph-name="emdash.case" horiz-adv-x="841"
d="M55 319v81h731v-81h-731z" />
    <glyph glyph-name="question.case" horiz-adv-x="489"
d="M183 373h59q28 0 51.5 10t40.5 27.5t26.5 41.5t9.5 52t-9.5 52t-26.5 41.5t-40.5 27.5t-51.5 10q-29 0 -52 -10t-40 -27.5t-26 -41.5t-9 -52h-90q0 45 16.5 84t46 68t69 45.5t85.5 16.5t85.5 -16.5t69 -45.5t46.5 -68t17 -84t-17 -84.5t-46.5 -68t-69 -45t-85.5 -16.5
h-59v83zM243 -8q-30 0 -51.5 21.5t-21.5 52.5q0 20 9 36t25 26h80q15 -10 24.5 -26t9.5 -36q0 -31 -21.5 -52.5t-53.5 -21.5z" />
    <glyph glyph-name="questiondown.case" horiz-adv-x="489"
d="M247 -8q-46 0 -85.5 16.5t-69 45.5t-46.5 68t-17 84t17 84.5t46.5 68t69 45t85.5 16.5h59v-83h-59q-28 0 -51.5 -10t-40.5 -27.5t-26.5 -41.5t-9.5 -52t9.5 -52t26.5 -41.5t40.5 -27.5t51.5 -10t51.5 10t40 27.5t26 41.5t9.5 52h90q0 -45 -17 -84t-46 -68t-68.5 -45.5
t-85.5 -16.5zM205 582q-15 10 -24.5 26t-9.5 36q0 31 21.5 52.5t53.5 21.5q30 0 51.5 -21.5t21.5 -52.5q0 -20 -9 -36t-25 -26h-80z" />
    <glyph glyph-name="exclam.case" horiz-adv-x="283"
d="M96 419v291h92v-291l-17 -196h-58zM141 -8q-32 0 -54 22.5t-22 54.5q0 20 9 36.5t25 26.5h84q16 -10 25.5 -26.5t9.5 -36.5q0 -32 -22.5 -54.5t-54.5 -22.5z" />
    <glyph glyph-name="exclamdown.case" horiz-adv-x="283"
d="M187 291v-291h-92v291l17 196h58zM142 718q32 0 54 -22.5t22 -54.5q0 -20 -9 -36.5t-25 -26.5h-84q-16 10 -25.5 26.5t-9.5 36.5q0 32 22.5 54.5t54.5 22.5z" />
    <glyph glyph-name="guilsinglleft.case" horiz-adv-x="307"
d="M38 310l152 221l62 -42l-123 -179l123 -179l-62 -42z" />
    <glyph glyph-name="guilsinglright.case" horiz-adv-x="307"
d="M117 89l-62 42l123 179l-123 179l62 42l152 -221z" />
    <glyph glyph-name="guillemotleft.case" horiz-adv-x="509"
d="M240 310l152 221l62 -42l-123 -179l123 -179l-62 -42zM38 310l152 221l62 -42l-123 -179l123 -179l-62 -42z" />
    <glyph glyph-name="guillemotright.case" horiz-adv-x="509"
d="M319 89l-62 42l123 179l-123 179l62 42l152 -221zM117 89l-62 42l123 179l-123 179l62 42l152 -221z" />
    <glyph glyph-name="parenleft.case" horiz-adv-x="258"
d="M172 -10q-25 42 -44.5 84.5t-33.5 87.5t-21.5 93t-7.5 101q0 106 28.5 193.5t78.5 172.5l66 -33q-25 -44 -43 -85t-29.5 -81.5t-17 -81.5t-5.5 -85t5.5 -85t17 -81.5t29 -81.5t42.5 -85l-65 -33v0z" />
    <glyph glyph-name="parenright.case" horiz-adv-x="258"
d="M86 -10l-65 33q25 44 42.5 85t29 81.5t17 81.5t5.5 85t-5.5 85t-17 81.5t-29.5 81.5t-43 85l66 33q50 -85 78.5 -172.5t28.5 -193.5q0 -107 -29 -194.5t-78 -171.5z" />
    <glyph glyph-name="bracketleft.case" horiz-adv-x="301"
d="M86 710h186v-71h-108v-568h108v-71h-186v710z" />
    <glyph glyph-name="bracketright.case" horiz-adv-x="301"
d="M215 0h-186v71h108v568h-108v71h186v-710z" />
    <glyph glyph-name="braceleft.case" horiz-adv-x="312"
d="M232 0q-71 0 -99.5 36.5t-28.5 107.5v104q0 35 -10 53t-47 18h-16v71h16q37 0 47 18t10 53v105q0 70 28 107t99 37h50v-71h-39q-37 0 -48 -17.5t-11 -54.5v-102q0 -46 -11 -71t-42 -40q31 -14 42 -39t11 -71v-101q0 -37 11 -54.5t48 -17.5h39v-71h-49v0z" />
    <glyph glyph-name="braceright.case" horiz-adv-x="312"
d="M80 0h-49v71h39q37 0 48 17.5t11 54.5v101q0 46 11 71t42 39q-31 15 -42 40t-11 71v102q0 37 -11 54.5t-48 17.5h-39v71h50q71 0 99 -37t28 -107v-105q0 -35 10 -53t47 -18h16v-71h-16q-37 0 -47 -18t-10 -53v-104q0 -71 -28.5 -107.5t-99.5 -36.5z" />
    <glyph glyph-name="bar.case" horiz-adv-x="247"
d="M84 710h79v-710h-79v710z" />
    <glyph glyph-name="brokenbar.case" horiz-adv-x="247"
d="M84 292h79v-292h-79v292zM84 710h79v-291h-79v291z" />
    <glyph glyph-name="periodcentered.case" horiz-adv-x="278"
d="M139 285q-30 0 -52 21.5t-22 52.5t22 52.5t52 21.5q31 0 52.5 -21.5t21.5 -52.5t-21.5 -52.5t-52.5 -21.5z" />
    <glyph glyph-name="plus.case" horiz-adv-x="647"
d="M105 390h183v178h71v-178h183v-70h-183v-182h-71v182h-183v70z" />
    <glyph glyph-name="minus.case" horiz-adv-x="648"
d="M105 390h438v-70h-438v70z" />
    <glyph glyph-name="divide.case" horiz-adv-x="648"
d="M324 149q-27 0 -47 19t-20 47t20 47t47 19q28 0 47 -19t19 -47t-19 -47t-47 -19zM105 390h438v-70h-438v70zM324 428q-27 0 -47 19.5t-20 47.5q0 27 20 46.5t47 19.5q28 0 47 -19.5t19 -46.5q0 -28 -19 -47.5t-47 -19.5z" />
    <glyph glyph-name="multiply.case" horiz-adv-x="608"
d="M107 212l148 147l-150 150l50 49l149 -150l148 148l49 -49l-148 -148l150 -149l-49 -49l-150 149l-147 -147z" />
    <glyph glyph-name="equal.case" horiz-adv-x="654"
d="M105 285h444v-70h-444v70zM105 504h444v-70h-444v70z" />
    <glyph glyph-name="plusminus.case" horiz-adv-x="648"
d="M105 448h184v141h70v-141h184v-70h-184v-144h-70v144h-184v70zM105 159h438v-70h-438v70z" />
    <glyph glyph-name="less.case" horiz-adv-x="481"
d="M63 353l289 276l50 -52l-237 -224l237 -226l-50 -51z" />
    <glyph glyph-name="greater.case" horiz-adv-x="482"
d="M79 126l237 226l-237 224l51 52l289 -276l-289 -277z" />
    <glyph glyph-name="lessequal.case" horiz-adv-x="670"
d="M88 417l460 210v-77l-293 -133l293 -131v-78zM88 160h460v-70h-460v70z" />
    <glyph glyph-name="greaterequal.case" horiz-adv-x="671"
d="M122 280l293 131l-293 133v77l461 -210l-461 -209v78zM122 154h461v-70h-461v70z" />
    <glyph glyph-name="notequal.case" horiz-adv-x="654"
d="M105 504h281l86 119l55 -40l-57 -79h79v-70h-130l-108 -149h238v-70h-288l-86 -119l-55 40l57 79h-72v70h122l108 149h-230v70z" />
    <glyph glyph-name="acute.case" horiz-adv-x="267"
d="M123 913h108l-112 -145h-73z" />
    <glyph glyph-name="breve.case" horiz-adv-x="379"
d="M188 772q-35 0 -63 11t-48.5 29.5t-32 43.5t-12.5 53h64q2 -31 26 -55t67 -24t67.5 24t26.5 55h64q-2 -28 -13.5 -53t-32 -43.5t-49 -29.5t-64.5 -11z" />
    <glyph glyph-name="caron.case" horiz-adv-x="396"
d="M25 866l35 60l138 -82l138 82l35 -60l-173 -100z" />
    <glyph glyph-name="cedilla.case" horiz-adv-x="197"
d="M91 0h59l-38 -135h-98z" />
    <glyph glyph-name="circumflex.case" horiz-adv-x="395"
d="M25 826l173 100l173 -100l-35 -60l-138 82l-138 -82z" />
    <glyph glyph-name="dieresis.case" horiz-adv-x="409"
d="M126 782q-24 0 -42.5 18t-18.5 44q0 25 18.5 42.5t42.5 17.5q26 0 44 -17.5t18 -42.5q0 -26 -18 -44t-44 -18zM351 782q-25 0 -43 18t-18 44q0 25 18 42.5t43 17.5q26 0 44 -17.5t18 -42.5q0 -26 -18 -44t-44 -18z" />
    <glyph glyph-name="dotaccent.case" horiz-adv-x="179"
d="M89 780q-25 0 -43.5 18.5t-18.5 45.5q0 26 18.5 44t43.5 18q27 0 45.5 -18t18.5 -44q0 -27 -18.5 -45.5t-45.5 -18.5z" />
    <glyph glyph-name="grave.case" horiz-adv-x="267"
d="M37 913h109l77 -145h-73z" />
    <glyph glyph-name="hungarumlaut.case" horiz-adv-x="461"
d="M123 913h104l-113 -145h-68zM323 913h104l-113 -145h-68z" />
    <glyph glyph-name="macron.case" horiz-adv-x="365"
d="M37 868h292v-65h-292v65z" />
    <glyph glyph-name="ogonek.case" horiz-adv-x="245"
d="M144 -189q-22 0 -41.5 6t-34.5 17.5t-23.5 28t-8.5 37.5q0 32 24 60t55 40h92q-42 -18 -63.5 -40t-21.5 -44q0 -17 13 -28.5t37 -11.5q11 0 20.5 2.5t15.5 4.5v-59q-27 -13 -64 -13z" />
    <glyph glyph-name="ring.case" horiz-adv-x="264"
d="M132 798q20 0 34 13t14 34t-14 34.5t-34 13.5t-34 -13.5t-14 -34.5t14 -34t34 -13zM132 751q-42 0 -70.5 26.5t-28.5 67.5q0 42 29 68.5t70 26.5t70 -26.5t29 -68.5q0 -41 -28.5 -67.5t-70.5 -26.5z" />
    <glyph glyph-name="tilde.case" horiz-adv-x="435"
d="M284 783q-21 0 -39 7t-33.5 15t-29 15t-26.5 7q-20 0 -30.5 -10.5t-15.5 -32.5h-69l4 18q4 23 14.5 41t25 30t31.5 18.5t34 6.5q21 0 38.5 -7t33 -15t29 -15t25.5 -7q21 0 32 10t16 33h68l-3 -18q-8 -45 -38 -70.5t-67 -25.5z" />
    <glyph glyph-name="A.ss01" horiz-adv-x="666"
d="M86 710h494v-710h-92v267h-311v-267h-91v710zM177 355h311v267h-311v-267z" />
    <glyph glyph-name="B.ss01" horiz-adv-x="738"
d="M86 710h391v-210h183v-500h-574v710zM177 88h392v324h-392v-324zM177 500h208v122h-208v-122z" />
    <glyph glyph-name="C.ss01" horiz-adv-x="618"
d="M86 710h483v-88h-392v-534h392v-88h-483v710z" />
    <glyph glyph-name="G.ss01" horiz-adv-x="740"
d="M372 407h287v-407h-573v710h527v-88h-436v-534h391v231h-196v88z" />
    <glyph glyph-name="J.ss01" horiz-adv-x="398"
d="M20 88h201v622h91v-710h-292v88z" />
    <glyph glyph-name="O.ss01" horiz-adv-x="883"
d="M705 88v534h-528v-534h528zM86 710h710v-710h-710v710z" />
    <glyph glyph-name="P.ss01" horiz-adv-x="646"
d="M86 710h494v-443h-403v-267h-91v710zM177 355h312v267h-312v-267z" />
    <glyph glyph-name="Q.ss01" horiz-adv-x="883"
d="M86 710h710v-710h-310v-184h-90v184h-310v710zM396 88v183h90v-183h219v534h-528v-534h219z" />
    <glyph glyph-name="S.ss01" horiz-adv-x="604"
d="M85 710h434v-88h-343v-122h343v-500h-434v88h343v325h-343v297z" />
    <glyph glyph-name="U.ss01" horiz-adv-x="738"
d="M86 710h91v-622h384v622h91v-712h-566v712z" />
    <glyph glyph-name="Y.ss01" horiz-adv-x="698"
d="M66 710h91v-303h384v303h91v-391h-237v-319h-91v319h-238v391z" />
    <glyph glyph-name="b.ss01" horiz-adv-x="651"
d="M77 710h86v-210h411v-500h-497v710zM163 83h325v334h-325v-334z" />
    <glyph glyph-name="c.ss01" horiz-adv-x="482"
d="M77 500h348v-83h-262v-334h262v-83h-348v500z" />
    <glyph glyph-name="d.ss01" horiz-adv-x="651"
d="M77 500h411v210h86v-710h-497v500zM163 83h325v334h-325v-334z" />
    <glyph glyph-name="f.ss01" horiz-adv-x="357"
d="M22 500h87v210h224v-78h-139v-132h139v-78h-139v-422h-85v422h-87v78z" />
    <glyph glyph-name="h.ss01" horiz-adv-x="588"
d="M425 417h-262v-417h-86v710h86v-210h348v-500h-86v417z" />
    <glyph glyph-name="i.ss01"
d="M77 500h86v-500h-86v500zM77 710h86v-101h-86v101z" />
    <glyph glyph-name="j.ss01"
d="M-27 -106h104v606h86v-684h-190v78zM77 710h86v-101h-86v101z" />
    <glyph glyph-name="k.ss01" horiz-adv-x="569"
d="M417 221h-254v-221h-86v710h86v-407h178v197h85v-197h76v-303h-85v221z" />
    <glyph glyph-name="m.ss01" horiz-adv-x="885"
d="M400 417h-237v-417h-86v500h731v-500h-86v417h-236v-417h-86v417z" />
    <glyph glyph-name="n.ss01" horiz-adv-x="588"
d="M425 417h-262v-417h-86v500h434v-500h-86v417z" />
    <glyph glyph-name="o.ss01" horiz-adv-x="654"
d="M77 500h500v-500h-500v500zM163 83h328v334h-328v-334z" />
    <glyph glyph-name="p.ss01" horiz-adv-x="651"
d="M77 500h497v-500h-411v-184h-86v684zM163 83h325v334h-325v-334z" />
    <glyph glyph-name="q.ss01" horiz-adv-x="651"
d="M77 500h497v-684h-86v184h-411v500zM163 83h325v334h-325v-334z" />
    <glyph glyph-name="r.ss01" horiz-adv-x="359"
d="M77 500h259v-83h-173v-417h-86v500z" />
    <glyph glyph-name="s.ss01" horiz-adv-x="537"
d="M76 500h385v-83h-300v-125h300v-292h-385v83h300v126h-300v291z" />
    <glyph glyph-name="t.ss01" horiz-adv-x="371"
d="M10 500h89v129h86v-129h142v-78h-142v-344h141v-78h-227v422h-89v78z" />
    <glyph glyph-name="u.ss01" horiz-adv-x="587"
d="M77 500h85v-417h263v417h85v-500h-433v500z" />
    <glyph glyph-name="y.ss01" horiz-adv-x="573"
d="M43 500h85v-208h284v208h85v-684h-85v393h-369v291z" />
    <glyph glyph-name="A.ss02" horiz-adv-x="713"
d="M351 710h276v-710h-91v186h-341l-89 -186h-97zM235 270h301v352h-135z" />
    <glyph glyph-name="E.ss02" horiz-adv-x="502"
d="M246 0q-42 0 -78.5 16t-64.5 43.5t-44 64.5t-16 79q0 48 20.5 88.5t54.5 68.5q-35 27 -55 67t-20 88q0 40 15.5 75.5t42 62t62 42t76.5 15.5h214v-88h-211q-23 0 -42.5 -8.5t-34 -23t-23 -34.5t-8.5 -42t8.5 -41.5t23 -34t34 -23t42.5 -8.5h151v-88h-143q-24 0 -45 -9
t-37 -25t-25 -37t-9 -45t9 -44.5t25 -36.5t37 -25t45 -9h203v-88h-207v0z" />
    <glyph glyph-name="K.ss02" horiz-adv-x="663"
d="M86 710h91v-356l324 356h112l-324 -356h162l189 -354h-99l-142 266h-222v-266h-91v710z" />
    <glyph glyph-name="N.ss02" horiz-adv-x="769"
d="M592 143l-415 375v-518h-91v718l506 -457v449h91v-710h-91v143z" />
    <glyph glyph-name="Q.ss02" horiz-adv-x="802"
d="M357 -5q-68 7 -126.5 37.5t-101.5 78.5t-67 110t-24 134q0 77 28 143.5t77 115t115.5 76.5t142.5 28t142.5 -28t115.5 -76.5t77 -115t28 -143.5q0 -72 -24 -134t-67 -110t-101 -78.5t-126 -37.5v-179h-89v179zM446 82q49 8 90.5 31.5t71.5 59.5t46.5 82.5t16.5 99.5
q0 58 -20.5 108.5t-56.5 88t-85.5 58.5t-107.5 21q-53 0 -98 -17.5t-80.5 -48t-58.5 -73t-30 -92.5h312v-318zM134 312q6 -45 25 -84t48 -69t67 -50t83 -27v230h-223z" />
    <glyph glyph-name="W.ss02" horiz-adv-x="942"
d="M7 710h100l232 -518l87 196l-146 322h92l99 -222l99 222h92l-147 -322l88 -196l232 518h100l-328 -718l-136 298l-136 -298z" />
    <glyph glyph-name="X.ss02" horiz-adv-x="666"
d="M297 336l-179 -336h-97l220 415l-211 295h108l229 -321l170 320h98l-212 -398l222 -311h-107z" />
    <glyph glyph-name="Y.ss02" horiz-adv-x="665"
d="M66 710h92v-303h201l190 303h106l-259 -409v-301h-92v319h-238v391z" />
    <glyph glyph-name="a.ss02" horiz-adv-x="550"
d="M227 -8q-48 0 -84.5 13t-60.5 36t-36.5 53.5t-12.5 65.5q0 36 14.5 66.5t41 52t64 34t84.5 12.5q51 0 88 -9.5t63 -23.5v130h-295v78h380v-500h-85v54q-32 -32 -72.5 -47t-88.5 -15zM234 70q56 0 95 21.5t59 54.5v66q-26 18 -60 29.5t-83 11.5q-53 0 -89 -24t-36 -68
q0 -23 9.5 -40t25 -28t36 -17t43.5 -6z" />
    <glyph glyph-name="g.ss02" horiz-adv-x="610"
d="M103 -184v82h344v175q-61 -58 -157 -58q-56 0 -101.5 19t-77.5 52t-50 78t-18 97t18 97.5t50 78.5t77.5 52t101.5 19q48 0 86.5 -15t69.5 -44v51h86v-684h-429zM292 95q54 0 94 23.5t60 58.5v169q-20 35 -60 58t-94 23q-36 0 -65.5 -12.5t-50.5 -35t-32.5 -52.5
t-11.5 -66q0 -35 11.5 -65.5t32.5 -53t50.5 -35t65.5 -12.5z" />
    <glyph glyph-name="k.ss02" horiz-adv-x="556"
d="M257 193h-94v-193h-86v710h86v-210h258v-83h-258v-142h125l267 -275h-111z" />
    <glyph glyph-name="m.ss02" horiz-adv-x="875"
d="M722 300q0 55 -30 91t-84 36q-47 0 -78 -27.5t-45 -76.5q1 -6 1 -12.5v-13.5v-297h-86v292q0 55 -30.5 91t-84.5 36h-122v-419h-86v500h227q49 0 87 -20.5t62 -57.5q17 25 38.5 42t44 26.5t44.5 13.5t42 4q43 0 77.5 -14.5t58.5 -40.5t37 -64t13 -84v-305h-86v300z" />
    <glyph glyph-name="w.ss02" horiz-adv-x="851"
d="M60 288v212h85v-188l151 -229h87v417h85v-417h87l151 229v188h85v-212l-191 -288h-350z" />
    <glyph glyph-name="b.ss03" horiz-adv-x="521"
d="M77 500h192q85 0 127 -36t42 -99q0 -26 -10.5 -54.5t-37.5 -45.5q41 -15 61 -48t20 -73q0 -31 -9 -57t-29.5 -45.5t-55 -30.5t-85.5 -11h-215v500zM163 224v-148h136q36 0 61 18.5t25 55.5t-25 55.5t-61 18.5h-136zM163 424v-133h116q27 0 50.5 15t23.5 51t-23.5 51.5
t-50.5 15.5h-116z" />
    <glyph glyph-name="d.ss03" horiz-adv-x="548"
d="M77 500h170q61 0 109.5 -19.5t81.5 -53.5t50.5 -79.5t17.5 -97.5t-17.5 -97.5t-50.5 -79.5t-81.5 -53.5t-109.5 -19.5h-170v500zM163 419v-338h86q40 0 71.5 13t53.5 36t33.5 53.5t11.5 66.5t-11.5 66.5t-33.5 53.5t-53.5 36t-71.5 13h-86z" />
    <glyph glyph-name="f.ss03" horiz-adv-x="435"
d="M77 500h321v-78h-235v-134h213v-78h-213v-210h-86v500z" />
    <glyph glyph-name="g.ss03" horiz-adv-x="570"
d="M298 -8q-55 0 -101.5 20.5t-81 55.5t-54 82t-19.5 100t19.5 100t54 82t81.5 55.5t103 20.5q69 0 120.5 -25t80.5 -56l-60 -54q-26 26 -61.5 41t-79.5 15q-38 0 -69.5 -14t-54 -38.5t-35 -57t-12.5 -69.5t12.5 -69.5t35 -57t53.5 -38.5t68 -14q43 0 73.5 10t54.5 27v112
h-125l33 78h177v-229q-35 -34 -91 -55.5t-122 -21.5z" />
    <glyph glyph-name="h.ss03" horiz-adv-x="588"
d="M423 220h-258v-220h-88v500h88v-202h258v202h88v-500h-88v220z" />
    <glyph glyph-name="i.ss03"
d="M77 500h86v-500h-86v500z" />
    <glyph glyph-name="j.ss03" horiz-adv-x="395"
d="M170 -8q-76 0 -120.5 40t-44.5 109v17h85v-7q0 -41 22 -60.5t57 -19.5t57 19.5t22 60.5v349h85v-359q0 -69 -43.5 -109t-119.5 -40z" />
    <glyph glyph-name="k.ss03" horiz-adv-x="517"
d="M77 500h86v-248l225 248h101l-230 -251l254 -249h-108l-242 240v-240h-86v500z" />
    <glyph glyph-name="l.ss03" horiz-adv-x="441"
d="M77 500h86v-422h235v-78h-321v500z" />
    <glyph glyph-name="p.ss03" horiz-adv-x="475"
d="M77 500h174q51 0 87.5 -13t59.5 -34.5t33.5 -50.5t10.5 -60q0 -32 -10.5 -60.5t-33.5 -50t-59.5 -34.5t-87.5 -13h-88v-184h-86v500zM163 424v-164h90q49 0 75.5 20t26.5 62q0 41 -26.5 61.5t-75.5 20.5h-90z" />
    <glyph glyph-name="q.ss03" horiz-adv-x="605"
d="M459 43q-32 -24 -72 -37.5t-85 -13.5q-56 0 -104 20.5t-82.5 55.5t-54 82t-19.5 100t19.5 100t54 82t82.5 55.5t104 20.5t103.5 -20.5t82 -55.5t54 -82t19.5 -100q0 -45 -13.5 -85.5t-39.5 -72.5l54 -50l-47 -50zM302 71q55 0 97 28l-73 68l47 50l73 -68q28 44 28 101
q0 37 -12.5 69.5t-35 57t-54 38.5t-70.5 14t-70.5 -14t-54.5 -38.5t-35.5 -57t-12.5 -69.5t12.5 -69.5t35.5 -57t54.5 -38.5t70.5 -14z" />
    <glyph glyph-name="t.ss03" horiz-adv-x="444"
d="M18 500h408v-78h-160v-422h-88v422h-160v78z" />
    <glyph glyph-name="y.ss03" horiz-adv-x="483"
d="M199 206l-190 294h98l135 -217l135 217h98l-190 -294v-206h-86v206z" />
    <glyph glyph-name="A.ss04" horiz-adv-x="710"
d="M355 718l346 -718h-98l-248 524l-248 -524h-98zM355 -8q-32 0 -54 22t-22 54t22 54.5t54 22.5t54 -22.5t22 -54.5t-22 -54t-54 -22z" />
    <glyph glyph-name="E.ss04" horiz-adv-x="545"
d="M86 710h410v-88h-319v-534h319v-88h-410v710zM338 287q-32 0 -54.5 22t-22.5 54t22.5 54t54.5 22t54 -22t22 -54t-22 -54t-54 -22z" />
    <glyph glyph-name="F.ss04" horiz-adv-x="504"
d="M86 710h398v-88h-307v-622h-91v710zM331 287q-32 0 -54.5 22t-22.5 54t22.5 54t54.5 22t54 -22t22 -54t-22 -54t-54 -22z" />
    <glyph glyph-name="G.ss04" horiz-adv-x="730"
d="M401 -8q-76 0 -142.5 27.5t-115.5 76.5t-77 115.5t-28 143.5t28 143.5t77 115t115.5 76.5t142.5 28q72 0 135.5 -22.5t111.5 -67.5l-56 -68q-35 33 -84.5 52t-106.5 19q-58 0 -107.5 -21t-85.5 -58.5t-56.5 -88t-20.5 -108.5q0 -59 20.5 -109t56.5 -87.5t85.5 -58.5
t107.5 -21q43 0 85.5 9.5t75.5 29.5v289h91v-335q-50 -38 -116 -59t-136 -21zM401 287q-32 0 -54.5 22t-22.5 54t22.5 54t54.5 22t54 -22t22 -54t-22 -54t-54 -22z" />
    <glyph glyph-name="H.ss04" horiz-adv-x="746"
d="M86 710h91v-710h-91v710zM373 287q-32 0 -54.5 22t-22.5 54t22.5 54t54.5 22t54 -22t22 -54t-22 -54t-54 -22zM569 710h91v-710h-91v710z" />
    <glyph glyph-name="K.ss04" horiz-adv-x="653"
d="M177 337v-337h-91v710h91v-356h103l360 -354h-121zM494 565q-32 0 -54 22.5t-22 54.5t22 54t54 22t54 -22t22 -54t-22 -54.5t-54 -22.5z" />
    <glyph glyph-name="O.ss04" horiz-adv-x="802"
d="M399 279q-32 0 -54 22t-22 54t22 54t54 22t54 -22t22 -54t-22 -54t-54 -22zM401 79q58 0 107.5 21t85.5 58.5t56.5 87.5t20.5 109q0 58 -20.5 108.5t-56.5 88t-85.5 58.5t-107.5 21t-107.5 -21t-85.5 -58.5t-56.5 -88t-20.5 -108.5q0 -59 20.5 -109t56.5 -87.5
t85.5 -58.5t107.5 -21zM401 -8q-76 0 -142.5 27.5t-115.5 76.5t-77 115.5t-28 143.5t28 143.5t77 115t115.5 76.5t142.5 28t142.5 -28t115.5 -76.5t77 -115t28 -143.5t-28 -143.5t-77 -115.5t-115.5 -76.5t-142.5 -27.5z" />
    <glyph glyph-name="Q.ss04" horiz-adv-x="805"
d="M635 75q-48 -39 -107 -61t-127 -22q-76 0 -142.5 27.5t-115.5 76.5t-77 115.5t-28 143.5t28 143.5t77 115t115.5 76.5t142.5 28t142.5 -28t115.5 -76.5t77 -115t28 -143.5q0 -63 -18.5 -118t-51.5 -100l90 -83l-58 -62zM401 79q58 0 107.5 21t85.5 58.5t56.5 87.5
t20.5 109q0 58 -20.5 108.5t-56.5 88t-85.5 58.5t-107.5 21t-107.5 -21t-85.5 -58.5t-56.5 -88t-20.5 -108.5q0 -59 20.5 -109t56.5 -87.5t85.5 -58.5t107.5 -21zM401 279q-32 0 -54 22t-22 54t22 54t54 22t54 -22t22 -54t-22 -54t-54 -22z" />
    <glyph glyph-name="Y.ss04" horiz-adv-x="631"
d="M10 710h106l200 -320l200 320h106l-260 -409h-92zM316 -8q-32 0 -54 22t-22 54t22 54.5t54 22.5t54 -22.5t22 -54.5t-22 -54t-54 -22z" />
    <glyph glyph-name="A.ss05" horiz-adv-x="710"
d="M355 89h206l-206 435l-248 -524h-98l346 718l346 -718h-346v89z" />
    <glyph glyph-name="E.ss05" horiz-adv-x="519"
d="M260 355l-237 355h457v-88h-296l179 -267l-179 -267h296v-88h-457z" />
    <glyph glyph-name="F.ss05" horiz-adv-x="532"
d="M98 407h169l-202 303h457v-88h-296l203 -303h-240v-319h-91v407z" />
    <glyph glyph-name="R.ss05" horiz-adv-x="610"
d="M86 710h511l-243 -363l239 -347h-104l-238 346l185 276h-259v-622h-91v710z" />
    <glyph glyph-name="S.ss05" horiz-adv-x="544"
d="M367 319h-356l261 391h106l-203 -303h358l-273 -407h-106z" />
    <glyph glyph-name="T.ss05" horiz-adv-x="603"
d="M290 350l-281 360h574v-88h-395l193 -247v-375h-91v350z" />
    <glyph glyph-name="X.ss05" horiz-adv-x="750"
d="M312 356l-279 354h683l-279 -353l292 -357h-110l-244 298l-245 -298h-109zM375 415l163 207h-327z" />
    <glyph glyph-name="h.ss05" horiz-adv-x="588"
d="M77 710h86v-567l263 357h85v-500h-86v356l-262 -356h-86v710z" />
    <glyph glyph-name="m.ss05" horiz-adv-x="886"
d="M400 0v351l-237 -351h-86v500h86v-351l237 351h86v-351l237 351h86v-500h-86v351l-237 -351h-86z" />
    <glyph glyph-name="n.ss05" horiz-adv-x="588"
d="M77 500h86v-357l263 357h85v-500h-86v356l-262 -356h-86v500z" />
    <glyph glyph-name="r.ss05" horiz-adv-x="310"
d="M161 0h-85v397l181 111l42 -72l-138 -85v-351z" />
    <glyph glyph-name="s.ss05" horiz-adv-x="502"
d="M336 212h-336l237 288h103l-174 -211h336l-235 -289h-103z" />
    <glyph glyph-name="b.ss06" horiz-adv-x="654"
d="M77 710h86v-293l83 83h331v-500h-500v710zM163 417v-334h329v334h-329z" />
    <glyph glyph-name="d.ss06" horiz-adv-x="654"
d="M78 500h415v210h85v-710h-85v417h-329v-334h329l-83 -83h-332v500z" />
    <glyph glyph-name="f.ss06" horiz-adv-x="337"
d="M89 500v210h224v-78h-139v-132h139v-78h-139v-422h-85v422h-78z" />
    <glyph glyph-name="h.ss06" horiz-adv-x="588"
d="M163 0h-86v710h86v-293l83 83h265v-500h-86v417h-262v-417z" />
    <glyph glyph-name="j.ss06"
d="M77 -106v606h86v-684h-164zM77 710h86v-101h-86v101z" />
    <glyph glyph-name="l.ss06"
d="M77 632l86 86v-718h-86v632z" />
    <glyph glyph-name="m.ss06" horiz-adv-x="885"
d="M163 0h-86v500h86v-83l83 83h240v-83l83 83h239v-500h-86v417h-236v-417h-86v417h-237v-417z" />
    <glyph glyph-name="n.ss06" horiz-adv-x="588"
d="M163 0h-86v500h86v-83l83 83h265v-500h-86v417h-262v-417z" />
    <glyph glyph-name="p.ss06" horiz-adv-x="654"
d="M77 500h86v-83l83 83h331v-500h-414v-184h-86v684zM163 417v-334h329v334h-329z" />
    <glyph glyph-name="q.ss06" horiz-adv-x="654"
d="M491 417h-328v-334h328l-83 -83h-331v500h500v-684h-86v601z" />
    <glyph glyph-name="r.ss06" horiz-adv-x="359"
d="M163 0h-86v500h86v-83l83 83h90v-83h-173v-417z" />
    <glyph glyph-name="t.ss06" horiz-adv-x="381"
d="M109 422h-140l226 228v-150h141v-78h-141v-344h141v-78h-227v422z" />
    <glyph glyph-name="u.ss06" horiz-adv-x="587"
d="M77 500h85v-417h262l-83 -83h-264v500zM424 500h86v-500h-86v500z" />
    <glyph glyph-name="B.ss07" horiz-adv-x="567"
d="M86 84h214q72 0 107 34t35 86t-35 87t-107 35h-214v78h190q57 0 88.5 31.5t31.5 79.5q0 22 -8 42.5t-23.5 35.5t-38 24t-50.5 9h-190v84h192q51 0 90.5 -15t65.5 -40t39.5 -59t13.5 -71q0 -54 -19.5 -89.5t-54.5 -58.5q53 -20 87 -62.5t34 -114.5q0 -48 -18 -85.5
t-50 -63t-77 -38.5t-100 -13h-203v84z" />
    <glyph glyph-name="D.ss07" horiz-adv-x="667"
d="M86 85h166q64 0 116.5 20.5t90 56.5t58 85.5t20.5 107.5t-20.5 107.5t-58 85.5t-90 56.5t-116.5 20.5h-166v85h166q82 0 151.5 -27t119.5 -74.5t78.5 -112.5t28.5 -141t-28.5 -141t-78.5 -112.5t-119.5 -74.5t-151.5 -27h-166v85z" />
    <glyph glyph-name="E.ss07" horiz-adv-x="545"
d="M86 88h410v-88h-410v88zM86 407h350v-88h-350v88zM86 710h410v-88h-410v88z" />
    <glyph glyph-name="F.ss07" horiz-adv-x="504"
d="M86 407h331v-88h-331v88zM86 710h398v-88h-398v88z" />
    <glyph glyph-name="H.ss07" horiz-adv-x="700"
d="M523 319h-437v88h437v303h91v-710h-91v319z" />
    <glyph glyph-name="K.ss07" horiz-adv-x="544"
d="M86 345l332 365h112l-328 -361l355 -349h-121z" />
    <glyph glyph-name="P.ss07" horiz-adv-x="507"
d="M86 360h153q77 0 116.5 35t39.5 98t-39.5 98t-116.5 35h-153v84h156q56 0 101.5 -15t77.5 -43t49.5 -68.5t17.5 -90.5t-17.5 -90t-49.5 -68t-77.5 -43.5t-101.5 -15.5h-156v84z" />
    <glyph glyph-name="R.ss07" horiz-adv-x="576"
d="M86 391h160q70 0 105 31t35 86q0 56 -35 87t-105 31h-160v84h166q52 0 94 -14t72 -40.5t46 -63.5t16 -82q0 -76 -45 -127.5t-123 -66.5l245 -316h-110l-237 310h-124v81z" />
    <glyph glyph-name="T.ss07" horiz-adv-x="534"
d="M20 710h494v-88h-494v88z" />
    <glyph glyph-name="Y.ss07" horiz-adv-x="632"
d="M10 710h106l200 -320l200 320h106l-260 -409h-92z" />
    <glyph glyph-name="A.ss08" horiz-adv-x="710"
d="M355 718l346 -718h-98l-88 186h-320l-32 -68v-294q0 -17 -9.5 -17t-9.5 17v254l-26 -55v-92q0 -17 -9.5 -17t-9.5 17v69h-90zM235 270h240l-120 254z" />
    <glyph glyph-name="C.ss08" horiz-adv-x="663"
d="M401 -8q-4 0 -7 0.5t-6 0.5v-169q0 -17 -9.5 -17t-9.5 17v169q-71 6 -131.5 35.5t-104.5 78t-69.5 112t-25.5 136.5q0 77 28 143.5t77 115t115.5 76.5t142.5 28q67 0 125.5 -21t104.5 -63l-53 -69q-35 29 -79 47.5t-98 18.5h-13v-552h13q54 0 98 18.5t79 47.5l53 -69
q-40 -36 -88.5 -56.5t-104.5 -25.5v-96q0 -17 -9.5 -17t-9.5 17v95q-5 -1 -9 -1h-9zM323 620q-43 -12 -78 -37t-60.5 -59.5t-39.5 -77.5t-14 -91q0 -54 17.5 -101.5t49 -84t75.5 -59.5t96 -29v548q-7 -1 -13.5 -1.5t-13.5 -2.5v-131q0 -17 -9.5 -17t-9.5 17v126z" />
    <glyph glyph-name="D.ss08" horiz-adv-x="713"
d="M86 710h211q82 0 151.5 -27t120 -74.5t79 -112.5t28.5 -141t-28.5 -141t-79 -112.5t-120 -74.5t-151.5 -27h-153v-176q0 -17 -9.5 -17t-9.5 17v176h-20v-97q0 -17 -9.5 -17t-9.5 17v807zM297 85q64 0 117 20.5t90.5 56.5t58 85.5t20.5 107.5t-20.5 107.5t-58 85.5
t-90.5 56.5t-117 20.5h-120v-540h120z" />
    <glyph glyph-name="E.ss08" horiz-adv-x="545"
d="M437 0h-19v-176q0 -17 -9.5 -17t-9.5 17v176h-313v710h410v-88h-319v-215h259v-88h-259v-231h319v-232q0 -17 -9.5 -17t-9.5 17v144h-21v-112q0 -17 -9.5 -17t-9.5 17v112z" />
    <glyph glyph-name="G.ss08" horiz-adv-x="730"
d="M401 -8q-76 0 -142.5 27.5t-115.5 76.5t-77 115.5t-28 143.5t28 143.5t77 115t115.5 76.5t142.5 28q72 0 135.5 -22.5t111.5 -67.5l-56 -68q-47 43 -114 61v-214h175v-335q-42 -32 -95 -52t-111 -25v-171q0 -17 -9.5 -17t-9.5 17v169q-7 0 -13.5 -0.5t-13.5 -0.5z
M398 319h-34l39 88h56v218q-29 6 -58 6q-58 0 -107.5 -21t-85.5 -58.5t-56.5 -88t-20.5 -108.5q0 -59 20.5 -109t56.5 -87.5t85.5 -58.5t107.5 -21h13.5t13.5 1v239h-11v-15q0 -17 -9.5 -17t-9.5 17v15zM459 319h-12v-237q32 4 61 13t54 23v201h-84v-39q0 -17 -9.5 -17
t-9.5 17v39z" />
    <glyph glyph-name="H.ss08" horiz-adv-x="746"
d="M202 319h-25v-447q0 -17 -9.5 -17t-9.5 17v128h-23v-80q0 -17 -9.5 -17t-9.5 17v80h-30v710h91v-303h392v303h91v-710h-72v-176q0 -17 -9.5 -17t-9.5 17v495h-348v-66q0 -17 -9.5 -17t-9.5 17v66z" />
    <glyph glyph-name="M.ss08" horiz-adv-x="866"
d="M422 220l-245 274v-529q0 -17 -9.5 -17t-9.5 17v35h-72v718l346 -381l346 381v-718h-91v494l-216 -242v-428q0 -17 -9.5 -17t-9.5 17v407l-11 -12v-265q0 -17 -9.5 -17t-9.5 17v266z" />
    <glyph glyph-name="N.ss08" horiz-adv-x="771"
d="M664 11l-30 30v-217q0 -17 -9.5 -17t-9.5 17v237l-438 444v-505h-91v718l506 -513v505h91v-829q0 -17 -9.5 -17t-9.5 17v130z" />
    <glyph glyph-name="O.ss08" horiz-adv-x="802"
d="M401 -8q-40 0 -77 8t-71 22v-124q0 -17 -9.5 -17t-9.5 17v133q-44 22 -80 55t-62 74.5t-40 91t-14 103.5q0 77 28 143.5t77 115t115.5 76.5t142.5 28t142.5 -28t115.5 -76.5t77 -115t28 -143.5q0 -99 -44.5 -178t-118.5 -127v-82q0 -17 -9.5 -17t-9.5 17v70
q-8 -4 -14.5 -7.5t-14.5 -6.5v-200q0 -17 -9.5 -17t-9.5 17v192q-62 -24 -133 -24zM401 79q58 0 107.5 21t85.5 58.5t56.5 87.5t20.5 109q0 58 -20.5 108.5t-56.5 88t-85.5 58.5t-107.5 21t-107.5 -21t-85.5 -58.5t-56.5 -88t-20.5 -108.5q0 -59 20.5 -109t56.5 -87.5
t85.5 -58.5t107.5 -21z" />
    <glyph glyph-name="Q.ss08" horiz-adv-x="807"
d="M676 39l-40 37q-48 -40 -107.5 -62t-127.5 -22q-76 0 -142 28t-115 77t-77.5 115t-28.5 143q0 76 28.5 142.5t77.5 115.5t115 77t142 28t142.5 -28t115.5 -77t77 -115.5t28 -142.5q0 -62 -18.5 -116.5t-51.5 -99.5l92 -85l-50 -54v-176q0 -17 -9.5 -17t-9.5 17v178
l-22 20v-117q0 -17 -9.5 -17t-9.5 17v134zM401 80q49 0 91.5 15t77.5 43l-92 85l58 62l91 -84q21 32 32.5 71t11.5 83q0 58 -20.5 108.5t-56.5 87.5t-85.5 58t-107.5 21t-107.5 -21t-85.5 -58t-56.5 -87.5t-20.5 -108.5t20.5 -108.5t56.5 -87.5t85.5 -58t107.5 -21z" />
    <glyph glyph-name="R.ss08" horiz-adv-x="621"
d="M129 0h-24v-176q0 -17 -9.5 -17t-9.5 17v886h211q52 0 94 -14t72 -40.5t46 -63.5t16 -82q0 -76 -45 -127.5t-123 -66.5l245 -316h-110l-237 310h-78v-310h-29v-36q0 -17 -9.5 -17t-9.5 17v36zM291 391q70 0 105 31t35 86q0 56 -35 87t-105 31h-114v-235h114z" />
    <glyph glyph-name="S.ss08" horiz-adv-x="519"
d="M253 -8q-37 0 -69.5 7.5t-61.5 21.5v-197q0 -17 -9.5 -17t-9.5 17v206q-26 15 -46.5 33.5t-34.5 38.5l69 60q26 -33 67.5 -58t93.5 -25q62 0 98 26.5t36 73.5q0 49 -29.5 78t-86.5 54l-65 28q-81 35 -118 84.5t-37 116.5q0 40 17.5 73t46.5 56.5t66.5 36t76.5 12.5
q63 0 113 -23.5t86 -67.5l-64 -64q-28 33 -59.5 50.5t-78.5 17.5q-23 0 -43 -6t-36 -18t-25 -29.5t-9 -39.5q0 -39 24 -67t81 -53l65 -28q36 -16 66.5 -35t53 -43.5t35 -55t12.5 -67.5q0 -92 -65 -146v-79q0 -17 -9.5 -17t-9.5 17v65q-6 -4 -12 -7l-12 -6v-131
q0 -17 -9.5 -17t-9.5 17v123q-46 -16 -98 -16z" />
    <glyph glyph-name="U.ss08" horiz-adv-x="720"
d="M360 -8q-25 0 -49 3v-171q0 -17 -9.5 -17t-9.5 17v175l-12 2t-12 3v-74q0 -17 -9.5 -17t-9.5 17v80q-79 27 -125.5 93.5t-46.5 166.5v440h91v-444q0 -46 14 -81t39.5 -58.5t60.5 -35.5t78 -12t78 12t60.5 35.5t39.5 58.5t14 81v444h91v-440q0 -58 -16.5 -104.5
t-45.5 -81.5v-190q0 -17 -9.5 -17t-9.5 17v170q-77 -72 -202 -72z" />
    <glyph glyph-name="a.ss08" horiz-adv-x="620"
d="M457 50q-32 -29 -72.5 -43.5t-86.5 -14.5q-13 0 -25 1.5t-24 3.5v-28q0 -17 -9.5 -17t-9.5 17v31q-42 11 -76 34t-59 56t-38.5 73.5t-13.5 86.5q0 54 19 101.5t53 82t81 54.5t102 20q46 0 86.5 -14.5t72.5 -43.5v50h86v-676q0 -17 -9.5 -17t-9.5 17v176h-21v-74
q0 -17 -9.5 -17t-9.5 17v74h-27v50zM300 73q54 0 94.5 23t62.5 58v192q-22 35 -62.5 58t-94.5 23q-37 0 -67.5 -13.5t-53 -37.5t-35 -56.5t-12.5 -69.5t12.5 -69.5t35 -56.5t53 -37.5t67.5 -13.5z" />
    <glyph glyph-name="b.ss08" horiz-adv-x="620"
d="M274 -4q-64 10 -111 54v-226q0 -17 -9.5 -17t-9.5 17v176h-15v-112q0 -17 -9.5 -17t-9.5 17v112h-33v710h86v-260q31 29 71.5 43.5t87.5 14.5q55 0 102 -20t81 -54.5t53 -82t19 -101.5t-19 -101.5t-53 -82t-81 -54.5t-102 -20q-8 0 -15 0.5t-14 1.5v-66q0 -17 -9.5 -17
t-9.5 17v68zM320 427q-54 0 -95 -23t-62 -58v-192q21 -35 62 -58t95 -23q37 0 67.5 13.5t53 37.5t35 56.5t12.5 69.5t-12.5 69.5t-35 56.5t-53 37.5t-67.5 13.5z" />
    <glyph glyph-name="c.ss08" horiz-adv-x="528"
d="M295 -8v-168q0 -17 -9.5 -17t-9.5 17v169q-51 4 -94 25.5t-73.5 56t-48 79.5t-17.5 96q0 54 19.5 101t53.5 82t81 55t103 20q63 0 110.5 -22.5t80.5 -56.5l-55 -60q-20 20 -47.5 35.5t-62.5 20.5v-351q35 5 62.5 21t47.5 36l55 -60q-26 -26 -60 -45.5t-76 -27.5v-107
q0 -17 -9.5 -17t-9.5 17v103q-7 0 -10 -1v-15q0 -17 -9.5 -17t-9.5 17v14h-7h-5zM132 250q0 -37 12.5 -69.5t35 -56.5t53 -37.5t67.5 -13.5h7v354h-7q-37 0 -67.5 -13.5t-53 -37.5t-35 -56.5t-12.5 -69.5z" />
    <glyph glyph-name="e.ss08" horiz-adv-x="577"
d="M255 -4q-51 7 -93 34v-137q0 -17 -9.5 -17t-9.5 17v150q-14 10 -25 22v-109q0 -17 -9.5 -17t-9.5 17v130q-56 68 -56 164q0 54 19.5 101.5t53.5 82t79.5 54.5t98.5 20q52 0 96.5 -18.5t77 -54t51 -87.5t19.5 -119h-264v-154q6 -1 12.5 -1.5t13.5 -0.5q48 0 85 18t61 42
l55 -60q-32 -34 -83.5 -57.5t-117.5 -23.5q-7 0 -13.5 0.5t-12.5 1.5v-170q0 -17 -9.5 -17t-9.5 17v172zM289 429q-27 0 -51 -9v-116h203q-9 62 -52 94t-100 31zM219 229h-87q5 -56 38.5 -96t84.5 -54v150h-17v-44q0 -17 -9.5 -17t-9.5 17v44zM219 412q-31 -15 -52.5 -42.5
t-30.5 -65.5h83v108z" />
    <glyph glyph-name="f.ss08" horiz-adv-x="357"
d="M314 632h-21v-132h40v-78h-40v-598q0 -17 -9.5 -17t-9.5 17v598h-80v-422h-86v422h-86v78h84q-17 17 -27 39.5t-10 48.5t10.5 48.5t29.5 39t46 25.5t60 9h118v-135q0 -17 -9.5 -17t-9.5 17v57zM153 569q0 -33 22 -50t47 -19h52v132h-45q-32 0 -54 -15.5t-22 -47.5z" />
    <glyph glyph-name="k.ss08" horiz-adv-x="516"
d="M144 0h-48v-176q0 -17 -9.5 -17t-9.5 17v886h86v-436l221 226h108l-233 -236l256 -264h-111l-241 249v-373q0 -17 -9.5 -17t-9.5 17v124z" />
    <glyph glyph-name="g.ss08" horiz-adv-x="610"
d="M292 95q18 0 36 3v326q-18 3 -36 3q-11 0 -16 -1v-18q0 -17 -9.5 -17t-9.5 17v16q-57 -11 -91 -56t-34 -107q0 -35 11.5 -65.5t32.5 -53t50.5 -35t65.5 -12.5zM446 346q-15 26 -40.5 45t-58.5 28v-317q33 10 58.5 29.5t40.5 45.5v169zM462 12q0 13 -3 31t-10 32
q-42 -41 -102 -54v-71q0 -17 -9.5 -17t-9.5 17v67q-9 -1 -18.5 -1.5t-19.5 -0.5q-56 0 -101.5 19t-77.5 52t-50 78t-18 97t18 97.5t50 78.5t77.5 52t101.5 19q48 0 86.5 -15t69.5 -44v51h86v-398q10 -26 14.5 -51t4.5 -47q0 -54 -22.5 -91.5t-59.5 -61.5t-83.5 -34.5
t-94.5 -10.5q-54 0 -111 15t-102 44l45 73q32 -23 76.5 -37.5t94.5 -14.5q33 0 63 6.5t53.5 21.5t37.5 39t14 59z" />
    <glyph glyph-name="i.ss08"
d="M144 0h-31v-176q0 -17 -9.5 -17t-9.5 17v176h-17v500h67v109h-11v-29q0 -17 -9.5 -17t-9.5 17v29h-15v-55q0 -17 -9.5 -17t-9.5 17v55h-3q-19 17 -19 46q0 26 18 44.5t44 18.5t44 -18.5t18 -44.5q0 -29 -19 -46v-686q0 -17 -9.5 -17t-9.5 17v77z" />
    <glyph glyph-name="n.ss08" horiz-adv-x="578"
d="M289 427q-49 -3 -81 -30t-45 -74v-499q0 -17 -9.5 -17t-9.5 17v176h-21v-74q0 -17 -9.5 -17t-9.5 17v74h-27v500h86v-57q29 36 70 50.5t85 14.5q42 0 77.5 -14.5t61 -40.5t40 -64t14.5 -84v-305h-86v300q0 53 -31.5 88t-85.5 38v-527q0 -17 -9.5 -17t-9.5 17v528z" />
    <glyph glyph-name="o.ss08" horiz-adv-x="605"
d="M303 -8q-57 0 -104.5 20t-82 55t-54 82t-19.5 101t19.5 101t54 82t82 55t104.5 20q56 0 103.5 -20t82 -55t54 -82t19.5 -101q0 -43 -12.5 -82t-35.5 -71t-55 -55.5t-71 -36.5v-181q0 -17 -9.5 -17t-9.5 17v176l-27 -5v-82q0 -17 -9.5 -17t-9.5 17v80q-5 0 -10 -0.5
t-10 -0.5zM303 73h10t10 1v352q-5 0 -10 0.5t-10 0.5q-38 0 -69.5 -13.5t-54 -37.5t-35 -56.5t-12.5 -69.5t12.5 -69.5t35 -56.5t54 -37.5t69.5 -13.5zM473 250q0 64 -35.5 112t-95.5 61v-346q60 13 95.5 60.5t35.5 112.5z" />
    <glyph glyph-name="s.ss08" horiz-adv-x="418"
d="M157 -3q-5 2 -9 2.5t-9 1.5v-128q0 -17 -9.5 -17t-9.5 17v135q-57 24 -93 84l68 46q13 -22 27.5 -37t34.5 -23v154q-59 26 -82 63t-23 80q0 28 11.5 52.5t32.5 42.5t49.5 28t62.5 10q48 0 87.5 -22t62.5 -68l-67 -39q-25 52 -83 52q-29 0 -50 -14.5t-21 -40.5
q0 -23 14.5 -41.5t58.5 -34.5l41 -15q64 -23 97 -58.5t33 -91.5q0 -29 -12 -54.5t-33.5 -45t-53 -31t-70.5 -12.5v-168q0 -17 -9.5 -17t-9.5 17v168l-17 2v-61q0 -17 -9.5 -17t-9.5 17v64zM176 225v-153q13 -3 30 -3q37 0 63 17t26 46t-20 46.5t-65 33.5z" />
    <glyph glyph-name="t.ss08" horiz-adv-x="371"
d="M272 422h-87v-264q0 -38 16 -59t58 -21h67v-78h-76q-30 0 -54 6v-182q0 -17 -9.5 -17t-9.5 17v188l-18 9v-90q0 -17 -9.5 -17t-9.5 17v104q-41 38 -41 110v277h-80l-19 78h99v107l86 43v-150h151l-19 -78h-26v-77q0 -17 -9.5 -17t-9.5 17v77z" />
    <glyph glyph-name="w.ss08" horiz-adv-x="719"
d="M277 76l-28 -76v-176q0 -17 -9.5 -17t-9.5 17v176h-51l-158 500h89l112 -364l138 372l138 -372l112 364h89l-158 -500h-69l-19 51v-181q0 -17 -9.5 -17t-9.5 17v233l-74 200l-64 -175v-234q0 -17 -9.5 -17t-9.5 17v182z" />
    <glyph glyph-name="z.ss08" horiz-adv-x="504"
d="M124 0h-20v-176q0 -17 -9.5 -17t-9.5 17v176h-58l294 422h-262v78h411l-293 -422h283v-78h-49v-41q0 -17 -9.5 -17t-9.5 17v41h-249v-102q0 -17 -9.5 -17t-9.5 17v102z" />
    <glyph glyph-name="A.ss09" horiz-adv-x="710"
d="M355 718l346 -718h-21l-112 233h-426l-112 -233h-21zM182 317h345l-172 358z" />
    <glyph glyph-name="D.ss09" horiz-adv-x="713"
d="M297 85q64 0 117 20.5t90.5 56.5t58 85.5t20.5 107.5t-20.5 107.5t-58 85.5t-90.5 56.5t-117 20.5h-192v-540h192zM86 710h211q82 0 151.5 -27t120 -74.5t79 -112.5t28.5 -141t-28.5 -141t-79 -112.5t-120 -74.5t-151.5 -27h-211v710z" />
    <glyph glyph-name="F.ss09" horiz-adv-x="504"
d="M86 710h398v-88h-379v-215h312v-88h-312v-319h-19v710z" />
    <glyph glyph-name="H.ss09" horiz-adv-x="716"
d="M611 319h-506v-319h-19v710h19v-303h506v303h19v-710h-19v319z" />
    <glyph glyph-name="K.ss09" horiz-adv-x="633"
d="M107 345l456 365h30l-405 -324l432 -386h-128zM86 710h19v-710h-19v710z" />
    <glyph glyph-name="M.ss09" horiz-adv-x="864"
d="M86 718l346 -381l346 381v-718h-91v494l-255 -285v102l-327 360v-671h-19v718z" />
    <glyph glyph-name="N.ss09" horiz-adv-x="769"
d="M105 667v-667h-19v718l506 -591v583h91v-718z" />
    </font>
</defs>
</svg>
