<?xml version="1.0" standalone="no"?>
<!DOCTYPE svg PUBLIC "-//W3C//DTD SVG 1.1//EN" "http://www.w3.org/Graphics/SVG/1.1/DTD/svg11.dtd" >
<svg xmlns="http://www.w3.org/2000/svg" xmlns:xlink="http://www.w3.org/1999/xlink" version="1.1">
<metadata>
Created by Christoph Koeberlin (http://christoph.koe.berlin)
Copyright (c) 2014 Swiss Typefaces Sa`rl. All rights reserved.
</metadata>
<defs>
<font id="EuclidFlex_Bold" horiz-adv-x="597" >
  <font-face
    font-family="EuclidFlex"
    font-weight="700"
    font-stretch="normal"
    units-per-em="1000"
    panose-1="2 11 8 0 3 0 0 0 0 0"
    ascent="800"
    descent="-200"
    x-height="500"
    cap-height="710"
    bbox="-225 -268 1401 999"
    underline-thickness="100"
    underline-position="10"
    unicode-range="U+0020-FB02"
  />
<missing-glyph horiz-adv-x="500"
d="M0 710h500v-710h-500v710zM19 682v-654l220 327zM481 28v654l-221 -327zM34 691l216 -321l216 321h-432zM34 19h432l-216 320z" />
    <glyph glyph-name="f_t" unicode="ft" horiz-adv-x="690"
d="M232 0h-151v368h-65v132h73q-31 34 -31 83q0 27 9.5 50t27 40t42.5 27t56 10h105v-132h-48q-26 0 -37.5 -11t-11.5 -28q0 -16 10 -27t25 -12h128v75l151 75v-150h158l-33 -132h-125v-171q0 -32 13.5 -45.5t44.5 -13.5h82v-138h-138q-71 0 -112 41t-41 113v214h-132v-368z
" />
    <glyph glyph-name="t_f" unicode="tf" horiz-adv-x="716"
d="M-12 500h98v75l151 75v-150h206q-31 34 -31 83q0 27 9.5 50t27 40t42.5 27t56 10h155v-132h-98q-26 0 -37.5 -11t-11.5 -28t11 -28t28 -11h108v-132h-116v-368h-151v368h-198v-171q0 -32 13.5 -45.5t44.5 -13.5h82v-138h-138q-71 0 -112 41t-41 113v214h-65z" />
    <glyph glyph-name="t_t" unicode="tt" horiz-adv-x="695"
d="M237 197q0 -32 13.5 -45.5t44.5 -13.5h32v-138h-88q-71 0 -112 41t-41 113v214h-65l-33 132h98v75l151 75v-150h132v75l151 75v-150h158l-33 -132h-125v-171q0 -32 13.5 -45.5t44.5 -13.5h82v-138h-138q-71 0 -112 41t-41 113v214h-132v-171z" />
    <glyph glyph-name=".notdef" horiz-adv-x="500"
d="M0 710h500v-710h-500v710zM19 682v-654l220 327zM481 28v654l-221 -327zM34 691l216 -321l216 321h-432zM34 19h432l-216 320z" />
    <glyph glyph-name=".null" horiz-adv-x="0"
 />
    <glyph glyph-name="nonmarkingreturn" horiz-adv-x="0"
 />
    <glyph glyph-name="space" unicode=" " horiz-adv-x="220"
 />
    <glyph glyph-name="exclam" unicode="!" horiz-adv-x="330"
d="M89 439v271h152v-271l-30 -184h-92zM165 -8q-23 0 -42.5 8.5t-34 23t-23 34t-8.5 42.5q0 26 11 47.5t29 36.5h136q18 -15 29 -36.5t11 -47.5q0 -23 -8.5 -42.5t-23 -34t-34.5 -23t-42 -8.5z" />
    <glyph glyph-name="quotedbl" unicode="&#x22;" horiz-adv-x="463"
d="M67 710h127v-298h-127v298zM269 710h127v-298h-127v298z" />
    <glyph glyph-name="numbersign" unicode="#" horiz-adv-x="711"
d="M367 181h-131l-56 -181h-128l56 181h-83v114h119l37 120h-83v114h119l56 181h128l-56 -181h131l56 181h128l-56 -181h82v-114h-118l-37 -120h83v-114h-119l-56 -181h-128zM272 295h131l37 120h-131z" />
    <glyph glyph-name="dollar" unicode="$" horiz-adv-x="533"
d="M213 -2q-124 21 -183 133l110 90q23 -37 55.5 -62.5t77.5 -25.5q35 0 51.5 17.5t16.5 42.5q0 24 -19 41.5t-64 37.5l-40 18q-81 36 -119 93.5t-38 129.5q0 39 11.5 71.5t32 58t48 43t60.5 25.5v87h127v-88q32 -8 60 -27t58 -54l-96 -101q-26 29 -44 39t-40 10
q-33 0 -49 -17t-16 -41q0 -28 23.5 -46t72.5 -40l38 -17q146 -66 146 -213q0 -80 -40.5 -133t-112.5 -70v-88h-127v86z" />
    <glyph glyph-name="percent" unicode="%" horiz-adv-x="419"
d="M209 87q18 0 30.5 12.5t12.5 30.5t-12.5 30.5t-30.5 12.5t-30.5 -12.5t-12.5 -30.5t12.5 -30.5t30.5 -12.5zM209 -4q-28 0 -52.5 10.5t-42.5 28.5t-28.5 42.5t-10.5 52.5t10.5 52.5t28.5 43t42.5 29t52.5 10.5t52.5 -10.5t43 -29t29 -43t10.5 -52.5t-10.5 -52.5
t-29 -42.5t-43 -28.5t-52.5 -10.5zM55 412h309v-114h-309v114zM209 536q18 0 30.5 12.5t12.5 30.5t-12.5 30.5t-30.5 12.5t-30.5 -12.5t-12.5 -30.5t12.5 -30.5t30.5 -12.5zM209 445q-28 0 -52.5 10.5t-42.5 28.5t-28.5 42.5t-10.5 52.5t10.5 52.5t28.5 43t42.5 29
t52.5 10.5t52.5 -10.5t43 -29t29 -43t10.5 -52.5t-10.5 -52.5t-29 -42.5t-43 -28.5t-52.5 -10.5z" />
    <glyph glyph-name="ampersand" unicode="&#x26;" horiz-adv-x="616"
d="M248 -8q-47 0 -88.5 18t-72.5 49t-49 72.5t-18 88.5q0 45 16 84.5t44.5 70.5t66.5 50t82 23l-128 262h405v-132h-173l283 -578h-168l-36 73q-31 -47 -73.5 -64t-90.5 -17zM248 135q34 0 58 25t24 60t-24 60t-58 25t-58 -25t-24 -60t24 -60t58 -25z" />
    <glyph glyph-name="quotesingle" unicode="'" horiz-adv-x="261"
d="M67 710h127v-298h-127v298z" />
    <glyph glyph-name="parenleft" unicode="(" horiz-adv-x="282"
d="M165 -164q-57 104 -83.5 217.5t-26.5 246.5t26.5 246.5t83.5 217.5l111 -49q-43 -101 -68.5 -205.5t-25.5 -209.5t25.5 -209.5t68.5 -205.5l-111 -49v0z" />
    <glyph glyph-name="parenright" unicode=")" horiz-adv-x="282"
d="M117 -164l-111 49q43 101 68.5 205.5t25.5 209.5t-25.5 209.5t-68.5 205.5l111 49q57 -104 83.5 -217.5t26.5 -246.5t-26.5 -246.5t-83.5 -217.5z" />
    <glyph glyph-name="asterisk" unicode="*" horiz-adv-x="496"
d="M77 343l88 120l-142 46l32 98l142 -46v149h103v-149l141 47l32 -98l-141 -47l88 -120l-83 -60l-88 119l-89 -119z" />
    <glyph glyph-name="plus" unicode="+" horiz-adv-x="590"
d="M77 339h161v161h114v-161h161v-114h-161v-161h-114v161h-161v114z" />
    <glyph glyph-name="comma" unicode="," horiz-adv-x="308"
d="M134 0h-67v174h174v-174l-64 -154h-87z" />
    <glyph glyph-name="hyphen" unicode="-" horiz-adv-x="370"
d="M43 354h284v-144h-284v144z" />
    <glyph glyph-name="period" unicode="." horiz-adv-x="330"
d="M165 -8q-23 0 -42.5 8.5t-34 23t-23 34t-8.5 42.5q0 22 8.5 42t23 34.5t34 23t42.5 8.5q22 0 42 -8.5t34.5 -23t23 -34.5t8.5 -42q0 -23 -8.5 -42.5t-23 -34t-34.5 -23t-42 -8.5z" />
    <glyph glyph-name="slash" unicode="/" horiz-adv-x="467"
d="M331 710h136l-331 -710h-136z" />
    <glyph glyph-name="zero" unicode="0" horiz-adv-x="810"
d="M405 133q47 0 86 17.5t67.5 47.5t44.5 70.5t16 86.5t-16 86.5t-44.5 70.5t-67.5 47.5t-86 17.5t-86 -17.5t-67.5 -47.5t-44.5 -70.5t-16 -86.5t16 -86.5t44.5 -70.5t67.5 -47.5t86 -17.5zM405 -8q-75 0 -141.5 28.5t-116.5 78t-79 115.5t-29 141t29 141t79 115.5
t116.5 78t141.5 28.5t141.5 -28.5t116.5 -78t79 -115.5t29 -141t-29 -141t-79 -115.5t-116.5 -78t-141.5 -28.5z" />
    <glyph glyph-name="one" unicode="1" horiz-adv-x="306"
d="M77 566l152 152v-718h-152v566z" />
    <glyph glyph-name="two" unicode="2" horiz-adv-x="580"
d="M218 269q-36 11 -66 32.5t-51.5 50t-34 63.5t-12.5 74q0 48 18.5 90t51 72.5t75 48.5t90.5 18t91 -18t75 -48.5t51 -72.5t19 -90q0 -42 -14.5 -79t-39.5 -67l-163 -202h216v-141h-524zM289 400q38 0 61 26.5t23 62.5t-23 62t-61 26t-60.5 -26t-22.5 -62t22.5 -62.5
t60.5 -26.5z" />
    <glyph glyph-name="three" unicode="3" horiz-adv-x="519"
d="M232 -8q-68 0 -124.5 26.5t-92.5 73.5l107 99q17 -25 41 -41.5t59 -16.5q50 0 79 28.5t29 78.5t-29 78.5t-79 28.5h-72l105 222h-207v141h429l-118 -250q58 -30 91 -86.5t33 -133.5q0 -56 -18 -102t-51 -78.5t-79.5 -50t-102.5 -17.5z" />
    <glyph glyph-name="four" unicode="4" horiz-adv-x="589"
d="M341 160h-356l508 558v-426h66v-132h-66v-160h-152v160zM341 292v85l-78 -85h78z" />
    <glyph glyph-name="five" unicode="5" horiz-adv-x="546"
d="M267 -8q-69 0 -125.5 26t-91.5 74l110 102q14 -22 37.5 -41.5t59.5 -19.5q23 0 41 8t30.5 21t19 30.5t6.5 36.5t-6.5 36.5t-19 30.5t-30.5 21t-41 8q-35 0 -57.5 -16.5t-32.5 -42.5l-98 41v403h387v-141h-235v-106q22 3 46 3q54 0 98 -17t75.5 -47.5t49 -74.5t17.5 -98
t-17.5 -98t-49 -74.5t-75.5 -47.5t-98 -17z" />
    <glyph glyph-name="six" unicode="6" horiz-adv-x="535"
d="M266 -8q-53 0 -98.5 18t-79 50t-52.5 75.5t-19 93.5q0 39 14 72.5t31 65.5l187 343h169l-134 -245q50 -3 92.5 -22.5t73 -51t48 -73t17.5 -89.5q0 -50 -19 -93.5t-52.5 -75.5t-79 -50t-98.5 -18zM266 325q-23 0 -41 -8t-30.5 -21t-19 -30.5t-6.5 -36.5t6.5 -36.5
t19 -30.5t30.5 -21t41 -8t41 8t30.5 21t19 30.5t6.5 36.5t-6.5 36.5t-19 30.5t-30.5 21t-41 8z" />
    <glyph glyph-name="seven" unicode="7" horiz-adv-x="520"
d="M299 569h-264v141h492l-322 -710h-164z" />
    <glyph glyph-name="eight" unicode="8" horiz-adv-x="568"
d="M284 -8q-53 0 -98.5 18t-79 50t-52.5 75.5t-19 93.5q0 58 24.5 104t68.5 75q-19 23 -29.5 51t-10.5 62q0 41 15.5 77t42 62.5t62 42t76.5 15.5t76.5 -15.5t62 -42t42 -62.5t15.5 -77q0 -34 -10.5 -62t-29.5 -51q43 -29 68 -75t25 -104q0 -50 -19 -93.5t-52.5 -75.5
t-79 -50t-98.5 -18zM284 133q23 0 41 8t30.5 21t19 30.5t6.5 36.5t-6.5 36.5t-19 30.5t-30.5 21t-41 8t-41 -8t-30.5 -21t-19 -30.5t-6.5 -36.5t6.5 -36.5t19 -30.5t30.5 -21t41 -8zM284 465q26 0 40 16.5t14 39.5t-14 39.5t-40 16.5t-40 -16.5t-14 -39.5t14 -39.5t40 -16.5
z" />
    <glyph glyph-name="nine" unicode="9" horiz-adv-x="535"
d="M250 245q-50 3 -92 22t-73 50.5t-48 73.5t-17 90q0 50 19 93.5t52.5 75.5t79 50t98.5 18t98.5 -18t79 -50t52.5 -75.5t19 -93.5q0 -39 -14 -72.5t-31 -65.5l-187 -343h-169zM269 385q23 0 41 8t30.5 21t19 30.5t6.5 36.5t-6.5 36.5t-19 30.5t-30.5 21t-41 8t-41 -8
t-30.5 -21t-19 -30.5t-6.5 -36.5t6.5 -36.5t19 -30.5t30.5 -21t41 -8z" />
    <glyph glyph-name="colon" unicode=":" horiz-adv-x="330"
d="M165 292q-23 0 -42.5 8.5t-34 23t-23 34t-8.5 42.5q0 22 8.5 42t23 34.5t34 23t42.5 8.5q22 0 42 -8.5t34.5 -23t23 -34.5t8.5 -42q0 -23 -8.5 -42.5t-23 -34t-34.5 -23t-42 -8.5zM165 -8q-23 0 -42.5 8.5t-34 23t-23 34t-8.5 42.5q0 22 8.5 42t23 34.5t34 23t42.5 8.5
q22 0 42 -8.5t34.5 -23t23 -34.5t8.5 -42q0 -23 -8.5 -42.5t-23 -34t-34.5 -23t-42 -8.5z" />
    <glyph glyph-name="semicolon" unicode=";" horiz-adv-x="330"
d="M165 292q-23 0 -42.5 8.5t-34 23t-23 34t-8.5 42.5q0 22 8.5 42t23 34.5t34 23t42.5 8.5q22 0 42 -8.5t34.5 -23t23 -34.5t8.5 -42q0 -23 -8.5 -42.5t-23 -34t-34.5 -23t-42 -8.5zM145 0h-67v174h174v-174l-64 -154h-87z" />
    <glyph glyph-name="less" unicode="&#x3c;" horiz-adv-x="460"
d="M35 283l289 291l85 -85l-205 -206l205 -206l-85 -85z" />
    <glyph glyph-name="equal" unicode="=" horiz-adv-x="590"
d="M77 236h436v-114h-436v114zM77 442h436v-114h-436v114z" />
    <glyph glyph-name="greater" unicode="&#x3e;" horiz-adv-x="460"
d="M51 77l205 206l-205 206l85 85l289 -291l-289 -291z" />
    <glyph glyph-name="question" unicode="?" horiz-adv-x="489"
d="M159 396h67q42 0 70.5 21.5t28.5 68.5q0 23 -7.5 40t-19 28.5t-26.5 17t-30 5.5q-30 0 -55 -22t-25 -69h-152q0 48 17.5 90.5t48.5 74t73.5 49.5t92.5 18t93 -18t74.5 -49.5t49.5 -74t18 -90.5t-18.5 -90.5t-51.5 -73.5t-79 -49t-102 -18h-67v141zM222 -8
q-23 0 -42.5 8.5t-34 23t-23 34t-8.5 42.5q0 26 10.5 47.5t29.5 36.5h136q18 -15 29 -36.5t11 -47.5q0 -23 -8.5 -42.5t-23 -34t-34.5 -23t-42 -8.5z" />
    <glyph glyph-name="at" unicode="@" horiz-adv-x="799"
d="M383 -8q-81 0 -145.5 27t-110 73.5t-69.5 109.5t-24 135q0 85 31.5 155.5t84.5 120.5t123.5 77.5t147.5 27.5q74 0 137 -22t109 -62.5t72 -98t26 -129.5q0 -65 -16 -111.5t-41.5 -75.5t-59 -42.5t-67.5 -13.5t-60 14t-38 37q-23 -23 -56 -36t-67 -13q-41 0 -72 13.5
t-52 37t-31.5 55t-10.5 66.5q0 45 16 85t44.5 70t68.5 47t88 17q28 0 50.5 -7t39.5 -20l4 17h95l-47 -220q-7 -33 2.5 -56t41.5 -23q40 0 62 36.5t22 124.5q0 58 -21.5 101.5t-57.5 71.5t-83 42t-99 14q-58 0 -112 -19.5t-95 -58t-66 -94.5t-25 -128q0 -59 18.5 -107.5
t52 -82.5t82 -52.5t108.5 -18.5q45 0 90 10t86 31l33 -81q-47 -21 -103.5 -32.5t-105.5 -11.5zM376 259q20 0 38.5 6t34.5 22l32 148q-14 14 -32 21t-37 7q-50 0 -82 -33.5t-32 -84.5q0 -39 19 -62.5t59 -23.5z" />
    <glyph glyph-name="A" unicode="A" horiz-adv-x="680"
d="M340 718l350 -718h-168l-51 110h-262l-51 -110h-168zM407 240l-67 148l-67 -148h134z" />
    <glyph glyph-name="B" unicode="B" horiz-adv-x="621"
d="M67 710h267q43 0 81.5 -16.5t67.5 -45.5t45.5 -67.5t16.5 -81.5q0 -38 -13.5 -68.5t-36.5 -53.5q45 -24 72.5 -66.5t27.5 -99.5q0 -44 -16.5 -82.5t-46 -67t-68.5 -45t-84 -16.5h-313v710zM365 147q32 0 53 20.5t21 49.5t-21 50t-53 21h-138v-141h138zM316 423
q32 0 53 20.5t21 49.5t-21 50t-53 21h-89v-141h89z" />
    <glyph glyph-name="C" unicode="C" horiz-adv-x="709"
d="M397 -8q-75 0 -141 28.5t-115.5 78t-78 115.5t-28.5 141t28.5 141t78 115.5t115.5 78t141 28.5q92 0 169.5 -42t127.5 -112l-121 -99q-27 44 -73 71.5t-103 27.5q-43 0 -80 -16.5t-64 -45t-42.5 -66.5t-15.5 -81t15.5 -81t42.5 -66.5t64 -45t80 -16.5q57 0 103 27.5
t73 71.5l121 -99q-50 -70 -127.5 -112t-169.5 -42z" />
    <glyph glyph-name="D" unicode="D" horiz-adv-x="711"
d="M316 146q45 0 81.5 16.5t63 45t41 66.5t14.5 81t-14.5 81t-41 66.5t-63 45t-81.5 16.5h-89v-418h89zM67 710h249q75 0 141 -28t114.5 -76t77 -113t28.5 -138q0 -74 -28.5 -138.5t-77 -112.5t-114.5 -76t-141 -28h-249v710z" />
    <glyph glyph-name="E" unicode="E" horiz-adv-x="547"
d="M67 710h440v-158h-280v-120h220v-154h-220v-120h280v-158h-440v710z" />
    <glyph glyph-name="F" unicode="F" horiz-adv-x="517"
d="M67 710h420v-158h-260v-120h200v-154h-200v-278h-160v710z" />
    <glyph glyph-name="G" unicode="G" horiz-adv-x="729"
d="M397 -8q-75 0 -141 28.5t-115.5 78t-78 115.5t-28.5 141t28.5 141t78 115.5t115.5 78t141 28.5q92 0 163.5 -35t123.5 -99l-121 -99q-32 41 -70.5 60t-95.5 19q-43 0 -80 -16.5t-64 -45t-42.5 -66.5t-15.5 -81t15.5 -81t42.5 -66.5t64 -45t80 -16.5q44 0 77.5 8t59.5 27
v99h-171l68 150h258v-322q-53 -60 -127 -88t-165 -28z" />
    <glyph glyph-name="H" unicode="H" horiz-adv-x="738"
d="M67 710h160v-278h284v278h160v-710h-160v278h-284v-278h-160v710z" />
    <glyph glyph-name="I" unicode="I" horiz-adv-x="294"
d="M67 710h160v-710h-160v710z" />
    <glyph glyph-name="J" unicode="J" horiz-adv-x="507"
d="M230 -8q-45 0 -85 12.5t-70 39.5t-47.5 68.5t-17.5 99.5h160q0 -38 15.5 -54.5t44.5 -16.5t44.5 16.5t15.5 54.5v498h160v-508q0 -56 -17.5 -95.5t-47.5 -65t-70 -37.5t-85 -12z" />
    <glyph glyph-name="K" unicode="K" horiz-adv-x="671"
d="M67 710h160v-356l248 356h184l-249 -358l281 -352h-198l-266 333v-333h-160v710z" />
    <glyph glyph-name="L" unicode="L" horiz-adv-x="518"
d="M67 710h160v-551h276v-159h-436v710z" />
    <glyph glyph-name="M" unicode="M" horiz-adv-x="842"
d="M67 718l354 -355l354 355v-718h-160v348l-194 -194l-194 194v-348h-160v718z" />
    <glyph glyph-name="N" unicode="N" horiz-adv-x="742"
d="M227 371v-371h-160v718l448 -379v371h160v-718z" />
    <glyph glyph-name="O" unicode="O" horiz-adv-x="794"
d="M397 146q43 0 80 16.5t64 45t42.5 66.5t15.5 81t-15.5 81t-42.5 66.5t-64 45t-80 16.5t-80 -16.5t-64 -45t-42.5 -66.5t-15.5 -81t15.5 -81t42.5 -66.5t64 -45t80 -16.5zM397 -8q-75 0 -141 28.5t-115.5 78t-78 115.5t-28.5 141t28.5 141t78 115.5t115.5 78t141 28.5
t141 -28.5t115.5 -78t78 -115.5t28.5 -141t-28.5 -141t-78 -115.5t-115.5 -78t-141 -28.5z" />
    <glyph glyph-name="P" unicode="P" horiz-adv-x="557"
d="M67 710h234q52 0 96.5 -19t77 -51.5t51 -76.5t18.5 -94t-18.5 -94t-51 -76.5t-77 -51.5t-96.5 -19h-74v-228h-160v710zM299 377q19 0 35.5 7.5t28.5 20.5t19 29.5t7 34.5q0 36 -25.5 63.5t-64.5 27.5h-72v-183h72z" />
    <glyph glyph-name="Q" unicode="Q" horiz-adv-x="814"
d="M627 74q-48 -39 -106 -60.5t-124 -21.5q-75 0 -141 28.5t-115.5 78t-78 115.5t-28.5 141t28.5 141t78 115.5t115.5 78t141 28.5t141 -28.5t115.5 -78t78 -115.5t28.5 -141q0 -46 -11 -89t-31 -81l101 -81l-91 -112zM397 146q59 0 105 29l-108 88l91 111l104 -84
q5 15 7.5 31.5t2.5 33.5q0 43 -15.5 81t-42.5 66.5t-64 45t-80 16.5t-80 -16.5t-64 -45t-42.5 -66.5t-15.5 -81t15.5 -81t42.5 -66.5t64 -45t80 -16.5z" />
    <glyph glyph-name="R" unicode="R" horiz-adv-x="625"
d="M229 288h-2v-288h-160v710h268q43 0 81.5 -16.5t67.5 -45.5t45.5 -67.5t16.5 -81.5q0 -67 -37.5 -120.5t-99.5 -77.5l231 -301h-191zM317 423q32 0 53 20.5t21 49.5t-21 50t-53 21h-90v-141h90z" />
    <glyph glyph-name="S" unicode="S" horiz-adv-x="520"
d="M272 -8q-86 0 -152 35t-103 104l121 99q23 -37 58.5 -62.5t72.5 -25.5q68 0 68 51q0 24 -19 41.5t-64 37.5l-40 18q-81 36 -123.5 93.5t-42.5 129.5q0 46 18 84t48 65t69 41.5t81 14.5q59 0 106.5 -18.5t92.5 -70.5l-108 -114q-27 33 -46.5 43t-44.5 10
q-20 0 -37.5 -12.5t-17.5 -36.5q0 -28 23.5 -46t72.5 -40l38 -17q74 -33 114.5 -86t40.5 -127q0 -48 -17 -87t-47 -66.5t-71.5 -42.5t-90.5 -15z" />
    <glyph glyph-name="T" unicode="T" horiz-adv-x="539"
d="M189 552h-170v158h501v-158h-171v-552h-160v552z" />
    <glyph glyph-name="U" unicode="U" horiz-adv-x="702"
d="M351 -8q-64 0 -117.5 21t-92 60t-60 93.5t-21.5 121.5v422h160v-424q0 -65 36 -102.5t95 -37.5t95 37.5t36 102.5v424h160v-422q0 -67 -21.5 -121.5t-60 -93.5t-92 -60t-117.5 -21z" />
    <glyph glyph-name="V" unicode="V" horiz-adv-x="650"
d="M-10 710h178l157 -355l157 355h178l-335 -718z" />
    <glyph glyph-name="W" unicode="W" horiz-adv-x="876"
d="M5 710h163l110 -333l160 341l160 -341l110 333h163l-246 -718l-187 409l-187 -409z" />
    <glyph glyph-name="X" unicode="X" horiz-adv-x="674"
d="M224 356l-209 354h185l137 -236l137 236h185l-209 -354l224 -356h-186l-151 244l-151 -244h-186z" />
    <glyph glyph-name="Y" unicode="Y" horiz-adv-x="656"
d="M248 298l-263 412h187l156 -252l156 252h187l-263 -412v-298h-160v298z" />
    <glyph glyph-name="Z" unicode="Z" horiz-adv-x="624"
d="M337 552h-287v158h560l-329 -552h308v-158h-581z" />
    <glyph glyph-name="bracketleft" unicode="[" horiz-adv-x="290"
d="M59 759h231v-108h-104v-702h104v-108h-231v918z" />
    <glyph glyph-name="backslash" unicode="\" horiz-adv-x="467"
d="M0 710h136l331 -710h-136z" />
    <glyph glyph-name="bracketright" unicode="]" horiz-adv-x="290"
d="M231 -159h-231v108h104v702h-104v108h231v-918z" />
    <glyph glyph-name="asciicircum" unicode="^" horiz-adv-x="582"
d="M291 718l278 -417h-137l-141 211l-141 -211h-137z" />
    <glyph glyph-name="underscore" unicode="_" horiz-adv-x="436"
d="M0 0h436v-114h-436v114z" />
    <glyph glyph-name="grave" unicode="`" horiz-adv-x="433"
d="M80 710h173l80 -155h-110z" />
    <glyph glyph-name="a" unicode="a" horiz-adv-x="594"
d="M384 29q-22 -18 -50.5 -27.5t-59.5 -9.5q-56 0 -100.5 21t-76 56.5t-48.5 82.5t-17 98t17 98t48.5 82.5t76 56.5t100.5 21q31 0 59.5 -10t50.5 -28v30h151v-500h-151v29zM299 130q53 0 85 41v157q-16 20 -36.5 31t-48.5 11q-27 0 -48.5 -9.5t-36 -26t-22.5 -38t-8 -46.5
t8 -46.5t22.5 -38t36 -26t48.5 -9.5z" />
    <glyph glyph-name="b" unicode="b" horiz-adv-x="594"
d="M59 710h151v-240q22 18 50.5 28t59.5 10q55 0 100 -21t76.5 -56.5t48.5 -82.5t17 -98t-17 -98t-48.5 -82.5t-76.5 -56.5t-100 -21q-31 0 -59.5 9.5t-50.5 27.5v-29h-151v710zM295 370q-54 0 -85 -42v-157q30 -41 85 -41q27 0 48.5 9.5t36 26t22.5 38t8 46.5t-8 46.5
t-22.5 38t-36 26t-48.5 9.5z" />
    <glyph glyph-name="c" unicode="c" horiz-adv-x="522"
d="M290 -8q-54 0 -101.5 20.5t-82.5 55.5t-55.5 82t-20.5 100t20.5 100t55.5 82t82.5 55.5t101.5 20.5q69 0 126.5 -32t92.5 -86l-120 -85q-15 28 -40.5 45t-58.5 17q-47 0 -77.5 -32.5t-30.5 -84.5t30.5 -84.5t77.5 -32.5q33 0 58.5 17t40.5 45l120 -85q-35 -54 -92.5 -86
t-126.5 -32z" />
    <glyph glyph-name="d" unicode="d" horiz-adv-x="594"
d="M384 29q-22 -18 -50.5 -27.5t-59.5 -9.5q-56 0 -100.5 21t-76 56.5t-48.5 82.5t-17 98t17 98t48.5 82.5t76 56.5t100.5 21q31 0 59.5 -10t50.5 -28v240h151v-710h-151v29zM299 130q53 0 85 41v157q-16 20 -36.5 31t-48.5 11q-27 0 -48.5 -9.5t-36 -26t-22.5 -38t-8 -46.5
t8 -46.5t22.5 -38t36 -26t48.5 -9.5z" />
    <glyph glyph-name="e" unicode="e" horiz-adv-x="558"
d="M285 -8q-50 0 -96 18.5t-81 52.5t-56.5 81.5t-21.5 105.5q0 55 18.5 102.5t52.5 82t81.5 54t105.5 19.5q48 0 91.5 -15.5t76.5 -46t53 -75.5t20 -104q0 -22 -3 -44h-351q3 -25 14 -42.5t26.5 -29t33.5 -16.5t35 -5q40 0 66 17.5t41 45.5l120 -81q-35 -54 -93 -87
t-133 -33zM279 387q-14 0 -29.5 -3.5t-30 -12t-26.5 -23.5t-17 -37h204q-6 40 -35 58t-66 18z" />
    <glyph glyph-name="f" unicode="f" horiz-adv-x="362"
d="M16 500h73q-31 34 -31 83q0 27 9.5 50t27 40t42.5 27t56 10h155v-132h-98q-26 0 -37.5 -11t-11.5 -28t11 -28t28 -11h108v-132h-116v-368h-151v368h-65v132z" />
    <glyph glyph-name="g" unicode="g" horiz-adv-x="583"
d="M282 -194q-57 0 -114 10.5t-111 45.5l68 133q30 -23 66.5 -37t80.5 -14q22 0 43 4t36.5 13.5t25 24.5t9.5 38q0 8 -2.5 19.5t-10.5 22.5q-22 -18 -51 -28t-60 -10q-57 0 -101 20.5t-74 54t-45.5 76.5t-15.5 89t15.5 89t45.5 76.5t74 54t101 20.5q31 0 59.5 -10t50.5 -28
v30h151v-403q11 -26 16 -50.5t5 -47.5q0 -53 -22.5 -89.5t-59.5 -59.5t-84 -33.5t-96 -10.5zM282 166q56 0 90 42v120q-34 42 -90 42q-25 0 -44.5 -9t-32.5 -23t-20 -32.5t-7 -37.5t7 -37.5t20 -32.5t32.5 -23t44.5 -9z" />
    <glyph glyph-name="h" unicode="h"
d="M59 710h151v-241q47 39 115 39q53 0 93.5 -17t68.5 -47t42 -72t14 -93v-279h-151v252q0 50 -21.5 84t-70.5 34q-22 0 -46.5 -11t-43.5 -32v-327h-151v710z" />
    <glyph glyph-name="i" unicode="i" horiz-adv-x="270"
d="M65 571q-20 23 -20 57q0 38 26 64t64 26t64 -26t26 -64q0 -34 -20 -57h-140zM59 500h151v-500h-151v500z" />
    <glyph glyph-name="j" unicode="j" horiz-adv-x="270"
d="M-45 -41h26q36 0 57.5 12t21.5 48v481h151v-500q0 -46 -16 -80.5t-45 -57.5t-70 -34.5t-90 -11.5h-35v143zM65 571q-20 23 -20 57q0 38 26 64t64 26t64 -26t26 -64q0 -34 -20 -57h-140z" />
    <glyph glyph-name="k" unicode="k" horiz-adv-x="561"
d="M59 710h151v-438l163 228h174l-170 -237l196 -263h-178l-185 249v-249h-151v710z" />
    <glyph glyph-name="l" unicode="l" horiz-adv-x="269"
d="M59 710h151v-710h-151v710z" />
    <glyph glyph-name="m" unicode="m" horiz-adv-x="890"
d="M685 252q0 24 -4 45.5t-13 37.5t-24.5 25t-37.5 9q-26 0 -49 -12t-38 -32q2 -11 3 -22.5t1 -23.5v-279h-151v252q0 24 -4 45.5t-13 37.5t-24.5 25t-37.5 9q-25 0 -46.5 -10.5t-36.5 -29.5v-329h-151v500h151v-30q22 17 52 27.5t62 10.5q45 0 80.5 -16t61.5 -45
q22 22 62 41.5t98 19.5q56 0 95.5 -18t65 -49.5t37.5 -73t12 -88.5v-279h-151v252z" />
    <glyph glyph-name="n" unicode="n"
d="M59 500h151v-31q47 39 115 39q53 0 93.5 -17t68.5 -47t42 -72t14 -93v-279h-151v252q0 50 -21.5 84t-70.5 34q-22 0 -46.5 -11t-43.5 -32v-327h-151v500z" />
    <glyph glyph-name="o" unicode="o" horiz-adv-x="580"
d="M290 133q47 0 77.5 32.5t30.5 84.5t-30.5 84.5t-77.5 32.5t-77.5 -32.5t-30.5 -84.5t30.5 -84.5t77.5 -32.5zM290 -8q-54 0 -101.5 20.5t-82.5 55.5t-55.5 82t-20.5 100t20.5 100t55.5 82t82.5 55.5t101.5 20.5t101.5 -20.5t82.5 -55.5t55.5 -82t20.5 -100t-20.5 -100
t-55.5 -82t-82.5 -55.5t-101.5 -20.5z" />
    <glyph glyph-name="p" unicode="p" horiz-adv-x="594"
d="M59 500h151v-30q22 18 50.5 28t59.5 10q55 0 100 -21t76.5 -56.5t48.5 -82.5t17 -98t-17 -98t-48.5 -82.5t-76.5 -56.5t-100 -21q-31 0 -59.5 9.5t-50.5 27.5v-213h-151v684zM295 370q-54 0 -85 -42v-157q30 -41 85 -41q27 0 48.5 9.5t36 26t22.5 38t8 46.5t-8 46.5
t-22.5 38t-36 26t-48.5 9.5z" />
    <glyph glyph-name="q" unicode="q" horiz-adv-x="594"
d="M384 29q-22 -18 -50.5 -27.5t-59.5 -9.5q-56 0 -100.5 21t-76 56.5t-48.5 82.5t-17 98t17 98t48.5 82.5t76 56.5t100.5 21q31 0 59.5 -10t50.5 -28v30h151v-684h-151v213zM299 130q53 0 85 41v157q-16 20 -36.5 31t-48.5 11q-27 0 -48.5 -9.5t-36 -26t-22.5 -38t-8 -46.5
t8 -46.5t22.5 -38t36 -26t48.5 -9.5z" />
    <glyph glyph-name="r" unicode="r" horiz-adv-x="392"
d="M59 500h151v-44q43 52 114 52q12 0 26 -1.5t28 -6.5v-157q-17 9 -37 13t-40 4q-23 0 -48 -8.5t-43 -24.5v-327h-151v500z" />
    <glyph glyph-name="s" unicode="s" horiz-adv-x="415"
d="M207 -8q-66 0 -117.5 24.5t-83.5 81.5l115 78q15 -27 36.5 -44t55.5 -17q16 0 27.5 4.5t11.5 18.5t-13 22t-50 22l-26 10q-132 52 -132 161q0 34 13.5 63t36.5 49t54.5 31.5t67.5 11.5q48 0 88.5 -18.5t69.5 -60.5l-86 -85q-14 20 -31.5 32.5t-40.5 12.5
q-15 0 -25.5 -5.5t-10.5 -17.5q0 -15 14 -23t52 -22l21 -8q72 -27 103 -66.5t31 -95.5q0 -38 -14 -68t-38.5 -50t-57.5 -30.5t-71 -10.5z" />
    <glyph glyph-name="t" unicode="t" horiz-adv-x="412"
d="M-12 500h98v75l151 75v-150h158l-33 -132h-125v-171q0 -32 13.5 -45.5t44.5 -13.5h82v-138h-138q-71 0 -112 41t-41 113v214h-65z" />
    <glyph glyph-name="u" unicode="u"
d="M387 37q-23 -22 -55 -33.5t-64 -11.5q-51 0 -90.5 16.5t-67 47t-42 72.5t-14.5 93v279h151v-252q0 -51 21.5 -84.5t66.5 -33.5q28 0 53.5 13t40.5 37v320h151v-500h-151v37z" />
    <glyph glyph-name="v" unicode="v" horiz-adv-x="552"
d="M-15 500h174l117 -218l117 218h174l-291 -508z" />
    <glyph glyph-name="w" unicode="w" horiz-adv-x="730"
d="M0 500h159l83 -281l123 289l123 -289l83 281h159l-159 -500h-115l-91 205l-91 -205h-115z" />
    <glyph glyph-name="x" unicode="x" horiz-adv-x="550"
d="M177 252l-171 248h175l94 -143l94 143h175l-171 -248l180 -252h-175l-103 150l-103 -150h-175z" />
    <glyph glyph-name="y" unicode="y" horiz-adv-x="518"
d="M179 0l-184 500h160l104 -316l104 316h160l-252 -684h-160z" />
    <glyph glyph-name="z" unicode="z" horiz-adv-x="513"
d="M244 370h-202v130h454l-231 -369h216v-131h-469z" />
    <glyph glyph-name="braceleft" unicode="{" horiz-adv-x="322"
d="M239 -159q-65 0 -106.5 38.5t-41.5 103.5v210q0 22 -12 37.5t-41 15.5h-8v108h8q29 0 41 15.5t12 37.5v210q0 65 38.5 103.5t103.5 38.5h89v-108h-47q-31 0 -44 -13t-13 -44v-196q0 -44 -17.5 -67.5t-44.5 -30.5q27 -7 44.5 -30.5t17.5 -67.5v-196q0 -31 13 -44t44 -13
h47v-108h-83v0z" />
    <glyph glyph-name="bar" unicode="|" horiz-adv-x="281"
d="M77 710h127v-894h-127v894z" />
    <glyph glyph-name="braceright" unicode="}" horiz-adv-x="322"
d="M83 -159h-83v108h47q31 0 44 13t13 44v196q0 44 17.5 67.5t44.5 30.5q-27 7 -44.5 30.5t-17.5 67.5v196q0 31 -13 44t-44 13h-47v108h89q65 0 103.5 -38.5t38.5 -103.5v-210q0 -22 12 -37.5t41 -15.5h8v-108h-8q-29 0 -41 -15.5t-12 -37.5v-210q0 -65 -41.5 -103.5
t-106.5 -38.5z" />
    <glyph glyph-name="asciitilde" unicode="~" horiz-adv-x="590"
d="M77 313l137 84l162 -94l137 83v-135l-137 -84l-162 94l-137 -83v135z" />
    <glyph glyph-name="uni00A0" unicode="&#xa0;" horiz-adv-x="220"
 />
    <glyph glyph-name="exclamdown" unicode="&#xa1;" horiz-adv-x="330"
d="M89 61l30 184h92l30 -184v-245h-152v245zM97 316q-18 15 -29 36.5t-11 47.5q0 22 8.5 42t23 34.5t34 23t42.5 8.5q22 0 42 -8.5t34.5 -23t23 -34.5t8.5 -42q0 -26 -11 -47.5t-29 -36.5h-136z" />
    <glyph glyph-name="cent" unicode="&#xa2;" horiz-adv-x="553"
d="M239 0q-42 10 -78 33.5t-62.5 56.5t-41 74t-14.5 86t14.5 85.5t41 73.5t62.5 56.5t78 34.5v88h127v-88q49 -12 89.5 -40.5t66.5 -69.5l-120 -85q-15 28 -40.5 45t-58.5 17q-47 0 -77.5 -32.5t-30.5 -84.5t30.5 -84.5t77.5 -32.5q33 0 58.5 17t40.5 45l120 -85
q-26 -41 -66.5 -70t-89.5 -40v-88h-127v88z" />
    <glyph glyph-name="sterling" unicode="&#xa3;" horiz-adv-x="606"
d="M60 413h64q-9 19 -12.5 40.5t-3.5 41.5q0 42 17.5 82.5t48.5 71.5t73 50t92 19q47 0 88.5 -17.5t72.5 -47.5t50 -71t21 -87h-152q0 36 -23 59t-57 23t-56.5 -23t-22.5 -59t22.5 -59t56.5 -23h80v-117h-131v-155h283v-141h-511v141h76v155h-76v117z" />
    <glyph glyph-name="currency" unicode="&#xa4;" horiz-adv-x="648"
d="M60 138l69 70q-21 29 -32.5 64t-11.5 74t11.5 74.5t32.5 64.5l-69 70l49 49l68 -68q30 23 66.5 36t77.5 13q42 0 79.5 -13.5t67.5 -37.5l71 70l49 -49l-72 -72q20 -29 32 -64t12 -73t-11.5 -73t-32.5 -64l72 -71l-49 -49l-71 70q-31 -23 -68 -36t-79 -13q-41 0 -77 12.5
t-66 35.5l-69 -69zM321 240q48 0 76.5 29.5t28.5 76.5q0 49 -28.5 79.5t-76.5 30.5q-45 0 -72.5 -30.5t-27.5 -79.5q0 -47 27.5 -76.5t72.5 -29.5z" />
    <glyph glyph-name="yen" unicode="&#xa5;" horiz-adv-x="684"
d="M89 412h104l-190 298h179l159 -258l161 258h179l-190 -298h104v-114h-177v-77h177v-114h-177v-107h-152v107h-177v114h177v77h-177v114z" />
    <glyph glyph-name="brokenbar" unicode="&#xa6;" horiz-adv-x="281"
d="M77 200h127v-384h-127v384zM77 710h127v-383h-127v383z" />
    <glyph glyph-name="section" unicode="&#xa7;" horiz-adv-x="460"
d="M234 -194q-66 0 -109.5 29t-66.5 77l99 67q16 -32 32.5 -48.5t45.5 -16.5q20 0 34 13t14 37q0 15 -4.5 29t-19 30t-42 35.5t-73.5 46.5q-42 23 -67.5 64.5t-25.5 92.5q0 43 18.5 79.5t49.5 61.5q-22 21 -35.5 40t-21 38t-10 38.5t-2.5 39.5q0 38 14.5 67.5t39 50t56 31
t66.5 10.5q66 0 109.5 -29t66.5 -77l-99 -67q-16 32 -32.5 48.5t-45.5 16.5q-20 0 -34 -13t-14 -37q0 -15 4.5 -29t19 -30t42 -35.5t73.5 -46.5q42 -23 67.5 -64.5t25.5 -92.5q0 -43 -18.5 -79.5t-49.5 -61.5q44 -41 56.5 -78.5t12.5 -77.5q0 -38 -14.5 -68t-39 -50
t-56.5 -30.5t-66 -10.5zM230 208q22 0 38 16t16 38t-16 38t-38 16t-38 -16t-16 -38t16 -38t38 -16z" />
    <glyph glyph-name="dieresis" unicode="&#xa8;" horiz-adv-x="578"
d="M170 567q-33 0 -56.5 23.5t-23.5 56.5t23.5 56.5t56.5 23.5t56.5 -23.5t23.5 -56.5t-23.5 -56.5t-56.5 -23.5zM408 567q-33 0 -56.5 23.5t-23.5 56.5t23.5 56.5t56.5 23.5t56.5 -23.5t23.5 -56.5t-23.5 -56.5t-56.5 -23.5z" />
    <glyph glyph-name="copyright" unicode="&#xa9;" horiz-adv-x="794"
d="M397 -8q-75 0 -141 28.5t-115.5 78t-78 115.5t-28.5 141t28.5 141t78 115.5t115.5 78t141 28.5t141 -28.5t115.5 -78t78 -115.5t28.5 -141t-28.5 -141t-78 -115.5t-115.5 -78t-141 -28.5zM397 97q53 0 100 20.5t82 55.5t55.5 82t20.5 100t-20.5 100t-55.5 82t-82 55.5
t-100 20.5t-100 -20.5t-82 -55.5t-55.5 -82t-20.5 -100t20.5 -100t55.5 -82t82 -55.5t100 -20.5zM550 264q-23 -36 -61 -58t-83 -22q-35 0 -66.5 13.5t-54.5 36.5t-36.5 54.5t-13.5 66.5t13.5 66t36.5 54.5t54.5 37t66.5 13.5q45 0 83 -22t61 -58l-75 -53q-9 19 -27 32
t-42 13q-34 0 -55.5 -24.5t-21.5 -58.5t21.5 -58.5t55.5 -24.5q24 0 42 12.5t28 31.5z" />
    <glyph glyph-name="ordfeminine" unicode="&#xaa;" horiz-adv-x="353"
d="M160 715q18 0 35.5 -5.5t30.5 -17.5v18h94v-300h-94v17q-13 -11 -30.5 -16.5t-35.5 -5.5q-33 0 -59.5 13t-45 34.5t-28 49.5t-9.5 58t9.5 58t28 49.5t45 34.5t59.5 13zM117 560q0 -26 16 -45.5t47 -19.5q27 0 41 17v95q-15 18 -41 18q-31 0 -47 -19.5t-16 -45.5z" />
    <glyph glyph-name="guillemotleft" unicode="&#xab;" horiz-adv-x="575"
d="M269 250l164 241l100 -68l-118 -173l118 -173l-100 -68zM34 250l164 241l100 -68l-118 -173l118 -173l-100 -68z" />
    <glyph glyph-name="logicalnot" unicode="&#xac;" horiz-adv-x="590"
d="M399 225h-322v114h436v-295h-114v181z" />
    <glyph glyph-name="uni00AD" unicode="&#xad;" horiz-adv-x="370"
d="M43 354h284v-144h-284v144z" />
    <glyph glyph-name="registered" unicode="&#xae;" horiz-adv-x="794"
d="M397 -8q-75 0 -141 28.5t-115.5 78t-78 115.5t-28.5 141t28.5 141t78 115.5t115.5 78t141 28.5t141 -28.5t115.5 -78t78 -115.5t28.5 -141t-28.5 -141t-78 -115.5t-115.5 -78t-141 -28.5zM397 97q53 0 100 20.5t82 55.5t55.5 82t20.5 100t-20.5 100t-55.5 82t-82 55.5
t-100 20.5t-100 -20.5t-82 -55.5t-55.5 -82t-20.5 -100t20.5 -100t55.5 -82t82 -55.5t100 -20.5zM375 317v-130h-90v336h130q45 0 74 -30t29 -73q0 -30 -14.5 -54t-39.5 -37l87 -142h-97zM404 390q12 0 19 7.5t7 18.5t-6.5 18.5t-18.5 7.5h-32v-52h31z" />
    <glyph glyph-name="macron" unicode="&#xaf;" horiz-adv-x="494"
d="M82 675h330v-96h-330v96z" />
    <glyph glyph-name="degree" unicode="&#xb0;" horiz-adv-x="314"
d="M157 547q19 0 32 13t13 32t-13 32t-32 13t-32 -13t-13 -32t13 -32t32 -13zM157 470q-25 0 -47.5 9.5t-39 26t-26 39t-9.5 47.5t9.5 47.5t26 39t39 26t47.5 9.5t47.5 -9.5t39 -26t26 -39t9.5 -47.5t-9.5 -47.5t-26 -39t-39 -26t-47.5 -9.5z" />
    <glyph glyph-name="plusminus" unicode="&#xb1;" horiz-adv-x="590"
d="M77 389h161v111h114v-111h161v-114h-161v-111h-114v111h-161v114zM77 114h436v-114h-436v114z" />
    <glyph glyph-name="twosuperior" unicode="&#xb2;" horiz-adv-x="351"
d="M121 568q-38 17 -64 52t-26 81q0 29 11.5 54.5t31 44.5t45.5 30t55 11t55 -11t46 -30t31.5 -44.5t11.5 -54.5q0 -23 -6.5 -42t-16.5 -33l-98 -124h121v-92h-322zM174 654q20 0 32 14t12 33t-12 33t-32 14t-31.5 -14t-11.5 -33t11.5 -33t31.5 -14z" />
    <glyph glyph-name="threesuperior" unicode="&#xb3;" horiz-adv-x="312"
d="M139 405q-42 0 -75.5 16t-56.5 44l70 66q9 -14 22 -23.5t33 -9.5q28 0 43 15.5t15 42.5q1 28 -15 43t-42 15h-45l58 130h-119v92h264l-66 -148q31 -20 48.5 -53.5t17.5 -78.5q0 -69 -41.5 -110t-110.5 -41z" />
    <glyph glyph-name="acute" unicode="&#xb4;" horiz-adv-x="433"
d="M180 710h173l-143 -155h-110z" />
    <glyph glyph-name="mu" unicode="&#xb5;" horiz-adv-x="602"
d="M59 251h151v-435h-151v435zM392 37q-23 -22 -55 -33.5t-64 -11.5q-51 0 -90.5 16.5t-67 47t-42 72.5t-14.5 93v279h151v-252q0 -51 21.5 -84.5t66.5 -33.5q28 0 53.5 13t40.5 37v320h151v-500h-151v37z" />
    <glyph glyph-name="mu" unicode="&#x3bc;" horiz-adv-x="602"
d="M59 251h151v-435h-151v435zM392 37q-23 -22 -55 -33.5t-64 -11.5q-51 0 -90.5 16.5t-67 47t-42 72.5t-14.5 93v279h151v-252q0 -51 21.5 -84.5t66.5 -33.5q28 0 53.5 13t40.5 37v320h151v-500h-151v37z" />
    <glyph glyph-name="paragraph" unicode="&#xb6;" horiz-adv-x="671"
d="M255 260q-47 0 -87.5 17.5t-71.5 48.5t-48.5 71.5t-17.5 87.5q0 46 17.5 87t48.5 72t71.5 48.5t87.5 17.5h339v-894h-127v762h-85v-762h-127v444z" />
    <glyph glyph-name="periodcentered" unicode="&#xb7;" horiz-adv-x="330"
d="M165 174q-23 0 -42.5 8.5t-34 23t-23 34t-8.5 42.5q0 22 8.5 42t23 34.5t34 23t42.5 8.5q22 0 42 -8.5t34.5 -23t23 -34.5t8.5 -42q0 -23 -8.5 -42.5t-23 -34t-34.5 -23t-42 -8.5z" />
    <glyph glyph-name="cedilla" unicode="&#xb8;" horiz-adv-x="352"
d="M142 0h102l-34 -134h-127z" />
    <glyph glyph-name="onesuperior" unicode="&#xb9;" horiz-adv-x="186"
d="M43 740l100 99v-429h-100v330z" />
    <glyph glyph-name="ordmasculine" unicode="&#xba;" horiz-adv-x="344"
d="M172 497q25 0 41 17t16 46t-16 46t-41 17q-24 0 -40.5 -17t-16.5 -46t16.5 -46t40.5 -17zM172 405q-32 0 -60.5 12.5t-49.5 33.5t-33.5 49t-12.5 60q0 31 12.5 59.5t33.5 49.5t49.5 33.5t60.5 12.5t60.5 -12.5t49.5 -33.5t33.5 -49.5t12.5 -59.5q0 -32 -12.5 -60
t-33.5 -49t-49.5 -33.5t-60.5 -12.5z" />
    <glyph glyph-name="guillemotright" unicode="&#xbb;" horiz-adv-x="575"
d="M377 9l-100 68l118 173l-118 173l100 68l164 -241zM142 9l-100 68l118 173l-118 173l100 68l164 -241z" />
    <glyph glyph-name="onequarter" unicode="&#xbc;" horiz-adv-x="844"
d="M100 614l100 99v-429h-100v330zM75 0l500 710h130l-500 -710h-130zM657 91h-217l307 338v-257h37v-81h-37v-91h-90v91zM657 172v54l-51 -54h51z" />
    <glyph glyph-name="onehalf" unicode="&#xbd;" horiz-adv-x="878"
d="M100 614l100 99v-429h-100v330zM75 0l500 710h130l-500 -710h-130zM611 158q-38 17 -64 52t-26 81q0 29 11.5 54.5t31 44.5t45.5 30t55 11t55 -11t46 -30t31.5 -44.5t11.5 -54.5q0 -23 -6.5 -42t-16.5 -33l-98 -124h121v-92h-322zM664 244q20 0 32 14t12 33t-12 33
t-32 14t-31.5 -14t-11.5 -33t11.5 -33t31.5 -14z" />
    <glyph glyph-name="threequarters" unicode="&#xbe;" horiz-adv-x="923"
d="M177 279q-42 0 -75.5 16t-56.5 44l70 66q9 -14 22 -23.5t33 -9.5q28 0 43 15.5t15 42.5q1 28 -15 43t-42 15h-45l58 130h-119v92h264l-66 -148q31 -20 48.5 -53.5t17.5 -78.5q0 -69 -41.5 -110t-110.5 -41zM154 0l500 710h130l-500 -710h-130zM736 91h-217l307 338v-257
h37v-81h-37v-91h-90v91zM736 172v54l-51 -54h51z" />
    <glyph glyph-name="questiondown" unicode="&#xbf;" horiz-adv-x="489"
d="M330 128h-67q-42 0 -70.5 -21.5t-28.5 -68.5q0 -23 7.5 -40.5t19 -28.5t26.5 -16.5t30 -5.5q30 0 55 22t25 69h152q0 -48 -17.5 -90.5t-48.5 -74t-73.5 -49.5t-92.5 -18t-93 18t-74.5 49.5t-49.5 74t-18 90.5t18.5 90.5t51.5 73.5t79 49t102 18h67v-141zM267 508
q22 0 42 -8.5t34.5 -23t23 -34.5t8.5 -42q0 -26 -10.5 -47.5t-29.5 -36.5h-136q-18 15 -29 36.5t-11 47.5q0 22 8.5 42t23 34.5t34 23t42.5 8.5z" />
    <glyph glyph-name="Agrave" unicode="&#xc0;" horiz-adv-x="680"
d="M340 718l350 -718h-168l-51 110h-262l-51 -110h-168zM407 240l-67 148l-67 -148h134zM159 923h166l70 -145h-110z" />
    <glyph glyph-name="Aacute" unicode="&#xc1;" horiz-adv-x="680"
d="M340 718l350 -718h-168l-51 110h-262l-51 -110h-168zM407 240l-67 148l-67 -148h134zM354 923h166l-126 -145h-110z" />
    <glyph glyph-name="Acircumflex" unicode="&#xc2;" horiz-adv-x="680"
d="M340 718l350 -718h-168l-51 110h-262l-51 -110h-168zM407 240l-67 148l-67 -148h134zM163 855l177 76l177 -76l-41 -96l-136 59l-136 -59z" />
    <glyph glyph-name="Atilde" unicode="&#xc3;" horiz-adv-x="680"
d="M340 718l350 -718h-168l-51 110h-262l-51 -110h-168zM407 240l-67 148l-67 -148h134zM151 806q4 28 15.5 49.5t27.5 36.5t35.5 22.5t38.5 7.5q22 0 40 -6.5t33.5 -14t28.5 -13.5t24 -6q17 0 27 9.5t16 32.5h96l-4 -29q-4 -28 -15.5 -49.5t-27.5 -36.5t-35.5 -22.5
t-38.5 -7.5q-22 0 -40 6t-33.5 13.5t-28.5 14t-24 6.5q-17 0 -27 -9.5t-16 -32.5h-96z" />
    <glyph glyph-name="Adieresis" unicode="&#xc4;" horiz-adv-x="680"
d="M340 718l350 -718h-168l-51 110h-262l-51 -110h-168zM407 240l-67 148l-67 -148h134zM221 770q-33 0 -56.5 23.5t-23.5 56.5t23.5 56.5t56.5 23.5t56.5 -23.5t23.5 -56.5t-23.5 -56.5t-56.5 -23.5zM459 770q-33 0 -56.5 23.5t-23.5 56.5t23.5 56.5t56.5 23.5t56.5 -23.5
t23.5 -56.5t-23.5 -56.5t-56.5 -23.5z" />
    <glyph glyph-name="Aring" unicode="&#xc5;" horiz-adv-x="680"
d="M340 718l350 -718h-168l-51 110h-262l-51 -110h-168zM407 240l-67 148l-67 -148h134zM340 832q20 0 33.5 13.5t13.5 33.5t-13.5 33.5t-33.5 13.5t-33.5 -13.5t-13.5 -33.5t13.5 -33.5t33.5 -13.5zM340 759q-25 0 -46.5 9.5t-38 26t-26 38t-9.5 46.5t9.5 46.5t26 38t38 26
t46.5 9.5t46.5 -9.5t38 -26t26 -38t9.5 -46.5t-9.5 -46.5t-26 -38t-38 -26t-46.5 -9.5z" />
    <glyph glyph-name="AE" unicode="&#xc6;" horiz-adv-x="912"
d="M256 545l-81 165h401l77 -158h-232l58 -120h172l75 -154h-172l59 -120h232l77 -158h-400l-51 110h-262l-51 -110h-168zM407 240l-67 148l-67 -148h134z" />
    <glyph glyph-name="Ccedilla" unicode="&#xc7;" horiz-adv-x="709"
d="M397 -8q-75 0 -141 28.5t-115.5 78t-78 115.5t-28.5 141t28.5 141t78 115.5t115.5 78t141 28.5q92 0 169.5 -42t127.5 -112l-121 -99q-27 44 -73 71.5t-103 27.5q-43 0 -80 -16.5t-64 -45t-42.5 -66.5t-15.5 -81t15.5 -81t42.5 -66.5t64 -45t80 -16.5q57 0 103 27.5
t73 71.5l121 -99q-50 -70 -127.5 -112t-169.5 -42zM346 0h102l-34 -134h-127z" />
    <glyph glyph-name="Egrave" unicode="&#xc8;" horiz-adv-x="547"
d="M67 710h440v-158h-280v-120h220v-154h-220v-120h280v-158h-440v710zM136 923h166l70 -145h-110z" />
    <glyph glyph-name="Eacute" unicode="&#xc9;" horiz-adv-x="547"
d="M67 710h440v-158h-280v-120h220v-154h-220v-120h280v-158h-440v710zM273 923h166l-126 -145h-110z" />
    <glyph glyph-name="Ecircumflex" unicode="&#xca;" horiz-adv-x="547"
d="M67 710h440v-158h-280v-120h220v-154h-220v-120h280v-158h-440v710zM110 855l177 76l177 -76l-41 -96l-136 59l-136 -59z" />
    <glyph glyph-name="Edieresis" unicode="&#xcb;" horiz-adv-x="547"
d="M67 710h440v-158h-280v-120h220v-154h-220v-120h280v-158h-440v710zM169 770q-33 0 -56.5 23.5t-23.5 56.5t23.5 56.5t56.5 23.5t56.5 -23.5t23.5 -56.5t-23.5 -56.5t-56.5 -23.5zM407 770q-33 0 -56.5 23.5t-23.5 56.5t23.5 56.5t56.5 23.5t56.5 -23.5t23.5 -56.5
t-23.5 -56.5t-56.5 -23.5z" />
    <glyph glyph-name="Igrave" unicode="&#xcc;" horiz-adv-x="295"
d="M67 710h160v-710h-160v710zM-2 923h166l70 -145h-110z" />
    <glyph glyph-name="Iacute" unicode="&#xcd;" horiz-adv-x="295"
d="M67 710h160v-710h-160v710zM134 923h166l-126 -145h-110z" />
    <glyph glyph-name="Icircumflex" unicode="&#xce;" horiz-adv-x="295"
d="M67 710h160v-710h-160v710zM-28 855l177 76l177 -76l-41 -96l-136 59l-136 -59z" />
    <glyph glyph-name="Idieresis" unicode="&#xcf;" horiz-adv-x="295"
d="M54 760q-33 0 -56.5 23.5t-23.5 56.5t23.5 56.5t56.5 23.5t56.5 -23.5t23.5 -56.5t-23.5 -56.5t-56.5 -23.5zM242 760q-33 0 -56.5 23.5t-23.5 56.5t23.5 56.5t56.5 23.5t56.5 -23.5t23.5 -56.5t-23.5 -56.5t-56.5 -23.5zM67 710h160v-710h-160v710z" />
    <glyph glyph-name="Eth" unicode="&#xd0;" horiz-adv-x="746"
d="M13 425h89v285h249q75 0 141 -28t114.5 -76t77 -113t28.5 -138q0 -74 -28.5 -138.5t-77 -112.5t-114.5 -76t-141 -28h-249v285h-89v140zM351 146q45 0 81.5 16.5t63 45t41 66.5t14.5 81t-14.5 81t-41 66.5t-63 45t-81.5 16.5h-89v-139h89v-140h-89v-139h89z" />
    <glyph glyph-name="Ntilde" unicode="&#xd1;" horiz-adv-x="742"
d="M227 371v-371h-160v718l448 -379v371h160v-718zM182 806q4 28 15.5 49.5t27.5 36.5t35.5 22.5t38.5 7.5q22 0 40 -6.5t33.5 -14t28.5 -13.5t24 -6q17 0 27 9.5t16 32.5h96l-4 -29q-4 -28 -15.5 -49.5t-27.5 -36.5t-35.5 -22.5t-38.5 -7.5q-22 0 -40 6t-33.5 13.5
t-28.5 14t-24 6.5q-17 0 -27 -9.5t-16 -32.5h-96z" />
    <glyph glyph-name="Ograve" unicode="&#xd2;" horiz-adv-x="794"
d="M397 146q43 0 80 16.5t64 45t42.5 66.5t15.5 81t-15.5 81t-42.5 66.5t-64 45t-80 16.5t-80 -16.5t-64 -45t-42.5 -66.5t-15.5 -81t15.5 -81t42.5 -66.5t64 -45t80 -16.5zM397 -8q-75 0 -141 28.5t-115.5 78t-78 115.5t-28.5 141t28.5 141t78 115.5t115.5 78t141 28.5
t141 -28.5t115.5 -78t78 -115.5t28.5 -141t-28.5 -141t-78 -115.5t-115.5 -78t-141 -28.5zM246 923h166l70 -145h-110z" />
    <glyph glyph-name="Oacute" unicode="&#xd3;" horiz-adv-x="794"
d="M397 146q43 0 80 16.5t64 45t42.5 66.5t15.5 81t-15.5 81t-42.5 66.5t-64 45t-80 16.5t-80 -16.5t-64 -45t-42.5 -66.5t-15.5 -81t15.5 -81t42.5 -66.5t64 -45t80 -16.5zM397 -8q-75 0 -141 28.5t-115.5 78t-78 115.5t-28.5 141t28.5 141t78 115.5t115.5 78t141 28.5
t141 -28.5t115.5 -78t78 -115.5t28.5 -141t-28.5 -141t-78 -115.5t-115.5 -78t-141 -28.5zM382 923h166l-126 -145h-110z" />
    <glyph glyph-name="Ocircumflex" unicode="&#xd4;" horiz-adv-x="794"
d="M397 146q43 0 80 16.5t64 45t42.5 66.5t15.5 81t-15.5 81t-42.5 66.5t-64 45t-80 16.5t-80 -16.5t-64 -45t-42.5 -66.5t-15.5 -81t15.5 -81t42.5 -66.5t64 -45t80 -16.5zM397 -8q-75 0 -141 28.5t-115.5 78t-78 115.5t-28.5 141t28.5 141t78 115.5t115.5 78t141 28.5
t141 -28.5t115.5 -78t78 -115.5t28.5 -141t-28.5 -141t-78 -115.5t-115.5 -78t-141 -28.5zM220 855l177 76l177 -76l-41 -96l-136 59l-136 -59z" />
    <glyph glyph-name="Otilde" unicode="&#xd5;" horiz-adv-x="794"
d="M397 146q43 0 80 16.5t64 45t42.5 66.5t15.5 81t-15.5 81t-42.5 66.5t-64 45t-80 16.5t-80 -16.5t-64 -45t-42.5 -66.5t-15.5 -81t15.5 -81t42.5 -66.5t64 -45t80 -16.5zM397 -8q-75 0 -141 28.5t-115.5 78t-78 115.5t-28.5 141t28.5 141t78 115.5t115.5 78t141 28.5
t141 -28.5t115.5 -78t78 -115.5t28.5 -141t-28.5 -141t-78 -115.5t-115.5 -78t-141 -28.5zM208 806q4 28 15.5 49.5t27.5 36.5t35.5 22.5t38.5 7.5q22 0 40 -6.5t33.5 -14t28.5 -13.5t24 -6q17 0 27 9.5t16 32.5h96l-4 -29q-4 -28 -15.5 -49.5t-27.5 -36.5t-35.5 -22.5
t-38.5 -7.5q-22 0 -40 6t-33.5 13.5t-28.5 14t-24 6.5q-17 0 -27 -9.5t-16 -32.5h-96z" />
    <glyph glyph-name="Odieresis" unicode="&#xd6;" horiz-adv-x="794"
d="M397 146q43 0 80 16.5t64 45t42.5 66.5t15.5 81t-15.5 81t-42.5 66.5t-64 45t-80 16.5t-80 -16.5t-64 -45t-42.5 -66.5t-15.5 -81t15.5 -81t42.5 -66.5t64 -45t80 -16.5zM397 -8q-75 0 -141 28.5t-115.5 78t-78 115.5t-28.5 141t28.5 141t78 115.5t115.5 78t141 28.5
t141 -28.5t115.5 -78t78 -115.5t28.5 -141t-28.5 -141t-78 -115.5t-115.5 -78t-141 -28.5zM278 770q-33 0 -56.5 23.5t-23.5 56.5t23.5 56.5t56.5 23.5t56.5 -23.5t23.5 -56.5t-23.5 -56.5t-56.5 -23.5zM516 770q-33 0 -56.5 23.5t-23.5 56.5t23.5 56.5t56.5 23.5
t56.5 -23.5t23.5 -56.5t-23.5 -56.5t-56.5 -23.5z" />
    <glyph glyph-name="multiply" unicode="&#xd7;" horiz-adv-x="571"
d="M77 134l128 128l-128 128l81 81l127 -129l129 129l80 -81l-128 -128l128 -128l-80 -80l-129 127l-127 -127z" />
    <glyph glyph-name="Oslash" unicode="&#xd8;" horiz-adv-x="804"
d="M29 72l75 75q-31 45 -48 97.5t-17 110.5q0 75 28.5 141t78 115.5t115.5 78t141 28.5q58 0 110 -17t97 -49l76 76l90 -90l-76 -76q32 -45 49 -97t17 -110q0 -75 -28.5 -141t-78 -115.5t-115.5 -78t-141 -28.5q-59 0 -111 17t-97 49l-76 -76zM402 146q43 0 80 16.5t64 45
t42.5 66.5t15.5 81q0 25 -5.5 48t-15.5 44l-277 -277q42 -24 96 -24zM200 355q0 -49 20 -92l277 277q-21 11 -45 17.5t-50 6.5q-43 0 -80 -16.5t-64 -45t-42.5 -66.5t-15.5 -81z" />
    <glyph glyph-name="Ugrave" unicode="&#xd9;" horiz-adv-x="702"
d="M351 -8q-64 0 -117.5 21t-92 60t-60 93.5t-21.5 121.5v422h160v-424q0 -65 36 -102.5t95 -37.5t95 37.5t36 102.5v424h160v-422q0 -67 -21.5 -121.5t-60 -93.5t-92 -60t-117.5 -21zM200 923h166l70 -145h-110z" />
    <glyph glyph-name="Uacute" unicode="&#xda;" horiz-adv-x="702"
d="M351 -8q-64 0 -117.5 21t-92 60t-60 93.5t-21.5 121.5v422h160v-424q0 -65 36 -102.5t95 -37.5t95 37.5t36 102.5v424h160v-422q0 -67 -21.5 -121.5t-60 -93.5t-92 -60t-117.5 -21zM336 923h166l-126 -145h-110z" />
    <glyph glyph-name="Ucircumflex" unicode="&#xdb;" horiz-adv-x="702"
d="M351 -8q-64 0 -117.5 21t-92 60t-60 93.5t-21.5 121.5v422h160v-424q0 -65 36 -102.5t95 -37.5t95 37.5t36 102.5v424h160v-422q0 -67 -21.5 -121.5t-60 -93.5t-92 -60t-117.5 -21zM174 855l177 76l177 -76l-41 -96l-136 59l-136 -59z" />
    <glyph glyph-name="Udieresis" unicode="&#xdc;" horiz-adv-x="702"
d="M351 -8q-64 0 -117.5 21t-92 60t-60 93.5t-21.5 121.5v422h160v-424q0 -65 36 -102.5t95 -37.5t95 37.5t36 102.5v424h160v-422q0 -67 -21.5 -121.5t-60 -93.5t-92 -60t-117.5 -21zM232 770q-33 0 -56.5 23.5t-23.5 56.5t23.5 56.5t56.5 23.5t56.5 -23.5t23.5 -56.5
t-23.5 -56.5t-56.5 -23.5zM470 770q-33 0 -56.5 23.5t-23.5 56.5t23.5 56.5t56.5 23.5t56.5 -23.5t23.5 -56.5t-23.5 -56.5t-56.5 -23.5z" />
    <glyph glyph-name="Yacute" unicode="&#xdd;" horiz-adv-x="656"
d="M248 298l-263 412h187l156 -252l156 252h187l-263 -412v-298h-160v298zM322 923h166l-126 -145h-110z" />
    <glyph glyph-name="Thorn" unicode="&#xde;" horiz-adv-x="557"
d="M67 710h160v-114h74q52 0 96.5 -19t77 -51.5t51 -76.5t18.5 -94t-18.5 -94t-51 -76.5t-77 -51.5t-96.5 -19h-74v-114h-160v710zM299 263q19 0 35.5 7.5t28.5 20.5t19 29.5t7 34.5q0 36 -25.5 63.5t-64.5 27.5h-72v-183h72z" />
    <glyph glyph-name="germandbls" unicode="&#xdf;" horiz-adv-x="557"
d="M278 -32q21 0 39 8t32 21.5t22 31.5t8 39t-8 39t-22 31.5t-32 21.5t-39 8v118l59 82h-126v-368h-152v556q0 72 41 113t112 41h103v-138h-46q-31 0 -44.5 -13.5t-13.5 -45.5v-13h284v-132l-69 -96q48 -35 76 -88t28 -116q0 -52 -20 -98t-54 -80t-80 -54t-98 -20v152z" />
    <glyph glyph-name="agrave" unicode="&#xe0;" horiz-adv-x="594"
d="M384 29q-22 -18 -50.5 -27.5t-59.5 -9.5q-56 0 -100.5 21t-76 56.5t-48.5 82.5t-17 98t17 98t48.5 82.5t76 56.5t100.5 21q31 0 59.5 -10t50.5 -28v30h151v-500h-151v29zM299 130q53 0 85 41v157q-16 20 -36.5 31t-48.5 11q-27 0 -48.5 -9.5t-36 -26t-22.5 -38t-8 -46.5
t8 -46.5t22.5 -38t36 -26t48.5 -9.5zM145 710h173l80 -155h-110z" />
    <glyph glyph-name="aacute" unicode="&#xe1;" horiz-adv-x="594"
d="M384 29q-22 -18 -50.5 -27.5t-59.5 -9.5q-56 0 -100.5 21t-76 56.5t-48.5 82.5t-17 98t17 98t48.5 82.5t76 56.5t100.5 21q31 0 59.5 -10t50.5 -28v30h151v-500h-151v29zM299 130q53 0 85 41v157q-16 20 -36.5 31t-48.5 11q-27 0 -48.5 -9.5t-36 -26t-22.5 -38t-8 -46.5
t8 -46.5t22.5 -38t36 -26t48.5 -9.5zM298 710h173l-143 -155h-110z" />
    <glyph glyph-name="acircumflex" unicode="&#xe2;" horiz-adv-x="594"
d="M384 29q-22 -18 -50.5 -27.5t-59.5 -9.5q-56 0 -100.5 21t-76 56.5t-48.5 82.5t-17 98t17 98t48.5 82.5t76 56.5t100.5 21q31 0 59.5 -10t50.5 -28v30h151v-500h-151v29zM299 130q53 0 85 41v157q-16 20 -36.5 31t-48.5 11q-27 0 -48.5 -9.5t-36 -26t-22.5 -38t-8 -46.5
t8 -46.5t22.5 -38t36 -26t48.5 -9.5zM142 637l178 91l178 -91l-48 -91l-130 62l-130 -62z" />
    <glyph glyph-name="atilde" unicode="&#xe3;" horiz-adv-x="594"
d="M384 29q-22 -18 -50.5 -27.5t-59.5 -9.5q-56 0 -100.5 21t-76 56.5t-48.5 82.5t-17 98t17 98t48.5 82.5t76 56.5t100.5 21q31 0 59.5 -10t50.5 -28v30h151v-500h-151v29zM299 130q53 0 85 41v157q-16 20 -36.5 31t-48.5 11q-27 0 -48.5 -9.5t-36 -26t-22.5 -38t-8 -46.5
t8 -46.5t22.5 -38t36 -26t48.5 -9.5zM131 583q4 28 15.5 49.5t27.5 36.5t35.5 22.5t38.5 7.5q22 0 40 -6.5t33.5 -14t28.5 -13.5t24 -6q17 0 27 9.5t16 32.5h96l-4 -29q-4 -28 -15.5 -49.5t-27.5 -36.5t-35.5 -22.5t-38.5 -7.5q-22 0 -40 6t-33.5 13.5t-28.5 14t-24 6.5
q-17 0 -27 -9.5t-16 -32.5h-96z" />
    <glyph glyph-name="adieresis" unicode="&#xe4;" horiz-adv-x="594"
d="M384 29q-22 -18 -50.5 -27.5t-59.5 -9.5q-56 0 -100.5 21t-76 56.5t-48.5 82.5t-17 98t17 98t48.5 82.5t76 56.5t100.5 21q31 0 59.5 -10t50.5 -28v30h151v-500h-151v29zM299 130q53 0 85 41v157q-16 20 -36.5 31t-48.5 11q-27 0 -48.5 -9.5t-36 -26t-22.5 -38t-8 -46.5
t8 -46.5t22.5 -38t36 -26t48.5 -9.5zM201 567q-33 0 -56.5 23.5t-23.5 56.5t23.5 56.5t56.5 23.5t56.5 -23.5t23.5 -56.5t-23.5 -56.5t-56.5 -23.5zM439 567q-33 0 -56.5 23.5t-23.5 56.5t23.5 56.5t56.5 23.5t56.5 -23.5t23.5 -56.5t-23.5 -56.5t-56.5 -23.5z" />
    <glyph glyph-name="aring" unicode="&#xe5;" horiz-adv-x="594"
d="M384 29q-22 -18 -50.5 -27.5t-59.5 -9.5q-56 0 -100.5 21t-76 56.5t-48.5 82.5t-17 98t17 98t48.5 82.5t76 56.5t100.5 21q31 0 59.5 -10t50.5 -28v30h151v-500h-151v29zM299 130q53 0 85 41v157q-16 20 -36.5 31t-48.5 11q-27 0 -48.5 -9.5t-36 -26t-22.5 -38t-8 -46.5
t8 -46.5t22.5 -38t36 -26t48.5 -9.5zM320 619q20 0 33.5 13.5t13.5 33.5t-13.5 33.5t-33.5 13.5t-33.5 -13.5t-13.5 -33.5t13.5 -33.5t33.5 -13.5zM320 546q-25 0 -46.5 9.5t-38 26t-26 38t-9.5 46.5t9.5 46.5t26 38t38 26t46.5 9.5t46.5 -9.5t38 -26t26 -38t9.5 -46.5
t-9.5 -46.5t-26 -38t-38 -26t-46.5 -9.5z" />
    <glyph glyph-name="ae" unicode="&#xe6;" horiz-adv-x="853"
d="M580 -8q-49 0 -94 17.5t-80 50.5q-38 -35 -85 -51.5t-103 -16.5q-42 0 -79 9.5t-64 30t-42.5 51.5t-15.5 73q0 37 15 65t41.5 47t61.5 29t75 10q62 0 116 -26v14q-6 41 -40 57.5t-76 16.5q-35 0 -69.5 -8.5t-55.5 -21.5l-21 141q73 28 151 28q58 0 104.5 -16t82.5 -52
q34 32 79.5 50t101.5 18q48 0 91.5 -15.5t76.5 -46t53 -75.5t20 -104q0 -22 -3 -44h-351q3 -25 14 -42.5t26.5 -29t33.5 -16.5t35 -5q40 0 66 17.5t41 45.5l120 -81q-35 -54 -93 -87t-133 -33zM574 387q-14 0 -29.5 -3.5t-30 -12t-26.5 -23.5t-17 -37h204q-6 40 -35 58
t-66 18zM230 118q31 0 57 9t39 26v28q-38 23 -95 23q-28 0 -48 -9.5t-20 -34.5q0 -12 6 -20t16 -13t21.5 -7t23.5 -2z" />
    <glyph glyph-name="ccedilla" unicode="&#xe7;" horiz-adv-x="522"
d="M290 -8q-54 0 -101.5 20.5t-82.5 55.5t-55.5 82t-20.5 100t20.5 100t55.5 82t82.5 55.5t101.5 20.5q69 0 126.5 -32t92.5 -86l-120 -85q-15 28 -40.5 45t-58.5 17q-47 0 -77.5 -32.5t-30.5 -84.5t30.5 -84.5t77.5 -32.5q33 0 58.5 17t40.5 45l120 -85q-35 -54 -92.5 -86
t-126.5 -32zM239 0h102l-34 -134h-127z" />
    <glyph glyph-name="egrave" unicode="&#xe8;" horiz-adv-x="558"
d="M285 -8q-50 0 -96 18.5t-81 52.5t-56.5 81.5t-21.5 105.5q0 55 18.5 102.5t52.5 82t81.5 54t105.5 19.5q48 0 91.5 -15.5t76.5 -46t53 -75.5t20 -104q0 -22 -3 -44h-351q3 -25 14 -42.5t26.5 -29t33.5 -16.5t35 -5q40 0 66 17.5t41 45.5l120 -81q-35 -54 -93 -87
t-133 -33zM279 387q-14 0 -29.5 -3.5t-30 -12t-26.5 -23.5t-17 -37h204q-6 40 -35 58t-66 18zM120 710h173l80 -155h-110z" />
    <glyph glyph-name="eacute" unicode="&#xe9;" horiz-adv-x="558"
d="M285 -8q-50 0 -96 18.5t-81 52.5t-56.5 81.5t-21.5 105.5q0 55 18.5 102.5t52.5 82t81.5 54t105.5 19.5q48 0 91.5 -15.5t76.5 -46t53 -75.5t20 -104q0 -22 -3 -44h-351q3 -25 14 -42.5t26.5 -29t33.5 -16.5t35 -5q40 0 66 17.5t41 45.5l120 -81q-35 -54 -93 -87
t-133 -33zM279 387q-14 0 -29.5 -3.5t-30 -12t-26.5 -23.5t-17 -37h204q-6 40 -35 58t-66 18zM283 710h173l-143 -155h-110z" />
    <glyph glyph-name="ecircumflex" unicode="&#xea;" horiz-adv-x="558"
d="M285 -8q-50 0 -96 18.5t-81 52.5t-56.5 81.5t-21.5 105.5q0 55 18.5 102.5t52.5 82t81.5 54t105.5 19.5q48 0 91.5 -15.5t76.5 -46t53 -75.5t20 -104q0 -22 -3 -44h-351q3 -25 14 -42.5t26.5 -29t33.5 -16.5t35 -5q40 0 66 17.5t41 45.5l120 -81q-35 -54 -93 -87
t-133 -33zM279 387q-14 0 -29.5 -3.5t-30 -12t-26.5 -23.5t-17 -37h204q-6 40 -35 58t-66 18zM110 637l178 91l178 -91l-48 -91l-130 62l-130 -62z" />
    <glyph glyph-name="edieresis" unicode="&#xeb;" horiz-adv-x="558"
d="M285 -8q-50 0 -96 18.5t-81 52.5t-56.5 81.5t-21.5 105.5q0 55 18.5 102.5t52.5 82t81.5 54t105.5 19.5q48 0 91.5 -15.5t76.5 -46t53 -75.5t20 -104q0 -22 -3 -44h-351q3 -25 14 -42.5t26.5 -29t33.5 -16.5t35 -5q40 0 66 17.5t41 45.5l120 -81q-35 -54 -93 -87
t-133 -33zM279 387q-14 0 -29.5 -3.5t-30 -12t-26.5 -23.5t-17 -37h204q-6 40 -35 58t-66 18zM170 567q-33 0 -56.5 23.5t-23.5 56.5t23.5 56.5t56.5 23.5t56.5 -23.5t23.5 -56.5t-23.5 -56.5t-56.5 -23.5zM408 567q-33 0 -56.5 23.5t-23.5 56.5t23.5 56.5t56.5 23.5
t56.5 -23.5t23.5 -56.5t-23.5 -56.5t-56.5 -23.5z" />
    <glyph glyph-name="igrave" unicode="&#xec;" horiz-adv-x="270"
d="M59 500h152v-500h-152v500zM-32 710h173l80 -155h-110z" />
    <glyph glyph-name="iacute" unicode="&#xed;" horiz-adv-x="270"
d="M59 500h152v-500h-152v500zM131 710h173l-143 -155h-110z" />
    <glyph glyph-name="icircumflex" unicode="&#xee;" horiz-adv-x="270"
d="M59 500h152v-500h-152v500zM-42 637l178 91l178 -91l-48 -91l-130 62l-130 -62z" />
    <glyph glyph-name="idieresis" unicode="&#xef;" horiz-adv-x="270"
d="M41 547q-33 0 -56.5 23.5t-23.5 56.5t23.5 56.5t56.5 23.5t56.5 -23.5t23.5 -56.5t-23.5 -56.5t-56.5 -23.5zM229 547q-33 0 -56.5 23.5t-23.5 56.5t23.5 56.5t56.5 23.5t56.5 -23.5t23.5 -56.5t-23.5 -56.5t-56.5 -23.5zM59 500h152v-500h-152v500z" />
    <glyph glyph-name="eth" unicode="&#xf0;" horiz-adv-x="580"
d="M106 633h76l-49 77h169l49 -77h104v-96h-42l90 -139q21 -32 34 -69t13 -79q0 -53 -20.5 -100t-55.5 -82t-82.5 -55.5t-101.5 -20.5t-101.5 20.5t-82.5 55.5t-55.5 82t-20.5 100q0 50 18 94.5t49.5 78.5t74 56t91.5 27l-20 31h-137v96zM290 133q47 0 77.5 32.5t30.5 84.5
t-30.5 84.5t-77.5 32.5t-77.5 -32.5t-30.5 -84.5t30.5 -84.5t77.5 -32.5z" />
    <glyph glyph-name="ntilde" unicode="&#xf1;"
d="M59 500h151v-31q47 39 115 39q53 0 93.5 -17t68.5 -47t42 -72t14 -93v-279h-151v252q0 50 -21.5 84t-70.5 34q-22 0 -46.5 -11t-43.5 -32v-327h-151v500zM112 583q4 28 15.5 49.5t27.5 36.5t35.5 22.5t38.5 7.5q22 0 40 -6.5t33.5 -14t28.5 -13.5t24 -6q17 0 27 9.5
t16 32.5h96l-4 -29q-4 -28 -15.5 -49.5t-27.5 -36.5t-35.5 -22.5t-38.5 -7.5q-22 0 -40 6t-33.5 13.5t-28.5 14t-24 6.5q-17 0 -27 -9.5t-16 -32.5h-96z" />
    <glyph glyph-name="ograve" unicode="&#xf2;" horiz-adv-x="580"
d="M290 133q47 0 77.5 32.5t30.5 84.5t-30.5 84.5t-77.5 32.5t-77.5 -32.5t-30.5 -84.5t30.5 -84.5t77.5 -32.5zM290 -8q-54 0 -101.5 20.5t-82.5 55.5t-55.5 82t-20.5 100t20.5 100t55.5 82t82.5 55.5t101.5 20.5t101.5 -20.5t82.5 -55.5t55.5 -82t20.5 -100t-20.5 -100
t-55.5 -82t-82.5 -55.5t-101.5 -20.5zM112 710h173l80 -155h-110z" />
    <glyph glyph-name="oacute" unicode="&#xf3;" horiz-adv-x="580"
d="M290 133q47 0 77.5 32.5t30.5 84.5t-30.5 84.5t-77.5 32.5t-77.5 -32.5t-30.5 -84.5t30.5 -84.5t77.5 -32.5zM290 -8q-54 0 -101.5 20.5t-82.5 55.5t-55.5 82t-20.5 100t20.5 100t55.5 82t82.5 55.5t101.5 20.5t101.5 -20.5t82.5 -55.5t55.5 -82t20.5 -100t-20.5 -100
t-55.5 -82t-82.5 -55.5t-101.5 -20.5zM295 710h173l-143 -155h-110z" />
    <glyph glyph-name="ocircumflex" unicode="&#xf4;" horiz-adv-x="580"
d="M290 133q47 0 77.5 32.5t30.5 84.5t-30.5 84.5t-77.5 32.5t-77.5 -32.5t-30.5 -84.5t30.5 -84.5t77.5 -32.5zM290 -8q-54 0 -101.5 20.5t-82.5 55.5t-55.5 82t-20.5 100t20.5 100t55.5 82t82.5 55.5t101.5 20.5t101.5 -20.5t82.5 -55.5t55.5 -82t20.5 -100t-20.5 -100
t-55.5 -82t-82.5 -55.5t-101.5 -20.5zM112 637l178 91l178 -91l-48 -91l-130 62l-130 -62z" />
    <glyph glyph-name="otilde" unicode="&#xf5;" horiz-adv-x="580"
d="M101 583q4 28 15.5 49.5t27.5 36.5t35.5 22.5t38.5 7.5q22 0 40 -6.5t33.5 -14t28.5 -13.5t24 -6q17 0 27 9.5t16 32.5h96l-4 -29q-4 -28 -15.5 -49.5t-27.5 -36.5t-35.5 -22.5t-38.5 -7.5q-22 0 -40 6t-33.5 13.5t-28.5 14t-24 6.5q-17 0 -27 -9.5t-16 -32.5h-96z
M290 133q47 0 77.5 32.5t30.5 84.5t-30.5 84.5t-77.5 32.5t-77.5 -32.5t-30.5 -84.5t30.5 -84.5t77.5 -32.5zM290 -8q-54 0 -101.5 20.5t-82.5 55.5t-55.5 82t-20.5 100t20.5 100t55.5 82t82.5 55.5t101.5 20.5t101.5 -20.5t82.5 -55.5t55.5 -82t20.5 -100t-20.5 -100
t-55.5 -82t-82.5 -55.5t-101.5 -20.5z" />
    <glyph glyph-name="odieresis" unicode="&#xf6;" horiz-adv-x="580"
d="M290 133q47 0 77.5 32.5t30.5 84.5t-30.5 84.5t-77.5 32.5t-77.5 -32.5t-30.5 -84.5t30.5 -84.5t77.5 -32.5zM290 -8q-54 0 -101.5 20.5t-82.5 55.5t-55.5 82t-20.5 100t20.5 100t55.5 82t82.5 55.5t101.5 20.5t101.5 -20.5t82.5 -55.5t55.5 -82t20.5 -100t-20.5 -100
t-55.5 -82t-82.5 -55.5t-101.5 -20.5zM171 567q-33 0 -56.5 23.5t-23.5 56.5t23.5 56.5t56.5 23.5t56.5 -23.5t23.5 -56.5t-23.5 -56.5t-56.5 -23.5zM409 567q-33 0 -56.5 23.5t-23.5 56.5t23.5 56.5t56.5 23.5t56.5 -23.5t23.5 -56.5t-23.5 -56.5t-56.5 -23.5z" />
    <glyph glyph-name="divide" unicode="&#xf7;" horiz-adv-x="590"
d="M295 35q-33 0 -56.5 23.5t-23.5 56.5t23.5 56.5t56.5 23.5t56.5 -23.5t23.5 -56.5t-23.5 -56.5t-56.5 -23.5zM295 369q-33 0 -56.5 23.5t-23.5 56.5t23.5 56.5t56.5 23.5t56.5 -23.5t23.5 -56.5t-23.5 -56.5t-56.5 -23.5zM77 339h436v-114h-436v114z" />
    <glyph glyph-name="oslash" unicode="&#xf8;" horiz-adv-x="590"
d="M41 42l49 49q-26 33 -40.5 73.5t-14.5 85.5q0 53 20.5 100t55.5 82t82.5 55.5t101.5 20.5q45 0 85.5 -14t73.5 -40l49 49l47 -49l-48 -48q25 -33 39 -72.5t14 -83.5q0 -53 -20.5 -100t-55.5 -82t-82.5 -55.5t-101.5 -20.5q-45 0 -84.5 13.5t-71.5 38.5l-51 -51zM187 250
q0 -31 10 -52l154 153q-26 16 -56 16q-47 0 -77.5 -32.5t-30.5 -84.5zM295 133q47 0 77.5 32.5t30.5 84.5q0 27 -9 48l-152 -152q22 -13 53 -13z" />
    <glyph glyph-name="ugrave" unicode="&#xf9;"
d="M387 37q-23 -22 -55 -33.5t-64 -11.5q-51 0 -90.5 16.5t-67 47t-42 72.5t-14.5 93v279h151v-252q0 -51 21.5 -84.5t66.5 -33.5q28 0 53.5 13t40.5 37v320h151v-500h-151v37zM128 710h173l80 -155h-110z" />
    <glyph glyph-name="uacute" unicode="&#xfa;"
d="M387 37q-23 -22 -55 -33.5t-64 -11.5q-51 0 -90.5 16.5t-67 47t-42 72.5t-14.5 93v279h151v-252q0 -51 21.5 -84.5t66.5 -33.5q28 0 53.5 13t40.5 37v320h151v-500h-151v37zM291 710h173l-143 -155h-110z" />
    <glyph glyph-name="ucircumflex" unicode="&#xfb;"
d="M387 37q-23 -22 -55 -33.5t-64 -11.5q-51 0 -90.5 16.5t-67 47t-42 72.5t-14.5 93v279h151v-252q0 -51 21.5 -84.5t66.5 -33.5q28 0 53.5 13t40.5 37v320h151v-500h-151v37zM118 637l178 91l178 -91l-48 -91l-130 62l-130 -62z" />
    <glyph glyph-name="udieresis" unicode="&#xfc;"
d="M387 37q-23 -22 -55 -33.5t-64 -11.5q-51 0 -90.5 16.5t-67 47t-42 72.5t-14.5 93v279h151v-252q0 -51 21.5 -84.5t66.5 -33.5q28 0 53.5 13t40.5 37v320h151v-500h-151v37zM177 567q-33 0 -56.5 23.5t-23.5 56.5t23.5 56.5t56.5 23.5t56.5 -23.5t23.5 -56.5t-23.5 -56.5
t-56.5 -23.5zM415 567q-33 0 -56.5 23.5t-23.5 56.5t23.5 56.5t56.5 23.5t56.5 -23.5t23.5 -56.5t-23.5 -56.5t-56.5 -23.5z" />
    <glyph glyph-name="yacute" unicode="&#xfd;" horiz-adv-x="518"
d="M179 0l-184 500h160l104 -316l104 316h160l-252 -684h-160zM274 710h173l-143 -155h-110z" />
    <glyph glyph-name="thorn" unicode="&#xfe;" horiz-adv-x="594"
d="M59 710h151v-240q22 18 50.5 28t59.5 10q55 0 100 -21t76.5 -56.5t48.5 -82.5t17 -98t-17 -98t-48.5 -82.5t-76.5 -56.5t-100 -21q-31 0 -59.5 9.5t-50.5 27.5v-213h-151v894zM295 370q-54 0 -85 -42v-157q30 -41 85 -41q27 0 48.5 9.5t36 26t22.5 38t8 46.5t-8 46.5
t-22.5 38t-36 26t-48.5 9.5z" />
    <glyph glyph-name="ydieresis" unicode="&#xff;" horiz-adv-x="518"
d="M179 0l-184 500h160l104 -316l104 316h160l-252 -684h-160zM141 567q-33 0 -56.5 23.5t-23.5 56.5t23.5 56.5t56.5 23.5t56.5 -23.5t23.5 -56.5t-23.5 -56.5t-56.5 -23.5zM379 567q-33 0 -56.5 23.5t-23.5 56.5t23.5 56.5t56.5 23.5t56.5 -23.5t23.5 -56.5t-23.5 -56.5
t-56.5 -23.5z" />
    <glyph glyph-name="Abreve" unicode="&#x102;" horiz-adv-x="680"
d="M340 718l350 -718h-168l-51 110h-262l-51 -110h-168zM407 240l-67 148l-67 -148h134zM339 769q-38 0 -71.5 14.5t-58.5 39.5t-39.5 58.5t-14.5 71.5h86q0 -41 28.5 -69.5t69.5 -28.5t69.5 28.5t28.5 69.5h86q0 -38 -14.5 -71.5t-39.5 -58.5t-58.5 -39.5t-71.5 -14.5z" />
    <glyph glyph-name="Amacron" unicode="&#x100;" horiz-adv-x="680"
d="M340 718l350 -718h-168l-51 110h-262l-51 -110h-168zM407 240l-67 148l-67 -148h134zM175 898h330v-96h-330v96z" />
    <glyph glyph-name="Aogonek" unicode="&#x104;" horiz-adv-x="680"
d="M340 718l350 -718q-32 -14 -49.5 -25t-17.5 -31q0 -16 9.5 -23t22.5 -7q10 0 20.5 4.5t14.5 8.5v-87q-38 -29 -90 -29q-26 0 -47.5 8.5t-37 23t-24 34t-8.5 41.5q0 25 10.5 46t28.5 36l-51 110h-262l-51 -110h-168zM407 240l-67 148l-67 -148h134z" />
    <glyph glyph-name="Cacute" unicode="&#x106;" horiz-adv-x="709"
d="M397 -8q-75 0 -141 28.5t-115.5 78t-78 115.5t-28.5 141t28.5 141t78 115.5t115.5 78t141 28.5q92 0 169.5 -42t127.5 -112l-121 -99q-27 44 -73 71.5t-103 27.5q-43 0 -80 -16.5t-64 -45t-42.5 -66.5t-15.5 -81t15.5 -81t42.5 -66.5t64 -45t80 -16.5q57 0 103 27.5
t73 71.5l121 -99q-50 -70 -127.5 -112t-169.5 -42zM383 923h166l-126 -145h-110z" />
    <glyph glyph-name="Ccaron" unicode="&#x10c;" horiz-adv-x="709"
d="M397 -8q-75 0 -141 28.5t-115.5 78t-78 115.5t-28.5 141t28.5 141t78 115.5t115.5 78t141 28.5q92 0 169.5 -42t127.5 -112l-121 -99q-27 44 -73 71.5t-103 27.5q-43 0 -80 -16.5t-64 -45t-42.5 -66.5t-15.5 -81t15.5 -81t42.5 -66.5t64 -45t80 -16.5q57 0 103 27.5
t73 71.5l121 -99q-50 -70 -127.5 -112t-169.5 -42zM220 835l41 96l136 -59l136 59l41 -96l-177 -76z" />
    <glyph glyph-name="Ccircumflex" unicode="&#x108;" horiz-adv-x="709"
d="M397 -8q-75 0 -141 28.5t-115.5 78t-78 115.5t-28.5 141t28.5 141t78 115.5t115.5 78t141 28.5q92 0 169.5 -42t127.5 -112l-121 -99q-27 44 -73 71.5t-103 27.5q-43 0 -80 -16.5t-64 -45t-42.5 -66.5t-15.5 -81t15.5 -81t42.5 -66.5t64 -45t80 -16.5q57 0 103 27.5
t73 71.5l121 -99q-50 -70 -127.5 -112t-169.5 -42zM221 855l177 76l177 -76l-41 -96l-136 59l-136 -59z" />
    <glyph glyph-name="Cdotaccent" unicode="&#x10a;" horiz-adv-x="709"
d="M397 -8q-75 0 -141 28.5t-115.5 78t-78 115.5t-28.5 141t28.5 141t78 115.5t115.5 78t141 28.5q92 0 169.5 -42t127.5 -112l-121 -99q-27 44 -73 71.5t-103 27.5q-43 0 -80 -16.5t-64 -45t-42.5 -66.5t-15.5 -81t15.5 -81t42.5 -66.5t64 -45t80 -16.5q57 0 103 27.5
t73 71.5l121 -99q-50 -70 -127.5 -112t-169.5 -42zM398 763q-36 0 -61.5 25.5t-25.5 61.5t25.5 61.5t61.5 25.5t61.5 -25.5t25.5 -61.5t-25.5 -61.5t-61.5 -25.5z" />
    <glyph glyph-name="Dcaron" unicode="&#x10e;" horiz-adv-x="711"
d="M316 146q45 0 81.5 16.5t63 45t41 66.5t14.5 81t-14.5 81t-41 66.5t-63 45t-81.5 16.5h-89v-418h89zM67 710h249q75 0 141 -28t114.5 -76t77 -113t28.5 -138q0 -74 -28.5 -138.5t-77 -112.5t-114.5 -76t-141 -28h-249v710zM128 835l41 96l136 -59l136 59l41 -96l-177 -76
z" />
    <glyph glyph-name="Dcroat" unicode="&#x110;" horiz-adv-x="746"
d="M13 425h89v285h249q75 0 141 -28t114.5 -76t77 -113t28.5 -138q0 -74 -28.5 -138.5t-77 -112.5t-114.5 -76t-141 -28h-249v285h-89v140zM351 146q45 0 81.5 16.5t63 45t41 66.5t14.5 81t-14.5 81t-41 66.5t-63 45t-81.5 16.5h-89v-139h89v-140h-89v-139h89z" />
    <glyph glyph-name="Ebreve" unicode="&#x114;" horiz-adv-x="547"
d="M67 710h440v-158h-280v-120h220v-154h-220v-120h280v-158h-440v710zM287 769q-38 0 -71.5 14.5t-58.5 39.5t-39.5 58.5t-14.5 71.5h86q0 -41 28.5 -69.5t69.5 -28.5t69.5 28.5t28.5 69.5h86q0 -38 -14.5 -71.5t-39.5 -58.5t-58.5 -39.5t-71.5 -14.5z" />
    <glyph glyph-name="Ecaron" unicode="&#x11a;" horiz-adv-x="547"
d="M67 710h440v-158h-280v-120h220v-154h-220v-120h280v-158h-440v710zM110 835l41 96l136 -59l136 59l41 -96l-177 -76z" />
    <glyph glyph-name="Emacron" unicode="&#x112;" horiz-adv-x="547"
d="M67 710h440v-158h-280v-120h220v-154h-220v-120h280v-158h-440v710zM121 898h330v-96h-330v96z" />
    <glyph glyph-name="Eogonek" unicode="&#x118;" horiz-adv-x="547"
d="M67 710h440v-158h-280v-120h220v-154h-220v-120h280v-158h-440v710zM417 -189q-26 0 -47.5 8.5t-37 23t-24 34t-8.5 41.5q0 25 10.5 46t28.5 36h168q-32 -14 -49.5 -25t-17.5 -31q0 -16 9.5 -23t22.5 -7q10 0 20.5 4.5t14.5 8.5v-87q-38 -29 -90 -29z" />
    <glyph glyph-name="Edotaccent" unicode="&#x116;" horiz-adv-x="547"
d="M67 710h440v-158h-280v-120h220v-154h-220v-120h280v-158h-440v710zM287 763q-36 0 -61.5 25.5t-25.5 61.5t25.5 61.5t61.5 25.5t61.5 -25.5t25.5 -61.5t-25.5 -61.5t-61.5 -25.5z" />
    <glyph glyph-name="Gbreve" unicode="&#x11e;" horiz-adv-x="729"
d="M397 -8q-75 0 -141 28.5t-115.5 78t-78 115.5t-28.5 141t28.5 141t78 115.5t115.5 78t141 28.5q92 0 163.5 -35t123.5 -99l-121 -99q-32 41 -70.5 60t-95.5 19q-43 0 -80 -16.5t-64 -45t-42.5 -66.5t-15.5 -81t15.5 -81t42.5 -66.5t64 -45t80 -16.5q44 0 77.5 8t59.5 27
v99h-171l68 150h258v-322q-53 -60 -127 -88t-165 -28zM397 769q-38 0 -71.5 14.5t-58.5 39.5t-39.5 58.5t-14.5 71.5h86q0 -41 28.5 -69.5t69.5 -28.5t69.5 28.5t28.5 69.5h86q0 -38 -14.5 -71.5t-39.5 -58.5t-58.5 -39.5t-71.5 -14.5z" />
    <glyph glyph-name="Gcircumflex" unicode="&#x11c;" horiz-adv-x="729"
d="M397 -8q-75 0 -141 28.5t-115.5 78t-78 115.5t-28.5 141t28.5 141t78 115.5t115.5 78t141 28.5q92 0 163.5 -35t123.5 -99l-121 -99q-32 41 -70.5 60t-95.5 19q-43 0 -80 -16.5t-64 -45t-42.5 -66.5t-15.5 -81t15.5 -81t42.5 -66.5t64 -45t80 -16.5q44 0 77.5 8t59.5 27
v99h-171l68 150h258v-322q-53 -60 -127 -88t-165 -28zM221 855l177 76l177 -76l-41 -96l-136 59l-136 -59z" />
    <glyph glyph-name="Gcommaaccent" unicode="&#x122;" horiz-adv-x="729"
d="M397 -8q-75 0 -141 28.5t-115.5 78t-78 115.5t-28.5 141t28.5 141t78 115.5t115.5 78t141 28.5q92 0 163.5 -35t123.5 -99l-121 -99q-32 41 -70.5 60t-95.5 19q-43 0 -80 -16.5t-64 -45t-42.5 -66.5t-15.5 -81t15.5 -81t42.5 -66.5t64 -45t80 -16.5q44 0 77.5 8t59.5 27
v99h-171l68 150h258v-322q-53 -60 -127 -88t-165 -28zM330 -50h138l-85 -218h-87z" />
    <glyph glyph-name="Gdotaccent" unicode="&#x120;" horiz-adv-x="729"
d="M397 -8q-75 0 -141 28.5t-115.5 78t-78 115.5t-28.5 141t28.5 141t78 115.5t115.5 78t141 28.5q92 0 163.5 -35t123.5 -99l-121 -99q-32 41 -70.5 60t-95.5 19q-43 0 -80 -16.5t-64 -45t-42.5 -66.5t-15.5 -81t15.5 -81t42.5 -66.5t64 -45t80 -16.5q44 0 77.5 8t59.5 27
v99h-171l68 150h258v-322q-53 -60 -127 -88t-165 -28zM398 763q-36 0 -61.5 25.5t-25.5 61.5t25.5 61.5t61.5 25.5t61.5 -25.5t25.5 -61.5t-25.5 -61.5t-61.5 -25.5z" />
    <glyph glyph-name="Hbar" unicode="&#x126;" horiz-adv-x="738"
d="M0 625h67v85h160v-85h284v85h160v-85h67v-108h-67v-517h-160v278h-284v-278h-160v517h-67v108zM511 432v85h-284v-85h284z" />
    <glyph glyph-name="Hcircumflex" unicode="&#x124;" horiz-adv-x="738"
d="M67 710h160v-278h284v278h160v-710h-160v278h-284v-278h-160v710zM192 855l177 76l177 -76l-41 -96l-136 59l-136 -59z" />
    <glyph glyph-name="Ibreve" unicode="&#x12c;" horiz-adv-x="295"
d="M67 710h160v-710h-160v710zM148 769q-38 0 -71.5 14.5t-58.5 39.5t-39.5 58.5t-14.5 71.5h86q0 -41 28.5 -69.5t69.5 -28.5t69.5 28.5t28.5 69.5h86q0 -38 -14.5 -71.5t-39.5 -58.5t-58.5 -39.5t-71.5 -14.5z" />
    <glyph glyph-name="Idotaccent" unicode="&#x130;" horiz-adv-x="295"
d="M67 710h160v-710h-160v710zM149 763q-36 0 -61.5 25.5t-25.5 61.5t25.5 61.5t61.5 25.5t61.5 -25.5t25.5 -61.5t-25.5 -61.5t-61.5 -25.5z" />
    <glyph glyph-name="Imacron" unicode="&#x12a;" horiz-adv-x="295"
d="M67 710h160v-710h-160v710zM-16 898h330v-96h-330v96z" />
    <glyph glyph-name="Iogonek" unicode="&#x12e;" horiz-adv-x="295"
d="M67 710h160v-710h1q-32 -14 -46 -25t-14 -31q0 -16 9.5 -23t22.5 -7q10 0 20.5 4.5t14.5 8.5v-87q-38 -29 -90 -29q-26 0 -47.5 8.5t-37 23t-24 34t-8.5 41.5q0 25 10.5 46t28.5 36v710z" />
    <glyph glyph-name="Itilde" unicode="&#x128;" horiz-adv-x="295"
d="M67 710h160v-710h-160v710zM-40 806q4 28 15.5 49.5t27.5 36.5t35.5 22.5t38.5 7.5q22 0 40 -6.5t33.5 -14t28.5 -13.5t24 -6q17 0 27 9.5t16 32.5h96l-4 -29q-4 -28 -15.5 -49.5t-27.5 -36.5t-35.5 -22.5t-38.5 -7.5q-22 0 -40 6t-33.5 13.5t-28.5 14t-24 6.5
q-17 0 -27 -9.5t-16 -32.5h-96z" />
    <glyph glyph-name="uni1ECA" unicode="&#x1eca;" horiz-adv-x="295"
d="M67 710h160v-710h-160v710zM149 -214q-36 0 -61.5 25.5t-25.5 61.5t25.5 61.5t61.5 25.5t61.5 -25.5t25.5 -61.5t-25.5 -61.5t-61.5 -25.5z" />
    <glyph glyph-name="Jcircumflex" unicode="&#x134;" horiz-adv-x="507"
d="M230 -8q-45 0 -85 12.5t-70 39.5t-47.5 68.5t-17.5 99.5h160q0 -38 15.5 -54.5t44.5 -16.5t44.5 16.5t15.5 54.5v498h160v-508q0 -56 -17.5 -95.5t-47.5 -65t-70 -37.5t-85 -12zM193 855l177 76l177 -76l-41 -96l-136 59l-136 -59z" />
    <glyph glyph-name="Kcommaaccent" unicode="&#x136;" horiz-adv-x="671"
d="M67 710h160v-356l248 356h184l-249 -358l281 -352h-198l-266 333v-333h-160v710zM280 -50h138l-85 -218h-87z" />
    <glyph glyph-name="Lacute" unicode="&#x139;" horiz-adv-x="518"
d="M164 923h166l-126 -145h-110zM67 710h160v-551h276v-159h-436v710z" />
    <glyph glyph-name="Lcaron" unicode="&#x13d;" horiz-adv-x="518"
d="M67 710h160v-551h276v-159h-436v710zM380 550h-102l20 160h151z" />
    <glyph glyph-name="Lcommaaccent" unicode="&#x13b;" horiz-adv-x="518"
d="M67 710h160v-551h276v-159h-436v710zM200 -50h138l-85 -218h-87z" />
    <glyph glyph-name="Ldot" unicode="&#x13f;" horiz-adv-x="518"
d="M67 710h160v-551h276v-159h-436v710zM407 359q-36 0 -61.5 25.5t-25.5 61.5t25.5 61.5t61.5 25.5t61.5 -25.5t25.5 -61.5t-25.5 -61.5t-61.5 -25.5z" />
    <glyph glyph-name="Lslash" unicode="&#x141;" horiz-adv-x="552"
d="M-30 299l131 75v336h160v-245l106 61l65 -114l-171 -98v-155h276v-159h-436v222l-66 -37z" />
    <glyph glyph-name="Eng" unicode="&#x14a;" horiz-adv-x="742"
d="M419 -184v129h26q35 0 52.5 16.5t17.5 54.5v111l-288 244v-371h-160v718l448 -379v371h160v-714q0 -41 -12.5 -74t-36 -56.5t-56.5 -36.5t-73 -13h-78z" />
    <glyph glyph-name="Nacute" unicode="&#x143;" horiz-adv-x="742"
d="M227 371v-371h-160v718l448 -379v371h160v-718zM356 923h166l-126 -145h-110z" />
    <glyph glyph-name="Ncaron" unicode="&#x147;" horiz-adv-x="742"
d="M227 371v-371h-160v718l448 -379v371h160v-718zM195 835l41 96l136 -59l136 59l41 -96l-177 -76z" />
    <glyph glyph-name="Ncommaaccent" unicode="&#x145;" horiz-adv-x="742"
d="M227 371v-371h-160v718l448 -379v371h160v-718zM348 -50h138l-85 -218h-87z" />
    <glyph glyph-name="OE" unicode="&#x152;" horiz-adv-x="1014"
d="M973 710v-158h-272q36 -54 50 -120h179v-154h-179q-13 -65 -50 -120h273v-158h-441v18q-64 -26 -136 -26q-75 0 -141 28.5t-115.5 78t-78 115.5t-28.5 141t28.5 141t78 115.5t115.5 78t141 28.5q36 0 70 -7t66 -20v19h440zM397 146q43 0 80 16.5t64 45t42.5 66.5t15.5 81
t-15.5 81t-42.5 66.5t-64 45t-80 16.5t-80 -16.5t-64 -45t-42.5 -66.5t-15.5 -81t15.5 -81t42.5 -66.5t64 -45t80 -16.5z" />
    <glyph glyph-name="Obreve" unicode="&#x14e;" horiz-adv-x="794"
d="M397 146q43 0 80 16.5t64 45t42.5 66.5t15.5 81t-15.5 81t-42.5 66.5t-64 45t-80 16.5t-80 -16.5t-64 -45t-42.5 -66.5t-15.5 -81t15.5 -81t42.5 -66.5t64 -45t80 -16.5zM397 -8q-75 0 -141 28.5t-115.5 78t-78 115.5t-28.5 141t28.5 141t78 115.5t115.5 78t141 28.5
t141 -28.5t115.5 -78t78 -115.5t28.5 -141t-28.5 -141t-78 -115.5t-115.5 -78t-141 -28.5zM397 769q-38 0 -71.5 14.5t-58.5 39.5t-39.5 58.5t-14.5 71.5h86q0 -41 28.5 -69.5t69.5 -28.5t69.5 28.5t28.5 69.5h86q0 -38 -14.5 -71.5t-39.5 -58.5t-58.5 -39.5t-71.5 -14.5z
" />
    <glyph glyph-name="Ohungarumlaut" unicode="&#x150;" horiz-adv-x="794"
d="M397 146q43 0 80 16.5t64 45t42.5 66.5t15.5 81t-15.5 81t-42.5 66.5t-64 45t-80 16.5t-80 -16.5t-64 -45t-42.5 -66.5t-15.5 -81t15.5 -81t42.5 -66.5t64 -45t80 -16.5zM397 -8q-75 0 -141 28.5t-115.5 78t-78 115.5t-28.5 141t28.5 141t78 115.5t115.5 78t141 28.5
t141 -28.5t115.5 -78t78 -115.5t28.5 -141t-28.5 -141t-78 -115.5t-115.5 -78t-141 -28.5zM308 923h148l-125 -145h-93zM509 923h148l-125 -145h-93z" />
    <glyph glyph-name="Omacron" unicode="&#x14c;" horiz-adv-x="794"
d="M397 146q43 0 80 16.5t64 45t42.5 66.5t15.5 81t-15.5 81t-42.5 66.5t-64 45t-80 16.5t-80 -16.5t-64 -45t-42.5 -66.5t-15.5 -81t15.5 -81t42.5 -66.5t64 -45t80 -16.5zM397 -8q-75 0 -141 28.5t-115.5 78t-78 115.5t-28.5 141t28.5 141t78 115.5t115.5 78t141 28.5
t141 -28.5t115.5 -78t78 -115.5t28.5 -141t-28.5 -141t-78 -115.5t-115.5 -78t-141 -28.5zM232 898h330v-96h-330v96z" />
    <glyph glyph-name="uni1ECC" unicode="&#x1ecc;" horiz-adv-x="794"
d="M397 146q43 0 80 16.5t64 45t42.5 66.5t15.5 81t-15.5 81t-42.5 66.5t-64 45t-80 16.5t-80 -16.5t-64 -45t-42.5 -66.5t-15.5 -81t15.5 -81t42.5 -66.5t64 -45t80 -16.5zM397 -8q-75 0 -141 28.5t-115.5 78t-78 115.5t-28.5 141t28.5 141t78 115.5t115.5 78t141 28.5
t141 -28.5t115.5 -78t78 -115.5t28.5 -141t-28.5 -141t-78 -115.5t-115.5 -78t-141 -28.5zM397 -214q-36 0 -61.5 25.5t-25.5 61.5t25.5 61.5t61.5 25.5t61.5 -25.5t25.5 -61.5t-25.5 -61.5t-61.5 -25.5z" />
    <glyph glyph-name="Racute" unicode="&#x154;" horiz-adv-x="625"
d="M229 288h-2v-288h-160v710h268q43 0 81.5 -16.5t67.5 -45.5t45.5 -67.5t16.5 -81.5q0 -67 -37.5 -120.5t-99.5 -77.5l231 -301h-191zM317 423q32 0 53 20.5t21 49.5t-21 50t-53 21h-90v-141h90zM292 923h166l-126 -145h-110z" />
    <glyph glyph-name="Rcaron" unicode="&#x158;" horiz-adv-x="625"
d="M229 288h-2v-288h-160v710h268q43 0 81.5 -16.5t67.5 -45.5t45.5 -67.5t16.5 -81.5q0 -67 -37.5 -120.5t-99.5 -77.5l231 -301h-191zM317 423q32 0 53 20.5t21 49.5t-21 50t-53 21h-90v-141h90zM104 835l41 96l136 -59l136 59l41 -96l-177 -76z" />
    <glyph glyph-name="Rcommaaccent" unicode="&#x156;" horiz-adv-x="625"
d="M229 288h-2v-288h-160v710h268q43 0 81.5 -16.5t67.5 -45.5t45.5 -67.5t16.5 -81.5q0 -67 -37.5 -120.5t-99.5 -77.5l231 -301h-191zM317 423q32 0 53 20.5t21 49.5t-21 50t-53 21h-90v-141h90zM262 -50h138l-85 -218h-87z" />
    <glyph glyph-name="Sacute" unicode="&#x15a;" horiz-adv-x="520"
d="M272 -8q-86 0 -152 35t-103 104l121 99q23 -37 58.5 -62.5t72.5 -25.5q68 0 68 51q0 24 -19 41.5t-64 37.5l-40 18q-81 36 -123.5 93.5t-42.5 129.5q0 46 18 84t48 65t69 41.5t81 14.5q59 0 106.5 -18.5t92.5 -70.5l-108 -114q-27 33 -46.5 43t-44.5 10
q-20 0 -37.5 -12.5t-17.5 -36.5q0 -28 23.5 -46t72.5 -40l38 -17q74 -33 114.5 -86t40.5 -127q0 -48 -17 -87t-47 -66.5t-71.5 -42.5t-90.5 -15zM267 923h166l-126 -145h-110z" />
    <glyph glyph-name="Scaron" unicode="&#x160;" horiz-adv-x="520"
d="M272 -8q-86 0 -152 35t-103 104l121 99q23 -37 58.5 -62.5t72.5 -25.5q68 0 68 51q0 24 -19 41.5t-64 37.5l-40 18q-81 36 -123.5 93.5t-42.5 129.5q0 46 18 84t48 65t69 41.5t81 14.5q59 0 106.5 -18.5t92.5 -70.5l-108 -114q-27 33 -46.5 43t-44.5 10
q-20 0 -37.5 -12.5t-17.5 -36.5q0 -28 23.5 -46t72.5 -40l38 -17q74 -33 114.5 -86t40.5 -127q0 -48 -17 -87t-47 -66.5t-71.5 -42.5t-90.5 -15zM88 835l41 96l136 -59l136 59l41 -96l-177 -76z" />
    <glyph glyph-name="Scedilla" unicode="&#x15e;" horiz-adv-x="520"
d="M272 -8q-86 0 -152 35t-103 104l121 99q23 -37 58.5 -62.5t72.5 -25.5q68 0 68 51q0 24 -19 41.5t-64 37.5l-40 18q-81 36 -123.5 93.5t-42.5 129.5q0 46 18 84t48 65t69 41.5t81 14.5q59 0 106.5 -18.5t92.5 -70.5l-108 -114q-27 33 -46.5 43t-44.5 10
q-20 0 -37.5 -12.5t-17.5 -36.5q0 -28 23.5 -46t72.5 -40l38 -17q74 -33 114.5 -86t40.5 -127q0 -48 -17 -87t-47 -66.5t-71.5 -42.5t-90.5 -15zM214 0h102l-34 -134h-127z" />
    <glyph glyph-name="Scircumflex" unicode="&#x15c;" horiz-adv-x="520"
d="M272 -8q-86 0 -152 35t-103 104l121 99q23 -37 58.5 -62.5t72.5 -25.5q68 0 68 51q0 24 -19 41.5t-64 37.5l-40 18q-81 36 -123.5 93.5t-42.5 129.5q0 46 18 84t48 65t69 41.5t81 14.5q59 0 106.5 -18.5t92.5 -70.5l-108 -114q-27 33 -46.5 43t-44.5 10
q-20 0 -37.5 -12.5t-17.5 -36.5q0 -28 23.5 -46t72.5 -40l38 -17q74 -33 114.5 -86t40.5 -127q0 -48 -17 -87t-47 -66.5t-71.5 -42.5t-90.5 -15zM88 855l177 76l177 -76l-41 -96l-136 59l-136 -59z" />
    <glyph glyph-name="Scommaaccent" unicode="&#x218;" horiz-adv-x="520"
d="M272 -8q-86 0 -152 35t-103 104l121 99q23 -37 58.5 -62.5t72.5 -25.5q68 0 68 51q0 24 -19 41.5t-64 37.5l-40 18q-81 36 -123.5 93.5t-42.5 129.5q0 46 18 84t48 65t69 41.5t81 14.5q59 0 106.5 -18.5t92.5 -70.5l-108 -114q-27 33 -46.5 43t-44.5 10
q-20 0 -37.5 -12.5t-17.5 -36.5q0 -28 23.5 -46t72.5 -40l38 -17q74 -33 114.5 -86t40.5 -127q0 -48 -17 -87t-47 -66.5t-71.5 -42.5t-90.5 -15zM196 -50h138l-85 -218h-87z" />
    <glyph glyph-name="Tbar" unicode="&#x166;" horiz-adv-x="539"
d="M189 314h-141v128h141v110h-170v158h501v-158h-171v-110h142v-128h-142v-314h-160v314z" />
    <glyph glyph-name="Tcaron" unicode="&#x164;" horiz-adv-x="539"
d="M189 552h-170v158h501v-158h-171v-552h-160v552zM92 835l41 96l136 -59l136 59l41 -96l-177 -76z" />
    <glyph glyph-name="uni0162" unicode="&#x162;" horiz-adv-x="539"
d="M189 552h-170v158h501v-158h-171v-552h-160v552zM201 -50h138l-85 -218h-87z" />
    <glyph glyph-name="Tcommaaccent" unicode="&#x21a;" horiz-adv-x="539"
d="M189 552h-170v158h501v-158h-171v-552h-160v552zM201 -50h138l-85 -218h-87z" />
    <glyph glyph-name="Ubreve" unicode="&#x16c;" horiz-adv-x="702"
d="M351 -8q-64 0 -117.5 21t-92 60t-60 93.5t-21.5 121.5v422h160v-424q0 -65 36 -102.5t95 -37.5t95 37.5t36 102.5v424h160v-422q0 -67 -21.5 -121.5t-60 -93.5t-92 -60t-117.5 -21zM351 769q-38 0 -71.5 14.5t-58.5 39.5t-39.5 58.5t-14.5 71.5h86q0 -41 28.5 -69.5
t69.5 -28.5t69.5 28.5t28.5 69.5h86q0 -38 -14.5 -71.5t-39.5 -58.5t-58.5 -39.5t-71.5 -14.5z" />
    <glyph glyph-name="Uhungarumlaut" unicode="&#x170;" horiz-adv-x="702"
d="M351 -8q-64 0 -117.5 21t-92 60t-60 93.5t-21.5 121.5v422h160v-424q0 -65 36 -102.5t95 -37.5t95 37.5t36 102.5v424h160v-422q0 -67 -21.5 -121.5t-60 -93.5t-92 -60t-117.5 -21zM272 923h148l-125 -145h-93zM473 923h148l-125 -145h-93z" />
    <glyph glyph-name="Umacron" unicode="&#x16a;" horiz-adv-x="702"
d="M351 -8q-64 0 -117.5 21t-92 60t-60 93.5t-21.5 121.5v422h160v-424q0 -65 36 -102.5t95 -37.5t95 37.5t36 102.5v424h160v-422q0 -67 -21.5 -121.5t-60 -93.5t-92 -60t-117.5 -21zM186 898h330v-96h-330v96z" />
    <glyph glyph-name="Uogonek" unicode="&#x172;" horiz-adv-x="702"
d="M365 -189q-26 0 -47.5 8.5t-37 23t-24 34t-8.5 41.5q0 24 10 45t27 36q-51 10 -92.5 34.5t-71 62t-45.5 86t-16 106.5v422h160v-424q0 -65 36 -102.5t95 -37.5t95 37.5t36 102.5v424h160v-422q0 -54 -14 -100t-40.5 -82.5t-63 -62.5t-81.5 -39q-26 -13 -40.5 -27.5
t-14.5 -32.5q0 -16 9.5 -23t22.5 -7q10 0 20.5 4.5t14.5 8.5v-87q-38 -29 -90 -29z" />
    <glyph glyph-name="Uring" unicode="&#x16e;" horiz-adv-x="702"
d="M351 -8q-64 0 -117.5 21t-92 60t-60 93.5t-21.5 121.5v422h160v-424q0 -65 36 -102.5t95 -37.5t95 37.5t36 102.5v424h160v-422q0 -67 -21.5 -121.5t-60 -93.5t-92 -60t-117.5 -21zM351 832q20 0 33.5 13.5t13.5 33.5t-13.5 33.5t-33.5 13.5t-33.5 -13.5t-13.5 -33.5
t13.5 -33.5t33.5 -13.5zM351 759q-25 0 -46.5 9.5t-38 26t-26 38t-9.5 46.5t9.5 46.5t26 38t38 26t46.5 9.5t46.5 -9.5t38 -26t26 -38t9.5 -46.5t-9.5 -46.5t-26 -38t-38 -26t-46.5 -9.5z" />
    <glyph glyph-name="Utilde" unicode="&#x168;" horiz-adv-x="702"
d="M351 -8q-64 0 -117.5 21t-92 60t-60 93.5t-21.5 121.5v422h160v-424q0 -65 36 -102.5t95 -37.5t95 37.5t36 102.5v424h160v-422q0 -67 -21.5 -121.5t-60 -93.5t-92 -60t-117.5 -21zM162 806q4 28 15.5 49.5t27.5 36.5t35.5 22.5t38.5 7.5q22 0 40 -6.5t33.5 -14
t28.5 -13.5t24 -6q17 0 27 9.5t16 32.5h96l-4 -29q-4 -28 -15.5 -49.5t-27.5 -36.5t-35.5 -22.5t-38.5 -7.5q-22 0 -40 6t-33.5 13.5t-28.5 14t-24 6.5q-17 0 -27 -9.5t-16 -32.5h-96z" />
    <glyph glyph-name="uni1EE4" unicode="&#x1ee4;" horiz-adv-x="702"
d="M351 -8q-64 0 -117.5 21t-92 60t-60 93.5t-21.5 121.5v422h160v-424q0 -65 36 -102.5t95 -37.5t95 37.5t36 102.5v424h160v-422q0 -67 -21.5 -121.5t-60 -93.5t-92 -60t-117.5 -21zM351 -214q-36 0 -61.5 25.5t-25.5 61.5t25.5 61.5t61.5 25.5t61.5 -25.5t25.5 -61.5
t-25.5 -61.5t-61.5 -25.5z" />
    <glyph glyph-name="Wacute" unicode="&#x1e82;" horiz-adv-x="876"
d="M5 710h163l110 -333l160 341l160 -341l110 333h163l-246 -718l-187 409l-187 -409zM452 923h166l-126 -145h-110z" />
    <glyph glyph-name="Wcircumflex" unicode="&#x174;" horiz-adv-x="876"
d="M5 710h163l110 -333l160 341l160 -341l110 333h163l-246 -718l-187 409l-187 -409zM261 855l177 76l177 -76l-41 -96l-136 59l-136 -59z" />
    <glyph glyph-name="Wdieresis" unicode="&#x1e84;" horiz-adv-x="876"
d="M5 710h163l110 -333l160 341l160 -341l110 333h163l-246 -718l-187 409l-187 -409zM319 770q-33 0 -56.5 23.5t-23.5 56.5t23.5 56.5t56.5 23.5t56.5 -23.5t23.5 -56.5t-23.5 -56.5t-56.5 -23.5zM557 770q-33 0 -56.5 23.5t-23.5 56.5t23.5 56.5t56.5 23.5t56.5 -23.5
t23.5 -56.5t-23.5 -56.5t-56.5 -23.5z" />
    <glyph glyph-name="Wgrave" unicode="&#x1e80;" horiz-adv-x="876"
d="M5 710h163l110 -333l160 341l160 -341l110 333h163l-246 -718l-187 409l-187 -409zM257 923h166l70 -145h-110z" />
    <glyph glyph-name="Ycircumflex" unicode="&#x176;" horiz-adv-x="656"
d="M248 298l-263 412h187l156 -252l156 252h187l-263 -412v-298h-160v298zM151 855l177 76l177 -76l-41 -96l-136 59l-136 -59z" />
    <glyph glyph-name="Ydieresis" unicode="&#x178;" horiz-adv-x="656"
d="M248 298l-263 412h187l156 -252l156 252h187l-263 -412v-298h-160v298zM209 770q-33 0 -56.5 23.5t-23.5 56.5t23.5 56.5t56.5 23.5t56.5 -23.5t23.5 -56.5t-23.5 -56.5t-56.5 -23.5zM447 770q-33 0 -56.5 23.5t-23.5 56.5t23.5 56.5t56.5 23.5t56.5 -23.5t23.5 -56.5
t-23.5 -56.5t-56.5 -23.5z" />
    <glyph glyph-name="Ygrave" unicode="&#x1ef2;" horiz-adv-x="656"
d="M166 923h166l70 -145h-110zM248 298l-263 412h187l156 -252l156 252h187l-263 -412v-298h-160v298z" />
    <glyph glyph-name="uni0232" unicode="&#x232;" horiz-adv-x="656"
d="M248 298l-263 412h187l156 -252l156 252h187l-263 -412v-298h-160v298zM163 898h330v-96h-330v96z" />
    <glyph glyph-name="Zacute" unicode="&#x179;" horiz-adv-x="624"
d="M337 552h-287v158h560l-329 -552h308v-158h-581zM314 923h166l-126 -145h-110z" />
    <glyph glyph-name="Zcaron" unicode="&#x17d;" horiz-adv-x="624"
d="M337 552h-287v158h560l-329 -552h308v-158h-581zM153 835l41 96l136 -59l136 59l41 -96l-177 -76z" />
    <glyph glyph-name="Zdotaccent" unicode="&#x17b;" horiz-adv-x="624"
d="M337 552h-287v158h560l-329 -552h308v-158h-581zM329 763q-36 0 -61.5 25.5t-25.5 61.5t25.5 61.5t61.5 25.5t61.5 -25.5t25.5 -61.5t-25.5 -61.5t-61.5 -25.5z" />
    <glyph glyph-name="abreve" unicode="&#x103;" horiz-adv-x="594"
d="M384 29q-22 -18 -50.5 -27.5t-59.5 -9.5q-56 0 -100.5 21t-76 56.5t-48.5 82.5t-17 98t17 98t48.5 82.5t76 56.5t100.5 21q31 0 59.5 -10t50.5 -28v30h151v-500h-151v29zM299 130q53 0 85 41v157q-16 20 -36.5 31t-48.5 11q-27 0 -48.5 -9.5t-36 -26t-22.5 -38t-8 -46.5
t8 -46.5t22.5 -38t36 -26t48.5 -9.5zM313 546q-38 0 -71.5 11.5t-58.5 32.5t-39.5 51.5t-14.5 68.5h86q0 -41 28.5 -59.5t69.5 -18.5t69.5 18.5t28.5 59.5h86q0 -38 -14.5 -68.5t-39.5 -51.5t-58.5 -32.5t-71.5 -11.5z" />
    <glyph glyph-name="amacron" unicode="&#x101;" horiz-adv-x="594"
d="M384 29q-22 -18 -50.5 -27.5t-59.5 -9.5q-56 0 -100.5 21t-76 56.5t-48.5 82.5t-17 98t17 98t48.5 82.5t76 56.5t100.5 21q31 0 59.5 -10t50.5 -28v30h151v-500h-151v29zM299 130q53 0 85 41v157q-16 20 -36.5 31t-48.5 11q-27 0 -48.5 -9.5t-36 -26t-22.5 -38t-8 -46.5
t8 -46.5t22.5 -38t36 -26t48.5 -9.5zM158 675h330v-96h-330v96z" />
    <glyph glyph-name="aogonek" unicode="&#x105;" horiz-adv-x="594"
d="M384 29q-22 -18 -50.5 -27.5t-59.5 -9.5q-56 0 -100.5 21t-76 56.5t-48.5 82.5t-17 98t17 98t48.5 82.5t76 56.5t100.5 21q31 0 59.5 -10t50.5 -28v30h151v-500q-32 -15 -44.5 -28.5t-12.5 -27.5q0 -13 8.5 -21.5t21.5 -8.5q10 0 16.5 4.5t10.5 8.5v-87
q-16 -16 -37 -22.5t-46 -6.5q-22 0 -41.5 8.5t-34 23t-23 34t-8.5 41.5q0 25 10.5 46t28.5 36v29zM299 130q53 0 85 41v157q-16 20 -36.5 31t-48.5 11q-27 0 -48.5 -9.5t-36 -26t-22.5 -38t-8 -46.5t8 -46.5t22.5 -38t36 -26t48.5 -9.5z" />
    <glyph glyph-name="cacute" unicode="&#x107;" horiz-adv-x="522"
d="M290 -8q-54 0 -101.5 20.5t-82.5 55.5t-55.5 82t-20.5 100t20.5 100t55.5 82t82.5 55.5t101.5 20.5q69 0 126.5 -32t92.5 -86l-120 -85q-15 28 -40.5 45t-58.5 17q-47 0 -77.5 -32.5t-30.5 -84.5t30.5 -84.5t77.5 -32.5q33 0 58.5 17t40.5 45l120 -85q-35 -54 -92.5 -86
t-126.5 -32zM294 710h173l-143 -155h-110z" />
    <glyph glyph-name="ccaron" unicode="&#x10d;" horiz-adv-x="522"
d="M290 -8q-54 0 -101.5 20.5t-82.5 55.5t-55.5 82t-20.5 100t20.5 100t55.5 82t82.5 55.5t101.5 20.5q69 0 126.5 -32t92.5 -86l-120 -85q-15 28 -40.5 45t-58.5 17q-47 0 -77.5 -32.5t-30.5 -84.5t30.5 -84.5t77.5 -32.5q33 0 58.5 17t40.5 45l120 -85q-35 -54 -92.5 -86
t-126.5 -32zM158 728l130 -62l130 62l48 -91l-178 -91l-178 91z" />
    <glyph glyph-name="ccircumflex" unicode="&#x109;" horiz-adv-x="522"
d="M290 -8q-54 0 -101.5 20.5t-82.5 55.5t-55.5 82t-20.5 100t20.5 100t55.5 82t82.5 55.5t101.5 20.5q69 0 126.5 -32t92.5 -86l-120 -85q-15 28 -40.5 45t-58.5 17q-47 0 -77.5 -32.5t-30.5 -84.5t30.5 -84.5t77.5 -32.5q33 0 58.5 17t40.5 45l120 -85q-35 -54 -92.5 -86
t-126.5 -32zM112 637l178 91l178 -91l-48 -91l-130 62l-130 -62z" />
    <glyph glyph-name="cdotaccent" unicode="&#x10b;" horiz-adv-x="522"
d="M290 -8q-54 0 -101.5 20.5t-82.5 55.5t-55.5 82t-20.5 100t20.5 100t55.5 82t82.5 55.5t101.5 20.5q69 0 126.5 -32t92.5 -86l-120 -85q-15 28 -40.5 45t-58.5 17q-47 0 -77.5 -32.5t-30.5 -84.5t30.5 -84.5t77.5 -32.5q33 0 58.5 17t40.5 45l120 -85q-35 -54 -92.5 -86
t-126.5 -32zM290 560q-36 0 -61.5 25.5t-25.5 61.5t25.5 61.5t61.5 25.5t61.5 -25.5t25.5 -61.5t-25.5 -61.5t-61.5 -25.5z" />
    <glyph glyph-name="dcaron" unicode="&#x10f;" horiz-adv-x="594"
d="M384 29q-22 -18 -50.5 -27.5t-59.5 -9.5q-56 0 -100.5 21t-76 56.5t-48.5 82.5t-17 98t17 98t48.5 82.5t76 56.5t100.5 21q31 0 59.5 -10t50.5 -28v240h151v-710h-151v29zM299 130q53 0 85 41v157q-16 20 -36.5 31t-48.5 11q-27 0 -48.5 -9.5t-36 -26t-22.5 -38t-8 -46.5
t8 -46.5t22.5 -38t36 -26t48.5 -9.5zM667 550h-102l20 160h151z" />
    <glyph glyph-name="dcroat" unicode="&#x111;" horiz-adv-x="594"
d="M254 660h130v50h151v-50h68v-98h-68v-562h-151v29q-22 -18 -50.5 -27.5t-59.5 -9.5q-56 0 -100.5 21t-76 56.5t-48.5 82.5t-17 98t17 98t48.5 82.5t76 56.5t100.5 21q31 0 59.5 -10t50.5 -28v92h-130v98zM299 130q53 0 85 41v157q-16 20 -36.5 31t-48.5 11
q-27 0 -48.5 -9.5t-36 -26t-22.5 -38t-8 -46.5t8 -46.5t22.5 -38t36 -26t48.5 -9.5z" />
    <glyph glyph-name="ebreve" unicode="&#x115;" horiz-adv-x="558"
d="M285 -8q-50 0 -96 18.5t-81 52.5t-56.5 81.5t-21.5 105.5q0 55 18.5 102.5t52.5 82t81.5 54t105.5 19.5q48 0 91.5 -15.5t76.5 -46t53 -75.5t20 -104q0 -22 -3 -44h-351q3 -25 14 -42.5t26.5 -29t33.5 -16.5t35 -5q40 0 66 17.5t41 45.5l120 -81q-35 -54 -93 -87
t-133 -33zM279 387q-14 0 -29.5 -3.5t-30 -12t-26.5 -23.5t-17 -37h204q-6 40 -35 58t-66 18zM287 546q-38 0 -71.5 11.5t-58.5 32.5t-39.5 51.5t-14.5 68.5h86q0 -41 28.5 -59.5t69.5 -18.5t69.5 18.5t28.5 59.5h86q0 -38 -14.5 -68.5t-39.5 -51.5t-58.5 -32.5t-71.5 -11.5
z" />
    <glyph glyph-name="ecaron" unicode="&#x11b;" horiz-adv-x="558"
d="M285 -8q-50 0 -96 18.5t-81 52.5t-56.5 81.5t-21.5 105.5q0 55 18.5 102.5t52.5 82t81.5 54t105.5 19.5q48 0 91.5 -15.5t76.5 -46t53 -75.5t20 -104q0 -22 -3 -44h-351q3 -25 14 -42.5t26.5 -29t33.5 -16.5t35 -5q40 0 66 17.5t41 45.5l120 -81q-35 -54 -93 -87
t-133 -33zM279 387q-14 0 -29.5 -3.5t-30 -12t-26.5 -23.5t-17 -37h204q-6 40 -35 58t-66 18zM158 728l130 -62l130 62l48 -91l-178 -91l-178 91z" />
    <glyph glyph-name="emacron" unicode="&#x113;" horiz-adv-x="558"
d="M285 -8q-50 0 -96 18.5t-81 52.5t-56.5 81.5t-21.5 105.5q0 55 18.5 102.5t52.5 82t81.5 54t105.5 19.5q48 0 91.5 -15.5t76.5 -46t53 -75.5t20 -104q0 -22 -3 -44h-351q3 -25 14 -42.5t26.5 -29t33.5 -16.5t35 -5q40 0 66 17.5t41 45.5l120 -81q-35 -54 -93 -87
t-133 -33zM279 387q-14 0 -29.5 -3.5t-30 -12t-26.5 -23.5t-17 -37h204q-6 40 -35 58t-66 18zM122 675h330v-96h-330v96z" />
    <glyph glyph-name="eogonek" unicode="&#x119;" horiz-adv-x="558"
d="M270 -189q-22 0 -41.5 8.5t-34 23t-23 34t-8.5 41.5q0 47 42 86l-16 6q-46 19 -81 53t-56.5 81.5t-21.5 105.5q0 55 18.5 102.5t52.5 82t81.5 54t105.5 19.5q48 0 91.5 -15.5t76.5 -46t53 -75.5t20 -104q0 -22 -3 -44h-351q3 -25 14 -42.5t26.5 -29t33.5 -16.5t35 -5
q40 0 66 17.5t41 45.5l120 -81q-35 -54 -93 -87q-32 -18 -69 -26q-29 -15 -41 -27q-12 -14 -12 -28q0 -13 8.5 -21.5t21.5 -8.5q10 0 16.5 4.5t10.5 8.5v-87q-16 -16 -37 -22.5t-46 -6.5zM279 387q-14 0 -29.5 -3.5t-30 -12t-26.5 -23.5t-17 -37h204q-6 40 -35 58t-66 18z
" />
    <glyph glyph-name="edotaccent" unicode="&#x117;" horiz-adv-x="558"
d="M285 -8q-50 0 -96 18.5t-81 52.5t-56.5 81.5t-21.5 105.5q0 55 18.5 102.5t52.5 82t81.5 54t105.5 19.5q48 0 91.5 -15.5t76.5 -46t53 -75.5t20 -104q0 -22 -3 -44h-351q3 -25 14 -42.5t26.5 -29t33.5 -16.5t35 -5q40 0 66 17.5t41 45.5l120 -81q-35 -54 -93 -87
t-133 -33zM279 387q-14 0 -29.5 -3.5t-30 -12t-26.5 -23.5t-17 -37h204q-6 40 -35 58t-66 18zM287 560q-36 0 -61.5 25.5t-25.5 61.5t25.5 61.5t61.5 25.5t61.5 -25.5t25.5 -61.5t-25.5 -61.5t-61.5 -25.5z" />
    <glyph glyph-name="gbreve" unicode="&#x11f;" horiz-adv-x="583"
d="M282 -194q-57 0 -114 10.5t-111 45.5l68 133q30 -23 66.5 -37t80.5 -14q22 0 43 4t36.5 13.5t25 24.5t9.5 38q0 8 -2.5 19.5t-10.5 22.5q-22 -18 -51 -28t-60 -10q-57 0 -101 20.5t-74 54t-45.5 76.5t-15.5 89t15.5 89t45.5 76.5t74 54t101 20.5q31 0 59.5 -10t50.5 -28
v30h151v-403q11 -26 16 -50.5t5 -47.5q0 -53 -22.5 -89.5t-59.5 -59.5t-84 -33.5t-96 -10.5zM282 166q56 0 90 42v120q-34 42 -90 42q-25 0 -44.5 -9t-32.5 -23t-20 -32.5t-7 -37.5t7 -37.5t20 -32.5t32.5 -23t44.5 -9zM285 546q-38 0 -71.5 11.5t-58.5 32.5t-39.5 51.5
t-14.5 68.5h86q0 -41 28.5 -59.5t69.5 -18.5t69.5 18.5t28.5 59.5h86q0 -38 -14.5 -68.5t-39.5 -51.5t-58.5 -32.5t-71.5 -11.5z" />
    <glyph glyph-name="gcircumflex" unicode="&#x11d;" horiz-adv-x="583"
d="M282 -194q-57 0 -114 10.5t-111 45.5l68 133q30 -23 66.5 -37t80.5 -14q22 0 43 4t36.5 13.5t25 24.5t9.5 38q0 8 -2.5 19.5t-10.5 22.5q-22 -18 -51 -28t-60 -10q-57 0 -101 20.5t-74 54t-45.5 76.5t-15.5 89t15.5 89t45.5 76.5t74 54t101 20.5q31 0 59.5 -10t50.5 -28
v30h151v-403q11 -26 16 -50.5t5 -47.5q0 -53 -22.5 -89.5t-59.5 -59.5t-84 -33.5t-96 -10.5zM282 166q56 0 90 42v120q-34 42 -90 42q-25 0 -44.5 -9t-32.5 -23t-20 -32.5t-7 -37.5t7 -37.5t20 -32.5t32.5 -23t44.5 -9zM107 637l178 91l178 -91l-48 -91l-130 62l-130 -62z
" />
    <glyph glyph-name="gcommaaccent" unicode="&#x123;" horiz-adv-x="583"
d="M282 -194q-57 0 -114 10.5t-111 45.5l68 133q30 -23 66.5 -37t80.5 -14q22 0 43 4t36.5 13.5t25 24.5t9.5 38q0 8 -2.5 19.5t-10.5 22.5q-22 -18 -51 -28t-60 -10q-57 0 -101 20.5t-74 54t-45.5 76.5t-15.5 89t15.5 89t45.5 76.5t74 54t101 20.5q31 0 59.5 -10t50.5 -28
v30h151v-403q11 -26 16 -50.5t5 -47.5q0 -53 -22.5 -89.5t-59.5 -59.5t-84 -33.5t-96 -10.5zM282 166q56 0 90 42v120q-34 42 -90 42q-25 0 -44.5 -9t-32.5 -23t-20 -32.5t-7 -37.5t7 -37.5t20 -32.5t32.5 -23t44.5 -9zM359.979 541.967h-137.992l84.9951 217.986h86.9941z
" />
    <glyph glyph-name="gdotaccent" unicode="&#x121;" horiz-adv-x="583"
d="M282 -194q-57 0 -114 10.5t-111 45.5l68 133q30 -23 66.5 -37t80.5 -14q22 0 43 4t36.5 13.5t25 24.5t9.5 38q0 8 -2.5 19.5t-10.5 22.5q-22 -18 -51 -28t-60 -10q-57 0 -101 20.5t-74 54t-45.5 76.5t-15.5 89t15.5 89t45.5 76.5t74 54t101 20.5q31 0 59.5 -10t50.5 -28
v30h151v-403q11 -26 16 -50.5t5 -47.5q0 -53 -22.5 -89.5t-59.5 -59.5t-84 -33.5t-96 -10.5zM282 166q56 0 90 42v120q-34 42 -90 42q-25 0 -44.5 -9t-32.5 -23t-20 -32.5t-7 -37.5t7 -37.5t20 -32.5t32.5 -23t44.5 -9zM285 560q-36 0 -61.5 25.5t-25.5 61.5t25.5 61.5
t61.5 25.5t61.5 -25.5t25.5 -61.5t-25.5 -61.5t-61.5 -25.5z" />
    <glyph glyph-name="hbar" unicode="&#x127;"
d="M59 562h-69v98h69v50h151v-50h129v-98h-129v-93q47 39 115 39q53 0 93.5 -17t68.5 -47t42 -72t14 -93v-279h-151v252q0 50 -21.5 84t-70.5 34q-22 0 -46.5 -11t-43.5 -32v-327h-151v562z" />
    <glyph glyph-name="hcircumflex" unicode="&#x125;"
d="M59 710h151v-241q47 39 115 39q53 0 93.5 -17t68.5 -47t42 -72t14 -93v-279h-151v252q0 50 -21.5 84t-70.5 34q-22 0 -46.5 -11t-43.5 -32v-327h-151v710zM127 855l177 76l177 -76l-41 -96l-136 59l-136 -59z" />
    <glyph glyph-name="dotlessi" unicode="&#x131;" horiz-adv-x="270"
d="M59 500h152v-500h-152v500z" />
    <glyph glyph-name="ibreve" unicode="&#x12d;" horiz-adv-x="270"
d="M59 500h152v-500h-152v500zM136 546q-38 0 -71.5 11.5t-58.5 32.5t-39.5 51.5t-14.5 68.5h86q0 -41 28.5 -59.5t69.5 -18.5t69.5 18.5t28.5 59.5h86q0 -38 -14.5 -68.5t-39.5 -51.5t-58.5 -32.5t-71.5 -11.5z" />
    <glyph glyph-name="imacron" unicode="&#x12b;" horiz-adv-x="270"
d="M59 500h152v-500h-152v500zM-29 675h330v-96h-330v96z" />
    <glyph glyph-name="iogonek" unicode="&#x12f;" horiz-adv-x="270"
d="M65 571q-20 23 -20 57q0 38 26 64t64 26t64 -26t26 -64q0 -34 -20 -57h-140zM59 500h151v-500h-151v500zM128 -189q-22 0 -41.5 8.5t-34 23t-23 34t-8.5 41.5q0 25 10.5 46t28.5 36h151q-32 -15 -44.5 -28.5t-12.5 -27.5q0 -13 8.5 -21.5t21.5 -8.5q10 0 16.5 4.5
t10.5 8.5v-87q-16 -16 -37 -22.5t-46 -6.5z" />
    <glyph glyph-name="itilde" unicode="&#x129;" horiz-adv-x="270"
d="M59 500h152v-500h-152v500zM-53 583q4 28 15.5 49.5t27.5 36.5t35.5 22.5t38.5 7.5q22 0 40 -6.5t33.5 -14t28.5 -13.5t24 -6q17 0 27 9.5t16 32.5h96l-4 -29q-4 -28 -15.5 -49.5t-27.5 -36.5t-35.5 -22.5t-38.5 -7.5q-22 0 -40 6t-33.5 13.5t-28.5 14t-24 6.5
q-17 0 -27 -9.5t-16 -32.5h-96z" />
    <glyph glyph-name="uni1ECB" unicode="&#x1ecb;" horiz-adv-x="270"
d="M65 571q-20 23 -20 57q0 38 26 64t64 26t64 -26t26 -64q0 -34 -20 -57h-140zM59 500h151v-500h-151v500zM136 -214q-36 0 -61.5 25.5t-25.5 61.5t25.5 61.5t61.5 25.5t61.5 -25.5t25.5 -61.5t-25.5 -61.5t-61.5 -25.5z" />
    <glyph glyph-name="dotlessj" unicode="&#x237;" horiz-adv-x="270"
d="M-45 -41h25q36 0 57.5 12t21.5 48v481h152v-500q0 -46 -16 -80.5t-45 -57.5t-70 -34.5t-90 -11.5h-35v143z" />
    <glyph glyph-name="jcircumflex" unicode="&#x135;" horiz-adv-x="270"
d="M-45 -41h25q36 0 57.5 12t21.5 48v481h152v-500q0 -46 -16 -80.5t-45 -57.5t-70 -34.5t-90 -11.5h-35v143zM-42 637l178 91l178 -91l-48 -91l-130 62l-130 -62z" />
    <glyph glyph-name="kcommaaccent" unicode="&#x137;" horiz-adv-x="561"
d="M59 710h151v-438l163 228h174l-170 -237l196 -263h-178l-185 249v-249h-151v710zM237 -50h138l-85 -218h-87z" />
    <glyph glyph-name="lacute" unicode="&#x13a;" horiz-adv-x="270"
d="M59 710h151v-710h-151v710zM128 923h166l-126 -145h-110z" />
    <glyph glyph-name="lcaron" unicode="&#x13e;" horiz-adv-x="269"
d="M59 710h151v-710h-151v710zM342 550h-102l20 160h151z" />
    <glyph glyph-name="lcommaaccent" unicode="&#x13c;" horiz-adv-x="270"
d="M59 710h151v-710h-151v710zM67 -50h138l-85 -218h-87z" />
    <glyph glyph-name="ldot" unicode="&#x140;" horiz-adv-x="413"
d="M342 289q-36 0 -61.5 25.5t-25.5 61.5t25.5 61.5t61.5 25.5t61.5 -25.5t25.5 -61.5t-25.5 -61.5t-61.5 -25.5zM59 710h151v-710h-151v710z" />
    <glyph glyph-name="lslash" unicode="&#x142;" horiz-adv-x="376"
d="M-11 304l123 70v336h151v-250l72 41l56 -98l-128 -73v-330h-151v244l-67 -38z" />
    <glyph glyph-name="eng" unicode="&#x14b;"
d="M59 500h151v-31q47 39 115 39q53 0 93.5 -17t68.5 -47t42 -72t14 -93v-267v-9v-3q-2 -42 -17 -76t-40.5 -58t-60.5 -37t-78 -13h-60v143h39q32 0 48 13.5t18 45.5v244q-2 47 -23.5 77.5t-68.5 30.5q-22 0 -46.5 -11t-43.5 -32v-327h-151v500z" />
    <glyph glyph-name="nacute" unicode="&#x144;"
d="M59 500h151v-31q47 39 115 39q53 0 93.5 -17t68.5 -47t42 -72t14 -93v-279h-151v252q0 50 -21.5 84t-70.5 34q-22 0 -46.5 -11t-43.5 -32v-327h-151v500zM297 710h173l-143 -155h-110z" />
    <glyph glyph-name="ncaron" unicode="&#x148;"
d="M59 500h151v-31q47 39 115 39q53 0 93.5 -17t68.5 -47t42 -72t14 -93v-279h-151v252q0 50 -21.5 84t-70.5 34q-22 0 -46.5 -11t-43.5 -32v-327h-151v500zM178 728l130 -62l130 62l48 -91l-178 -91l-178 91z" />
    <glyph glyph-name="ncommaaccent" unicode="&#x146;"
d="M59 500h151v-31q47 39 115 39q53 0 93.5 -17t68.5 -47t42 -72t14 -93v-279h-151v252q0 50 -21.5 84t-70.5 34q-22 0 -46.5 -11t-43.5 -32v-327h-151v500zM232 -50h138l-85 -218h-87z" />
    <glyph glyph-name="oe" unicode="&#x153;" horiz-adv-x="926"
d="M290 -8q-54 0 -101.5 20.5t-82.5 55.5t-55.5 82t-20.5 100t20.5 100t55.5 82t82.5 55.5t101.5 20.5q53 0 99 -19.5t81 -53.5q34 35 81 54t105 19q48 0 91.5 -15.5t76.5 -46t53 -75.5t20 -104q0 -22 -3 -44h-351q3 -25 14 -42.5t26.5 -29t33.5 -16.5t35 -5q40 0 66 17.5
t41 45.5l120 -81q-35 -54 -93 -87t-133 -33q-51 0 -98 19.5t-82 54.5q-35 -35 -82 -54.5t-101 -19.5zM290 133q47 0 77.5 32.5t30.5 84.5t-30.5 84.5t-77.5 32.5t-77.5 -32.5t-30.5 -84.5t30.5 -84.5t77.5 -32.5zM647 387q-14 0 -29.5 -3.5t-30 -12t-26.5 -23.5t-17 -37h204
q-6 40 -35 58t-66 18z" />
    <glyph glyph-name="obreve" unicode="&#x14f;" horiz-adv-x="580"
d="M290 133q47 0 77.5 32.5t30.5 84.5t-30.5 84.5t-77.5 32.5t-77.5 -32.5t-30.5 -84.5t30.5 -84.5t77.5 -32.5zM290 -8q-54 0 -101.5 20.5t-82.5 55.5t-55.5 82t-20.5 100t20.5 100t55.5 82t82.5 55.5t101.5 20.5t101.5 -20.5t82.5 -55.5t55.5 -82t20.5 -100t-20.5 -100
t-55.5 -82t-82.5 -55.5t-101.5 -20.5zM290 546q-38 0 -71.5 11.5t-58.5 32.5t-39.5 51.5t-14.5 68.5h86q0 -41 28.5 -59.5t69.5 -18.5t69.5 18.5t28.5 59.5h86q0 -38 -14.5 -68.5t-39.5 -51.5t-58.5 -32.5t-71.5 -11.5z" />
    <glyph glyph-name="ohungarumlaut" unicode="&#x151;" horiz-adv-x="580"
d="M290 133q47 0 77.5 32.5t30.5 84.5t-30.5 84.5t-77.5 32.5t-77.5 -32.5t-30.5 -84.5t30.5 -84.5t77.5 -32.5zM290 -8q-54 0 -101.5 20.5t-82.5 55.5t-55.5 82t-20.5 100t20.5 100t55.5 82t82.5 55.5t101.5 20.5t101.5 -20.5t82.5 -55.5t55.5 -82t20.5 -100t-20.5 -100
t-55.5 -82t-82.5 -55.5t-101.5 -20.5zM215 710h143l-143 -155h-80zM407 710h143l-143 -155h-80z" />
    <glyph glyph-name="omacron" unicode="&#x14d;" horiz-adv-x="580"
d="M290 133q47 0 77.5 32.5t30.5 84.5t-30.5 84.5t-77.5 32.5t-77.5 -32.5t-30.5 -84.5t30.5 -84.5t77.5 -32.5zM290 -8q-54 0 -101.5 20.5t-82.5 55.5t-55.5 82t-20.5 100t20.5 100t55.5 82t82.5 55.5t101.5 20.5t101.5 -20.5t82.5 -55.5t55.5 -82t20.5 -100t-20.5 -100
t-55.5 -82t-82.5 -55.5t-101.5 -20.5zM125 675h330v-96h-330v96z" />
    <glyph glyph-name="uni1ECD" unicode="&#x1ecd;" horiz-adv-x="580"
d="M290 133q47 0 77.5 32.5t30.5 84.5t-30.5 84.5t-77.5 32.5t-77.5 -32.5t-30.5 -84.5t30.5 -84.5t77.5 -32.5zM290 -8q-54 0 -101.5 20.5t-82.5 55.5t-55.5 82t-20.5 100t20.5 100t55.5 82t82.5 55.5t101.5 20.5t101.5 -20.5t82.5 -55.5t55.5 -82t20.5 -100t-20.5 -100
t-55.5 -82t-82.5 -55.5t-101.5 -20.5zM290 -214q-36 0 -61.5 25.5t-25.5 61.5t25.5 61.5t61.5 25.5t61.5 -25.5t25.5 -61.5t-25.5 -61.5t-61.5 -25.5z" />
    <glyph glyph-name="racute" unicode="&#x155;" horiz-adv-x="392"
d="M59 500h151v-44q43 52 114 52q12 0 26 -1.5t28 -6.5v-157q-17 9 -37 13t-40 4q-23 0 -48 -8.5t-43 -24.5v-327h-151v500zM214 710h173l-143 -155h-110z" />
    <glyph glyph-name="rcaron" unicode="&#x159;" horiz-adv-x="392"
d="M59 500h151v-44q43 52 114 52q12 0 26 -1.5t28 -6.5v-157q-17 9 -37 13t-40 4q-23 0 -48 -8.5t-43 -24.5v-327h-151v500zM90 728l130 -62l130 62l48 -91l-178 -91l-178 91z" />
    <glyph glyph-name="rcommaaccent" unicode="&#x157;" horiz-adv-x="392"
d="M59 500h151v-44q43 52 114 52q12 0 26 -1.5t28 -6.5v-157q-17 9 -37 13t-40 4q-23 0 -48 -8.5t-43 -24.5v-327h-151v500zM65 -50h138l-85 -218h-87z" />
    <glyph glyph-name="sacute" unicode="&#x15b;" horiz-adv-x="415"
d="M207 -8q-66 0 -117.5 24.5t-83.5 81.5l115 78q15 -27 36.5 -44t55.5 -17q16 0 27.5 4.5t11.5 18.5t-13 22t-50 22l-26 10q-132 52 -132 161q0 34 13.5 63t36.5 49t54.5 31.5t67.5 11.5q48 0 88.5 -18.5t69.5 -60.5l-86 -85q-14 20 -31.5 32.5t-40.5 12.5
q-15 0 -25.5 -5.5t-10.5 -17.5q0 -15 14 -23t52 -22l21 -8q72 -27 103 -66.5t31 -95.5q0 -38 -14 -68t-38.5 -50t-57.5 -30.5t-71 -10.5zM215 710h173l-143 -155h-110z" />
    <glyph glyph-name="scaron" unicode="&#x161;" horiz-adv-x="415"
d="M207 -8q-66 0 -117.5 24.5t-83.5 81.5l115 78q15 -27 36.5 -44t55.5 -17q16 0 27.5 4.5t11.5 18.5t-13 22t-50 22l-26 10q-132 52 -132 161q0 34 13.5 63t36.5 49t54.5 31.5t67.5 11.5q48 0 88.5 -18.5t69.5 -60.5l-86 -85q-14 20 -31.5 32.5t-40.5 12.5
q-15 0 -25.5 -5.5t-10.5 -17.5q0 -15 14 -23t52 -22l21 -8q72 -27 103 -66.5t31 -95.5q0 -38 -14 -68t-38.5 -50t-57.5 -30.5t-71 -10.5zM75 728l130 -62l130 62l48 -91l-178 -91l-178 91z" />
    <glyph glyph-name="scedilla" unicode="&#x15f;" horiz-adv-x="415"
d="M207 -8q-66 0 -117.5 24.5t-83.5 81.5l115 78q15 -27 36.5 -44t55.5 -17q16 0 27.5 4.5t11.5 18.5t-13 22t-50 22l-26 10q-132 52 -132 161q0 34 13.5 63t36.5 49t54.5 31.5t67.5 11.5q48 0 88.5 -18.5t69.5 -60.5l-86 -85q-14 20 -31.5 32.5t-40.5 12.5
q-15 0 -25.5 -5.5t-10.5 -17.5q0 -15 14 -23t52 -22l21 -8q72 -27 103 -66.5t31 -95.5q0 -38 -14 -68t-38.5 -50t-57.5 -30.5t-71 -10.5zM156 0h102l-34 -134h-127z" />
    <glyph glyph-name="scircumflex" unicode="&#x15d;" horiz-adv-x="415"
d="M207 -8q-66 0 -117.5 24.5t-83.5 81.5l115 78q15 -27 36.5 -44t55.5 -17q16 0 27.5 4.5t11.5 18.5t-13 22t-50 22l-26 10q-132 52 -132 161q0 34 13.5 63t36.5 49t54.5 31.5t67.5 11.5q48 0 88.5 -18.5t69.5 -60.5l-86 -85q-14 20 -31.5 32.5t-40.5 12.5
q-15 0 -25.5 -5.5t-10.5 -17.5q0 -15 14 -23t52 -22l21 -8q72 -27 103 -66.5t31 -95.5q0 -38 -14 -68t-38.5 -50t-57.5 -30.5t-71 -10.5zM20 637l178 91l178 -91l-48 -91l-130 62l-130 -62z" />
    <glyph glyph-name="scommaaccent" unicode="&#x219;" horiz-adv-x="415"
d="M207 -8q-66 0 -117.5 24.5t-83.5 81.5l115 78q15 -27 36.5 -44t55.5 -17q16 0 27.5 4.5t11.5 18.5t-13 22t-50 22l-26 10q-132 52 -132 161q0 34 13.5 63t36.5 49t54.5 31.5t67.5 11.5q48 0 88.5 -18.5t69.5 -60.5l-86 -85q-14 20 -31.5 32.5t-40.5 12.5
q-15 0 -25.5 -5.5t-10.5 -17.5q0 -15 14 -23t52 -22l21 -8q72 -27 103 -66.5t31 -95.5q0 -38 -14 -68t-38.5 -50t-57.5 -30.5t-71 -10.5zM129 -50h138l-85 -218h-87z" />
    <glyph glyph-name="tbar" unicode="&#x167;" horiz-adv-x="412"
d="M-12 500h98v75l151 75v-150h158l-33 -132h-125v-63h141v-88h-141v-20q0 -32 13.5 -45.5t44.5 -13.5h82v-138h-138q-71 0 -112 41t-41 113v63h-80v88h80v63h-65z" />
    <glyph glyph-name="tcaron" unicode="&#x165;" horiz-adv-x="412"
d="M-12 500h98v75l151 75v-150h158l-33 -132h-125v-171q0 -32 13.5 -45.5t44.5 -13.5h82v-138h-138q-71 0 -112 41t-41 113v214h-65zM390 550h-102l20 160h151z" />
    <glyph glyph-name="uni0163" unicode="&#x163;" horiz-adv-x="412"
d="M-12 500h98v75l151 75v-150h158l-33 -132h-125v-171q0 -32 13.5 -45.5t44.5 -13.5h82v-138h-138q-71 0 -112 41t-41 113v214h-65zM161 -50h138l-85 -218h-87z" />
    <glyph glyph-name="tcommaaccent" unicode="&#x21b;" horiz-adv-x="412"
d="M-12 500h98v75l151 75v-150h158l-33 -132h-125v-171q0 -32 13.5 -45.5t44.5 -13.5h82v-138h-138q-71 0 -112 41t-41 113v214h-65zM161 -50h138l-85 -218h-87z" />
    <glyph glyph-name="ubreve" unicode="&#x16d;"
d="M387 37q-23 -22 -55 -33.5t-64 -11.5q-51 0 -90.5 16.5t-67 47t-42 72.5t-14.5 93v279h151v-252q0 -51 21.5 -84.5t66.5 -33.5q28 0 53.5 13t40.5 37v320h151v-500h-151v37zM296 546q-38 0 -71.5 11.5t-58.5 32.5t-39.5 51.5t-14.5 68.5h86q0 -41 28.5 -59.5t69.5 -18.5
t69.5 18.5t28.5 59.5h86q0 -38 -14.5 -68.5t-39.5 -51.5t-58.5 -32.5t-71.5 -11.5z" />
    <glyph glyph-name="uhungarumlaut" unicode="&#x171;"
d="M387 37q-23 -22 -55 -33.5t-64 -11.5q-51 0 -90.5 16.5t-67 47t-42 72.5t-14.5 93v279h151v-252q0 -51 21.5 -84.5t66.5 -33.5q28 0 53.5 13t40.5 37v320h151v-500h-151v37zM229 710h143l-143 -155h-80zM421 710h143l-143 -155h-80z" />
    <glyph glyph-name="umacron" unicode="&#x16b;"
d="M387 37q-23 -22 -55 -33.5t-64 -11.5q-51 0 -90.5 16.5t-67 47t-42 72.5t-14.5 93v279h151v-252q0 -51 21.5 -84.5t66.5 -33.5q28 0 53.5 13t40.5 37v320h151v-500h-151v37zM131 675h330v-96h-330v96z" />
    <glyph glyph-name="uogonek" unicode="&#x173;"
d="M387 37q-23 -22 -55 -33.5t-64 -11.5q-51 0 -90.5 16.5t-67 47t-42 72.5t-14.5 93v279h151v-252q0 -51 21.5 -84.5t66.5 -33.5q28 0 53.5 13t40.5 37v320h151v-500h-151v37zM455 -189q-22 0 -41.5 8.5t-34 23t-23 34t-8.5 41.5q0 25 10.5 46t28.5 36h151
q-32 -15 -44.5 -28.5t-12.5 -27.5q0 -13 8.5 -21.5t21.5 -8.5q10 0 16.5 4.5t10.5 8.5v-87q-16 -16 -37 -22.5t-46 -6.5z" />
    <glyph glyph-name="uring" unicode="&#x16f;"
d="M387 37q-23 -22 -55 -33.5t-64 -11.5q-51 0 -90.5 16.5t-67 47t-42 72.5t-14.5 93v279h151v-252q0 -51 21.5 -84.5t66.5 -33.5q28 0 53.5 13t40.5 37v320h151v-500h-151v37zM296 619q20 0 33.5 13.5t13.5 33.5t-13.5 33.5t-33.5 13.5t-33.5 -13.5t-13.5 -33.5t13.5 -33.5
t33.5 -13.5zM296 546q-25 0 -46.5 9.5t-38 26t-26 38t-9.5 46.5t9.5 46.5t26 38t38 26t46.5 9.5t46.5 -9.5t38 -26t26 -38t9.5 -46.5t-9.5 -46.5t-26 -38t-38 -26t-46.5 -9.5z" />
    <glyph glyph-name="utilde" unicode="&#x169;"
d="M387 37q-23 -22 -55 -33.5t-64 -11.5q-51 0 -90.5 16.5t-67 47t-42 72.5t-14.5 93v279h151v-252q0 -51 21.5 -84.5t66.5 -33.5q28 0 53.5 13t40.5 37v320h151v-500h-151v37zM117 583q4 28 15.5 49.5t27.5 36.5t35.5 22.5t38.5 7.5q22 0 40 -6.5t33.5 -14t28.5 -13.5
t24 -6q17 0 27 9.5t16 32.5h96l-4 -29q-4 -28 -15.5 -49.5t-27.5 -36.5t-35.5 -22.5t-38.5 -7.5q-22 0 -40 6t-33.5 13.5t-28.5 14t-24 6.5q-17 0 -27 -9.5t-16 -32.5h-96z" />
    <glyph glyph-name="uni1EE5" unicode="&#x1ee5;"
d="M387 37q-23 -22 -55 -33.5t-64 -11.5q-51 0 -90.5 16.5t-67 47t-42 72.5t-14.5 93v279h151v-252q0 -51 21.5 -84.5t66.5 -33.5q28 0 53.5 13t40.5 37v320h151v-500h-151v37zM296 -214q-36 0 -61.5 25.5t-25.5 61.5t25.5 61.5t61.5 25.5t61.5 -25.5t25.5 -61.5
t-25.5 -61.5t-61.5 -25.5z" />
    <glyph glyph-name="wacute" unicode="&#x1e83;" horiz-adv-x="730"
d="M0 500h159l83 -281l123 289l123 -289l83 281h159l-159 -500h-115l-91 205l-91 -205h-115zM390 710h173l-143 -155h-110z" />
    <glyph glyph-name="wcircumflex" unicode="&#x175;" horiz-adv-x="730"
d="M0 500h159l83 -281l123 289l123 -289l83 281h159l-159 -500h-115l-91 205l-91 -205h-115zM187 637l178 91l178 -91l-48 -91l-130 62l-130 -62z" />
    <glyph glyph-name="wdieresis" unicode="&#x1e85;" horiz-adv-x="730"
d="M0 500h159l83 -281l123 289l123 -289l83 281h159l-159 -500h-115l-91 205l-91 -205h-115zM246 567q-33 0 -56.5 23.5t-23.5 56.5t23.5 56.5t56.5 23.5t56.5 -23.5t23.5 -56.5t-23.5 -56.5t-56.5 -23.5zM484 567q-33 0 -56.5 23.5t-23.5 56.5t23.5 56.5t56.5 23.5
t56.5 -23.5t23.5 -56.5t-23.5 -56.5t-56.5 -23.5z" />
    <glyph glyph-name="wgrave" unicode="&#x1e81;" horiz-adv-x="730"
d="M0 500h159l83 -281l123 289l123 -289l83 281h159l-159 -500h-115l-91 205l-91 -205h-115zM167 710h173l80 -155h-110z" />
    <glyph glyph-name="ycircumflex" unicode="&#x177;" horiz-adv-x="518"
d="M179 0l-184 500h160l104 -316l104 316h160l-252 -684h-160zM81 637l178 91l178 -91l-48 -91l-130 62l-130 -62z" />
    <glyph glyph-name="ygrave" unicode="&#x1ef3;" horiz-adv-x="518"
d="M179 0l-184 500h160l104 -316l104 316h160l-252 -684h-160zM92 710h173l80 -155h-110z" />
    <glyph glyph-name="uni0233" unicode="&#x233;" horiz-adv-x="518"
d="M179 0l-184 500h160l104 -316l104 316h160l-252 -684h-160zM94 675h330v-96h-330v96z" />
    <glyph glyph-name="zacute" unicode="&#x17a;" horiz-adv-x="513"
d="M244 370h-202v130h454l-231 -369h216v-131h-469zM263 710h173l-143 -155h-110z" />
    <glyph glyph-name="zcaron" unicode="&#x17e;" horiz-adv-x="513"
d="M244 370h-202v130h454l-231 -369h216v-131h-469zM139 728l130 -62l130 62l48 -91l-178 -91l-178 91z" />
    <glyph glyph-name="zdotaccent" unicode="&#x17c;" horiz-adv-x="513"
d="M244 370h-202v130h454l-231 -369h216v-131h-469zM268 560q-36 0 -61.5 25.5t-25.5 61.5t25.5 61.5t61.5 25.5t61.5 -25.5t25.5 -61.5t-25.5 -61.5t-61.5 -25.5z" />
    <glyph glyph-name="ellipsis" unicode="&#x2026;" horiz-adv-x="858"
d="M137 -8q-23 0 -42.5 8.5t-34 23t-23 34t-8.5 42.5q0 22 8.5 42t23 34.5t34 23t42.5 8.5q22 0 42 -8.5t34.5 -23t23 -34.5t8.5 -42q0 -23 -8.5 -42.5t-23 -34t-34.5 -23t-42 -8.5zM422 -8q-23 0 -42.5 8.5t-34 23t-23 34t-8.5 42.5q0 22 8.5 42t23 34.5t34 23t42.5 8.5
q22 0 42 -8.5t34.5 -23t23 -34.5t8.5 -42q0 -23 -8.5 -42.5t-23 -34t-34.5 -23t-42 -8.5zM708 -8q-23 0 -42.5 8.5t-34 23t-23 34t-8.5 42.5q0 22 8.5 42t23 34.5t34 23t42.5 8.5q22 0 42 -8.5t34.5 -23t23 -34.5t8.5 -42q0 -23 -8.5 -42.5t-23 -34t-34.5 -23t-42 -8.5z" />
    <glyph glyph-name="endash" unicode="&#x2013;" horiz-adv-x="570"
d="M43 354h484v-144h-484v144z" />
    <glyph glyph-name="emdash" unicode="&#x2014;" horiz-adv-x="863"
d="M43 354h777v-144h-777v144z" />
    <glyph glyph-name="guilsinglleft" unicode="&#x2039;" horiz-adv-x="340"
d="M34 250l164 241l100 -68l-118 -173l118 -173l-100 -68z" />
    <glyph glyph-name="guilsinglright" unicode="&#x203a;" horiz-adv-x="340"
d="M142 9l-100 68l118 173l-118 173l100 68l164 -241z" />
    <glyph glyph-name="quoteleft" unicode="&#x2018;" horiz-adv-x="308"
d="M174 556h67v-174h-174v174l64 154h87z" />
    <glyph glyph-name="quoteright" unicode="&#x2019;" horiz-adv-x="308"
d="M134 536h-67v174h174v-174l-64 -154h-87z" />
    <glyph glyph-name="quotedblleft" unicode="&#x201c;" horiz-adv-x="532"
d="M174 556h67v-174h-174v174l64 154h87zM398 556h67v-174h-174v174l64 154h87z" />
    <glyph glyph-name="quotedblright" unicode="&#x201d;" horiz-adv-x="532"
d="M134 536h-67v174h174v-174l-64 -154h-87zM358 536h-67v174h174v-174l-64 -154h-87z" />
    <glyph glyph-name="quotesinglbase" unicode="&#x201a;" horiz-adv-x="308"
d="M134 0h-67v174h174v-174l-64 -154h-87z" />
    <glyph glyph-name="quotedblbase" unicode="&#x201e;" horiz-adv-x="532"
d="M134 0h-67v174h174v-174l-64 -154h-87zM358 0h-67v174h174v-174l-64 -154h-87z" />
    <glyph glyph-name="bullet" unicode="&#x2022;" horiz-adv-x="402"
d="M201 166q-28 0 -53 10.5t-43.5 29t-29 43.5t-10.5 53t10.5 53t29 43.5t43.5 29t53 10.5t53 -10.5t43.5 -29t29 -43.5t10.5 -53t-10.5 -53t-29 -43.5t-43.5 -29t-53 -10.5z" />
    <glyph glyph-name="dagger" unicode="&#x2020;" horiz-adv-x="547"
d="M210 392h-170v108h170v210h127v-210h170v-108h-170v-490h-127v490z" />
    <glyph glyph-name="daggerdbl" unicode="&#x2021;" horiz-adv-x="547"
d="M337 -98h-127v210h-170v108h170v172h-170v108h170v210h127v-210h170v-108h-170v-172h170v-108h-170v-210z" />
    <glyph glyph-name="perthousand" unicode="&#x2030;" horiz-adv-x="708"
d="M209 87q18 0 30.5 12.5t12.5 30.5t-12.5 30.5t-30.5 12.5t-30.5 -12.5t-12.5 -30.5t12.5 -30.5t30.5 -12.5zM209 -4q-28 0 -52.5 10.5t-42.5 28.5t-28.5 42.5t-10.5 52.5t10.5 52.5t28.5 43t42.5 29t52.5 10.5t52.5 -10.5t43 -29t29 -43t10.5 -52.5t-10.5 -52.5
t-29 -42.5t-43 -28.5t-52.5 -10.5zM209 536q18 0 30.5 12.5t12.5 30.5t-12.5 30.5t-30.5 12.5t-30.5 -12.5t-12.5 -30.5t12.5 -30.5t30.5 -12.5zM209 445q-28 0 -52.5 10.5t-42.5 28.5t-28.5 42.5t-10.5 52.5t10.5 52.5t28.5 43t42.5 29t52.5 10.5t52.5 -10.5t43 -29t29 -43
t10.5 -52.5t-10.5 -52.5t-29 -42.5t-43 -28.5t-52.5 -10.5zM55 412h598v-114h-598v114zM498 87q18 0 30.5 12.5t12.5 30.5t-12.5 30.5t-30.5 12.5t-30.5 -12.5t-12.5 -30.5t12.5 -30.5t30.5 -12.5zM498 -4q-28 0 -52.5 10.5t-42.5 28.5t-28.5 42.5t-10.5 52.5t10.5 52.5
t28.5 43t42.5 29t52.5 10.5t52.5 -10.5t43 -29t29 -43t10.5 -52.5t-10.5 -52.5t-29 -42.5t-43 -28.5t-52.5 -10.5z" />
    <glyph glyph-name="uni2117" unicode="&#x2117;" horiz-adv-x="794"
d="M533 415q0 -21 -7.5 -41t-21.5 -35t-33 -24.5t-41 -10.5h-40v-117h-90v336h130q22 0 41 -9t33 -24t21.5 -34.5t7.5 -40.5zM414 380q15 0 23 9.5t8 21.5t-7.5 21.5t-22.5 9.5h-27v-62h26zM397 97q53 0 100 20.5t82 55.5t55.5 82t20.5 100t-20.5 100t-55.5 82t-82 55.5
t-100 20.5t-100 -20.5t-82 -55.5t-55.5 -82t-20.5 -100t20.5 -100t55.5 -82t82 -55.5t100 -20.5zM397 -8q-75 0 -141 28.5t-115.5 78t-78 115.5t-28.5 141t28.5 141t78 115.5t115.5 78t141 28.5t141 -28.5t115.5 -78t78 -115.5t28.5 -141t-28.5 -141t-78 -115.5t-115.5 -78
t-141 -28.5z" />
    <glyph glyph-name="trademark" unicode="&#x2122;" horiz-adv-x="758"
d="M342 714l178 -180l178 180v-359h-92v141l-86 -87l-86 87v-141h-92v359zM112 620h-82v90h256v-90h-82v-265h-92v265z" />
    <glyph glyph-name="lozenge" unicode="&#x25ca;" horiz-adv-x="664"
d="M479 355l-147 183l-147 -183l147 -183zM40 355l292 363l292 -363l-292 -363z" />
    <glyph glyph-name="afii61289" unicode="&#x2113;" horiz-adv-x="558"
d="M324 -8q-35 0 -66 7t-56 23t-42.5 41.5t-24.5 61.5l-55 -44l-79 108l129 96v186q0 67 13.5 114t39 76.5t62 43t82.5 13.5q42 0 76 -12.5t58 -35t36.5 -52.5t12.5 -65q0 -50 -13 -88.5t-38 -71t-61 -62.5t-82 -62l-32 -26v-31q0 -48 16.5 -68t50.5 -20q28 0 50 11t42 26
l57 -100q-12 -11 -28.5 -23t-38 -22.5t-48.5 -17t-61 -6.5zM284 399l5 4q38 28 61.5 59.5t23.5 77.5q0 29 -12 42.5t-32 13.5q-26 0 -36 -19.5t-10 -58.5v-119z" />
    <glyph glyph-name="afii61352" unicode="&#x2116;" horiz-adv-x="1094"
d="M756 339h292v-130h-292v130zM902 497q25 0 41 17t16 46t-16 46t-41 17q-24 0 -40.5 -17t-16.5 -46t16.5 -46t40.5 -17zM902 405q-32 0 -60.5 12.5t-49.5 33.5t-33.5 49t-12.5 60q0 31 12.5 59.5t33.5 49.5t49.5 33.5t60.5 12.5t60.5 -12.5t49.5 -33.5t33.5 -49.5
t12.5 -59.5q0 -32 -12.5 -60t-33.5 -49t-49.5 -33.5t-60.5 -12.5zM227 371v-371h-160v718l448 -379v371h160v-718z" />
    <glyph glyph-name="apple" horiz-adv-x="576"
d="M288 -8q-53 0 -100 20.5t-82 55.5t-55.5 82t-20.5 100t20.5 100t55.5 82t82 55.5t100 20.5l-60 -151h88l-52 -137l188 194h-117l33 81q39 -13 71.5 -36.5t56 -56t37 -71t13.5 -81.5q0 -53 -20.5 -100t-55.5 -82t-82 -55.5t-100 -20.5z" />
    <glyph glyph-name="estimated" unicode="&#x212e;" horiz-adv-x="554"
d="M511 143q-11 -32 -31 -59.5t-48.5 -48t-65.5 -32t-82 -11.5q-58 0 -105 20t-80 55.5t-51 83t-18 101.5q0 57 19.5 104t53 81t79 52.5t98.5 18.5q58 0 103.5 -20t76.5 -54.5t47.5 -80.5t16.5 -98h-382v-194q21 -22 62 -36.5t88 -14.5q65 0 118.5 34.5t76.5 98.5h24z
M142 273h270v167q-23 23 -55.5 36.5t-77.5 13.5q-43 0 -78.5 -15t-58.5 -35v-167z" />
    <glyph glyph-name="minus" unicode="&#x2212;" horiz-adv-x="590"
d="M77 339h436v-114h-436v114z" />
    <glyph glyph-name="lessequal" unicode="&#x2264;" horiz-adv-x="590"
d="M60 362l436 212v-126l-177 -86l177 -86v-126zM60 114h436v-114h-436v114z" />
    <glyph glyph-name="greaterequal" unicode="&#x2265;" horiz-adv-x="590"
d="M94 276l177 86l-177 86v126l436 -212l-436 -212v126zM94 114h436v-114h-436v114z" />
    <glyph glyph-name="notequal" unicode="&#x2260;" horiz-adv-x="590"
d="M77 442h265l80 110l91 -66l-32 -44h32v-114h-115l-67 -92h182v-114h-264l-81 -112l-91 66l33 46h-33v114h116l66 92h-182v114z" />
    <glyph glyph-name="approxequal" unicode="&#x2248;" horiz-adv-x="590"
d="M77 211l137 84l162 -94l137 83v-135l-137 -84l-162 94l-137 -83v135zM77 416l137 84l162 -94l137 83v-135l-137 -84l-162 94l-137 -83v135z" />
    <glyph glyph-name="partialdiff" unicode="&#x2202;" horiz-adv-x="544"
d="M272 -8q-50 0 -94 19t-77 51.5t-52 76.5t-19 94q0 48 18 91.5t49 76.5t73 52.5t90 19.5q26 0 55 -8t47 -24q-15 39 -40 66.5t-58.5 44.5t-74.5 24.5t-87 7.5h-10v126h10q97 0 174 -28.5t129.5 -82t80.5 -130.5t28 -174q0 -60 -12 -115t-40.5 -97t-74.5 -66.5t-115 -24.5z
M272 113q25 0 46 9.5t36.5 25.5t24 38t8.5 47t-8.5 47t-24 38t-36.5 25.5t-46 9.5t-46.5 -9.5t-37 -25.5t-24.5 -38t-9 -47t9 -47t24.5 -38t37 -25.5t46.5 -9.5z" />
    <glyph glyph-name="product" unicode="&#x220f;"
d="M77 710h443v-894h-114v780h-215v-780h-114v894z" />
    <glyph glyph-name="radical" unicode="&#x221a;" horiz-adv-x="617"
d="M124 205h-94v114h157l39 -63l206 576h175v-114h-93l-260 -726z" />
    <glyph glyph-name="summation" unicode="&#x2211;" horiz-adv-x="528"
d="M40 -79l242 342l-242 342v105h443v-114h-292l236 -333l-236 -333h292v-114h-443v105z" />
    <glyph glyph-name="integral" unicode="&#x222b;" horiz-adv-x="436"
d="M39 -80h53q36 0 52.5 17t16.5 54v543q0 92 47 138t154 46h35v-114h-53q-36 0 -52.5 -17t-16.5 -54v-543q0 -92 -47 -138t-154 -46h-35v114z" />
    <glyph glyph-name="infinity" unicode="&#x221e;" horiz-adv-x="706"
d="M462 116q-32 0 -60 10.5t-50 30.5q-22 -20 -49.5 -30.5t-59.5 -10.5q-35 0 -65 13t-52.5 35.5t-35.5 52.5t-13 65q0 34 13 64.5t35.5 53.5t52.5 36t65 13q32 0 59.5 -11t49.5 -31q22 20 50 31t60 11q34 0 64.5 -13t53.5 -36t36 -53.5t13 -64.5q0 -35 -13 -65t-36 -52.5
t-53.5 -35.5t-64.5 -13zM462 230q22 0 37.5 15t15.5 37t-15.5 37.5t-37.5 15.5q-21 0 -35.5 -14.5t-16.5 -34.5v-4q0 -22 15 -37t37 -15zM243 230q22 0 37.5 15t15.5 37t-15.5 37.5t-37.5 15.5t-37 -15.5t-15 -37.5t15 -37t37 -15z" />
    <glyph glyph-name="Delta" unicode="&#x394;" horiz-adv-x="806"
d="M403 718l413 -718h-826zM548 155l-145 252l-145 -252h290z" />
    <glyph glyph-name="Delta" unicode="&#x2206;" horiz-adv-x="806"
d="M403 718l413 -718h-826zM548 155l-145 252l-145 -252h290z" />
    <glyph glyph-name="Omega" unicode="&#x3a9;" horiz-adv-x="834"
d="M57 149h72q-18 19 -31.5 43.5t-23.5 52t-15 56t-5 54.5q0 75 28.5 141t78 115.5t115.5 78t141 28.5t141 -28.5t115.5 -78t78 -115.5t28.5 -141q0 -26 -5 -54.5t-15 -56t-23.5 -52t-31.5 -43.5h72v-149h-319v150q35 7 64.5 26t51 46.5t33.5 61t12 71.5q0 43 -15.5 81
t-42.5 66.5t-64 45t-80 16.5t-80 -16.5t-64 -45t-42.5 -66.5t-15.5 -81q0 -38 12 -71.5t33.5 -61t51 -46.5t64.5 -26v-150h-319v149z" />
    <glyph glyph-name="Omega" unicode="&#x2126;" horiz-adv-x="834"
d="M57 149h72q-18 19 -31.5 43.5t-23.5 52t-15 56t-5 54.5q0 75 28.5 141t78 115.5t115.5 78t141 28.5t141 -28.5t115.5 -78t78 -115.5t28.5 -141q0 -26 -5 -54.5t-15 -56t-23.5 -52t-31.5 -43.5h72v-149h-319v150q35 7 64.5 26t51 46.5t33.5 61t12 71.5q0 43 -15.5 81
t-42.5 66.5t-64 45t-80 16.5t-80 -16.5t-64 -45t-42.5 -66.5t-15.5 -81q0 -38 12 -71.5t33.5 -61t51 -46.5t64.5 -26v-150h-319v149z" />
    <glyph glyph-name="pi" unicode="&#x3c0;" horiz-adv-x="690"
d="M436 368h-182v-368h-151v368h-69v132h622v-132h-69v-368h-151v368z" />
    <glyph glyph-name="Euro" unicode="&#x20ac;" horiz-adv-x="709"
d="M47 454h61q16 57 49.5 105.5t79 83.5t102 55t118.5 20t118 -20t102 -55l-48 -142q-28 32 -73.5 54t-97.5 22q-63 0 -114 -33t-77 -90h346l-22 -66h-342q-2 -8 -2 -16.5v-16.5v-17t2 -16h319l-22 -66h-279q26 -58 76.5 -90.5t113.5 -32.5q53 0 92 16t72 44v-162
q-37 -19 -78 -29t-86 -10q-62 0 -118.5 20t-102 55t-79 83.5t-49.5 105.5h-83l22 66h48q-1 8 -1 16.5v16.5v16.5t1 16.5h-70z" />
    <glyph glyph-name="fi" unicode="&#xfb01;" horiz-adv-x="632"
d="M16 500h73q-31 34 -31 83q0 27 9.5 50t27 40t42.5 27t56 10h155v-132h-98q-26 0 -37.5 -11t-11.5 -28t11 -28t28 -11h108v-132h-116v-368h-151v368h-65v132zM427 571q-20 23 -20 57q0 38 26 64t64 26t64 -26t26 -64q0 -34 -20 -57h-140zM421 500h151v-500h-151v500z" />
    <glyph glyph-name="fl" unicode="&#xfb02;" horiz-adv-x="632"
d="M16 500h73q-31 34 -31 83q0 27 9.5 50t27 40t42.5 27t56 10h155v-132h-98q-26 0 -37.5 -11t-11.5 -28t11 -28t28 -11h108v-132h-116v-368h-151v368h-65v132zM421 710h151v-710h-151v710z" />
    <glyph glyph-name="breve" unicode="&#x2d8;" horiz-adv-x="494"
d="M247 546q-38 0 -71.5 11.5t-58.5 32.5t-39.5 51.5t-14.5 68.5h86q0 -41 28.5 -59.5t69.5 -18.5t69.5 18.5t28.5 59.5h86q0 -38 -14.5 -68.5t-39.5 -51.5t-58.5 -32.5t-71.5 -11.5z" />
    <glyph glyph-name="caron" unicode="&#x2c7;" horiz-adv-x="516"
d="M128 728l130 -62l130 62l48 -91l-178 -91l-178 91z" />
    <glyph glyph-name="circumflex" unicode="&#x2c6;" horiz-adv-x="512"
d="M78 637l178 91l178 -91l-48 -91l-130 62l-130 -62z" />
    <glyph glyph-name="dotaccent" unicode="&#x2d9;" horiz-adv-x="324"
d="M162 560q-36 0 -61.5 25.5t-25.5 61.5t25.5 61.5t61.5 25.5t61.5 -25.5t25.5 -61.5t-25.5 -61.5t-61.5 -25.5z" />
    <glyph glyph-name="dotaccent.low" horiz-adv-x="324"
d="M162 -214q-36 0 -61.5 25.5t-25.5 61.5t25.5 61.5t61.5 25.5t61.5 -25.5t25.5 -61.5t-25.5 -61.5t-61.5 -25.5z" />
    <glyph glyph-name="hungarumlaut" unicode="&#x2dd;" horiz-adv-x="595"
d="M180 710h143l-143 -155h-80zM372 710h143l-143 -155h-80z" />
    <glyph glyph-name="commaaccent" horiz-adv-x="352"
d="M130 -50h138l-85 -218h-87z" />
    <glyph glyph-name="ogonek" unicode="&#x2db;" horiz-adv-x="352"
d="M187 -189q-22 0 -41.5 8.5t-34 23t-23 34t-8.5 41.5q0 25 10.5 46t28.5 36h151q-32 -15 -44.5 -28.5t-12.5 -27.5q0 -13 8.5 -21.5t21.5 -8.5q10 0 16.5 4.5t10.5 8.5v-87q-16 -16 -37 -22.5t-46 -6.5z" />
    <glyph glyph-name="ring" unicode="&#x2da;" horiz-adv-x="380"
d="M190 619q20 0 33.5 13.5t13.5 33.5t-13.5 33.5t-33.5 13.5t-33.5 -13.5t-13.5 -33.5t13.5 -33.5t33.5 -13.5zM190 546q-25 0 -46.5 9.5t-38 26t-26 38t-9.5 46.5t9.5 46.5t26 38t38 26t46.5 9.5t46.5 -9.5t38 -26t26 -38t9.5 -46.5t-9.5 -46.5t-26 -38t-38 -26
t-46.5 -9.5z" />
    <glyph glyph-name="tilde" unicode="&#x2dc;" horiz-adv-x="550"
d="M86 583q4 28 15.5 49.5t27.5 36.5t35.5 22.5t38.5 7.5q22 0 40 -6.5t33.5 -14t28.5 -13.5t24 -6q17 0 27 9.5t16 32.5h96l-4 -29q-4 -28 -15.5 -49.5t-27.5 -36.5t-35.5 -22.5t-38.5 -7.5q-22 0 -40 6t-33.5 13.5t-28.5 14t-24 6.5q-17 0 -27 -9.5t-16 -32.5h-96z" />
    <glyph glyph-name="uni032C" unicode="&#x32c;" horiz-adv-x="500"
d="M132 -8l126 -72l126 72l52 -91l-178 -101l-178 101z" />
    <glyph glyph-name="zero.slashed" horiz-adv-x="810"
d="M405 -8q-75 0 -141.5 28.5t-116.5 78t-79 115.5t-29 141t29 141t79 115.5t116.5 78t141.5 28.5t141.5 -28.5t116.5 -78t79 -115.5t29 -141t-29 -141t-79 -115.5t-116.5 -78t-141.5 -28.5zM405 133q47 0 86 17.5t67.5 47.5t44.5 70.5t16 86.5v7l-393 -132q28 -45 74 -71
t105 -26zM191 348l392 133q-28 44 -74 70t-104 26q-47 0 -86 -17.5t-67.5 -47.5t-44.5 -70.5t-16 -86.5v-7z" />
    <glyph glyph-name="one.pof" horiz-adv-x="290"
d="M69 395l152 153v-548h-152v395z" />
    <glyph glyph-name="two.pof" horiz-adv-x="512"
d="M177 178q-47 25 -75.5 70.5t-28.5 102.5q0 41 15.5 77t42.5 62.5t63 42t77 15.5q40 0 76 -15.5t63 -42t43 -62.5t16 -77q0 -50 -24.5 -90.5t-59.5 -69.5l-71 -60h153v-131h-467zM271 295q23 0 39 16t16 40t-16 40t-39 16t-39 -16t-16 -40t16 -40t39 -16z" />
    <glyph glyph-name="three.pof" horiz-adv-x="469"
d="M229 408h-200v132h409l-110 -232q51 -33 82 -87t31 -119q0 -54 -15.5 -99t-46 -77.5t-75.5 -50t-103 -17.5q-39 0 -72.5 10t-60 25.5t-45.5 34.5t-30 36l105 100q6 -10 14.5 -21.5t20.5 -21t27 -16t34 -6.5q44 0 69.5 29.5t25.5 73.5t-25.5 73.5t-69.5 29.5h-61z" />
    <glyph glyph-name="four.pof" horiz-adv-x="564"
d="M329 0h-344l488 548v-423h76v-125h-76v-134h-144v134zM329 125v85l-76 -85h76z" />
    <glyph glyph-name="five.pof" horiz-adv-x="507"
d="M256 -142q-39 0 -72.5 10t-60 25.5t-45.5 34.5t-30 36l105 100q6 -10 14 -21.5t19.5 -21t25.5 -16t32 -6.5q20 0 36 7.5t26.5 20.5t16 29t5.5 33t-5.5 33.5t-17 29t-28 20t-37.5 7.5q-30 0 -50 -14t-30 -36l-92 45v366h359v-132h-215v-97q13 5 29.5 7t24.5 2
q47 0 86.5 -16.5t68 -47t44 -73t15.5 -94.5t-15.5 -94.5t-44.5 -73t-70.5 -47t-93.5 -16.5z" />
    <glyph glyph-name="six.pof" horiz-adv-x="526"
d="M264 -8q-48 0 -91 18t-75.5 49.5t-51 73.5t-18.5 90q0 34 10.5 64.5t25.5 58.5l184 328h171l-124 -222q43 -6 80 -26t64.5 -50.5t43.5 -69.5t16 -83q0 -48 -18.5 -90t-51 -73.5t-75 -49.5t-90.5 -18zM264 133q17 0 32 7.5t26.5 19.5t18 28.5t6.5 34.5t-6.5 34.5t-18 28.5
t-26.5 19.5t-32 7.5q-18 0 -33 -7.5t-26.5 -19.5t-18 -28.5t-6.5 -34.5t6.5 -34.5t18 -28.5t26.5 -19.5t33 -7.5z" />
    <glyph glyph-name="seven.pof" horiz-adv-x="500"
d="M289 408h-261v132h482l-292 -674h-164z" />
    <glyph glyph-name="eight.pof" horiz-adv-x="541"
d="M271 -8q-48 0 -91 18t-75.5 49.5t-51 73.5t-18.5 90q0 51 20 90t55 65q-17 21 -27 48t-10 59q0 41 15.5 77t42.5 62.5t63 42t77 15.5q40 0 76 -15.5t63 -42t43 -62.5t16 -77q0 -33 -10 -60t-28 -47q35 -27 55 -66t20 -89q0 -48 -18.5 -90t-51 -73.5t-75 -49.5t-90.5 -18z
M271 133q17 0 32 7.5t26.5 19.5t18 28.5t6.5 34.5t-6.5 34.5t-18 28.5t-26.5 19.5t-32 7.5h-4q-17 -1 -31.5 -8.5t-25.5 -19.5t-17 -28t-6 -34t6.5 -34.5t18 -28.5t26.5 -19.5t33 -7.5zM275 429q21 2 36 17.5t15 38.5q0 24 -16 40t-39 16t-39 -16t-16 -40t16 -40t39 -16h4z
" />
    <glyph glyph-name="nine.pof" horiz-adv-x="526"
d="M231 88q-43 6 -80 26t-64.5 50.5t-43.5 69.5t-16 83q0 48 18.5 90t51 73.5t75 49.5t90.5 18t91 -18t75.5 -49.5t51 -73.5t18.5 -90q0 -34 -10.5 -64.5t-25.5 -58.5l-184 -328h-171zM262 227q18 0 33 7.5t26.5 19.5t18 28.5t6.5 34.5t-6.5 34.5t-18 28.5t-26.5 19.5
t-33 7.5q-17 0 -32.5 -7.5t-26.5 -19.5t-17.5 -28.5t-6.5 -34.5t6.5 -34.5t17.5 -28.5t26.5 -19.5t32.5 -7.5z" />
    <glyph glyph-name="zero.pof" horiz-adv-x="632"
d="M316 133q28 0 52 11t41 29.5t26.5 43.5t9.5 53t-9.5 53t-26.5 43.5t-41 29.5t-52 11q-29 0 -52.5 -11t-40.5 -29.5t-26.5 -43.5t-9.5 -53t9.5 -53t26.5 -43.5t40.5 -29.5t52.5 -11zM316 -8q-57 0 -108.5 22t-89.5 59.5t-60.5 88.5t-22.5 108t22.5 108t60.5 88.5
t89.5 59.5t108.5 22t108.5 -22t89.5 -59.5t60.5 -88.5t22.5 -108t-22.5 -108t-60.5 -88.5t-89.5 -59.5t-108.5 -22z" />
    <glyph glyph-name="zero.slashed.pof" horiz-adv-x="632"
d="M316 -8q-57 0 -108.5 22t-89.5 59.5t-60.5 88.5t-22.5 108t22.5 108t60.5 88.5t89.5 59.5t108.5 22t108.5 -22t89.5 -59.5t60.5 -88.5t22.5 -108t-22.5 -108t-60.5 -88.5t-89.5 -59.5t-108.5 -22zM316 133q27 0 50 10t40 27.5t27 41t12 50.5l-231 -79q17 -23 43.5 -36.5
t58.5 -13.5zM316 407q-27 0 -50.5 -10t-40.5 -27.5t-27 -41t-11 -50.5l229 79q-17 23 -42.5 36.5t-57.5 13.5z" />
    <glyph glyph-name="one.tlf" horiz-adv-x="590"
d="M94 141h138v428h-87v141h239v-569h138v-141h-428v141z" />
    <glyph glyph-name="two.tlf" horiz-adv-x="590"
d="M222 269q-36 11 -66 32.5t-51.5 50t-34 63.5t-12.5 74q0 48 18.5 90t51 72.5t75 48.5t90.5 18t91 -18t75 -48.5t51 -72.5t19 -90q0 -42 -14.5 -79t-39.5 -67l-163 -202h216v-141h-524zM293 400q38 0 61 26.5t23 62.5t-23 62t-61 26t-60.5 -26t-22.5 -62t22.5 -62.5
t60.5 -26.5z" />
    <glyph glyph-name="three.tlf" horiz-adv-x="590"
d="M267 -8q-68 0 -124.5 26.5t-92.5 73.5l107 99q17 -25 41 -41.5t59 -16.5q50 0 79 28.5t29 78.5t-29 78.5t-79 28.5h-72l105 222h-207v141h429l-118 -250q58 -30 91 -86.5t33 -133.5q0 -56 -18 -102t-51 -78.5t-79.5 -50t-102.5 -17.5z" />
    <glyph glyph-name="four.tlf" horiz-adv-x="590"
d="M341 160h-356l508 558v-426h66v-132h-66v-160h-152v160zM341 292v85l-78 -85h78z" />
    <glyph glyph-name="five.tlf" horiz-adv-x="590"
d="M288 -8q-69 0 -125.5 26t-91.5 74l110 102q14 -22 37.5 -41.5t59.5 -19.5q23 0 41 8t30.5 21t19 30.5t6.5 36.5t-6.5 36.5t-19 30.5t-30.5 21t-41 8q-35 0 -57.5 -16.5t-32.5 -42.5l-98 41v403h387v-141h-235v-106q22 3 46 3q54 0 98 -17t75.5 -47.5t49 -74.5t17.5 -98
t-17.5 -98t-49 -74.5t-75.5 -47.5t-98 -17z" />
    <glyph glyph-name="six.tlf" horiz-adv-x="590"
d="M293 -8q-53 0 -98.5 18t-79 50t-52.5 75.5t-19 93.5q0 39 14 72.5t31 65.5l187 343h169l-134 -245q50 -3 92.5 -22.5t73 -51t48 -73t17.5 -89.5q0 -50 -19 -93.5t-52.5 -75.5t-79 -50t-98.5 -18zM293 325q-23 0 -41 -8t-30.5 -21t-19 -30.5t-6.5 -36.5t6.5 -36.5
t19 -30.5t30.5 -21t41 -8t41 8t30.5 21t19 30.5t6.5 36.5t-6.5 36.5t-19 30.5t-30.5 21t-41 8z" />
    <glyph glyph-name="seven.tlf" horiz-adv-x="590"
d="M333 569h-264v141h492l-322 -710h-164z" />
    <glyph glyph-name="eight.tlf" horiz-adv-x="590"
d="M295 -8q-53 0 -98.5 18t-79 50t-52.5 75.5t-19 93.5q0 58 24.5 104t68.5 75q-19 23 -29.5 51t-10.5 62q0 41 15.5 77t42 62.5t62 42t76.5 15.5t76.5 -15.5t62 -42t42 -62.5t15.5 -77q0 -34 -10.5 -62t-29.5 -51q43 -29 68 -75t25 -104q0 -50 -19 -93.5t-52.5 -75.5
t-79 -50t-98.5 -18zM295 133q23 0 41 8t30.5 21t19 30.5t6.5 36.5t-6.5 36.5t-19 30.5t-30.5 21t-41 8t-41 -8t-30.5 -21t-19 -30.5t-6.5 -36.5t6.5 -36.5t19 -30.5t30.5 -21t41 -8zM295 465q26 0 40 16.5t14 39.5t-14 39.5t-40 16.5t-40 -16.5t-14 -39.5t14 -39.5t40 -16.5
z" />
    <glyph glyph-name="nine.tlf" horiz-adv-x="590"
d="M277 245q-50 3 -92 22t-73 50.5t-48 73.5t-17 90q0 50 19 93.5t52.5 75.5t79 50t98.5 18t98.5 -18t79 -50t52.5 -75.5t19 -93.5q0 -39 -14 -72.5t-31 -65.5l-187 -343h-169zM296 385q23 0 41 8t30.5 21t19 30.5t6.5 36.5t-6.5 36.5t-19 30.5t-30.5 21t-41 8t-41 -8
t-30.5 -21t-19 -30.5t-6.5 -36.5t6.5 -36.5t19 -30.5t30.5 -21t41 -8z" />
    <glyph glyph-name="zero.tlf" horiz-adv-x="590"
d="M295 133q28 0 52 11t41 29.5t26.5 43.5t9.5 53t-9.5 53t-26.5 43.5t-41 29.5t-52 11q-29 0 -52.5 -11t-40.5 -29.5t-26.5 -43.5t-9.5 -53t9.5 -53t26.5 -43.5t40.5 -29.5t52.5 -11zM295 -8q-57 0 -108.5 22t-89.5 59.5t-60.5 88.5t-22.5 108t22.5 108t60.5 88.5
t89.5 59.5t108.5 22t108.5 -22t89.5 -59.5t60.5 -88.5t22.5 -108t-22.5 -108t-60.5 -88.5t-89.5 -59.5t-108.5 -22z" />
    <glyph glyph-name="zero.slashed.tlf" horiz-adv-x="590"
d="M295 -8q-57 0 -108.5 22t-89.5 59.5t-60.5 88.5t-22.5 108t22.5 108t60.5 88.5t89.5 59.5t108.5 22t108.5 -22t89.5 -59.5t60.5 -88.5t22.5 -108t-22.5 -108t-60.5 -88.5t-89.5 -59.5t-108.5 -22zM295 133q27 0 50 10t40 27.5t27 41t12 50.5l-231 -79q17 -23 43.5 -36.5
t58.5 -13.5zM295 407q-27 0 -50.5 -10t-40.5 -27.5t-27 -41t-11 -50.5l229 79q-17 23 -42.5 36.5t-57.5 13.5z" />
    <glyph glyph-name="one.case" horiz-adv-x="331"
d="M85 557l161 159v-716h-161v557z" />
    <glyph glyph-name="two.case" horiz-adv-x="603"
d="M219 265q-33 13 -61 35t-49 50.5t-32.5 63t-11.5 73.5q0 48 19 90.5t51.5 73.5t75.5 49t91 18t91 -18t76 -49t52 -73.5t19 -90.5q0 -39 -12.5 -73.5t-32.5 -59.5l-163 -205h207v-149h-531zM302 404q35 0 56 25t21 58t-21 57.5t-56 24.5t-56 -24.5t-21 -57.5t21 -58
t56 -25z" />
    <glyph glyph-name="three.case" horiz-adv-x="538"
d="M242 -8q-69 0 -125.5 26.5t-93.5 73.5l112 105q17 -24 39 -40t57 -16q48 0 74.5 27t26.5 74q1 48 -26.5 74.5t-74.5 26.5h-73l100 218h-201v149h435l-114 -248q54 -32 85 -88t31 -132q0 -57 -18.5 -103t-51.5 -79t-79.5 -50.5t-102.5 -17.5z" />
    <glyph glyph-name="four.case" horiz-adv-x="604"
d="M343 155h-350l511 561v-432h62v-129h-62v-155h-161v155zM343 284v85l-72 -85h72z" />
    <glyph glyph-name="five.case" horiz-adv-x="563"
d="M276 -8q-70 0 -126.5 26t-91.5 74l115 108q14 -20 35 -39.5t56 -19.5q44 0 67 27t23 62t-23.5 61.5t-65.5 26.5q-34 0 -56 -17t-31 -43l-103 43v409h390v-149h-230v-94h41q54 0 98 -16.5t75.5 -47.5t49 -75t17.5 -98q0 -55 -17.5 -99t-49 -75t-75.5 -47.5t-98 -16.5z" />
    <glyph glyph-name="six.case" horiz-adv-x="555"
d="M301 467q51 -4 92.5 -23.5t71.5 -51.5t46 -73.5t16 -88.5q0 -51 -19 -94.5t-53 -75.5t-79.5 -50t-99.5 -18t-99.5 18t-79.5 50t-53 75.5t-19 94.5q0 40 14.5 73.5t31.5 65.5l183 341h179zM276 319q-44 0 -67 -27t-23 -62t23 -62t67 -27t67.5 27t23.5 62t-23.5 62
t-67.5 27z" />
    <glyph glyph-name="seven.case" horiz-adv-x="540"
d="M298 561h-255v149h496l-320 -710h-174z" />
    <glyph glyph-name="eight.case" horiz-adv-x="587"
d="M294 -8q-54 0 -100 18.5t-79.5 50.5t-52.5 75.5t-19 94.5q0 57 24 102.5t66 74.5q-18 22 -28 50t-10 61q0 41 15.5 77.5t42.5 63.5t63.5 42.5t77.5 15.5t77 -15.5t62.5 -42.5t42 -63.5t15.5 -77.5q0 -33 -10 -61t-28 -50q42 -29 66.5 -74.5t24.5 -102.5q0 -51 -19 -94.5
t-52.5 -75.5t-79.5 -50.5t-99 -18.5zM294 141q21 0 38 7.5t28.5 20t17.5 28.5t6 34q0 35 -23.5 62t-66.5 27q-44 0 -67.5 -27t-23.5 -62q0 -18 6 -34t17.5 -28.5t28.5 -20t39 -7.5zM294 468q23 0 35.5 15.5t12.5 35.5t-12.5 35t-35.5 15q-24 0 -36.5 -15t-12.5 -35
t12.5 -35.5t36.5 -15.5z" />
    <glyph glyph-name="nine.case" horiz-adv-x="555"
d="M254 244q-50 4 -91.5 23.5t-71.5 51t-46.5 73t-16.5 88.5q0 51 19 94.5t53 75.5t79.5 50t99.5 18t99.5 -18t79.5 -50t53 -75.5t19 -94.5q0 -40 -14.5 -73.5t-31.5 -65.5l-183 -341h-179zM279 391q44 0 67 27t23 62t-23 62t-67 27t-67.5 -27t-23.5 -62t23.5 -62t67.5 -27z
" />
    <glyph glyph-name="zero.case" horiz-adv-x="826"
d="M413 141q45 0 83 17t65.5 46t42.5 68t15 83t-15 83t-42.5 68t-65.5 46t-83 17t-83 -17t-65 -46t-42.5 -68t-15.5 -83t15.5 -83t42.5 -68t65 -46t83 -17zM413 -8q-75 0 -141.5 28.5t-116.5 78t-79 115.5t-29 141t29 141t79 115.5t116.5 78t141.5 28.5t141.5 -28.5
t116.5 -78t79 -115.5t29 -141t-29 -141t-79 -115.5t-116.5 -78t-141.5 -28.5z" />
    <glyph glyph-name="zero.slashed.case" horiz-adv-x="826"
d="M413 -8q-75 0 -141.5 28.5t-116.5 78t-79 115.5t-29 141t29 141t79 115.5t116.5 78t141.5 28.5t141.5 -28.5t116.5 -78t79 -115.5t29 -141t-29 -141t-79 -115.5t-116.5 -78t-141.5 -28.5zM413 141q45 0 83 17t65.5 46t42.5 68t15 83v5l-377 -128q27 -42 71 -66.5
t100 -24.5zM207 350l376 128q-27 42 -70.5 66.5t-99.5 24.5q-45 0 -83 -17t-65 -46t-42.5 -68t-15.5 -83v-5z" />
    <glyph glyph-name="uni21B2" unicode="&#x21b2;" horiz-adv-x="800"
d="M402 29l-84 -86l-306 306l306 306l84 -86l-160 -160h370v373h120v-493h-490z" />
    <glyph glyph-name="uni21B3" unicode="&#x21b3;" horiz-adv-x="800"
d="M558 189h-490v493h120v-373h370l-160 160l84 86l306 -306l-306 -306l-84 86z" />
    <glyph glyph-name="uni21B0" unicode="&#x21b0;" horiz-adv-x="800"
d="M612 -184v373h-370l160 -160l-84 -86l-306 306l306 306l84 -86l-160 -160h490v-493h-120z" />
    <glyph glyph-name="uni21B1" unicode="&#x21b1;" horiz-adv-x="800"
d="M68 -184v493h490l-160 160l84 86l306 -306l-306 -306l-84 86l160 160h-370v-373h-120z" />
    <glyph glyph-name="uni2190" unicode="&#x2190;" horiz-adv-x="800"
d="M430 29l-84 -86l-306 306l306 306l84 -86l-160 -160h490v-120h-490z" />
    <glyph glyph-name="uni2191" unicode="&#x2191;" horiz-adv-x="800"
d="M180 330l-86 84l306 306l306 -306l-86 -84l-160 160v-490h-120v490z" />
    <glyph glyph-name="uni2192" unicode="&#x2192;" horiz-adv-x="800"
d="M370 469l84 86l306 -306l-306 -306l-84 86l160 160h-490v120h490z" />
    <glyph glyph-name="uni2193" unicode="&#x2193;" horiz-adv-x="800"
d="M340 220v490h120v-490l160 160l86 -84l-306 -306l-306 306l86 84z" />
    <glyph glyph-name="uni2196" unicode="&#x2196;" horiz-adv-x="800"
d="M131 572h433v-121h-228l373 -372l-84 -84l-374 373v-229h-120v433z" />
    <glyph glyph-name="uni2197" unicode="&#x2197;" horiz-adv-x="800"
d="M670 139h-120v229l-374 -373l-84 84l373 372h-228v121h433v-433z" />
    <glyph glyph-name="uni2198" unicode="&#x2198;" horiz-adv-x="800"
d="M669 0h-433v121h228l-373 372l84 84l374 -373v229h120v-433z" />
    <glyph glyph-name="uni2199" unicode="&#x2199;" horiz-adv-x="800"
d="M131 433h120v-229l374 373l84 -84l-373 -372h228v-121h-433v433z" />
    <glyph glyph-name="uni219E" unicode="&#x219e;" horiz-adv-x="800"
d="M409 30l-84 -86l-306 306l306 306l84 -86l-160 -160h95l246 246l84 -86l-160 -160h225v-120h-225l160 -160l-84 -86l-246 246h-95z" />
    <glyph glyph-name="uni219F" unicode="&#x219f;" horiz-adv-x="800"
d="M180 330l-86 84l306 306l306 -306l-86 -84l-160 160v-95l246 -246l-86 -84l-160 160v-225h-120v225l-160 -160l-86 84l246 246v95z" />
    <glyph glyph-name="uni21A0" unicode="&#x21a0;" horiz-adv-x="800"
d="M550 190h-95l-246 -246l-84 86l160 160h-225v120h225l-160 160l84 86l246 -246h95l-160 160l84 86l306 -306l-306 -306l-84 86z" />
    <glyph glyph-name="uni21A1" unicode="&#x21a1;" horiz-adv-x="800"
d="M340 220v95l-246 246l86 84l160 -160v225h120v-225l160 160l86 -84l-246 -246v-95l160 160l86 -84l-306 -306l-306 306l86 84z" />
    <glyph glyph-name="uni21A2" unicode="&#x21a2;" horiz-adv-x="800"
d="M210 310h260l246 246l84 -86l-221 -220l221 -220l-84 -86l-246 246h-260l160 -160l-84 -86l-306 306l306 306l84 -86z" />
    <glyph glyph-name="uni21A3" unicode="&#x21a3;" horiz-adv-x="800"
d="M430 470l84 86l306 -306l-306 -306l-84 86l160 160h-260l-246 -246l-84 86l221 220l-221 220l84 86l246 -246h260z" />
    <glyph glyph-name="uni21A4" unicode="&#x21a4;" horiz-adv-x="800"
d="M407 30l-84 -86l-306 306l306 306l84 -86l-160 -160h371v190h119v-500h-119v190h-371z" />
    <glyph glyph-name="uni21A5" unicode="&#x21a5;" horiz-adv-x="800"
d="M180 330l-86 84l306 306l306 -306l-86 -84l-160 160v-371h190v-119h-500v119h190v371z" />
    <glyph glyph-name="uni21A6" unicode="&#x21a6;" horiz-adv-x="800"
d="M594 190h-371v-190h-119v500h119v-190h371l-160 160l84 86l306 -306l-306 -306l-84 86z" />
    <glyph glyph-name="uni21A7" unicode="&#x21a7;" horiz-adv-x="800"
d="M340 220v371h-190v119h500v-119h-190v-371l160 160l86 -84l-306 -306l-306 306l86 84z" />
    <glyph glyph-name="uni25A0" unicode="&#x25a0;" horiz-adv-x="618"
d="M59 500h500v-500h-500v500z" />
    <glyph glyph-name="uni25A1" unicode="&#x25a1;" horiz-adv-x="618"
d="M59 500h500v-500h-500v500zM211 152h196v196h-196v-196z" />
    <glyph glyph-name="uni25CB" unicode="&#x25cb;" horiz-adv-x="576"
d="M288 144q45 0 75.5 30.5t30.5 75.5t-30.5 75.5t-75.5 30.5t-75.5 -30.5t-30.5 -75.5t30.5 -75.5t75.5 -30.5zM288 -8q-53 0 -100 20.5t-82 55.5t-55.5 82t-20.5 100t20.5 100t55.5 82t82 55.5t100 20.5t100 -20.5t82 -55.5t55.5 -82t20.5 -100t-20.5 -100t-55.5 -82
t-82 -55.5t-100 -20.5z" />
    <glyph glyph-name="uni25CF" unicode="&#x25cf;" horiz-adv-x="576"
d="M288 -8q-53 0 -100 20.5t-82 55.5t-55.5 82t-20.5 100t20.5 100t55.5 82t82 55.5t100 20.5t100 -20.5t82 -55.5t55.5 -82t20.5 -100t-20.5 -100t-55.5 -82t-82 -55.5t-100 -20.5z" />
    <glyph glyph-name="onethird" unicode="&#x2153;" horiz-adv-x="859"
d="M100 614l100 99v-429h-100v330zM75 0l500 710h130l-500 -710h-130zM657 -5q-42 0 -75.5 16t-56.5 44l70 66q9 -14 22 -23.5t33 -9.5q28 0 43 15.5t15 42.5q1 28 -15 43t-42 15h-45l58 130h-119v92h264l-66 -148q31 -20 48.5 -53.5t17.5 -78.5q0 -69 -41.5 -110
t-110.5 -41z" />
    <glyph glyph-name="uni2155" unicode="&#x2155;" horiz-adv-x="855"
d="M100 614l100 99v-429h-100v330zM75 0l500 710h130l-500 -710h-130zM661 -5q-42 0 -76 15.5t-55 44.5l71 68q8 -12 20.5 -23.5t32.5 -11.5q24 0 37.5 15t13.5 35t-13.5 35t-37.5 15q-20 0 -33 -10t-18 -26l-64 26v248h236v-92h-136v-55q5 1 11.5 1.5t10.5 0.5
q65 0 104.5 -38.5t39.5 -104.5t-39.5 -104.5t-104.5 -38.5z" />
    <glyph glyph-name="uni2159" unicode="&#x2159;" horiz-adv-x="833"
d="M100 614l100 99v-429h-100v330zM75 0l500 710h130l-500 -710h-130zM657 -5q-33 0 -60.5 11t-48 30t-32 45.5t-11.5 56.5q0 24 8.5 44.5t19.5 39.5l108 204h112l-79 -145q61 -7 97.5 -47.5t36.5 -95.5q0 -30 -11.5 -56.5t-32 -45.5t-48 -30t-59.5 -11zM657 88
q25 0 38.5 15t13.5 35t-13.5 35.5t-38.5 15.5t-38.5 -15.5t-13.5 -35.5t13.5 -35t38.5 -15z" />
    <glyph glyph-name="oneeighth" unicode="&#x215b;" horiz-adv-x="842"
d="M100 614l100 99v-429h-100v330zM75 0l500 710h130l-500 -710h-130zM661 -5q-32 0 -60 11t-48 30.5t-31.5 46t-11.5 56.5q0 34 14 61t38 45q-21 27 -21 65q0 25 9.5 47t26 38.5t38 26t46.5 9.5t46.5 -9.5t37.5 -26t25.5 -38.5t9.5 -47q0 -38 -21 -65q24 -18 38.5 -45
t14.5 -61q0 -30 -11.5 -56.5t-32 -46t-48 -30.5t-59.5 -11zM661 88q25 0 38 15.5t13 35.5t-13 35.5t-38 15.5t-38.5 -15.5t-13.5 -35.5t13.5 -35.5t38.5 -15.5zM661 282q13 0 20 8.5t7 19.5t-7 19.5t-20 8.5q-14 0 -20.5 -8.5t-6.5 -19.5t6.5 -19.5t20.5 -8.5z" />
    <glyph glyph-name="twothirds" unicode="&#x2154;" horiz-adv-x="957"
d="M131 442q-38 17 -64 52t-26 81q0 29 11.5 54.5t31 44.5t45.5 30t55 11t55 -11t46 -30t31.5 -44.5t11.5 -54.5q0 -23 -6.5 -42t-16.5 -33l-98 -124h121v-92h-322zM184 528q20 0 32 14t12 33t-12 33t-32 14t-31.5 -14t-11.5 -33t11.5 -33t31.5 -14zM173 0l500 710h130
l-500 -710h-130zM755 -5q-42 0 -75.5 16t-56.5 44l70 66q9 -14 22 -23.5t33 -9.5q28 0 43 15.5t15 42.5q1 28 -15 43t-42 15h-45l58 130h-119v92h264l-66 -148q31 -20 48.5 -53.5t17.5 -78.5q0 -69 -41.5 -110t-110.5 -41z" />
    <glyph glyph-name="uni2156" unicode="&#x2156;" horiz-adv-x="953"
d="M131 442q-38 17 -64 52t-26 81q0 29 11.5 54.5t31 44.5t45.5 30t55 11t55 -11t46 -30t31.5 -44.5t11.5 -54.5q0 -23 -6.5 -42t-16.5 -33l-98 -124h121v-92h-322zM184 528q20 0 32 14t12 33t-12 33t-32 14t-31.5 -14t-11.5 -33t11.5 -33t31.5 -14zM173 0l500 710h130
l-500 -710h-130zM759 -5q-42 0 -76 15.5t-55 44.5l71 68q8 -12 20.5 -23.5t32.5 -11.5q24 0 37.5 15t13.5 35t-13.5 35t-37.5 15q-20 0 -33 -10t-18 -26l-64 26v248h236v-92h-136v-55q5 1 11.5 1.5t10.5 0.5q65 0 104.5 -38.5t39.5 -104.5t-39.5 -104.5t-104.5 -38.5z" />
    <glyph glyph-name="uni2157" unicode="&#x2157;" horiz-adv-x="934"
d="M177 279q-42 0 -75.5 16t-56.5 44l70 66q9 -14 22 -23.5t33 -9.5q28 0 43 15.5t15 42.5q1 28 -15 43t-42 15h-45l58 130h-119v92h264l-66 -148q31 -20 48.5 -53.5t17.5 -78.5q0 -69 -41.5 -110t-110.5 -41zM154 0l500 710h130l-500 -710h-130zM740 -5q-42 0 -76 15.5
t-55 44.5l71 68q8 -12 20.5 -23.5t32.5 -11.5q24 0 37.5 15t13.5 35t-13.5 35t-37.5 15q-20 0 -33 -10t-18 -26l-64 26v248h236v-92h-136v-55q5 1 11.5 1.5t10.5 0.5q65 0 104.5 -38.5t39.5 -104.5t-39.5 -104.5t-104.5 -38.5z" />
    <glyph glyph-name="threeeighths" unicode="&#x215c;" horiz-adv-x="921"
d="M177 279q-42 0 -75.5 16t-56.5 44l70 66q9 -14 22 -23.5t33 -9.5q28 0 43 15.5t15 42.5q1 28 -15 43t-42 15h-45l58 130h-119v92h264l-66 -148q31 -20 48.5 -53.5t17.5 -78.5q0 -69 -41.5 -110t-110.5 -41zM154 0l500 710h130l-500 -710h-130zM740 -5q-32 0 -60 11
t-48 30.5t-31.5 46t-11.5 56.5q0 34 14 61t38 45q-21 27 -21 65q0 25 9.5 47t26 38.5t38 26t46.5 9.5t46.5 -9.5t37.5 -26t25.5 -38.5t9.5 -47q0 -38 -21 -65q24 -18 38.5 -45t14.5 -61q0 -30 -11.5 -56.5t-32 -46t-48 -30.5t-59.5 -11zM740 88q25 0 38 15.5t13 35.5
t-13 35.5t-38 15.5t-38.5 -15.5t-13.5 -35.5t13.5 -35.5t38.5 -15.5zM740 282q13 0 20 8.5t7 19.5t-7 19.5t-20 8.5q-14 0 -20.5 -8.5t-6.5 -19.5t6.5 -19.5t20.5 -8.5z" />
    <glyph glyph-name="uni2158" unicode="&#x2158;" horiz-adv-x="919"
d="M177 375h-217l307 338v-257h37v-81h-37v-91h-90v91zM177 456v54l-51 -54h51zM139 0l500 710h130l-500 -710h-130zM725 -5q-42 0 -76 15.5t-55 44.5l71 68q8 -12 20.5 -23.5t32.5 -11.5q24 0 37.5 15t13.5 35t-13.5 35t-37.5 15q-20 0 -33 -10t-18 -26l-64 26v248h236v-92
h-136v-55q5 1 11.5 1.5t10.5 0.5q65 0 104.5 -38.5t39.5 -104.5t-39.5 -104.5t-104.5 -38.5z" />
    <glyph glyph-name="uni215A" unicode="&#x215a;" horiz-adv-x="908"
d="M181 279q-42 0 -76 15.5t-55 44.5l71 68q8 -12 20.5 -23.5t32.5 -11.5q24 0 37.5 15t13.5 35t-13.5 35t-37.5 15q-20 0 -33 -10t-18 -26l-64 26v248h236v-92h-136v-55q5 1 11.5 1.5t10.5 0.5q65 0 104.5 -38.5t39.5 -104.5t-39.5 -104.5t-104.5 -38.5zM150 0l500 710h130
l-500 -710h-130zM732 -5q-33 0 -60.5 11t-48 30t-32 45.5t-11.5 56.5q0 24 8.5 44.5t19.5 39.5l108 204h112l-79 -145q61 -7 97.5 -47.5t36.5 -95.5q0 -30 -11.5 -56.5t-32 -45.5t-48 -30t-59.5 -11zM732 88q25 0 38.5 15t13.5 35t-13.5 35.5t-38.5 15.5t-38.5 -15.5
t-13.5 -35.5t13.5 -35t38.5 -15z" />
    <glyph glyph-name="fiveeighths" unicode="&#x215d;" horiz-adv-x="917"
d="M181 279q-42 0 -76 15.5t-55 44.5l71 68q8 -12 20.5 -23.5t32.5 -11.5q24 0 37.5 15t13.5 35t-13.5 35t-37.5 15q-20 0 -33 -10t-18 -26l-64 26v248h236v-92h-136v-55q5 1 11.5 1.5t10.5 0.5q65 0 104.5 -38.5t39.5 -104.5t-39.5 -104.5t-104.5 -38.5zM150 0l500 710h130
l-500 -710h-130zM736 -5q-32 0 -60 11t-48 30.5t-31.5 46t-11.5 56.5q0 34 14 61t38 45q-21 27 -21 65q0 25 9.5 47t26 38.5t38 26t46.5 9.5t46.5 -9.5t37.5 -26t25.5 -38.5t9.5 -47q0 -38 -21 -65q24 -18 38.5 -45t14.5 -61q0 -30 -11.5 -56.5t-32 -46t-48 -30.5t-59.5 -11
zM736 88q25 0 38 15.5t13 35.5t-13 35.5t-38 15.5t-38.5 -15.5t-13.5 -35.5t13.5 -35.5t38.5 -15.5zM736 282q13 0 20 8.5t7 19.5t-7 19.5t-20 8.5q-14 0 -20.5 -8.5t-6.5 -19.5t6.5 -19.5t20.5 -8.5z" />
    <glyph glyph-name="seveneighths" unicode="&#x215e;" horiz-adv-x="831"
d="M179 618h-149v92h299l-191 -426h-108zM64 0l500 710h130l-500 -710h-130zM650 -5q-32 0 -60 11t-48 30.5t-31.5 46t-11.5 56.5q0 34 14 61t38 45q-21 27 -21 65q0 25 9.5 47t26 38.5t38 26t46.5 9.5t46.5 -9.5t37.5 -26t25.5 -38.5t9.5 -47q0 -38 -21 -65
q24 -18 38.5 -45t14.5 -61q0 -30 -11.5 -56.5t-32 -46t-48 -30.5t-59.5 -11zM650 88q25 0 38 15.5t13 35.5t-13 35.5t-38 15.5t-38.5 -15.5t-13.5 -35.5t13.5 -35.5t38.5 -15.5zM650 282q13 0 20 8.5t7 19.5t-7 19.5t-20 8.5q-14 0 -20.5 -8.5t-6.5 -19.5t6.5 -19.5
t20.5 -8.5z" />
    <glyph glyph-name="uni215F" unicode="&#x215f;" horiz-adv-x="480"
d="M100 614l100 99v-429h-100v330zM75 0l500 710h130l-500 -710h-130z" />
    <glyph glyph-name="fraction" unicode="&#x2044;" horiz-adv-x="180"
d="M-225 0l500 710h130l-500 -710h-130z" />
    <glyph glyph-name="a.superior" horiz-adv-x="353"
d="M18 560q0 30 9.5 58t27.5 49.5t44 34.5t59 13q42 0 68 -26v21h94v-300h-94v20q-25 -25 -68 -25q-33 0 -59 13t-44 34.5t-27.5 49.5t-9.5 58zM180 495q26 0 41 21v88q-15 21 -41 21q-31 0 -47 -19.5t-16 -45.5t16 -45.5t47 -19.5z" />
    <glyph glyph-name="b.superior" horiz-adv-x="353"
d="M33 836h99v-142q26 21 63 21q33 0 59 -13t44 -34.5t27.5 -49.5t9.5 -58t-9.5 -58t-27.5 -49.5t-44 -34.5t-59 -13q-43 0 -68 25v-20h-94v426zM173 625q-26 0 -41 -21v-88q15 -21 41 -21q31 0 47 19.5t16 45.5t-16 45.5t-47 19.5z" />
    <glyph glyph-name="c.superior" horiz-adv-x="313"
d="M172 405q-32 0 -60.5 12.5t-49.5 33.5t-33.5 49t-12.5 60q0 31 12.5 59.5t33.5 49.5t49.5 33.5t60.5 12.5q44 0 80.5 -21.5t57.5 -56.5l-82 -53q-8 18 -22.5 28.5t-33.5 10.5q-24 0 -40.5 -17t-16.5 -46t16.5 -46t40.5 -17q19 0 33.5 10.5t22.5 28.5l82 -53
q-21 -35 -57.5 -56.5t-80.5 -21.5z" />
    <glyph glyph-name="d.superior" horiz-adv-x="353"
d="M226 430q-25 -25 -68 -25q-33 0 -59 13t-44 34.5t-27.5 49.5t-9.5 58t9.5 58t27.5 49.5t44 34.5t59 13q37 0 63 -21v142h99v-426h-94v20zM180 495q26 0 41 21v88q-15 21 -41 21q-31 0 -47 -19.5t-16 -45.5t16 -45.5t47 -19.5z" />
    <glyph glyph-name="e.superior" horiz-adv-x="332"
d="M168 405q-29 0 -56 11t-48.5 31t-34.5 49t-13 64q0 33 11 61.5t31 49t49 32.5t64 12q28 0 54.5 -9t46.5 -26.5t32.5 -44t11.5 -61.5q0 -8 -0.5 -15t-1.5 -15h-204q1 -15 7.5 -24.5t15 -15t17.5 -8t17 -2.5q23 0 37.5 10.5t22.5 28.5l81 -49q-21 -36 -57 -57.5t-83 -21.5z
M166 638q-13 0 -31.5 -7t-24.5 -33h111q-3 22 -19.5 31t-35.5 9z" />
    <glyph glyph-name="f.superior" horiz-adv-x="218"
d="M9 710h42q-18 21 -18 49q0 32 21.5 54.5t58.5 22.5h98v-86h-58q-15 0 -20.5 -6.5t-5.5 -14.5q0 -17 17 -19h67v-86h-67v-214h-99v214h-36v86z" />
    <glyph glyph-name="g.superior" horiz-adv-x="346"
d="M221 426q0 4 -1.5 10t-6.5 12q-11 -8 -27.5 -13.5t-36.5 -5.5q-33 0 -58.5 12.5t-42.5 33t-26 46t-9 51.5t9 51.5t26 46t42.5 33t58.5 12.5q22 0 40.5 -7.5t28.5 -15.5v18h94v-243q13 -30 13 -58q0 -32 -15 -53.5t-38 -35.5t-51 -20t-53 -6q-35 0 -68.5 6t-68.5 26l42 86
q19 -14 40 -21.5t47 -7.5q25 0 43 9.5t18 33.5zM112 572q0 -18 13.5 -35.5t42.5 -17.5q28 0 45 16v74q-19 16 -45 16q-29 0 -42.5 -17.5t-13.5 -35.5z" />
    <glyph glyph-name="h.superior" horiz-adv-x="361"
d="M33 836h99v-141q11 8 27 14t37 6q66 0 100 -39t34 -102v-164h-99v143q0 32 -11 52t-40 20q-26 0 -48 -19v-196h-99v426z" />
    <glyph glyph-name="i.superior" horiz-adv-x="166"
d="M38 747q-12 15 -12 36q0 24 16.5 41t40.5 17t41 -17t17 -41q0 -21 -13 -36h-90zM33 710h100v-300h-100v300z" />
    <glyph glyph-name="j.superior" horiz-adv-x="165"
d="M-30 393h14q21 0 34.5 7t13.5 28v282h100v-296q0 -56 -39.5 -85t-101.5 -29h-21v93zM37 747q-12 15 -12 36q0 24 16.5 41t40.5 17t41 -17t17 -41q0 -21 -13 -36h-90z" />
    <glyph glyph-name="k.superior" horiz-adv-x="342"
d="M33 836h99v-264l90 138h114l-93 -142l109 -158h-116l-104 150v-150h-99v426z" />
    <glyph glyph-name="l.superior" horiz-adv-x="166"
d="M33 836h100v-426h-100v426z" />
    <glyph glyph-name="m.superior" horiz-adv-x="535"
d="M405 553q0 31 -8.5 51t-36.5 20t-45 -19q3 -15 3 -31v-164h-99v143q0 31 -8.5 51t-36.5 20q-24 0 -42 -16v-198h-99v300h94v-18q9 8 27 15.5t41 7.5q52 0 84 -34q10 9 33 21.5t63 12.5q36 0 60.5 -11.5t39.5 -31t22 -45t7 -53.5v-164h-99v143z" />
    <glyph glyph-name="n.superior" unicode="&#x207f;" horiz-adv-x="361"
d="M33 710h94v-19q11 10 28.5 17t40.5 7q66 0 100 -39t34 -102v-164h-99v143q0 32 -11 52t-40 20q-26 0 -48 -19v-196h-99v300z" />
    <glyph glyph-name="o.superior" horiz-adv-x="344"
d="M172 497q25 0 41 17t16 46t-16 46t-41 17q-24 0 -40.5 -17t-16.5 -46t16.5 -46t40.5 -17zM172 405q-32 0 -60.5 12.5t-49.5 33.5t-33.5 49t-12.5 60q0 31 12.5 59.5t33.5 49.5t49.5 33.5t60.5 12.5t60.5 -12.5t49.5 -33.5t33.5 -49.5t12.5 -59.5q0 -32 -12.5 -60
t-33.5 -49t-49.5 -33.5t-60.5 -12.5z" />
    <glyph glyph-name="p.superior" horiz-adv-x="353"
d="M33 710h94v-21q26 26 68 26q33 0 59 -13t44 -34.5t27.5 -49.5t9.5 -58t-9.5 -58t-27.5 -49.5t-44 -34.5t-59 -13q-39 0 -63 21v-126h-99v410zM173 625q-26 0 -41 -21v-88q15 -21 41 -21q31 0 47 19.5t16 45.5t-16 45.5t-47 19.5z" />
    <glyph glyph-name="q.superior" horiz-adv-x="353"
d="M221 426q-24 -21 -63 -21q-33 0 -59 13t-44 34.5t-27.5 49.5t-9.5 58t9.5 58t27.5 49.5t44 34.5t59 13q42 0 68 -26v21h94v-410h-99v126zM180 495q26 0 41 21v88q-15 21 -41 21q-31 0 -47 -19.5t-16 -45.5t16 -45.5t47 -19.5z" />
    <glyph glyph-name="r.superior" horiz-adv-x="240"
d="M33 710h94v-30q25 35 71 35q8 0 17 -1t19 -5v-103q-23 13 -51 13q-30 0 -51 -16v-193h-99v300z" />
    <glyph glyph-name="s.superior" horiz-adv-x="249"
d="M125 405q-41 0 -72 15.5t-52 49.5l70 47q9 -15 23.5 -24.5t34.5 -9.5q19 0 19 12q0 6 -8 10.5t-29 12.5l-14 5q-81 29 -81 96q0 43 30.5 69.5t74.5 26.5q29 0 53.5 -11t41.5 -35l-52 -57q-9 11 -19 19t-24 8q-8 0 -13 -2.5t-5 -8.5q0 -7 8.5 -11.5t31.5 -13.5l10 -4
q45 -18 63 -41t18 -55q0 -48 -32 -73t-77 -25z" />
    <glyph glyph-name="t.superior" horiz-adv-x="253"
d="M-9 710h59v41l99 48v-89h100l-23 -86h-77v-91q0 -18 8 -25.5t24 -7.5h52v-90h-91q-42 0 -67 25t-25 68v121h-37z" />
    <glyph glyph-name="u.superior" horiz-adv-x="362"
d="M235 433q-15 -14 -35.5 -21t-37.5 -7q-63 0 -96.5 39t-33.5 102v164h99v-143q0 -33 11 -52.5t36 -19.5q14 0 28.5 6t23.5 18v191h99v-300h-94v23z" />
    <glyph glyph-name="v.superior" horiz-adv-x="332"
d="M-12 710h115l63 -115l64 115h114l-178 -305z" />
    <glyph glyph-name="w.superior" horiz-adv-x="439"
d="M-3 710h105l46 -158l72 163l72 -163l46 158h104l-95 -300h-76l-51 110l-52 -110h-75z" />
    <glyph glyph-name="x.superior" horiz-adv-x="331"
d="M101 561l-101 149h115l50 -80l51 80h115l-101 -149l107 -151h-115l-56 84l-56 -84h-115z" />
    <glyph glyph-name="y.superior" horiz-adv-x="313"
d="M104 405l-108 305h105l55 -183l56 183h105l-144 -410h-106z" />
    <glyph glyph-name="z.superior" horiz-adv-x="309"
d="M137 625h-114v85h278l-130 -215h121v-85h-286z" />
    <glyph glyph-name="four.superior" unicode="&#x2074;" horiz-adv-x="354"
d="M208 501h-217l307 338v-257h37v-81h-37v-91h-90v91zM208 582v54l-51 -54h51z" />
    <glyph glyph-name="five.superior" unicode="&#x2075;" horiz-adv-x="328"
d="M162 405q-42 0 -76 15.5t-55 44.5l71 68q8 -12 20.5 -23.5t32.5 -11.5q24 0 37.5 15t13.5 35t-13.5 35t-37.5 15q-20 0 -33 -10t-18 -26l-64 26v248h236v-92h-136v-55q5 1 11 1.5t11 0.5q65 0 104.5 -38.5t39.5 -104.5t-39.5 -104.5t-104.5 -38.5z" />
    <glyph glyph-name="six.superior" unicode="&#x2076;" horiz-adv-x="322"
d="M160 405q-33 0 -60.5 11t-48 30t-32 45.5t-11.5 56.5q0 24 8.5 44.5t19.5 39.5l108 204h112l-79 -145q30 -3 54.5 -15.5t42.5 -31.5t27.5 -43.5t9.5 -52.5q0 -30 -11.5 -56.5t-32 -45.5t-48 -30t-59.5 -11zM160 498q25 0 38.5 15t13.5 35t-13.5 35.5t-38.5 15.5
t-38.5 -15.5t-13.5 -35.5t13.5 -35t38.5 -15z" />
    <glyph glyph-name="seven.superior" unicode="&#x2077;" horiz-adv-x="314"
d="M171 744h-149v92h299l-191 -426h-108z" />
    <glyph glyph-name="eight.superior" unicode="&#x2078;" horiz-adv-x="340"
d="M170 405q-32 0 -60 11t-48 30.5t-31.5 46t-11.5 56.5q0 34 14 61t38 45q-21 27 -21 65q0 25 9.5 47t26 38.5t38 26t46.5 9.5t46.5 -9.5t37.5 -26t25.5 -38.5t9.5 -47q0 -38 -21 -65q24 -18 38.5 -45t14.5 -61q0 -30 -11.5 -56.5t-32 -46t-48 -30.5t-59.5 -11zM170 498
q25 0 38 15.5t13 35.5t-13 35.5t-38 15.5t-38.5 -15.5t-13.5 -35.5t13.5 -35.5t38.5 -15.5zM170 692q13 0 20 8.5t7 19.5t-7 19.5t-20 8.5q-14 0 -20.5 -8.5t-6.5 -19.5t6.5 -19.5t20.5 -8.5z" />
    <glyph glyph-name="nine.superior" unicode="&#x2079;" horiz-adv-x="322"
d="M145 555q-30 3 -55 15.5t-42.5 31.5t-27 43.5t-9.5 52.5q0 30 11.5 56.5t31.5 45.5t48 30t60 11q33 0 60.5 -11t48 -30t32 -45.5t11.5 -56.5q0 -24 -8.5 -44.5t-19.5 -39.5l-108 -204h-112zM162 647q26 0 39 15.5t13 35.5t-13 35t-39 15q-25 0 -38.5 -15t-13.5 -35
t13.5 -35.5t38.5 -15.5z" />
    <glyph glyph-name="zero.superior" unicode="&#x2070;" horiz-adv-x="488"
d="M244 498q27 0 49 10t37.5 27t24.5 39.5t9 48.5t-9 48.5t-24.5 39.5t-37.5 27t-49 10q-26 0 -48 -10t-38 -27t-25 -39.5t-9 -48.5t9 -48.5t25 -39.5t38 -27t48 -10zM244 405q-45 0 -85 17.5t-70 47t-47.5 69t-17.5 84.5t17.5 84.5t47.5 69t70 47t85 17.5t85 -17.5t70 -47
t47.5 -69t17.5 -84.5t-17.5 -84.5t-47.5 -69t-70 -47t-85 -17.5z" />
    <glyph glyph-name="zero.slashed.superior" horiz-adv-x="488"
d="M255 405q-45 0 -85 17.5t-70 47t-47.5 69t-17.5 84.5t17.5 84.5t47.5 69t70 47t85 17.5t85 -17.5t70 -47t47.5 -69t17.5 -84.5t-17.5 -84.5t-47.5 -69t-70 -47t-85 -17.5zM255 748q-26 0 -47.5 -9.5t-37 -25.5t-25 -37.5t-10.5 -46.5l214 73q-16 21 -40 33.5t-54 12.5z
M255 498q25 0 47 9t37.5 25t25 37.5t10.5 46.5l-215 -72q17 -21 41 -33.5t54 -12.5z" />
    <glyph glyph-name="period.superior" horiz-adv-x="208"
d="M104 405q-29 0 -49 20t-20 49t20 49.5t49 20.5t49 -20.5t20 -49.5t-20 -49t-49 -20z" />
    <glyph glyph-name="hyphen.superior" horiz-adv-x="227"
d="M26 667h175v-93h-175v93z" />
    <glyph glyph-name="comma.superior" horiz-adv-x="193"
d="M83 410h-42v111h111v-111l-39 -94h-56z" />
    <glyph glyph-name="equal.superior" unicode="&#x207c;" horiz-adv-x="321"
d="M31 596h260v-74h-260v74zM31 718h260v-73h-260v73z" />
    <glyph glyph-name="plus.superior" unicode="&#x207a;" horiz-adv-x="322"
d="M31 657h93v95h74v-95h94v-74h-94v-94h-74v94h-93v74z" />
    <glyph glyph-name="minus.superior" unicode="&#x207b;" horiz-adv-x="322"
d="M31 657h261v-74h-261v74z" />
    <glyph glyph-name="parenleft.superior" unicode="&#x207d;" horiz-adv-x="174"
d="M99 315q-34 61 -50 130t-16 149q0 79 16 148t50 131l73 -32q-25 -60 -40.5 -122.5t-15.5 -124.5q0 -63 15.5 -125.5t40.5 -122.5l-73 -31v0z" />
    <glyph glyph-name="parenright.superior" unicode="&#x207e;" horiz-adv-x="174"
d="M73 315l-72 31q25 60 40.5 122.5t15.5 125.5q0 62 -15.5 124.5t-40.5 122.5l72 32q35 -62 50.5 -131t15.5 -148q0 -80 -15.5 -149t-50.5 -130z" />
    <glyph glyph-name="a.inferior" horiz-adv-x="353"
d="M18 36q0 30 9.5 58t27.5 49.5t44 34.5t59 13q42 0 68 -26v21h94v-300h-94v20q-25 -25 -68 -25q-33 0 -59 13t-44 34.5t-27.5 49.5t-9.5 58zM180 -29q26 0 41 21v88q-15 21 -41 21q-31 0 -47 -19.5t-16 -45.5t16 -45.5t47 -19.5z" />
    <glyph glyph-name="b.inferior" horiz-adv-x="353"
d="M33 312h99v-142q26 21 63 21q33 0 59 -13t44 -34.5t27.5 -49.5t9.5 -58t-9.5 -58t-27.5 -49.5t-44 -34.5t-59 -13q-43 0 -68 25v-20h-94v426zM173 101q-26 0 -41 -21v-88q15 -21 41 -21q31 0 47 19.5t16 45.5t-16 45.5t-47 19.5z" />
    <glyph glyph-name="c.inferior" horiz-adv-x="313"
d="M172 -119q-32 0 -60.5 12.5t-49.5 33.5t-33.5 49t-12.5 60q0 31 12.5 59.5t33.5 49.5t49.5 33.5t60.5 12.5q44 0 80.5 -21.5t57.5 -56.5l-82 -53q-8 18 -22.5 28.5t-33.5 10.5q-24 0 -40.5 -17t-16.5 -46t16.5 -46t40.5 -17q19 0 33.5 10.5t22.5 28.5l82 -53
q-21 -35 -57.5 -56.5t-80.5 -21.5z" />
    <glyph glyph-name="d.inferior" horiz-adv-x="353"
d="M226 -94q-25 -25 -68 -25q-33 0 -59 13t-44 34.5t-27.5 49.5t-9.5 58t9.5 58t27.5 49.5t44 34.5t59 13q37 0 63 -21v142h99v-426h-94v20zM180 -29q26 0 41 21v88q-15 21 -41 21q-31 0 -47 -19.5t-16 -45.5t16 -45.5t47 -19.5z" />
    <glyph glyph-name="e.inferior" horiz-adv-x="332"
d="M168 -119q-29 0 -56 11t-48.5 31t-34.5 49t-13 64q0 33 11 61.5t31 49t49 32.5t64 12q28 0 54.5 -9t46.5 -26.5t32.5 -44t11.5 -61.5q0 -8 -0.5 -15t-1.5 -15h-204q1 -15 7.5 -24.5t15 -15t17.5 -8t17 -2.5q23 0 37.5 10.5t22.5 28.5l81 -49q-21 -36 -57 -57.5t-83 -21.5
zM166 114q-13 0 -31.5 -7t-24.5 -33h111q-3 22 -19.5 31t-35.5 9z" />
    <glyph glyph-name="f.inferior" horiz-adv-x="218"
d="M9 186h42q-18 21 -18 49q0 32 21.5 54.5t58.5 22.5h98v-86h-58q-15 0 -20.5 -6.5t-5.5 -14.5q0 -17 17 -19h67v-86h-67v-214h-99v214h-36v86z" />
    <glyph glyph-name="g.inferior" horiz-adv-x="346"
d="M221 -98q0 4 -1.5 10t-6.5 12q-11 -8 -27.5 -13.5t-36.5 -5.5q-33 0 -58.5 12.5t-42.5 33t-26 46t-9 51.5t9 51.5t26 46t42.5 33t58.5 12.5q22 0 40.5 -7.5t28.5 -15.5v18h94v-243q13 -30 13 -58q0 -32 -15 -53.5t-38 -35.5t-51 -20t-53 -6q-35 0 -68.5 6t-68.5 26l42 86
q19 -14 40 -21.5t47 -7.5q25 0 43 9.5t18 33.5zM112 48q0 -18 13.5 -35.5t42.5 -17.5q28 0 45 16v74q-19 16 -45 16q-29 0 -42.5 -17.5t-13.5 -35.5z" />
    <glyph glyph-name="h.inferior" horiz-adv-x="361"
d="M33 312h99v-141q11 8 27 14t37 6q66 0 100 -39t34 -102v-164h-99v143q0 32 -11 52t-40 20q-26 0 -48 -19v-196h-99v426z" />
    <glyph glyph-name="i.inferior" horiz-adv-x="166"
d="M38 223q-12 15 -12 36q0 24 16.5 41t40.5 17t41 -17t17 -41q0 -21 -13 -36h-90zM33 186h100v-300h-100v300z" />
    <glyph glyph-name="j.inferior" horiz-adv-x="165"
d="M-30 -131h14q21 0 34.5 7t13.5 28v282h100v-296q0 -56 -39.5 -85t-101.5 -29h-21v93zM37 223q-12 15 -12 36q0 24 16.5 41t40.5 17t41 -17t17 -41q0 -21 -13 -36h-90z" />
    <glyph glyph-name="k.inferior" horiz-adv-x="342"
d="M33 312h99v-264l90 138h114l-93 -142l109 -158h-116l-104 150v-150h-99v426z" />
    <glyph glyph-name="l.inferior" horiz-adv-x="166"
d="M33 312h100v-426h-100v426z" />
    <glyph glyph-name="m.inferior" horiz-adv-x="535"
d="M405 29q0 31 -8.5 51t-36.5 20t-45 -19q3 -15 3 -31v-164h-99v143q0 31 -8.5 51t-36.5 20q-24 0 -42 -16v-198h-99v300h94v-18q9 8 27 15.5t41 7.5q52 0 84 -34q10 9 33 21.5t63 12.5q36 0 60.5 -11.5t39.5 -31t22 -45t7 -53.5v-164h-99v143z" />
    <glyph glyph-name="n.inferior" horiz-adv-x="361"
d="M33 186h94v-19q11 10 28.5 17t40.5 7q66 0 100 -39t34 -102v-164h-99v143q0 32 -11 52t-40 20q-26 0 -48 -19v-196h-99v300z" />
    <glyph glyph-name="o.inferior" horiz-adv-x="344"
d="M172 -27q25 0 41 17t16 46t-16 46t-41 17q-24 0 -40.5 -17t-16.5 -46t16.5 -46t40.5 -17zM172 -119q-32 0 -60.5 12.5t-49.5 33.5t-33.5 49t-12.5 60q0 31 12.5 59.5t33.5 49.5t49.5 33.5t60.5 12.5t60.5 -12.5t49.5 -33.5t33.5 -49.5t12.5 -59.5q0 -32 -12.5 -60
t-33.5 -49t-49.5 -33.5t-60.5 -12.5z" />
    <glyph glyph-name="p.inferior" horiz-adv-x="353"
d="M33 186h94v-21q26 26 68 26q33 0 59 -13t44 -34.5t27.5 -49.5t9.5 -58t-9.5 -58t-27.5 -49.5t-44 -34.5t-59 -13q-39 0 -63 21v-126h-99v410zM173 101q-26 0 -41 -21v-88q15 -21 41 -21q31 0 47 19.5t16 45.5t-16 45.5t-47 19.5z" />
    <glyph glyph-name="q.inferior" horiz-adv-x="353"
d="M221 -98q-24 -21 -63 -21q-33 0 -59 13t-44 34.5t-27.5 49.5t-9.5 58t9.5 58t27.5 49.5t44 34.5t59 13q42 0 68 -26v21h94v-410h-99v126zM180 -29q26 0 41 21v88q-15 21 -41 21q-31 0 -47 -19.5t-16 -45.5t16 -45.5t47 -19.5z" />
    <glyph glyph-name="r.inferior" horiz-adv-x="240"
d="M33 186h94v-30q25 35 71 35q8 0 17 -1t19 -5v-103q-23 13 -51 13q-30 0 -51 -16v-193h-99v300z" />
    <glyph glyph-name="s.inferior" horiz-adv-x="249"
d="M125 -119q-41 0 -72 15.5t-52 49.5l70 47q9 -15 23.5 -24.5t34.5 -9.5q19 0 19 12q0 6 -8 10.5t-29 12.5l-14 5q-81 29 -81 96q0 43 30.5 69.5t74.5 26.5q29 0 53.5 -11t41.5 -35l-52 -57q-9 11 -19 19t-24 8q-8 0 -13 -2.5t-5 -8.5q0 -7 8.5 -11.5t31.5 -13.5l10 -4
q45 -18 63 -41t18 -55q0 -48 -32 -73t-77 -25z" />
    <glyph glyph-name="t.inferior" horiz-adv-x="253"
d="M-9 186h59v41l99 48v-89h100l-23 -86h-77v-91q0 -18 8 -25.5t24 -7.5h52v-90h-91q-42 0 -67 25t-25 68v121h-37z" />
    <glyph glyph-name="u.inferior" horiz-adv-x="362"
d="M235 -91q-15 -14 -35.5 -21t-37.5 -7q-63 0 -96.5 39t-33.5 102v164h99v-143q0 -33 11 -52.5t36 -19.5q14 0 28.5 6t23.5 18v191h99v-300h-94v23z" />
    <glyph glyph-name="v.inferior" horiz-adv-x="332"
d="M-12 186h115l63 -115l64 115h114l-178 -305z" />
    <glyph glyph-name="w.inferior" horiz-adv-x="439"
d="M-3 186h105l46 -158l72 163l72 -163l46 158h104l-95 -300h-76l-51 110l-52 -110h-75z" />
    <glyph glyph-name="x.inferior" horiz-adv-x="331"
d="M101 37l-101 149h115l50 -80l51 80h115l-101 -149l107 -151h-115l-56 84l-56 -84h-115z" />
    <glyph glyph-name="y.inferior" horiz-adv-x="313"
d="M104 -119l-108 305h105l55 -183l56 183h105l-144 -410h-106z" />
    <glyph glyph-name="z.inferior" horiz-adv-x="309"
d="M137 101h-114v85h278l-130 -215h121v-85h-286z" />
    <glyph glyph-name="one.inferior" unicode="&#x2081;" horiz-adv-x="186"
d="M43 216l100 99v-429h-100v330z" />
    <glyph glyph-name="two.inferior" unicode="&#x2082;" horiz-adv-x="351"
d="M121 44q-38 17 -64 52t-26 81q0 29 11.5 54.5t31 44.5t45.5 30t55 11t55 -11t46 -30t31.5 -44.5t11.5 -54.5q0 -23 -6.5 -42t-16.5 -33l-98 -124h121v-92h-322zM174 130q20 0 32 14t12 33t-12 33t-32 14t-31.5 -14t-11.5 -33t11.5 -33t31.5 -14z" />
    <glyph glyph-name="three.inferior" unicode="&#x2083;" horiz-adv-x="312"
d="M139 -119q-42 0 -75.5 16t-56.5 44l70 66q9 -14 22 -23.5t33 -9.5q28 0 43 15.5t15 42.5q1 28 -15 43t-42 15h-45l58 130h-119v92h264l-66 -148q31 -20 48.5 -53.5t17.5 -78.5q0 -69 -41.5 -110t-110.5 -41z" />
    <glyph glyph-name="four.inferior" unicode="&#x2084;" horiz-adv-x="354"
d="M208 -23h-217l307 338v-257h37v-81h-37v-91h-90v91zM208 58v54l-51 -54h51z" />
    <glyph glyph-name="five.inferior" unicode="&#x2085;" horiz-adv-x="328"
d="M162 -119q-42 0 -76 15.5t-55 44.5l71 68q8 -12 20.5 -23.5t32.5 -11.5q24 0 37.5 15t13.5 35t-13.5 35t-37.5 15q-20 0 -33 -10t-18 -26l-64 26v248h236v-92h-136v-55q5 1 11 1.5t11 0.5q65 0 104.5 -38.5t39.5 -104.5t-39.5 -104.5t-104.5 -38.5z" />
    <glyph glyph-name="six.inferior" unicode="&#x2086;" horiz-adv-x="322"
d="M160 -119q-33 0 -60.5 11t-48 30t-32 45.5t-11.5 56.5q0 24 8.5 44.5t19.5 39.5l108 204h112l-79 -145q30 -3 54.5 -15.5t42.5 -31.5t27.5 -43.5t9.5 -52.5q0 -30 -11.5 -56.5t-32 -45.5t-48 -30t-59.5 -11zM160 -26q25 0 38.5 15t13.5 35t-13.5 35.5t-38.5 15.5
t-38.5 -15.5t-13.5 -35.5t13.5 -35t38.5 -15z" />
    <glyph glyph-name="seven.inferior" unicode="&#x2087;" horiz-adv-x="314"
d="M171 220h-149v92h299l-191 -426h-108z" />
    <glyph glyph-name="eight.inferior" unicode="&#x2088;" horiz-adv-x="340"
d="M170 -119q-32 0 -60 11t-48 30.5t-31.5 46t-11.5 56.5q0 34 14 61t38 45q-21 27 -21 65q0 25 9.5 47t26 38.5t38 26t46.5 9.5t46.5 -9.5t37.5 -26t25.5 -38.5t9.5 -47q0 -38 -21 -65q24 -18 38.5 -45t14.5 -61q0 -30 -11.5 -56.5t-32 -46t-48 -30.5t-59.5 -11zM170 -26
q25 0 38 15.5t13 35.5t-13 35.5t-38 15.5t-38.5 -15.5t-13.5 -35.5t13.5 -35.5t38.5 -15.5zM170 168q13 0 20 8.5t7 19.5t-7 19.5t-20 8.5q-14 0 -20.5 -8.5t-6.5 -19.5t6.5 -19.5t20.5 -8.5z" />
    <glyph glyph-name="nine.inferior" unicode="&#x2089;" horiz-adv-x="322"
d="M145 31q-30 3 -55 15.5t-42.5 31.5t-27 43.5t-9.5 52.5q0 30 11.5 56.5t31.5 45.5t48 30t60 11q33 0 60.5 -11t48 -30t32 -45.5t11.5 -56.5q0 -24 -8.5 -44.5t-19.5 -39.5l-108 -204h-112zM162 123q26 0 39 15.5t13 35.5t-13 35t-39 15q-25 0 -38.5 -15t-13.5 -35
t13.5 -35.5t38.5 -15.5z" />
    <glyph glyph-name="zero.inferior" unicode="&#x2080;" horiz-adv-x="488"
d="M244 -26q27 0 49 10t37.5 27t24.5 39.5t9 48.5t-9 48.5t-24.5 39.5t-37.5 27t-49 10q-26 0 -48 -10t-38 -27t-25 -39.5t-9 -48.5t9 -48.5t25 -39.5t38 -27t48 -10zM244 -119q-45 0 -85 17.5t-70 47t-47.5 69t-17.5 84.5t17.5 84.5t47.5 69t70 47t85 17.5t85 -17.5t70 -47
t47.5 -69t17.5 -84.5t-17.5 -84.5t-47.5 -69t-70 -47t-85 -17.5z" />
    <glyph glyph-name="zero.slashed.inferior" horiz-adv-x="488"
d="M245 -119q-45 0 -85 17.5t-70 47t-47.5 69t-17.5 84.5t17.5 84.5t47.5 69t70 47t85 17.5t85 -17.5t70 -47t47.5 -69t17.5 -84.5t-17.5 -84.5t-47.5 -69t-70 -47t-85 -17.5zM245 224q-26 0 -47.5 -9.5t-37 -25.5t-25 -37.5t-10.5 -46.5l214 73q-16 21 -40 33.5t-54 12.5z
M245 -26q25 0 47 9t37.5 25t25 37.5t10.5 46.5l-215 -72q17 -21 41 -33.5t54 -12.5z" />
    <glyph glyph-name="period.inferior" horiz-adv-x="208"
d="M104 -119q-29 0 -49 20t-20 49t20 49.5t49 20.5t49 -20.5t20 -49.5t-20 -49t-49 -20z" />
    <glyph glyph-name="hyphen.inferior" horiz-adv-x="227"
d="M26 143h175v-93h-175v93z" />
    <glyph glyph-name="comma.inferior" horiz-adv-x="193"
d="M83 -114h-42v111h111v-111l-39 -94h-56z" />
    <glyph glyph-name="equal.inferior" horiz-adv-x="321"
d="M31 72h260v-74h-260v74zM31 194h260v-73h-260v73z" />
    <glyph glyph-name="plus.inferior" horiz-adv-x="322"
d="M31 133h93v95h74v-95h94v-74h-94v-94h-74v94h-93v74z" />
    <glyph glyph-name="minus.inferior" horiz-adv-x="322"
d="M31 133h261v-74h-261v74z" />
    <glyph glyph-name="parenleft.inferior" unicode="&#x208d;" horiz-adv-x="174"
d="M99 -209q-34 61 -50 130t-16 149q0 79 16 148t50 131l73 -32q-25 -60 -40.5 -122.5t-15.5 -124.5q0 -63 15.5 -125.5t40.5 -122.5l-73 -31v0z" />
    <glyph glyph-name="parenright.inferior" unicode="&#x208e;" horiz-adv-x="174"
d="M73 -209l-72 31q25 60 40.5 122.5t15.5 125.5q0 62 -15.5 124.5t-40.5 122.5l72 32q35 -62 50.5 -131t15.5 -148q0 -80 -15.5 -149t-50.5 -130z" />
    <glyph glyph-name="one.numerator" horiz-adv-x="300"
d="M100 614l100 99v-429h-100v330z" />
    <glyph glyph-name="two.numerator" horiz-adv-x="398"
d="M131 442q-38 17 -64 52t-26 81q0 29 11.5 54.5t31 44.5t45.5 30t55 11t55 -11t46 -30t31.5 -44.5t11.5 -54.5q0 -23 -6.5 -42t-16.5 -33l-98 -124h121v-92h-322zM184 528q20 0 32 14t12 33t-12 33t-32 14t-31.5 -14t-11.5 -33t11.5 -33t31.5 -14z" />
    <glyph glyph-name="three.numerator" horiz-adv-x="379"
d="M177 279q-42 0 -75.5 16t-56.5 44l70 66q9 -14 22 -23.5t33 -9.5q28 0 43 15.5t15 42.5q1 28 -15 43t-42 15h-45l58 130h-119v92h264l-66 -148q31 -20 48.5 -53.5t17.5 -78.5q0 -69 -41.5 -110t-110.5 -41z" />
    <glyph glyph-name="four.numerator" horiz-adv-x="364"
d="M177 375h-217l307 338v-257h37v-81h-37v-91h-90v91zM177 456v54l-51 -54h51z" />
    <glyph glyph-name="five.numerator" horiz-adv-x="375"
d="M181 279q-42 0 -76 15.5t-55 44.5l71 68q8 -12 20.5 -23.5t32.5 -11.5q24 0 37.5 15t13.5 35t-13.5 35t-37.5 15q-20 0 -33 -10t-18 -26l-64 26v248h236v-92h-136v-55q5 1 11.5 1.5t10.5 0.5q65 0 104.5 -38.5t39.5 -104.5t-39.5 -104.5t-104.5 -38.5z" />
    <glyph glyph-name="six.numerator" horiz-adv-x="353"
d="M177 279q-33 0 -60.5 11t-48 30t-32 45.5t-11.5 56.5q0 24 8.5 44.5t19.5 39.5l108 204h112l-79 -145q61 -7 97.5 -47.5t36.5 -95.5q0 -30 -11.5 -56.5t-32 -45.5t-48 -30t-59.5 -11zM177 372q25 0 38.5 15t13.5 35t-13.5 35.5t-38.5 15.5t-38.5 -15.5t-13.5 -35.5
t13.5 -35t38.5 -15z" />
    <glyph glyph-name="seven.numerator" horiz-adv-x="289"
d="M179 618h-149v92h299l-191 -426h-108z" />
    <glyph glyph-name="eight.numerator" horiz-adv-x="362"
d="M181 279q-32 0 -60 11t-48 30.5t-31.5 46t-11.5 56.5q0 34 14 61t38 45q-21 27 -21 65q0 25 9.5 47t26 38.5t38 26t46.5 9.5t46.5 -9.5t37.5 -26t25.5 -38.5t9.5 -47q0 -38 -21 -65q25 -18 39 -45t14 -61q0 -30 -11.5 -56.5t-32 -46t-48 -30.5t-59.5 -11zM181 372
q25 0 38 15.5t13 35.5t-13 35.5t-38 15.5t-38.5 -15.5t-13.5 -35.5t13.5 -35.5t38.5 -15.5zM181 566q13 0 20 8.5t7 19.5t-7 19.5t-20 8.5q-14 0 -20.5 -8.5t-6.5 -19.5t6.5 -19.5t20.5 -8.5z" />
    <glyph glyph-name="nine.numerator" horiz-adv-x="353"
d="M159 429q-30 3 -55 15.5t-42.5 31.5t-27 43.5t-9.5 52.5q0 30 11.5 56.5t31.5 45.5t48 30t60 11q33 0 60.5 -11t48 -30t32 -45.5t11.5 -56.5q0 -24 -8.5 -44.5t-19.5 -39.5l-108 -204h-112zM176 521q26 0 39 15.5t13 35.5t-13 35t-39 15q-25 0 -38.5 -15t-13.5 -35
t13.5 -35.5t38.5 -15.5z" />
    <glyph glyph-name="zero.numerator" horiz-adv-x="510"
d="M255 372q27 0 49 10t37.5 27t24.5 39.5t9 48.5t-9 48.5t-24.5 39.5t-37.5 27t-49 10q-26 0 -48 -10t-38 -27t-25 -39.5t-9 -48.5t9 -48.5t25 -39.5t38 -27t48 -10zM255 279q-45 0 -85 17.5t-70 47t-47.5 69t-17.5 84.5t17.5 84.5t47.5 69t70 47t85 17.5t85 -17.5t70 -47
t47.5 -69t17.5 -84.5t-17.5 -84.5t-47.5 -69t-70 -47t-85 -17.5z" />
    <glyph glyph-name="zero.slashed.numerator" horiz-adv-x="510"
d="M255 279q-45 0 -85 17.5t-70 47t-47.5 69t-17.5 84.5t17.5 84.5t47.5 69t70 47t85 17.5t85 -17.5t70 -47t47.5 -69t17.5 -84.5t-17.5 -84.5t-47.5 -69t-70 -47t-85 -17.5zM255 372q26 0 47.5 9.5t37 25.5t25 37.5t10.5 46.5l-215 -72q16 -22 40.5 -34.5t54.5 -12.5z
M255 622q-26 0 -47.5 -9.5t-37 -25.5t-25 -37.5t-10.5 -45.5l213 73q-16 20 -40 32.5t-53 12.5z" />
    <glyph glyph-name="one.denominator" horiz-adv-x="300"
d="M100 330l100 99v-429h-100v330z" />
    <glyph glyph-name="two.denominator" horiz-adv-x="398"
d="M131 158q-38 17 -64 52t-26 81q0 29 11.5 54.5t31 44.5t45.5 30t55 11t55 -11t46 -30t31.5 -44.5t11.5 -54.5q0 -23 -6.5 -42t-16.5 -33l-98 -124h121v-92h-322zM184 244q20 0 32 14t12 33t-12 33t-32 14t-31.5 -14t-11.5 -33t11.5 -33t31.5 -14z" />
    <glyph glyph-name="three.denominator" horiz-adv-x="379"
d="M177 -5q-42 0 -75.5 16t-56.5 44l70 66q9 -14 22 -23.5t33 -9.5q28 0 43 15.5t15 42.5q1 28 -15 43t-42 15h-45l58 130h-119v92h264l-66 -148q31 -20 48.5 -53.5t17.5 -78.5q0 -69 -41.5 -110t-110.5 -41z" />
    <glyph glyph-name="four.denominator" horiz-adv-x="364"
d="M177 91h-217l307 338v-257h37v-81h-37v-91h-90v91zM177 172v54l-51 -54h51z" />
    <glyph glyph-name="five.denominator" horiz-adv-x="375"
d="M181 -5q-42 0 -76 15.5t-55 44.5l71 68q8 -12 20.5 -23.5t32.5 -11.5q24 0 37.5 15t13.5 35t-13.5 35t-37.5 15q-20 0 -33 -10t-18 -26l-64 26v248h236v-92h-136v-55q5 1 11.5 1.5t10.5 0.5q65 0 104.5 -38.5t39.5 -104.5t-39.5 -104.5t-104.5 -38.5z" />
    <glyph glyph-name="six.denominator" horiz-adv-x="353"
d="M177 -5q-33 0 -60.5 11t-48 30t-32 45.5t-11.5 56.5q0 24 8.5 44.5t19.5 39.5l108 204h112l-79 -145q61 -7 97.5 -47.5t36.5 -95.5q0 -30 -11.5 -56.5t-32 -45.5t-48 -30t-59.5 -11zM177 88q25 0 38.5 15t13.5 35t-13.5 35.5t-38.5 15.5t-38.5 -15.5t-13.5 -35.5
t13.5 -35t38.5 -15z" />
    <glyph glyph-name="seven.denominator" horiz-adv-x="289"
d="M179 334h-149v92h299l-191 -426h-108z" />
    <glyph glyph-name="eight.denominator" horiz-adv-x="362"
d="M181 -5q-32 0 -60 11t-48 30.5t-31.5 46t-11.5 56.5q0 34 14 61t38 45q-21 27 -21 65q0 25 9.5 47t26 38.5t38 26t46.5 9.5t46.5 -9.5t37.5 -26t25.5 -38.5t9.5 -47q0 -38 -21 -65q24 -18 38.5 -45t14.5 -61q0 -30 -11.5 -56.5t-32 -46t-48 -30.5t-59.5 -11zM181 88
q25 0 38 15.5t13 35.5t-13 35.5t-38 15.5t-38.5 -15.5t-13.5 -35.5t13.5 -35.5t38.5 -15.5zM181 282q13 0 20 8.5t7 19.5t-7 19.5t-20 8.5q-14 0 -20.5 -8.5t-6.5 -19.5t6.5 -19.5t20.5 -8.5z" />
    <glyph glyph-name="nine.denominator" horiz-adv-x="353"
d="M159 145q-30 3 -55 15.5t-42.5 31.5t-27 43.5t-9.5 52.5q0 30 11.5 56.5t31.5 45.5t48 30t60 11q33 0 60.5 -11t48 -30t32 -45.5t11.5 -56.5q0 -24 -8.5 -44.5t-19.5 -39.5l-108 -204h-112zM176 237q26 0 39 15.5t13 35.5t-13 35t-39 15q-25 0 -38.5 -15t-13.5 -35
t13.5 -35.5t38.5 -15.5z" />
    <glyph glyph-name="zero.denominator" horiz-adv-x="510"
d="M255 88q27 0 49 10t37.5 27t24.5 39.5t9 48.5t-9 48.5t-24.5 39.5t-37.5 27t-49 10q-26 0 -48 -10t-38 -27t-25 -39.5t-9 -48.5t9 -48.5t25 -39.5t38 -27t48 -10zM255 -5q-45 0 -85 17.5t-70 47t-47.5 69t-17.5 84.5t17.5 84.5t47.5 69t70 47t85 17.5t85 -17.5t70 -47
t47.5 -69t17.5 -84.5t-17.5 -84.5t-47.5 -69t-70 -47t-85 -17.5z" />
    <glyph glyph-name="zero.slashed.denominator" horiz-adv-x="510"
d="M255 -5q-45 0 -85 17.5t-70 47t-47.5 69t-17.5 84.5t17.5 84.5t47.5 69t70 47t85 17.5t85 -17.5t70 -47t47.5 -69t17.5 -84.5t-17.5 -84.5t-47.5 -69t-70 -47t-85 -17.5zM255 88q26 0 47.5 9.5t37 25.5t25 37.5t10.5 46.5l-215 -72q16 -22 40.5 -34.5t54.5 -12.5z
M255 338q-26 0 -47.5 -9.5t-37 -25.5t-25 -37.5t-10.5 -45.5l213 73q-16 20 -40 32.5t-53 12.5z" />
    <glyph glyph-name="ampersand.case" horiz-adv-x="630"
d="M256 -8q-47 0 -88.5 18t-72.5 49t-49 72.5t-18 88.5q0 44 15.5 83t43 70t64.5 50.5t80 24.5l-128 262h411v-137h-172l280 -573h-172l-33 68q-32 -44 -73 -60t-88 -16zM256 140q16 0 30 6.5t24.5 17.5t16.5 25.5t6 30.5t-6 30.5t-16.5 25.5t-24.5 17.5t-30 6.5t-30 -6.5
t-24.5 -17.5t-16.5 -25.5t-6 -30.5t6 -30.5t16.5 -25.5t24.5 -17.5t30 -6.5z" />
    <glyph glyph-name="hyphen.case" horiz-adv-x="386"
d="M51 414h284v-144h-284v144z" />
    <glyph glyph-name="endash.case" horiz-adv-x="586"
d="M51 414h484v-144h-484v144z" />
    <glyph glyph-name="emdash.case" horiz-adv-x="879"
d="M51 414h777v-144h-777v144z" />
    <glyph glyph-name="question.case" horiz-adv-x="505"
d="M167 401h67q40 0 67 20t27 65q0 22 -7 38.5t-18 27t-25 15.5t-28 5q-28 0 -51.5 -21t-23.5 -65h-157q0 48 17.5 90.5t48.5 74t73.5 49.5t92.5 18t93 -18t74.5 -49.5t49.5 -74t18 -90.5t-18.5 -90.5t-51.5 -73.5t-79 -49t-102 -18h-67v146zM230 -8q-23 0 -42.5 8.5t-34 23
t-23 34t-8.5 42.5q0 26 10.5 47.5t29.5 36.5h136q18 -15 29 -36.5t11 -47.5q0 -23 -8.5 -42.5t-23 -34t-34.5 -23t-42 -8.5z" />
    <glyph glyph-name="questiondown.case" horiz-adv-x="505"
d="M275 718q22 0 42 -8.5t34.5 -23t23 -34.5t8.5 -42q0 -26 -10.5 -48t-29.5 -37h-136q-18 15 -29 37t-11 48q0 22 8.5 42t23 34.5t34 23t42.5 8.5zM338 309h-67q-40 0 -67 -20t-27 -65q0 -22 7 -38.5t18 -27t25 -15.5t28 -5q28 0 51.5 21t23.5 65h157q0 -48 -17.5 -90.5
t-48.5 -74t-73.5 -49.5t-92.5 -18t-93 18t-74.5 49.5t-49.5 74t-18 90.5t18.5 90.5t51.5 73.5t79 49t102 18h67v-146z" />
    <glyph glyph-name="exclam.case" horiz-adv-x="346"
d="M93 439v271h161v-271l-30 -184h-101zM173 -8q-23 0 -42.5 8.5t-34 23t-23 34t-8.5 42.5q0 26 11 47.5t29 36.5h136q18 -15 29 -36.5t11 -47.5q0 -23 -8.5 -42.5t-23 -34t-34.5 -23t-42 -8.5z" />
    <glyph glyph-name="exclamdown.case" horiz-adv-x="346"
d="M253 271v-271h-161v271l30 184h101zM173 718q22 0 42 -8.5t34.5 -23t23 -34.5t8.5 -42q0 -26 -11 -47.5t-29 -36.5h-136q-18 15 -29 36.5t-11 47.5q0 22 8.5 42t23 34.5t34 23t42.5 8.5z" />
    <glyph glyph-name="guilsinglleft.case" horiz-adv-x="356"
d="M42 310l164 241l100 -68l-118 -173l118 -173l-100 -68z" />
    <glyph glyph-name="guilsinglright.case" horiz-adv-x="356"
d="M150 69l-100 68l118 173l-118 173l100 68l164 -241z" />
    <glyph glyph-name="guillemotleft.case" horiz-adv-x="592"
d="M278 310l164 241l100 -68l-118 -173l118 -173l-100 -68zM42 310l164 241l100 -68l-118 -173l118 -173l-100 -68z" />
    <glyph glyph-name="guillemotright.case" horiz-adv-x="592"
d="M386 69l-100 68l118 173l-118 173l100 68l164 -241zM150 69l-100 68l118 173l-118 173l100 68l164 -241z" />
    <glyph glyph-name="parenleft.case" horiz-adv-x="332"
d="M177 -8q-23 36 -43.5 77.5t-36.5 87.5t-25 96t-9 102t9 102t25 96t36.5 87.5t43.5 77.5l102 -45q-22 -48 -38.5 -88t-27 -77.5t-16 -74.5t-5.5 -78t5.5 -78t16 -74.5t27 -77.5t38.5 -88l-102 -45v0z" />
    <glyph glyph-name="parenright.case" horiz-adv-x="332"
d="M155 -8l-102 45q22 48 38.5 88t27 77.5t16 74.5t5.5 78t-5.5 78t-16 74.5t-27 77.5t-38.5 88l102 45q23 -36 43.5 -77.5t36.5 -87.5t25 -96t9 -102t-9 -102t-25 -96t-36.5 -87.5t-43.5 -77.5z" />
    <glyph glyph-name="bracketleft.case" horiz-adv-x="307"
d="M67 710h231v-108h-104v-494h104v-108h-231v710z" />
    <glyph glyph-name="bracketright.case" horiz-adv-x="307"
d="M240 0h-231v108h104v494h-104v108h231v-710z" />
    <glyph glyph-name="braceleft.case" horiz-adv-x="338"
d="M247 0q-65 0 -106.5 38.5t-41.5 103.5v106q0 22 -12 37.5t-41 15.5h-8v108h8q29 0 41 15.5t12 37.5v106q0 65 38.5 103.5t103.5 38.5h89v-108h-47q-31 0 -44 -13t-13 -44v-92q0 -44 -17.5 -67.5t-44.5 -30.5q27 -7 44.5 -30.5t17.5 -67.5v-92q0 -31 13 -44t44 -13h47
v-108h-83v0z" />
    <glyph glyph-name="braceright.case" horiz-adv-x="338"
d="M91 0h-83v108h47q31 0 44 13t13 44v92q0 44 17.5 67.5t44.5 30.5q-27 7 -44.5 30.5t-17.5 67.5v92q0 31 -13 44t-44 13h-47v108h89q65 0 103.5 -38.5t38.5 -103.5v-106q0 -22 12 -37.5t41 -15.5h8v-108h-8q-29 0 -41 -15.5t-12 -37.5v-106q0 -65 -41.5 -103.5
t-106.5 -38.5z" />
    <glyph glyph-name="bar.case" horiz-adv-x="297"
d="M85 710h127v-710h-127v710z" />
    <glyph glyph-name="brokenbar.case" horiz-adv-x="297"
d="M85 292h127v-292h-127v292zM85 710h127v-291h-127v291z" />
    <glyph glyph-name="periodcentered.case" horiz-adv-x="346"
d="M173 234q-23 0 -42.5 8.5t-34 23t-23 34t-8.5 42.5q0 22 8.5 42t23 34.5t34 23t42.5 8.5q22 0 42 -8.5t34.5 -23t23 -34.5t8.5 -42q0 -23 -8.5 -42.5t-23 -34t-34.5 -23t-42 -8.5z" />
    <glyph glyph-name="plus.case" horiz-adv-x="606"
d="M85 399h161v161h114v-161h161v-114h-161v-161h-114v161h-161v114z" />
    <glyph glyph-name="minus.case" horiz-adv-x="606"
d="M85 399h436v-114h-436v114z" />
    <glyph glyph-name="divide.case" horiz-adv-x="606"
d="M303 95q-33 0 -56.5 23.5t-23.5 56.5t23.5 56.5t56.5 23.5t56.5 -23.5t23.5 -56.5t-23.5 -56.5t-56.5 -23.5zM303 429q-33 0 -56.5 23.5t-23.5 56.5t23.5 56.5t56.5 23.5t56.5 -23.5t23.5 -56.5t-23.5 -56.5t-56.5 -23.5zM85 399h436v-114h-436v114z" />
    <glyph glyph-name="multiply.case" horiz-adv-x="587"
d="M85 194l128 128l-128 128l81 81l127 -129l129 129l80 -81l-128 -128l128 -128l-80 -80l-129 127l-127 -127z" />
    <glyph glyph-name="equal.case" horiz-adv-x="606"
d="M85 296h436v-114h-436v114zM85 502h436v-114h-436v114z" />
    <glyph glyph-name="plusminus.case" horiz-adv-x="606"
d="M85 449h161v111h114v-111h161v-114h-161v-111h-114v111h-161v114zM85 174h436v-114h-436v114z" />
    <glyph glyph-name="less.case" horiz-adv-x="476"
d="M43 343l289 291l85 -85l-205 -206l205 -206l-85 -85z" />
    <glyph glyph-name="greater.case" horiz-adv-x="476"
d="M59 137l205 206l-205 206l85 85l289 -291l-289 -291z" />
    <glyph glyph-name="lessequal.case" horiz-adv-x="606"
d="M68 422l436 212v-126l-177 -86l177 -86v-126zM68 174h436v-114h-436v114z" />
    <glyph glyph-name="greaterequal.case" horiz-adv-x="606"
d="M102 336l177 86l-177 86v126l436 -212l-436 -212v126zM102 174h436v-114h-436v114z" />
    <glyph glyph-name="notequal.case" horiz-adv-x="606"
d="M85 502h265l80 110l91 -66l-32 -44h32v-114h-115l-67 -92h182v-114h-264l-81 -112l-91 66l33 46h-33v114h116l66 92h-182v114z" />
    <glyph glyph-name="acute.case" horiz-adv-x="416"
d="M170 923h166l-126 -145h-110z" />
    <glyph glyph-name="breve.case" horiz-adv-x="494"
d="M247 769q-38 0 -71.5 14.5t-58.5 39.5t-39.5 58.5t-14.5 71.5h86q0 -41 28.5 -69.5t69.5 -28.5t69.5 28.5t28.5 69.5h86q0 -38 -14.5 -71.5t-39.5 -58.5t-58.5 -39.5t-71.5 -14.5z" />
    <glyph glyph-name="caron.case" horiz-adv-x="514"
d="M80 835l41 96l136 -59l136 59l41 -96l-177 -76z" />
    <glyph glyph-name="cedilla.case" horiz-adv-x="352"
d="M142 0h102l-34 -134h-127z" />
    <glyph glyph-name="circumflex.case" horiz-adv-x="510"
d="M78 855l177 76l177 -76l-41 -96l-136 59l-136 -59z" />
    <glyph glyph-name="dieresis.case" horiz-adv-x="578"
d="M170 770q-33 0 -56.5 23.5t-23.5 56.5t23.5 56.5t56.5 23.5t56.5 -23.5t23.5 -56.5t-23.5 -56.5t-56.5 -23.5zM408 770q-33 0 -56.5 23.5t-23.5 56.5t23.5 56.5t56.5 23.5t56.5 -23.5t23.5 -56.5t-23.5 -56.5t-56.5 -23.5z" />
    <glyph glyph-name="dotaccent.case" horiz-adv-x="324"
d="M162 763q-36 0 -61.5 25.5t-25.5 61.5t25.5 61.5t61.5 25.5t61.5 -25.5t25.5 -61.5t-25.5 -61.5t-61.5 -25.5z" />
    <glyph glyph-name="grave.case" horiz-adv-x="416"
d="M80 923h166l70 -145h-110z" />
    <glyph glyph-name="hungarumlaut.case" horiz-adv-x="599"
d="M170 923h148l-125 -145h-93zM371 923h148l-125 -145h-93z" />
    <glyph glyph-name="macron.case" horiz-adv-x="494"
d="M82 898h330v-96h-330v96z" />
    <glyph glyph-name="ogonek.case" horiz-adv-x="369"
d="M197 -189q-26 0 -47.5 8.5t-37 23t-24 34t-8.5 41.5q0 25 10.5 46t28.5 36h168q-32 -14 -49.5 -25t-17.5 -31q0 -16 9.5 -23t22.5 -7q10 0 20.5 4.5t14.5 8.5v-87q-38 -29 -90 -29z" />
    <glyph glyph-name="ring.case" horiz-adv-x="380"
d="M190 832q20 0 33.5 13.5t13.5 33.5t-13.5 33.5t-33.5 13.5t-33.5 -13.5t-13.5 -33.5t13.5 -33.5t33.5 -13.5zM190 759q-25 0 -46.5 9.5t-38 26t-26 38t-9.5 46.5t9.5 46.5t26 38t38 26t46.5 9.5t46.5 -9.5t38 -26t26 -38t9.5 -46.5t-9.5 -46.5t-26 -38t-38 -26
t-46.5 -9.5z" />
    <glyph glyph-name="tilde.case" horiz-adv-x="550"
d="M86 806q4 28 15.5 49.5t27.5 36.5t35.5 22.5t38.5 7.5q22 0 40 -6.5t33.5 -14t28.5 -13.5t24 -6q17 0 27 9.5t16 32.5h96l-4 -29q-4 -28 -15.5 -49.5t-27.5 -36.5t-35.5 -22.5t-38.5 -7.5q-22 0 -40 6t-33.5 13.5t-28.5 14t-24 6.5q-17 0 -27 -9.5t-16 -32.5h-96z" />
    <glyph glyph-name="A.ss01" horiz-adv-x="635"
d="M227 0h-160v710h501v-710h-160v199h-181v-199zM227 353h181v199h-181v-199z" />
    <glyph glyph-name="B.ss01" horiz-adv-x="727"
d="M67 710h440v-278h160v-432h-600v710zM227 158h280v120h-280v-120zM227 432h120v120h-120v-120z" />
    <glyph glyph-name="C.ss01" horiz-adv-x="551"
d="M67 710h444v-158h-284v-394h284v-158h-444v710z" />
    <glyph glyph-name="G.ss01" horiz-adv-x="733"
d="M384 432h287v-432h-604v710h160v-1h364v-157h-364v-394h284v120h-127v154z" />
    <glyph glyph-name="J.ss01" horiz-adv-x="418"
d="M19 159h169v551h163v-710h-332v159z" />
    <glyph glyph-name="O.ss01" horiz-adv-x="844"
d="M617 158v394h-390v-394h390zM67 710h710v-710h-710v710z" />
    <glyph glyph-name="P.ss01" horiz-adv-x="615"
d="M67 710h501v-510h-341v-200h-160v710zM227 353h181v199h-181v-199z" />
    <glyph glyph-name="Q.ss01" horiz-adv-x="844"
d="M67 710h710v-710h-278v-184h-154v184h-278v710zM345 158v197h154v-197h118v394h-390v-394h118z" />
    <glyph glyph-name="S.ss01" horiz-adv-x="564"
d="M60 710h444v-158h-284v-120h284v-432h-444v158h284v120h-284v432z" />
    <glyph glyph-name="U.ss01" horiz-adv-x="716"
d="M67 710h160v-552h262v552h160v-710h-582v710z" />
    <glyph glyph-name="Y.ss01" horiz-adv-x="696"
d="M57 710h160v-278h262v278h160v-432h-211v-278h-160v278h-211v432z" />
    <glyph glyph-name="b.ss01" horiz-adv-x="620"
d="M59 710h151v-210h351v-500h-502v710zM210 150h200v200h-200v-200z" />
    <glyph glyph-name="c.ss01" horiz-adv-x="441"
d="M59 500h333v-150h-182v-200h182v-150h-333v500z" />
    <glyph glyph-name="d.ss01" horiz-adv-x="620"
d="M59 0v500h351v210h151v-710h-502zM210 150h200v200h-200v-200z" />
    <glyph glyph-name="f.ss01" horiz-adv-x="372"
d="M16 500h65v210h267v-132h-116v-78h116v-132h-116v-368h-151v368h-65v132z" />
    <glyph glyph-name="h.ss01" horiz-adv-x="602"
d="M392 350h-182v-350h-151v710h151v-210h333v-500h-151v350z" />
    <glyph glyph-name="i.ss01" horiz-adv-x="270"
d="M59 500h152v-500h-152v500zM59 710h152v-139h-152v139z" />
    <glyph glyph-name="j.ss01" horiz-adv-x="270"
d="M-45 -41h104v541h152v-684h-256v143zM59 710h152v-139h-152v139z" />
    <glyph glyph-name="k.ss01" horiz-adv-x="598"
d="M408 185h-198v-185h-151v710h151v-375h87v165h151v-165h111v-335h-151v185z" />
    <glyph glyph-name="m.ss01" horiz-adv-x="895"
d="M372 350h-162v-350h-151v500h777v-500h-151v350h-162v-350h-151v350z" />
    <glyph glyph-name="n.ss01" horiz-adv-x="602"
d="M392 350h-182v-350h-151v500h484v-500h-151v350z" />
    <glyph glyph-name="o.ss01" horiz-adv-x="618"
d="M59 500h500v-500h-500v500zM210 150h198v200h-198v-200z" />
    <glyph glyph-name="p.ss01" horiz-adv-x="620"
d="M59 500h502v-500h-351v-184h-151v684zM210 150h200v200h-200v-200z" />
    <glyph glyph-name="q.ss01" horiz-adv-x="620"
d="M410 -184v184h-351v500h502v-684h-151zM210 150h200v200h-200v-200z" />
    <glyph glyph-name="r.ss01" horiz-adv-x="392"
d="M59 500h319v-150h-168v-350h-151v500z" />
    <glyph glyph-name="s.ss01" horiz-adv-x="518"
d="M55 500h408v-150h-257v-100h-151v250zM55 150h251v100h151v-250h-402v150z" />
    <glyph glyph-name="t.ss01" horiz-adv-x="412"
d="M4 500h82v113h151v-113h140v-132h-140v-230h140v-138h-291v368h-82v132z" />
    <glyph glyph-name="u.ss01" horiz-adv-x="602"
d="M59 500h151v-350h182v350h151v-500h-484v500z" />
    <glyph glyph-name="y.ss01" horiz-adv-x="602"
d="M59 500h151v-350h182v350h151v-684h-151v184h-333v500z" />
    <glyph glyph-name="A.ss02" horiz-adv-x="723"
d="M336 710h320v-710h-160v110h-285l-53 -110h-168zM275 240h221v312h-69z" />
    <glyph glyph-name="E.ss02" horiz-adv-x="511"
d="M247 0q-45 0 -84 17t-68.5 46.5t-46.5 68.5t-17 84q0 40 13.5 75t37.5 64q-24 28 -37.5 63.5t-13.5 75.5q0 45 17 84.5t46.5 68.5t69 46t84.5 17h223v-158h-221q-25 0 -42.5 -17.5t-17.5 -42.5t17.5 -42.5t42.5 -17.5h161v-154h-161q-25 0 -42.5 -17.5t-17.5 -42.5
t17.5 -42.5t42.5 -17.5h221v-158h-224v0z" />
    <glyph glyph-name="K.ss02" horiz-adv-x="681"
d="M67 710h160v-352h2l247 352h183l-246 -352h87l191 -358h-179l-107 200h-178v-200h-160v710z" />
    <glyph glyph-name="N.ss02" horiz-adv-x="742"
d="M515 148l-288 231v-379h-160v718l448 -359v351h160v-710h-160v148z" />
    <glyph glyph-name="Q.ss02" horiz-adv-x="794"
d="M320 0q-61 13 -113.5 46t-90.5 80t-60 105.5t-22 123.5q0 75 28.5 141t78 115.5t115.5 78t141 28.5t141 -28.5t115.5 -78t78 -115.5t28.5 -141q0 -65 -22 -123.5t-60 -105.5t-90.5 -80t-113.5 -46v-184h-154v184zM474 161q56 24 90.5 76t34.5 118q0 43 -15.5 81
t-42.5 66.5t-64 45t-80 16.5q-66 0 -115.5 -36.5t-72.5 -93.5h265v-273zM210 276q15 -39 43.5 -69t66.5 -46v115h-110z" />
    <glyph glyph-name="W.ss02" horiz-adv-x="915"
d="M-10 710h163l180 -396l52 116l-130 280h147l55 -122l56 122h147l-131 -280l53 -116l180 396h163l-335 -718l-133 284l-132 -284z" />
    <glyph glyph-name="X.ss02" horiz-adv-x="663"
d="M292 271l-119 -271h-173l188 427l-188 283h190l181 -272l119 272h173l-188 -428l188 -282h-190z" />
    <glyph glyph-name="Y.ss02" horiz-adv-x="756"
d="M348 0v278h-291v432h160v-278h192l173 278h189l-263 -412v-298h-160z" />
    <glyph glyph-name="a.ss02" horiz-adv-x="548"
d="M220 -8q-51 0 -87.5 15.5t-60 40.5t-35 56t-11.5 61q0 36 14.5 66t41 51.5t64 33.5t82.5 12q32 0 59 -4t51 -13v57h-250v132h401v-500h-151v30q-22 -18 -52.5 -28t-65.5 -10zM244 130q31 0 54.5 7.5t39.5 21.5v51q-18 7 -40 11t-45 4q-39 0 -57 -14t-18 -34
q0 -26 19.5 -36.5t46.5 -10.5z" />
    <glyph glyph-name="g.ss02" horiz-adv-x="583"
d="M91 -37h281v102q-22 -18 -50.5 -27.5t-59.5 -9.5q-57 0 -101 20.5t-74 54t-45.5 76.5t-15.5 89t15.5 89t45.5 76.5t74 54t101 20.5q31 0 59.5 -10t50.5 -28v30h151v-684h-432v147zM282 166q56 0 90 42v120q-34 42 -90 42q-25 0 -44.5 -9t-32.5 -23t-20 -32.5t-7 -37.5
t7 -37.5t20 -32.5t32.5 -23t44.5 -9z" />
    <glyph glyph-name="k.ss02" horiz-adv-x="561"
d="M305 121h-95v-121h-151v710h151v-210h261v-150h-261v-79h161l202 -271h-178z" />
    <glyph glyph-name="m.ss02" horiz-adv-x="890"
d="M685 252q0 24 -4 45.5t-13 37.5t-24.5 25t-37.5 9q-26 0 -49 -12.5t-38 -32.5q2 -13 3 -26t1 -27v-271h-151v244q0 24 -4 45.5t-13 37.5t-24.5 25t-37.5 9h-83v-361h-151v500h265q43 0 77.5 -15t60.5 -42q20 23 61.5 44t102.5 21q56 0 95.5 -18t65 -49.5t37.5 -73
t12 -88.5v-279h-151v252z" />
    <glyph glyph-name="w.ss02" horiz-adv-x="867"
d="M45 271v229h151v-184l109 -166h52v350h151v-350h53l110 166v184h151v-229l-178 -271h-421z" />
    <glyph glyph-name="b.ss03" horiz-adv-x="542"
d="M59 500h233q51 0 86 -14t56.5 -36t31.5 -49.5t10 -54.5q0 -20 -7 -40.5t-21 -39.5q31 -23 45.5 -53.5t14.5 -58.5q0 -27 -10 -54.5t-31.5 -49.5t-56.5 -36t-86 -14h-265v500zM210 199v-69h109q12 0 24.5 8t12.5 26q0 19 -12.5 27t-24.5 8h-109zM210 370v-69h77
q12 0 24.5 8t12.5 27q0 18 -12.5 26t-24.5 8h-77z" />
    <glyph glyph-name="d.ss03" horiz-adv-x="552"
d="M59 500h221q55 0 100 -20t76.5 -54t48.5 -79.5t17 -96.5t-17 -96.5t-48.5 -79.5t-76.5 -54t-100 -20h-221v500zM210 353v-206h57q49 0 76 30t27 73t-27 73t-76 30h-57z" />
    <glyph glyph-name="f.ss03" horiz-adv-x="453"
d="M59 500h357v-132h-206v-90h176v-132h-176v-146h-151v500z" />
    <glyph glyph-name="g.ss03" horiz-adv-x="548"
d="M290 -8q-54 0 -101.5 20.5t-82.5 55.5t-55.5 82t-20.5 100t20.5 100t55.5 82t82.5 55.5t101.5 20.5q40 0 73 -9.5t59 -24t45 -32t30 -33.5l-119 -84q-19 24 -41.5 33t-46.5 9q-47 0 -77.5 -32.5t-30.5 -84.5t30.5 -84.5t77.5 -32.5q20 0 37 2.5t31 8.5v55h-91l46 102h196
v-231q-79 -78 -219 -78z" />
    <glyph glyph-name="h.ss03" horiz-adv-x="602"
d="M392 184h-182v-184h-151v500h151v-184h182v184h151v-500h-151v184z" />
    <glyph glyph-name="i.ss03" horiz-adv-x="270"
d="M59 500h152v-500h-152v500z" />
    <glyph glyph-name="j.ss03" horiz-adv-x="473"
d="M160 211q0 -31 11.5 -50.5t41.5 -19.5t41.5 19.5t11.5 50.5v289h152v-316q0 -38 -13 -71.5t-38.5 -58.5t-64 -39.5t-89.5 -14.5t-89.5 14.5t-64 39.5t-38.5 58.5t-13 71.5v28h152v-1v0z" />
    <glyph glyph-name="k.ss03" horiz-adv-x="550"
d="M59 500h151v-251l153 251h165l-156 -255l185 -245h-178l-169 225v-225h-151v500z" />
    <glyph glyph-name="l.ss03" horiz-adv-x="449"
d="M59 500h152v-368h205v-132h-357v500z" />
    <glyph glyph-name="p.ss03" horiz-adv-x="500"
d="M59 500h233q51 0 86 -18.5t56.5 -46t31.5 -60t10 -59.5t-10 -59.5t-31.5 -60.5t-56.5 -46.5t-86 -18.5h-82v-131h-151v500zM210 370v-109h57q27 0 42 14.5t15 40.5t-15 40t-42 14h-57z" />
    <glyph glyph-name="q.ss03" horiz-adv-x="585"
d="M436 37q-31 -22 -68 -33.5t-78 -11.5q-54 0 -101.5 20.5t-82.5 55.5t-55.5 82t-20.5 100t20.5 100t55.5 82t82.5 55.5t101.5 20.5t101.5 -20.5t82.5 -55.5t55.5 -82t20.5 -100q0 -63 -28 -117l51 -41l-81 -100zM290 133h12.5t12.5 2l-56 46l81 99l57 -46q0 4 0.5 7.5
t0.5 8.5q0 52 -30.5 84.5t-77.5 32.5t-77.5 -32.5t-30.5 -84.5t30.5 -84.5t77.5 -32.5z" />
    <glyph glyph-name="t.ss03" horiz-adv-x="441"
d="M15 500h411v-132h-130v-368h-151v368h-130v132z" />
    <glyph glyph-name="y.ss03" horiz-adv-x="504"
d="M176 184l-188 316h170l94 -186l94 186h170l-188 -316v-184h-152v184z" />
    <glyph glyph-name="A.ss04" horiz-adv-x="680"
d="M340 718l350 -718h-168l-182 388l-182 -388h-168zM340 -8q-38 0 -64 26t-26 64t26 64t64 26t64 -26t26 -64t-26 -64t-64 -26z" />
    <glyph glyph-name="E.ss04" horiz-adv-x="547"
d="M67 710h440v-158h-280v-394h280v-158h-440v710zM367 265q-38 0 -64 26t-26 64t26 64t64 26t64 -26t26 -64t-26 -64t-64 -26z" />
    <glyph glyph-name="F.ss04" horiz-adv-x="517"
d="M67 710h420v-158h-260v-552h-160v710zM357 265q-38 0 -64 26t-26 64t26 64t64 26t64 -26t26 -64t-26 -64t-64 -26z" />
    <glyph glyph-name="G.ss04" horiz-adv-x="729"
d="M397 -8q-75 0 -141 28.5t-115.5 78t-78 115.5t-28.5 141t28.5 141t78 115.5t115.5 78t141 28.5q92 0 163.5 -35t123.5 -99l-121 -99q-32 41 -70.5 60t-95.5 19q-43 0 -80 -16.5t-64 -45t-42.5 -66.5t-15.5 -81t15.5 -81t42.5 -66.5t64 -45t80 -16.5q44 0 77.5 8t59.5 27
v249h155v-322q-53 -60 -127 -88t-165 -28zM397 265q-38 0 -64 26t-26 64t26 64t64 26t64 -26t26 -64t-26 -64t-64 -26z" />
    <glyph glyph-name="H.ss04" horiz-adv-x="738"
d="M67 710h160v-710h-160v710zM369 265q-38 0 -64 26t-26 64t26 64t64 26t64 -26t26 -64t-26 -64t-64 -26zM511 710h160v-710h-160v710z" />
    <glyph glyph-name="K.ss04" horiz-adv-x="671"
d="M227 332v-332h-160v710h160v-352h177l287 -358h-198zM509 538q-38 0 -64 26t-26 64t26 64t64 26t64 -26t26 -64t-26 -64t-64 -26z" />
    <glyph glyph-name="O.ss04" horiz-adv-x="794"
d="M397 265q-38 0 -64 26t-26 64t26 64t64 26t64 -26t26 -64t-26 -64t-64 -26zM397 146q43 0 80 16.5t64 45t42.5 66.5t15.5 81t-15.5 81t-42.5 66.5t-64 45t-80 16.5t-80 -16.5t-64 -45t-42.5 -66.5t-15.5 -81t15.5 -81t42.5 -66.5t64 -45t80 -16.5zM397 -8
q-75 0 -141 28.5t-115.5 78t-78 115.5t-28.5 141t28.5 141t78 115.5t115.5 78t141 28.5t141 -28.5t115.5 -78t78 -115.5t28.5 -141t-28.5 -141t-78 -115.5t-115.5 -78t-141 -28.5z" />
    <glyph glyph-name="Q.ss04" horiz-adv-x="814"
d="M397 -8q-75 0 -141 28.5t-115.5 78t-78 115.5t-28.5 141t28.5 141t78 115.5t115.5 78t141 28.5t141 -28.5t115.5 -78t78 -115.5t28.5 -141q0 -46 -11 -89t-31 -81l101 -81l-91 -112l-101 82q-48 -39 -106 -60.5t-124 -21.5zM397 146q43 0 80 16.5t64 45t42.5 66.5
t15.5 81t-15.5 81t-42.5 66.5t-64 45t-80 16.5t-80 -16.5t-64 -45t-42.5 -66.5t-15.5 -81t15.5 -81t42.5 -66.5t64 -45t80 -16.5zM397 265q-38 0 -64 26t-26 64t26 64t64 26t64 -26t26 -64t-26 -64t-64 -26z" />
    <glyph glyph-name="Y.ss04" horiz-adv-x="656"
d="M-15 710h187l155 -249l155 249h189l-263 -412h-160zM327 -8q-38 0 -64 26t-26 64t26 64t64 26t64 -26t26 -64t-26 -64t-64 -26z" />
    <glyph glyph-name="A.ss05" horiz-adv-x="680"
d="M340 159h107l-107 229l-182 -388h-168l350 718l350 -718h-350v159z" />
    <glyph glyph-name="E.ss05" horiz-adv-x="553"
d="M235 355l-235 355h518v-158h-235l131 -197l-131 -197h235v-158h-518z" />
    <glyph glyph-name="F.ss05" horiz-adv-x="537"
d="M97 432h78l-184 278h526v-158h-243l183 -274h-200v-278h-160v432z" />
    <glyph glyph-name="R.ss05" horiz-adv-x="616"
d="M67 710h552l-180 -385l184 -325h-174l-183 323l112 241h-152v-564h-159v710z" />
    <glyph glyph-name="S.ss05" horiz-adv-x="540"
d="M194 710h173l-130 -278h310l-200 -432h-173l128 278h-309z" />
    <glyph glyph-name="T.ss05" horiz-adv-x="621"
d="M270 375l-288 335h620v-158h-278l109 -126v-426h-163v375z" />
    <glyph glyph-name="X.ss05" horiz-adv-x="766"
d="M258 335l-246 375h744l-246 -375l257 -335h-201l-182 244l-182 -244h-201zM384 428l80 124h-160z" />
    <glyph glyph-name="h.ss05" horiz-adv-x="602"
d="M59 710h151v-465l182 255h151v-500h-151v255l-182 -255h-151v710z" />
    <glyph glyph-name="m.ss05" horiz-adv-x="895"
d="M372 0v245l-162 -245h-151v500h151v-244l162 244h151v-244l162 244h151v-500h-151v245l-162 -245h-151z" />
    <glyph glyph-name="n.ss05" horiz-adv-x="602"
d="M59 500h151v-255l182 255h151v-500h-151v255l-182 -255h-151v500z" />
    <glyph glyph-name="r.ss05" horiz-adv-x="321"
d="M56 399l209 109l67 -130l-125 -66v-312h-151v399z" />
    <glyph glyph-name="s.ss05" horiz-adv-x="540"
d="M276 182h-288l226 318h180l-130 -182h288l-225 -318h-180z" />
    <glyph glyph-name="b.ss06" horiz-adv-x="621"
d="M59 710h151v-360l150 150h202v-500h-503v710zM210 350v-200h201v200h-201z" />
    <glyph glyph-name="d.ss06" horiz-adv-x="621"
d="M59 500h352v210h151v-710h-151v350h-201v-200h201l-150 -150h-202v500z" />
    <glyph glyph-name="f.ss06" horiz-adv-x="382"
d="M101 500v210h267v-132h-116v-78h116v-132h-116v-368h-151v368h-132z" />
    <glyph glyph-name="h.ss06" horiz-adv-x="602"
d="M210 0h-151v710h151v-360l150 150h183v-500h-151v350h-182v-350z" />
    <glyph glyph-name="j.ss06" horiz-adv-x="270"
d="M59 -41v541h152v-684h-295zM59 710h152v-152h-152v152z" />
    <glyph glyph-name="l.ss06" horiz-adv-x="270"
d="M59 566l152 152v-718h-152v566z" />
    <glyph glyph-name="m.ss06" horiz-adv-x="895"
d="M210 0h-151v500h151v-150l150 150h163v-150l150 150h163v-500h-151v350h-162v-350h-151v350h-162v-350z" />
    <glyph glyph-name="n.ss06" horiz-adv-x="602"
d="M210 0h-151v500h151v-150l150 150h183v-500h-151v350h-182v-350z" />
    <glyph glyph-name="p.ss06" horiz-adv-x="621"
d="M59 500h151v-150l150 150h202v-500h-352v-184h-151v684zM210 350v-200h201v200h-201z" />
    <glyph glyph-name="q.ss06" horiz-adv-x="621"
d="M411 350h-201v-200h201l-150 -150h-202v500h503v-684h-151v534z" />
    <glyph glyph-name="r.ss06" horiz-adv-x="392"
d="M210 0h-151v500h151v-150l150 150h18v-150h-168v-350z" />
    <glyph glyph-name="t.ss06" horiz-adv-x="432"
d="M257 651v-151h140v-132h-140v-230h140v-138h-291v368h-132z" />
    <glyph glyph-name="u.ss06" horiz-adv-x="602"
d="M59 500h151v-350h182l-150 -150h-183v500zM392 500h151v-500h-151v500z" />
    <glyph glyph-name="B.ss07" horiz-adv-x="542"
d="M67 147h219q32 0 53 20.5t21 49.5t-21 50t-53 21h-219v135h170q32 0 53 20.5t21 49.5t-21 50t-53 21h-170v146h188q43 0 81.5 -16.5t67.5 -45.5t45.5 -67.5t16.5 -81.5q0 -38 -13.5 -68.5t-36.5 -53.5q45 -24 72.5 -66.5t27.5 -99.5q0 -44 -16.5 -82.5t-46 -67t-68.5 -45
t-84 -16.5h-234v147z" />
    <glyph glyph-name="D.ss07" horiz-adv-x="631"
d="M67 146h169q45 0 81.5 16.5t63 45t41 66.5t14.5 81t-14.5 81t-41 66.5t-63 45t-81.5 16.5h-169v146h169q75 0 141 -28t114.5 -76t77 -113t28.5 -138q0 -74 -28.5 -138.5t-77 -112.5t-114.5 -76t-141 -28h-169v146z" />
    <glyph glyph-name="E.ss07" horiz-adv-x="547"
d="M67 158h440v-158h-440v158zM67 710h440v-158h-440v158zM67 432h380v-154h-380v154z" />
    <glyph glyph-name="F.ss07" horiz-adv-x="517"
d="M67 710h420v-158h-420v158zM67 432h360v-154h-360v154z" />
    <glyph glyph-name="H.ss07" horiz-adv-x="658"
d="M431 278h-364v154h364v278h160v-710h-160v278z" />
    <glyph glyph-name="K.ss07" horiz-adv-x="519"
d="M67 343l256 367h184l-249 -357l281 -353h-198z" />
    <glyph glyph-name="P.ss07" horiz-adv-x="477"
d="M67 377h152q19 0 35.5 7.5t28.5 20.5t19 29.5t7 34.5q0 36 -25.5 63.5t-64.5 27.5h-152v150h154q52 0 96.5 -19t77 -51.5t51 -76.5t18.5 -94t-18.5 -94t-51 -76.5t-77 -51.5t-96.5 -19h-154v149z" />
    <glyph glyph-name="R.ss07" horiz-adv-x="546"
d="M67 423h172q32 0 53 20.5t21 49.5t-21 50t-53 21h-172v146h190q43 0 81.5 -16.5t67.5 -45.5t45.5 -67.5t16.5 -81.5q0 -67 -37.5 -120.5t-100.5 -77.5l231 -301h-191l-220 288h-83v135z" />
    <glyph glyph-name="T.ss07" horiz-adv-x="539"
d="M19 710h501v-158h-501v158z" />
    <glyph glyph-name="Y.ss07" horiz-adv-x="656"
d="M-15 710h187l155 -249l155 249h189l-263 -412h-160z" />
    <glyph glyph-name="A.ss08" horiz-adv-x="680"
d="M340 718l350 -718h-168l-51 110h-251v-286q0 -17 -9.5 -17t-9.5 17v269l-37 -80v-97q0 -17 -9.5 -17t-9.5 17v84h-155zM407 240l-67 148l-67 -148h134z" />
    <glyph glyph-name="C.ss08" horiz-adv-x="709"
d="M323 0q-62 13 -115 45.5t-91.5 79.5t-60.5 105.5t-22 124.5q0 75 28.5 141t78 115.5t115.5 78t141 28.5q92 0 169.5 -42t127.5 -112l-121 -99q-27 44 -73 71.5t-103 27.5h-9v-418h9q57 0 103 27.5t73 71.5l121 -99q-45 -63 -111 -103t-145 -48v-148q0 -17 -9.5 -17
t-9.5 17v146q-6 -1 -11.5 -1h-10.5q-2 0 -4.5 0.5t-4.5 0.5v-169q0 -17 -9.5 -17t-9.5 17v169q-7 1 -13.5 1.5t-13.5 2.5v-53q0 -17 -9.5 -17t-9.5 17v56zM195 355q0 -33 9.5 -63.5t26 -56t40 -45t52.5 -30.5v390q-29 -12 -52.5 -31.5t-40 -45t-26 -55.5t-9.5 -63zM342 153
q7 -2 13 -3t14 -2v414q-8 -2 -14 -3t-13 -3v-403z" />
    <glyph glyph-name="D.ss08" horiz-adv-x="711"
d="M67 710h249q75 0 141 -28t114.5 -76t77 -113t28.5 -138q0 -74 -28.5 -138.5t-77 -112.5t-114.5 -76t-141 -28h-123v-176q0 -17 -9.5 -17t-9.5 17v176h-20v-104q0 -17 -9.5 -17t-9.5 17v104h-68v710zM316 146q45 0 81.5 16.5t63 45t41 66.5t14.5 81t-14.5 81t-41 66.5
t-63 45t-81.5 16.5h-89v-418h89z" />
    <glyph glyph-name="E.ss08" horiz-adv-x="547"
d="M67 710h440v-158h-280v-120h220v-154h-220v-120h280v-158h-304v-153q0 -17 -9.5 -17t-9.5 17v153h-21v-112q0 -17 -9.5 -17t-9.5 17v112h-29v-176q0 -17 -9.5 -17t-9.5 17v176h-29v710z" />
    <glyph glyph-name="G.ss08" horiz-adv-x="729"
d="M397 -8q-75 0 -141 28.5t-115.5 78t-78 115.5t-28.5 141t28.5 141t78 115.5t115.5 78t141 28.5q92 0 163.5 -35t123.5 -99l-121 -99q-32 41 -70.5 60t-95.5 19q-43 0 -80 -16.5t-64 -45t-42.5 -66.5t-15.5 -81t15.5 -81t42.5 -66.5t64 -45t80 -16.5q15 0 29 1t28 3v130
h-11v-27q0 -17 -9.5 -17t-9.5 17v27h-15v-53q0 -17 -9.5 -17t-9.5 17v53h-27l68 150h258v-322q-42 -48 -96 -74.5t-120 -35.5v-174q0 -17 -9.5 -17t-9.5 17v171q-29 -3 -57 -3zM473 280v-126q34 7 61 27v99h-61z" />
    <glyph glyph-name="H.ss08" horiz-adv-x="738"
d="M67 710h160v-278h284v278h160v-710h-160v278h-133v-454q0 -17 -9.5 -17t-9.5 17v454h-31v-18q0 -17 -9.5 -17t-9.5 17v18h-82v-278h-27v-124q0 -17 -9.5 -17t-9.5 17v124h-23v-80q0 -17 -9.5 -17t-9.5 17v80h-72v710z" />
    <glyph glyph-name="M.ss08" horiz-adv-x="842"
d="M67 718l354 -355l354 355v-718h-160v348l-183 -183v-341q0 -17 -9.5 -17t-9.5 17v338l-11 11v-239q0 -17 -9.5 -17t-9.5 17v258l-15 15v-29q0 -17 -9.5 -17t-9.5 17v48l-122 122v-348h-160v718z" />
    <glyph glyph-name="N.ss08" horiz-adv-x="742"
d="M614 -119q0 -17 -9.5 -17t-9.5 17v178l-30 26v-261q0 -17 -9.5 -17t-9.5 17v277l-319 270v-371h-160v718l448 -379v371h160v-718l-61 51v-162v0z" />
    <glyph glyph-name="O.ss08" horiz-adv-x="794"
d="M582 43l-29 -16v-203q0 -17 -9.5 -17t-9.5 17v195q-65 -27 -137 -27q-38 0 -74.5 8t-69.5 22v-111q0 -17 -9.5 -17t-9.5 17v120q-45 22 -81.5 55.5t-63 75.5t-41 91t-14.5 102q0 75 28.5 141t78 115.5t115.5 78t141 28.5t141 -28.5t115.5 -78t78 -115.5t28.5 -141
q0 -47 -11.5 -90.5t-32.5 -82t-50 -71t-65 -56.5v-87q0 -17 -9.5 -17t-9.5 17v75zM397 146q43 0 80 16.5t64 45t42.5 66.5t15.5 81t-15.5 81t-42.5 66.5t-64 45t-80 16.5t-80 -16.5t-64 -45t-42.5 -66.5t-15.5 -81t15.5 -81t42.5 -66.5t64 -45t80 -16.5z" />
    <glyph glyph-name="Q.ss08" horiz-adv-x="814"
d="M697 17l-70 57q-48 -39 -106 -60.5t-124 -21.5q-60 0 -114.5 18.5t-99.5 51.5v-154q0 -17 -9.5 -17t-9.5 17v169q-60 50 -95 121.5t-35 156.5q0 75 28.5 141t78 115.5t115.5 78t141 28.5t141 -28.5t115.5 -78t78 -115.5t28.5 -141q0 -46 -11 -89t-31 -81l101 -81l-55 -68
v-68q0 -17 -9.5 -17t-9.5 17v45l-17 -21l-12 9v-177q0 -17 -9.5 -17t-9.5 17v193zM397 146q59 0 105 29l-108 88l91 111l104 -84q5 15 7.5 31.5t2.5 33.5q0 43 -15.5 81t-42.5 66.5t-64 45t-80 16.5t-80 -16.5t-64 -45t-42.5 -66.5t-15.5 -81t15.5 -81t42.5 -66.5t64 -45
t80 -16.5z" />
    <glyph glyph-name="R.ss08" horiz-adv-x="625"
d="M207 0h-24v-176q0 -17 -9.5 -17t-9.5 17v176h-97v710h268q43 0 81.5 -16.5t67.5 -45.5t45.5 -67.5t16.5 -81.5q0 -67 -37.5 -120.5t-99.5 -77.5l231 -301h-191l-220 288h-2v-288h-1v-36q0 -17 -9.5 -17t-9.5 17v36zM317 423q32 0 53 20.5t21 49.5t-21 50t-53 21h-90v-141
h90z" />
    <glyph glyph-name="S.ss08" horiz-adv-x="520"
d="M394 21l-24 -12v-96q0 -17 -9.5 -17t-9.5 17v90q-39 -11 -79 -11q-86 0 -150 34v-202q0 -17 -9.5 -17t-9.5 17v213q-55 35 -86 94l121 99q23 -37 58.5 -62.5t72.5 -25.5q68 0 68 51q0 24 -19 41.5t-64 37.5l-40 18q-81 36 -123.5 93.5t-42.5 129.5q0 46 18 84t48 65
t69 41.5t81 14.5q59 0 106.5 -18.5t92.5 -70.5l-108 -114q-27 33 -46.5 43t-44.5 10q-20 0 -37.5 -12.5t-17.5 -36.5q0 -28 23.5 -46t72.5 -40l38 -17q74 -33 114.5 -86t40.5 -127q0 -57 -22.5 -100t-62.5 -71v-68q0 -17 -9.5 -17t-9.5 17v57z" />
    <glyph glyph-name="U.ss08" horiz-adv-x="702"
d="M198 -40q0 -17 -9.5 -17t-9.5 17v82q-56 38 -87.5 101t-31.5 145v422h160v-424q0 -65 36 -102.5t95 -37.5t95 37.5t36 102.5v424h160v-422q0 -53 -13.5 -97.5t-37.5 -80.5v-166q0 -17 -9.5 -17t-9.5 17v142q-39 -45 -95.5 -69.5t-125.5 -24.5q-30 0 -57.5 5t-52.5 13
v-186q0 -17 -9.5 -17t-9.5 17v194q-6 2 -12.5 5.5t-11.5 6.5v-70v0z" />
    <glyph glyph-name="a.ss08" horiz-adv-x="594"
d="M403 -74q0 -17 -9.5 -17t-9.5 17v103q-22 -18 -50.5 -27.5t-59.5 -9.5q-56 0 -100.5 21t-76 56.5t-48.5 82.5t-17 98t17 98t48.5 82.5t76 56.5t100.5 21q31 0 59.5 -10t50.5 -28v30h151v-500h-92v-176q0 -17 -9.5 -17t-9.5 17v176h-21v-74zM299 130q53 0 85 41v157
q-16 20 -36.5 31t-48.5 11q-27 0 -48.5 -9.5t-36 -26t-22.5 -38t-8 -46.5t8 -46.5t22.5 -38t36 -26t48.5 -9.5z" />
    <glyph glyph-name="b.ss08" horiz-adv-x="594"
d="M59 710h151v-240q22 18 50.5 28t59.5 10q55 0 100 -21t76.5 -56.5t48.5 -82.5t17 -98t-16.5 -97t-47 -81t-74 -57t-97.5 -23v-64q0 -17 -9.5 -17t-9.5 17v64q-28 2 -53 11t-45 26v-29h-13v-176q0 -17 -9.5 -17t-9.5 17v176h-15v-112q0 -17 -9.5 -17t-9.5 17v112h-85v710z
M295 370q-54 0 -85 -42v-157q30 -41 85 -41q27 0 48.5 9.5t36 26t22.5 38t8 46.5t-8 46.5t-22.5 38t-36 26t-48.5 9.5z" />
    <glyph glyph-name="c.ss08" horiz-adv-x="522"
d="M276 -7q-52 3 -97 24t-78 55.5t-52 80t-19 97.5q0 53 20.5 100t55.5 82t82.5 55.5t101.5 20.5q69 0 126.5 -32t92.5 -86l-120 -85q-15 28 -40.5 45t-58.5 17q-47 0 -77.5 -32.5t-30.5 -84.5t30.5 -84.5t77.5 -32.5q33 0 58.5 17t40.5 45l120 -85q-26 -41 -66 -69.5
t-88 -40.5v-109q0 -17 -9.5 -17t-9.5 17v105q-3 0 -5.5 -0.5t-4.5 -0.5v-17q0 -17 -9.5 -17t-9.5 17v15q-4 -1 -12 -1v-168q0 -17 -9.5 -17t-9.5 17v169z" />
    <glyph glyph-name="e.ss08" horiz-adv-x="558"
d="M189 10q-34 14 -63 37t-50.5 53.5t-33.5 68t-12 81.5q0 55 18.5 102.5t52.5 82t81.5 54t105.5 19.5q48 0 91.5 -15.5t76.5 -46t53 -75.5t20 -104q0 -22 -3 -44h-52v-86l37 -25q-17 -26 -37 -46v-242q0 -17 -9.5 -17t-9.5 17v225q-34 -27 -77 -42t-93 -15q-8 0 -16.5 0.5
t-16.5 1.5v-147q0 -17 -9.5 -17t-9.5 17v151q-7 2 -13 3t-12 3v-128q0 -17 -9.5 -17t-9.5 17v134zM309 223h-134q3 -25 14 -42.5t26.5 -29t33.5 -16.5t35 -5q40 0 66 17.5t41 45.5l64 -43v73h-127v-38q0 -17 -9.5 -17t-9.5 17v38zM279 387q-14 0 -29.5 -3.5t-30 -12
t-26.5 -23.5t-17 -37h133v73q-15 3 -30 3zM380 311q-4 26 -18 42.5t-34 24.5v-67h52z" />
    <glyph glyph-name="f.ss08" horiz-adv-x="362"
d="M317 578h-21v-78h52v-132h-52v-544q0 -17 -9.5 -17t-9.5 17v544h-45v-368h-151v368h-65v132h73q-31 34 -31 83q0 27 9.5 50t27 40t42.5 27t56 10h155v-132h-12v-23q0 -17 -9.5 -17t-9.5 17v23zM201 539q0 -17 11 -28t28 -11h37v78h-27q-26 0 -37.5 -11t-11.5 -28z" />
    <glyph glyph-name="k.ss08" horiz-adv-x="561"
d="M474 -176q0 -17 -9.5 -17t-9.5 17v176h-60l-185 249v-373q0 -17 -9.5 -17t-9.5 17v124h-132v710h151v-438l163 228h174l-73 -102v-265l99 -133h-99v-176zM455 158v213l-78 -108z" />
    <glyph glyph-name="g.ss08" horiz-adv-x="583"
d="M282 166q56 0 90 42v120q-34 42 -90 42q-25 0 -44.5 -9t-32.5 -23t-20 -32.5t-7 -37.5t7 -37.5t20 -32.5t32.5 -23t44.5 -9zM197 36q-41 10 -73 33.5t-54 54.5t-33 68t-11 76q0 46 15.5 89t45.5 76.5t74 54t101 20.5q31 0 59.5 -10t50.5 -28v30h151v-403q11 -26 16 -50.5
t5 -47.5q0 -53 -22.5 -89.5t-59.5 -59.5t-84 -33.5t-96 -10.5q-57 0 -114 10.5t-111 45.5l68 133q30 -23 66.5 -37t80.5 -14q22 0 43 4t36.5 13.5t25 24.5t9.5 38q0 8 -2.5 19.5t-10.5 22.5q-17 -14 -39.5 -23.5t-46.5 -13.5v-48q0 -17 -9.5 -17t-9.5 17v47h-6
q-12 0 -23.5 1t-22.5 3v-16q0 -17 -9.5 -17t-9.5 17v20z" />
    <glyph glyph-name="i.ss08" horiz-adv-x="270"
d="M65 571q-20 23 -20 57q0 38 26 64t64 26t64 -26t26 -64q0 -34 -20 -57h-29v-71h34v-500h-34v-125q0 -17 -9.5 -17t-9.5 17v125h-31v-176q0 -17 -9.5 -17t-9.5 17v176h-48v500h98v71h-11v-16q0 -17 -9.5 -17t-9.5 17v16h-15v-42q0 -17 -9.5 -17t-9.5 17v42h-28v0z" />
    <glyph glyph-name="n.ss08"
d="M411 -74q0 -17 -9.5 -17t-9.5 17v326q0 50 -21.5 84t-70.5 34q-22 0 -46.5 -11t-43.5 -32v-503q0 -17 -9.5 -17t-9.5 17v176h-21v-74q0 -17 -9.5 -17t-9.5 17v74h-92v500h151v-31q47 39 115 39q53 0 93.5 -17t68.5 -47t42 -72t14 -93v-279h-132v-74v0z" />
    <glyph glyph-name="o.ss08" horiz-adv-x="580"
d="M290 -8q-54 0 -101.5 20.5t-82.5 55.5t-55.5 82t-20.5 100t20.5 100t55.5 82t82.5 55.5t101.5 20.5t101.5 -20.5t82.5 -55.5t55.5 -82t20.5 -100q0 -41 -12 -78t-33.5 -68t-51 -55t-65.5 -38v-187q0 -17 -9.5 -17t-9.5 17v180q-7 -2 -13.5 -3t-13.5 -3v-83
q0 -17 -9.5 -17t-9.5 17v79q-8 -1 -16.5 -1.5t-16.5 -0.5zM290 133q15 0 33 5v224q-18 5 -33 5q-47 0 -77.5 -32.5t-30.5 -84.5t30.5 -84.5t77.5 -32.5zM398 250q0 35 -15 62.5t-41 41.5v-208q26 14 41 41t15 63z" />
    <glyph glyph-name="s.ss08" horiz-adv-x="415"
d="M212 -176q0 -17 -9.5 -17t-9.5 17v168q-7 0 -17 2v-54q0 -17 -9.5 -17t-9.5 17v56q-5 1 -9 1.5t-9 2.5v-109q0 -17 -9.5 -17t-9.5 17v113q-36 12 -65 35t-49 59l115 78q8 -14 16.5 -25t19.5 -19v62q-126 52 -126 159q0 34 13.5 63t36.5 49t54.5 31.5t67.5 11.5
q48 0 88.5 -18.5t69.5 -60.5l-86 -85q-14 20 -31.5 32.5t-40.5 12.5q-15 0 -25.5 -5.5t-10.5 -17.5q0 -15 14 -23t52 -22l21 -8q72 -27 103 -66.5t31 -95.5q0 -38 -13.5 -67t-37.5 -49.5t-56 -31t-69 -11.5v-168zM176 187v-65q15 -7 37 -7q16 0 27.5 4.5t11.5 18.5t-13 22
t-50 22z" />
    <glyph glyph-name="t.ss08" horiz-adv-x="412"
d="M309 368h-18v-33q0 -17 -9.5 -17t-9.5 17v33h-35v-171q0 -32 13.5 -45.5t44.5 -13.5h82v-138h-138q-26 0 -43 4v-180q0 -17 -9.5 -17t-9.5 17v186q-11 3 -18 8v-96q0 -17 -9.5 -17t-9.5 17v108q-54 40 -54 124v214h-65l-33 132h98v75l151 75v-150h158l-33 -132h-34v-183
q0 -17 -9.5 -17t-9.5 17v183z" />
    <glyph glyph-name="w.ss08" horiz-adv-x="730"
d="M0 500h159l83 -281l123 289l123 -289l83 281h159l-159 -500h-115l-44 99v-184q0 -17 -9.5 -17t-9.5 17v227l-28 63l-91 -205h-12v-36q0 -17 -9.5 -17t-9.5 17v36h-31v-176q0 -17 -9.5 -17t-9.5 17v176h-34z" />
    <glyph glyph-name="z.ss08" horiz-adv-x="513"
d="M124 0h-20v-176q0 -17 -9.5 -17t-9.5 17v176h-73l232 370h-202v130h454l-231 -369h216v-131h-70v-41q0 -17 -9.5 -17t-9.5 17v41h-249v-101q0 -17 -9.5 -17t-9.5 17v101z" />
    <glyph glyph-name="A.ss09" horiz-adv-x="680"
d="M572 198h-465l-96 -198h-21l350 718l350 -718h-21zM182 352h315l-157 323z" />
    <glyph glyph-name="D.ss09" horiz-adv-x="711"
d="M316 146q45 0 81.5 16.5t63 45t41 66.5t14.5 81t-14.5 81t-41 66.5t-63 45t-81.5 16.5h-230v-418h230zM67 710h249q75 0 141 -28t114.5 -76t77 -113t28.5 -138q0 -74 -28.5 -138.5t-77 -112.5t-114.5 -76t-141 -28h-249v710z" />
    <glyph glyph-name="F.ss09" horiz-adv-x="517"
d="M67 710h420v-158h-401v-120h341v-154h-341v-278h-19v710z" />
    <glyph glyph-name="H.ss09" horiz-adv-x="708"
d="M67 710h19v-278h536v278h19v-710h-19v278h-536v-278h-19v710z" />
    <glyph glyph-name="K.ss09" horiz-adv-x="650"
d="M88 343l520 367h30l-410 -290l442 -420h-218zM67 710h19v-710h-19v710z" />
    <glyph glyph-name="M.ss09" horiz-adv-x="842"
d="M67 718l354 -355l354 355v-718h-160v348l-194 -194v182l-335 337v-673h-19v718z" />
    <glyph glyph-name="N.ss09" horiz-adv-x="742"
d="M86 668v-668h-19v718l448 -514v506h160v-718z" />
    <glyph glyph-name="Q.ss09" horiz-adv-x="803"
d="M397 -8q-75 0 -141 28.5t-115.5 78t-78 115.5t-28.5 141t28.5 141t78 115.5t115.5 78t141 28.5t141 -28.5t115.5 -78t78 -115.5t28.5 -141t-28 -140.5t-77 -114.5l116 -95l-12 -15l-118 96q-49 -44 -111 -69t-133 -25zM397 146q35 0 65.5 10.5t55.5 30.5l-115 95l12 14
l118 -97q31 29 48.5 69.5t17.5 86.5q0 43 -15.5 81t-42.5 66.5t-64 45t-80 16.5t-80 -16.5t-64 -45t-42.5 -66.5t-15.5 -81t15.5 -81t42.5 -66.5t64 -45t80 -16.5z" />
    <glyph glyph-name="R.ss09" horiz-adv-x="625"
d="M86 423v-423h-19v710h268q43 0 81.5 -16.5t67.5 -45.5t45.5 -67.5t16.5 -81.5q0 -37 -12 -70.5t-34 -60.5t-52 -46.5t-67 -28.5l259 -293h-191zM86 423h231q32 0 53 20.5t21 49.5t-21 50t-53 21h-231v-141z" />
    <glyph glyph-name="T.ss09" horiz-adv-x="583"
d="M282 691h-282v19h583v-19h-282v-691h-19v691z" />
    <glyph glyph-name="V.ss09" horiz-adv-x="604"
d="M-10 710h21l291 -670l291 670h21l-312 -718z" />
    <glyph glyph-name="W.ss09" horiz-adv-x="877"
d="M679 205l172 505h21l-246 -718l-187 409l-188 -409l-246 718h21l172 -505l241 513z" />
    <glyph glyph-name="X.ss09" horiz-adv-x="674"
d="M288 300l-263 -300h-25l277 316l-262 394h185l182 -273l240 273h25l-254 -290l281 -420h-186z" />
    <glyph glyph-name="Y.ss09" horiz-adv-x="656"
d="M323 268l-338 442h187l242 -316l234 316h23l-329 -442v-268h-19v268z" />
    <glyph glyph-name="Z.ss09" horiz-adv-x="624"
d="M457 552h-407v158h560l-449 -552h428v-158h-581z" />
    <glyph glyph-name="H.ss10" horiz-adv-x="740"
d="M110 159l-96 196l96 196l-96 159h172l96 -159l-59 -119h272l59 119l-96 159h172l96 -159l-96 -196l95 -196l-96 -159h-171l96 159l-59 119h-272l58 -119l-96 -159h-171z" />
    <glyph glyph-name="I.ss10" horiz-adv-x="296"
d="M110 159l-96 196l96 196l-96 159h172l96 -159l-96 -196l95 -196l-96 -159h-171z" />
    <glyph glyph-name="i.ss10" horiz-adv-x="275"
d="M169 355l100 -196l-101 -159h-162l101 159l-100 196l74 145h162zM92 571q-20 23 -20 57q0 38 26 64t64 26t64 -26t26 -64q0 -34 -20 -57h-140z" />
    <glyph glyph-name="l.ss10" horiz-adv-x="275"
d="M169 355l100 -196l-101 -159h-162l101 159l-100 196l100 196l-101 159h162l101 -159z" />
    <glyph glyph-name="A.ss11" horiz-adv-x="680"
d="M470 110h-261l-51 -110h-168l53 110h-53v130h117l233 478l233 -478h117v-130h-54l54 -110h-168zM270 240h139l-69 148z" />
    <glyph glyph-name="C.ss11" horiz-adv-x="734"
d="M397 -8q-75 0 -141 28.5t-115.5 78t-78 115.5t-28.5 141t28.5 141t78 115.5t115.5 78t141 28.5q92 0 169.5 -42t127.5 -112v-239h-160v186q-27 24 -62 38.5t-75 14.5q-43 0 -80 -16.5t-64 -45t-42.5 -66.5t-15.5 -81t15.5 -81t42.5 -66.5t64 -45t80 -16.5q57 0 103 27.5
t73 71.5l121 -99q-50 -70 -127.5 -112t-169.5 -42z" />
    <glyph glyph-name="F.ss11" horiz-adv-x="601"
d="M67 710h500v-239h-160v81h-180v-120h200v-154h-200v-278h-160v710z" />
    </font>
</defs>
</svg>
